# Blender v2.79 (sub 0) OBJ File: 'WoodenCrate_Will.blend'
# www.blender.org
mtllib WoodenCrate_Will.mtl
o Cube.000_Cube.003
v 42.911419 -43.602844 -5.900169
v -44.709057 -43.602844 -5.900169
v -44.709049 44.017643 -5.900169
v 42.911438 44.017624 -5.900169
v 42.911396 -43.602863 81.720306
v -44.709084 -43.602814 81.720306
v -44.709042 44.017654 81.720306
v 42.911423 44.017632 81.720306
v 42.911423 -29.596949 -5.900169
v -44.709053 -29.596947 -5.900169
v 42.911404 -29.596964 81.720306
v -44.709076 -29.596920 81.720306
v 42.911404 -43.602859 68.120338
v -44.709076 -43.602818 68.120338
v -44.709045 44.017654 68.120338
v 42.911423 44.017632 68.120338
v 42.911407 -29.596962 68.120338
v -44.709072 -29.596926 68.120338
v 42.911434 30.649496 -5.900169
v -44.709049 30.649511 -5.900169
v 42.911419 30.649502 81.720306
v -44.709045 30.649527 81.720306
v 42.911423 30.649502 68.120338
v -44.709049 30.649525 68.120338
v -44.709057 -29.596945 7.213476
v 42.911411 -43.602848 7.213476
v -44.709061 -43.602837 7.213476
v -44.709049 44.017643 7.213476
v 42.911434 44.017624 7.213476
v 42.911423 -29.596952 7.213476
v -44.709049 30.649513 7.213476
v 42.911434 30.649496 7.213476
v -29.212183 -43.602844 -5.900169
v -29.212173 44.017639 -5.900169
v -29.212210 -43.602821 81.720306
v -29.212172 44.017647 81.720306
v -29.212202 -29.596930 81.720306
v -29.212181 -29.596947 -5.900169
v -29.212173 44.017647 68.120338
v -29.212204 -43.602821 68.120338
v -29.212175 30.649521 81.720306
v -29.212175 30.649509 -5.900169
v -29.212187 -43.602837 7.213476
v -29.212175 44.017639 7.213476
v 28.259357 44.017624 -5.900169
v 28.259344 44.017639 81.720306
v 28.259342 -29.596949 -5.900169
v 28.259344 44.017632 68.120338
v 28.259352 30.649498 -5.900169
v 28.259352 44.017628 7.213476
v 28.259336 -43.602844 -5.900169
v 28.259315 -43.602856 81.720306
v 28.259321 -29.596956 81.720306
v 28.259321 -43.602856 68.120338
v 28.259338 30.649506 81.720306
v 28.259331 -43.602848 7.213476
v -29.212202 -29.596930 80.024216
v -29.212175 30.649521 80.024216
v 28.259321 -29.596956 80.024216
v 28.259338 30.649506 80.024216
v -43.198334 -29.596926 68.120338
v -43.198311 30.649525 68.120338
v -43.198318 -29.596945 7.213476
v -43.198311 30.649513 7.213476
v -29.212204 -42.273739 68.120338
v -29.212187 -42.273754 7.213476
v 28.259321 -42.273769 68.120338
v 28.259331 -42.273762 7.213476
v 41.512688 -29.596962 68.120338
v 41.512711 30.649502 68.120338
v 41.512711 -29.596952 7.213476
v 41.512722 30.649496 7.213476
v -29.212173 42.612499 68.120338
v -29.212175 42.612488 7.213476
v 28.259344 42.612488 68.120338
v 28.259352 42.612480 7.213476
v -29.212181 -29.596947 -4.564732
v -29.212175 30.649509 -4.564732
v 28.259342 -29.596949 -4.564732
v 28.259352 30.649498 -4.564732
v -44.709057 -43.602844 -5.900169
v -44.709049 44.017643 -5.900169
v -44.709053 -29.596947 -5.900169
v -44.709049 30.649511 -5.900169
v -44.709057 -29.596945 7.213476
v -44.709061 -43.602837 7.213476
v -44.709049 44.017643 7.213476
v -44.709049 30.649513 7.213476
v 42.911419 -43.602844 -5.900169
v -44.709057 -43.602844 -5.900169
v -44.709049 44.017643 -5.900169
v 42.911438 44.017624 -5.900169
v 42.911396 -43.602863 81.720306
v -44.709084 -43.602814 81.720306
v -44.709042 44.017654 81.720306
v 42.911423 44.017632 81.720306
v 42.911423 -29.596949 -5.900169
v -44.709053 -29.596947 -5.900169
v 42.911404 -29.596964 81.720306
v -44.709076 -29.596920 81.720306
v 42.911404 -43.602859 68.120338
v -44.709076 -43.602818 68.120338
v -44.709045 44.017654 68.120338
v 42.911423 44.017632 68.120338
v 42.911407 -29.596962 68.120338
v -44.709072 -29.596926 68.120338
v 42.911434 30.649496 -5.900169
v -44.709049 30.649511 -5.900169
v 42.911419 30.649502 81.720306
v -44.709045 30.649527 81.720306
v 42.911423 30.649502 68.120338
v -44.709049 30.649525 68.120338
v -44.709057 -29.596945 7.213476
v 42.911411 -43.602848 7.213476
v -44.709061 -43.602837 7.213476
v -44.709049 44.017643 7.213476
v 42.911434 44.017624 7.213476
v 42.911423 -29.596952 7.213476
v -44.709049 30.649513 7.213476
v 42.911434 30.649496 7.213476
v -29.212183 -43.602844 -5.900169
v -29.212173 44.017639 -5.900169
v -29.212210 -43.602821 81.720306
v -29.212172 44.017647 81.720306
v -29.212202 -29.596930 81.720306
v -29.212181 -29.596947 -5.900169
v -29.212173 44.017647 68.120338
v -29.212204 -43.602821 68.120338
v -29.212175 30.649521 81.720306
v -29.212175 30.649509 -5.900169
v -29.212187 -43.602837 7.213476
v -29.212175 44.017639 7.213476
v 28.259357 44.017624 -5.900169
v 28.259344 44.017639 81.720306
v 28.259342 -29.596949 -5.900169
v 28.259344 44.017632 68.120338
v 28.259352 30.649498 -5.900169
v 28.259352 44.017628 7.213476
v 28.259336 -43.602844 -5.900169
v 28.259315 -43.602856 81.720306
v 28.259321 -29.596956 81.720306
v 28.259321 -43.602856 68.120338
v 28.259338 30.649506 81.720306
v 28.259331 -43.602848 7.213476
v -29.212202 -29.596930 80.024216
v -29.212175 30.649521 80.024216
v 28.259321 -29.596956 80.024216
v 28.259338 30.649506 80.024216
v -43.198334 -29.596926 68.120338
v -43.198311 30.649525 68.120338
v -43.198318 -29.596945 7.213476
v -43.198311 30.649513 7.213476
v -29.212204 -42.273739 68.120338
v -29.212187 -42.273754 7.213476
v 28.259321 -42.273769 68.120338
v 28.259331 -42.273762 7.213476
v 41.512688 -29.596962 68.120338
v 41.512711 30.649502 68.120338
v 41.512711 -29.596952 7.213476
v 41.512722 30.649496 7.213476
v -29.212173 42.612499 68.120338
v -29.212175 42.612488 7.213476
v 28.259344 42.612488 68.120338
v 28.259352 42.612480 7.213476
v -29.212181 -29.596947 -4.564732
v -29.212175 30.649509 -4.564732
v 28.259342 -29.596949 -4.564732
v 28.259352 30.649498 -4.564732
v -44.709057 -43.602844 -5.900169
v -44.709049 44.017643 -5.900169
v -44.709053 -29.596947 -5.900169
v -44.709049 30.649511 -5.900169
v -44.709057 -29.596945 7.213476
v -44.709061 -43.602837 7.213476
v -44.709049 44.017643 7.213476
v -44.709049 30.649513 7.213476
v -44.709045 44.017654 68.120338
v -44.709049 44.017643 7.213476
v -44.709042 44.017654 81.720306
v 42.911423 44.017632 81.720306
v -29.212172 44.017647 81.720306
v 28.259344 44.017639 81.720306
v -44.709045 44.017654 68.120338
v 42.911423 44.017632 68.120338
v -29.212173 44.017647 68.120338
v 28.259344 44.017632 68.120338
v 28.259321 -29.596956 80.024216
v -29.212202 -29.596930 80.024216
v 28.259338 30.649506 80.024216
v -29.212175 30.649521 80.024216
v 28.259344 44.017632 68.120338
v 42.911423 44.017632 68.120338
v -44.709045 44.017654 68.120338
v -29.212173 44.017647 68.120338
v -29.212181 -29.596947 -4.564732
v -29.212175 30.649509 -4.564732
v 28.259342 -29.596949 -4.564732
v 28.259352 30.649498 -4.564732
v -44.709049 44.017643 7.213476
v 42.911434 44.017624 7.213476
v -29.212175 44.017639 7.213476
v 28.259352 44.017628 7.213476
v 42.911404 -29.596964 81.720306
v -44.709076 -29.596920 81.720306
v -29.212202 -29.596930 81.720306
v 28.259321 -29.596956 81.720306
v 42.911438 44.017624 -5.900169
v 42.911423 44.017632 81.720306
v 42.911423 44.017632 68.120338
v 42.911434 44.017624 7.213476
v 43.108303 -43.646156 -5.900349
v 43.108280 -43.646175 81.720131
v 43.108288 -43.646172 68.120155
v 43.108299 -43.646160 7.213297
v -29.212181 -29.596947 -5.900169
v -29.212175 30.649509 -5.900169
v 28.259352 44.017628 7.213476
v 28.259352 42.612480 7.213476
vt -0.442594 1.440052
vt -0.463706 1.440119
vt -0.468323 1.426121
vt -0.451025 1.424281
vt -0.667681 1.599896
vt -0.784292 1.593896
vt -0.973929 1.494889
vt -0.712761 1.518689
vt -0.278760 1.520270
vt -0.260763 1.480498
vt -0.230745 1.587924
vt -0.289596 1.570634
vt 0.603470 1.045300
vt 0.570104 1.045300
vt 0.567587 1.013162
vt 0.603470 1.011355
vt -0.457564 1.501510
vt -0.425215 1.503611
vt -0.427863 1.512925
vt -0.450369 1.515604
vt -0.390889 1.484773
vt -0.405175 1.482786
vt -0.402634 1.478974
vt -0.394271 1.479588
vt -0.300453 1.496932
vt -0.306358 1.496244
vt -0.316852 1.493607
vt -0.309223 1.493406
vt 0.788798 1.045300
vt 0.753841 1.045300
vt 0.753841 1.011355
vt 0.788798 1.011355
vt -0.238315 1.652803
vt -0.326427 1.621456
vt -0.344485 1.468614
vt -0.356419 1.461792
vt -0.355226 1.452896
vt -0.345327 1.461424
vt -0.340928 1.463559
vt -0.359646 1.457518
vt -0.308707 1.394332
vt -0.120571 1.549371
vt -0.172363 1.537992
vt -0.198133 1.530369
vt -0.158713 1.533388
vt -0.410848 1.519637
vt -0.395912 1.512093
vt -0.419084 1.476195
vt -0.479597 1.424657
vt -0.485906 1.423882
vt -0.704974 1.354416
vt -0.587998 1.314834
vt -0.332690 1.474001
vt -0.346913 1.463582
vt -0.342162 1.459939
vt -0.358584 1.459436
vt -0.409244 1.473772
vt -0.356249 1.450257
vt -0.485219 1.437890
vt -0.311403 1.489051
vt -0.298252 1.495117
vt -0.654857 1.447681
vt -0.325626 1.486980
vt -0.164262 1.543588
vt -0.206046 1.546753
vt -0.183322 1.533693
vt -0.434184 1.526094
vt -0.399141 1.474047
vt -0.345786 1.662164
vt -0.240443 1.541781
vt -0.604970 1.605151
vt -0.443139 1.485218
vt -0.493787 1.441859
vt -0.366007 1.464919
vt -0.541770 1.319119
vt -0.334394 1.365476
vt -0.213093 1.529470
vt -0.265525 1.498901
vt -0.318176 1.480179
vt -0.296222 1.514591
vt -0.381865 1.479251
vt -0.375269 1.533659
vt -0.235491 1.534178
vt -0.298666 1.476370
vt -0.482592 1.518766
vt -0.425941 1.470762
vt -0.493001 1.416682
vt -0.615174 1.456930
vt -0.337478 1.486996
vt -0.357309 1.448759
vt -0.427571 1.442234
vt -0.401415 1.484871
vt 0.754960 1.083661
vt 0.604590 1.083661
vt 0.604590 1.050931
vt 0.754960 1.050931
vt 0.571224 1.083661
vt 0.571224 1.050931
vt 0.789918 1.083661
vt 0.789918 1.050931
vt -0.469565 1.418224
vt -0.482529 1.423893
vt -0.459786 1.429007
vt -0.470193 1.430004
vt -0.311640 0.232427
vt -0.074178 0.383678
vt -0.394264 0.156270
vt -0.314237 0.160488
vt 0.130990 1.152487
vt 0.130990 1.233610
vt 0.036948 1.233610
vt 0.036948 1.152487
vt 0.463702 1.157377
vt 0.463702 1.076029
vt 0.556396 1.076029
vt 0.556396 1.157377
vt 0.120712 0.459468
vt 0.120686 0.538777
vt 0.046358 0.538751
vt 0.046384 0.459443
vt 0.449152 1.078561
vt 0.449152 0.998814
vt 0.535068 0.998814
vt 0.535068 1.078561
vt 0.122935 0.534591
vt 0.120279 0.614975
vt 0.043304 0.614764
vt 0.044729 0.533150
vt 0.542742 0.536041
vt 0.543777 0.616425
vt 0.479503 0.615006
vt 0.480314 0.537698
vt 0.532933 0.461144
vt 0.532907 0.540453
vt 0.455661 0.538892
vt 0.455687 0.459584
vt 0.133327 0.689830
vt 0.133300 0.769669
vt 0.044962 0.769638
vt 0.044990 0.689800
vt -0.312552 0.460382
vt -0.548217 0.460894
vt -0.621192 0.386523
vt -0.316770 0.388301
vt -0.440518 0.532106
vt -0.895921 0.537049
vt -0.890818 0.460179
vt -0.648338 0.456771
vt 0.546028 0.615180
vt 0.546028 0.692671
vt 0.466224 0.692671
vt 0.466224 0.615180
vt 0.122949 0.615180
vt 0.122949 0.692671
vt 0.046780 0.692671
vt 0.046780 0.615180
vt 0.515281 -0.074961
vt 0.835781 -0.076758
vt 0.836214 0.000343
vt 0.515714 0.002140
vt -0.657056 0.146014
vt -0.755477 0.141002
vt -0.764005 0.079800
vt -0.655180 0.078569
vt 0.259299 0.075322
vt 0.568940 0.075006
vt 0.569658 0.153784
vt 0.260017 0.154100
vt 0.991989 0.539169
vt 0.709466 0.539169
vt 0.709466 0.466497
vt 0.991989 0.466497
vt -0.328488 0.447645
vt -0.062063 0.449010
vt -0.627667 0.452694
vt -0.573511 0.339390
vt -0.358755 0.475738
vt -0.365004 0.536175
vt -0.453620 0.348184
vt -0.230359 0.153287
vt -0.222556 0.077582
vt -0.144829 0.076173
vt -0.147075 0.154147
vt -0.614379 0.377831
vt 0.575354 0.078251
vt 0.906260 0.079286
vt 0.906022 0.155380
vt 0.575116 0.154345
vt 0.795276 0.308087
vt 0.491115 0.307999
vt 0.491135 0.241241
vt 0.795295 0.241329
vt -0.344396 0.073897
vt -0.344227 0.153057
vt -0.093107 0.481264
vt -0.083916 0.536991
vt 0.500479 0.161492
vt 0.783214 0.161022
vt 0.783333 0.232960
vt 0.500599 0.233429
vt -0.146040 0.462928
vt -0.134176 0.384731
vt 0.460934 0.689944
vt 0.460907 0.769782
vt 0.021282 1.078561
vt 0.021282 0.998814
vt 0.115593 0.998814
vt 0.112152 1.078561
vt 0.119938 1.157377
vt 0.119939 1.076029
vt 0.479751 1.152487
vt 0.479751 1.233610
vt -0.139052 0.232890
vt -0.143602 0.158509
vt 0.123787 0.235045
vt 0.121190 0.157734
vt 0.568666 1.152487
vt 0.568666 1.233610
vt 0.032298 1.157377
vt 0.032298 1.076029
vt 0.544456 0.689973
vt 0.544429 0.769811
vt 0.096973 0.464007
vt 0.094042 0.383186
vt 0.834935 -0.080755
vt 0.526682 -0.079987
vt 0.526497 -0.154142
vt 0.834750 -0.154910
vt 0.786409 0.383429
vt 0.474490 0.383429
vt 0.474489 0.307569
vt 0.786408 0.307569
vt 0.786028 0.387829
vt 0.786028 0.462467
vt 0.479132 0.462467
vt 0.479131 0.387829
vt -0.010539 0.482047
vt -0.013082 0.534658
vt -1.451280 -0.918549
vt 0.410396 -0.906226
vt 0.408120 -0.898242
vt -1.462808 -0.889914
vt -0.627221 -0.862443
vt -1.005094 -0.876395
vt -0.603244 -0.888491
vt 0.398272 -0.891198
vt -0.243798 -0.878423
vt -0.243414 -0.891464
vt -0.247452 -0.879158
vt -0.598873 -0.878842
vt -0.794232 0.426783
vt -0.798873 0.164607
vt 0.685986 0.957024
vt 0.435729 0.953556
vt 0.435815 0.947348
vt 0.686072 0.950816
vt 0.910858 0.561236
vt 0.760483 0.561236
vt 0.760483 0.557466
vt 0.910858 0.557466
vt 0.964834 0.688858
vt 0.593314 0.686494
vt 0.593373 0.677279
vt 0.964892 0.679643
vt 0.903929 0.582821
vt 0.760483 0.582821
vt 0.760483 0.579503
vt 0.903929 0.579503
vt 1.189453 0.955039
vt 0.939202 0.951572
vt 0.939278 0.946111
vt 1.189529 0.949577
vt 0.760483 0.575173
vt 0.903929 0.575173
vt 0.903929 0.578490
vt 0.760483 0.578490
vt 0.663906 0.780184
vt 0.980173 0.777812
vt 0.980224 0.784714
vt 0.663958 0.787086
vt 0.687610 0.942337
vt 0.937863 0.945805
vt 0.937784 0.951552
vt 0.687531 0.948085
vt 0.760483 0.562098
vt 0.910856 0.562098
vt 0.910856 0.565589
vt 0.760483 0.565589
vt 0.910856 0.569942
vt 0.760483 0.569942
vt 0.760483 0.566451
vt 0.910856 0.566451
vt 0.686089 0.949397
vt 0.435835 0.945930
vt 0.435915 0.940183
vt 0.686168 0.943650
vt 0.434347 0.950916
vt 0.184089 0.947448
vt 0.184028 0.951802
vt 0.434287 0.955270
vt 0.678331 0.891302
vt 0.534889 0.891302
vt 0.534889 0.887795
vt 0.678331 0.887795
vt 0.760483 0.570804
vt 0.903932 0.570804
vt 0.903932 0.574311
vt 0.760483 0.574311
vt 0.663971 0.788879
vt 0.980247 0.786507
vt 0.980302 0.793804
vt 0.664026 0.796176
vt -0.199836 0.355651
vt -0.321761 0.342287
vt -0.321451 0.339454
vt -0.199526 0.352818
vt -0.312070 0.230170
vt -0.196250 0.226104
vt -0.196717 0.352828
vt -0.199059 0.226094
vt -0.320673 0.209898
vt -0.198748 0.223261
vt 1.370935 -0.241506
vt 1.370935 -0.535083
vt 1.647952 -0.535083
vt 1.647952 -0.241507
vt -0.319146 0.337026
vt -0.202280 0.350295
vt 1.676087 -0.237514
vt 1.676867 -0.541551
vt 1.963755 -0.540816
vt 1.962976 -0.236779
vt 0.685679 -0.232864
vt 0.377916 -0.232864
vt 0.377916 -0.537291
vt 0.685679 -0.537291
vt 0.519472 0.973480
vt 0.419654 0.974642
vt 0.419644 0.976384
vt 0.519477 0.975222
vt 1.004229 -0.236008
vt 0.703673 -0.236474
vt 0.704133 -0.533772
vt 1.004690 -0.533306
vt 0.478793 0.769742
vt 0.478793 0.845624
vt 0.130177 0.845624
vt 0.130177 0.769742
vt 0.052823 0.845624
vt 0.052823 0.769742
vt 0.559838 0.769742
vt 0.559838 0.845624
vt -0.433516 0.212355
vt -0.600787 0.158696
vt -0.454842 0.222241
vt -0.393915 0.213410
vt 0.486233 1.229228
vt 0.807408 1.227409
vt 0.807440 1.233014
vt 0.486265 1.234833
vt 0.419627 0.968561
vt 0.319813 0.967690
vt 0.319828 0.965948
vt 0.419642 0.966819
vt 0.219998 0.966820
vt 0.220013 0.965078
vt 0.519441 0.968561
vt 0.519472 0.966819
vt 0.419634 0.979858
vt 0.319816 0.979278
vt 0.319826 0.977535
vt 0.419644 0.978116
vt 0.220003 0.980439
vt 0.219998 0.978697
vt 0.519452 0.980439
vt 0.519462 0.978697
vt 0.369899 -0.541356
vt 0.369899 -0.229492
vt 0.042976 -0.229492
vt 0.042976 -0.541356
vt -1.465270 -0.926105
vt -0.600280 -0.895178
vt 0.389650 -0.906263
vt 0.220023 0.973480
vt 0.319834 0.974932
vt 0.319808 0.976674
vt 0.219998 0.975222
vt -0.243480 -0.901104
vt 1.346309 -0.533132
vt 1.345924 -0.240163
vt 1.038809 -0.240566
vt 1.039194 -0.533536
vt -0.201363 0.228522
vt -0.318230 0.215253
vt 0.319821 0.971453
vt 0.419641 0.971165
vt 0.419667 0.969423
vt 0.319831 0.969711
vt 0.220003 0.972612
vt 0.219998 0.970870
vt 0.519452 0.972618
vt 0.519477 0.970877
vt 0.519441 0.983043
vt 0.419627 0.983043
vt 0.419627 0.981301
vt 0.519441 0.981301
vt 0.319813 0.983043
vt 0.319813 0.981301
vt 0.219998 0.983043
vt 0.219998 0.981301
vt 0.687457 0.955239
vt 0.851789 0.954648
vt 0.851829 0.951780
vt 0.687471 0.952371
vt 0.997899 0.955153
vt 0.997939 0.952285
vt 1.162217 0.957430
vt 1.162257 0.954562
vt 0.736699 1.234954
vt 0.807440 1.234348
vt 0.807454 1.235582
vt 0.736713 1.236188
vt 0.665950 1.235146
vt 0.665964 1.236381
vt 0.595208 1.235721
vt 0.595222 1.236955
vt -0.848480 0.759522
vt -0.843678 0.759522
vt -0.843678 0.759606
vt -0.848480 0.759606
vn 0.0000 0.0000 1.0000
vn 0.0000 0.0000 -1.0000
vn 0.0000 1.0000 -0.0000
vn 1.0000 0.0000 -0.0000
vn -0.0000 -1.0000 0.0000
vn -1.0000 0.0000 -0.0000
vn -0.2149 -0.9766 -0.0000
usemtl Material
s off
f 42/1/1 34/2/1 3/3/1 20/4/1
f 41/5/2 22/6/2 7/7/2 36/8/2
f 40/9/3 14/10/3 6/11/3 35/12/3
f 24/13/4 15/14/4 7/15/4 22/16/4
f 48/17/5 16/18/5 8/19/5 46/20/5
f 32/21/6 29/22/6 4/23/6 19/24/6
f 26/25/6 30/26/6 9/27/6 1/28/6
f 14/29/4 18/30/4 12/31/4 6/32/4
f 35/12/2 6/11/2 12/33/2 37/34/2
f 33/35/1 38/36/1 10/37/1 2/38/1
f 27/39/4 25/40/4 18/41/4 14/10/4
f 5/42/6 11/43/6 17/44/6 13/45/6
f 21/46/6 8/19/6 16/18/6 23/47/6
f 50/48/5 29/22/5 16/18/5 48/17/5
f 31/49/4 28/50/4 15/51/4 24/52/4
f 43/53/3 27/39/3 14/10/3 40/9/3
f 11/43/6 21/46/6 23/47/6 17/44/6
f 30/26/6 32/21/6 19/24/6 9/27/6
f 18/30/4 24/13/4 22/16/4 12/31/4
f 37/34/2 12/33/2 22/6/2 41/5/2
f 38/36/1 42/1/1 20/4/1 10/37/1
f 2/38/1 81/54/1 86/55/1 27/39/1
f 33/35/3 2/38/3 27/39/3 43/53/3
f 10/37/1 83/56/1 81/54/1 2/38/1
f 45/57/5 4/23/5 29/22/5 50/48/5
f 27/39/1 86/55/1 85/58/1 25/40/1
f 13/45/6 17/44/6 30/26/6 26/25/6
f 23/47/6 16/18/6 29/22/6 32/21/6
f 3/3/5 34/2/5 44/59/5 28/50/5
f 51/60/3 33/35/3 43/53/3 56/61/3
f 28/50/5 44/59/5 39/62/5 15/51/5
f 51/60/1 47/63/1 38/36/1 33/35/1
f 52/64/2 35/12/2 37/34/2 53/65/2
f 15/51/5 39/62/5 36/8/5 7/7/5
f 54/66/3 40/9/3 35/12/3 52/64/3
f 55/67/2 41/5/2 36/8/2 46/20/2
f 49/68/1 45/57/1 34/2/1 42/1/1
f 19/24/1 4/23/1 45/57/1 49/68/1
f 21/46/2 55/67/2 46/20/2 8/19/2
f 13/45/3 54/66/3 52/64/3 5/42/3
f 5/42/2 52/64/2 53/65/2 11/43/2
f 1/28/1 9/27/1 47/63/1 51/60/1
f 26/25/3 56/61/3 54/66/3 13/45/3
f 11/43/2 53/65/2 55/67/2 21/46/2
f 9/27/1 19/24/1 49/68/1 47/63/1
f 1/28/3 51/60/3 56/61/3 26/25/3
f 34/2/5 45/57/5 50/48/5 44/59/5
f 39/62/5 48/17/5 46/20/5 36/8/5
f 37/34/5 57/69/5 59/70/5 53/65/5
f 41/5/6 58/71/6 57/69/6 37/34/6
f 53/65/4 59/70/4 60/72/4 55/67/4
f 55/67/3 60/72/3 58/71/3 41/5/3
f 31/49/2 64/73/2 63/74/2 25/40/2
f 24/52/3 62/75/3 64/73/3 31/49/3
f 18/41/1 61/76/1 62/75/1 24/52/1
f 25/40/5 63/74/5 61/76/5 18/41/5
f 54/66/1 67/77/1 65/78/1 40/9/1
f 40/9/6 65/78/6 66/79/6 43/53/6
f 43/53/2 66/79/2 68/80/2 56/61/2
f 56/61/4 68/80/4 67/77/4 54/66/4
f 32/21/3 72/81/3 70/82/3 23/47/3
f 23/47/1 70/82/1 69/83/1 17/44/1
f 30/26/2 71/84/2 72/81/2 32/21/2
f 17/44/5 69/83/5 71/84/5 30/26/5
f 48/17/4 75/85/4 76/86/4 50/48/4
f 50/48/2 76/86/2 74/87/2 44/59/2
f 39/62/1 73/88/1 75/85/1 48/17/1
f 44/59/6 74/87/6 73/88/6 39/62/6
f 47/63/5 79/89/5 77/90/5 38/36/5
f 38/36/6 77/90/6 78/91/6 42/1/6
f 49/68/4 80/92/4 79/89/4 47/63/4
f 42/1/3 78/91/3 80/92/3 49/68/3
f 65/78/3 67/77/3 68/80/3 66/79/3
f 78/91/1 77/90/1 79/89/1 80/92/1
f 74/87/5 76/86/5 75/85/5 73/88/5
f 69/83/6 70/82/6 72/81/6 71/84/6
f 57/69/2 58/71/2 60/72/2 59/70/2
f 62/75/4 61/76/4 63/74/4 64/73/4
f 83/93/4 84/94/4 88/95/4 85/96/4
f 84/94/4 82/97/4 87/98/4 88/95/4
f 81/99/4 83/93/4 85/96/4 86/100/4
f 31/49/1 88/101/1 87/102/1 28/50/1
f 20/4/1 84/103/1 83/56/1 10/37/1
f 25/40/1 85/58/1 88/101/1 31/49/1
f 28/50/1 87/102/1 82/104/1 3/3/1
f 3/3/1 82/104/1 84/103/1 20/4/1
f 130/105/2 108/106/2 91/107/2 122/108/2
f 129/109/1 124/110/1 95/111/1 110/112/1
f 128/113/5 123/114/5 94/115/5 102/116/5
f 112/117/6 110/118/6 95/119/6 103/120/6
f 136/121/3 134/122/3 96/123/3 104/124/3
f 120/125/4 107/126/4 92/127/4 117/128/4
f 114/129/4 89/130/4 97/131/4 118/132/4
f 102/133/6 94/134/6 100/135/6 106/136/6
f 123/137/1 125/138/1 100/139/1 94/140/1
f 121/141/2 90/142/2 98/143/2 126/144/2
f 115/145/6 102/146/6 106/147/6 113/148/6
f 93/149/4 101/150/4 105/151/4 99/152/4
f 109/153/4 111/154/4 104/155/4 96/156/4
f 138/157/3 136/158/3 104/159/3 117/160/3
f 119/161/6 112/162/6 103/163/6 116/164/6
f 131/165/5 128/166/5 102/167/5 115/168/5
f 99/152/4 105/151/4 111/154/4 109/153/4
f 118/132/4 97/131/4 107/126/4 120/125/4
f 106/136/6 100/135/6 110/118/6 112/117/6
f 125/169/1 129/170/1 110/171/1 100/172/1
f 126/173/2 98/143/2 108/106/2 130/174/2
f 90/142/1 115/145/1 174/175/1 169/176/1
f 121/177/5 131/178/5 115/145/5 90/142/5
f 98/143/1 90/142/1 169/176/1 171/179/1
f 133/180/3 138/181/3 117/182/3 92/183/3
f 115/145/1 113/148/1 173/184/1 174/175/1
f 101/185/4 114/186/4 118/187/4 105/188/4
f 111/189/4 120/190/4 117/191/4 104/192/4
f 91/107/3 116/164/3 132/193/3 122/194/3
f 139/195/5 144/196/5 131/178/5 121/177/5
f 116/197/3 103/198/3 127/199/3 132/200/3
f 139/201/2 121/141/2 126/144/2 135/202/2
f 140/203/1 141/204/1 125/138/1 123/137/1
f 103/205/3 95/206/3 124/207/3 127/208/3
f 142/209/5 140/210/5 123/114/5 128/113/5
f 143/211/1 134/212/1 124/110/1 129/109/1
f 137/213/2 130/105/2 122/108/2 133/214/2
f 107/215/2 137/213/2 133/214/2 92/216/2
f 109/217/1 96/218/1 134/212/1 143/211/1
f 101/219/5 93/220/5 140/210/5 142/209/5
f 93/221/1 99/222/1 141/204/1 140/203/1
f 89/223/2 139/201/2 135/202/2 97/224/2
f 114/225/5 101/226/5 142/227/5 144/228/5
f 99/229/1 109/230/1 143/231/1 141/232/1
f 97/233/2 135/234/2 137/235/2 107/236/2
f 89/237/5 114/238/5 144/196/5 139/195/5
f 122/194/3 132/193/3 138/181/3 133/180/3
f 127/208/3 124/207/3 134/122/3 136/121/3
f 125/239/3 141/240/3 147/241/3 145/242/3
f 129/243/4 125/244/4 145/242/4 146/245/4
f 141/246/6 143/247/6 148/248/6 147/241/6
f 143/249/5 129/250/5 146/245/5 148/248/5
f 119/161/1 113/148/1 151/251/1 152/252/1
f 112/253/5 119/254/5 152/255/5 150/256/5
f 106/257/2 112/258/2 150/259/2 149/260/2
f 113/261/3 106/262/3 149/263/3 151/264/3
f 142/265/2 128/266/2 153/267/2 155/268/2
f 128/269/4 131/270/4 154/271/4 153/272/4
f 131/273/1 144/274/1 156/275/1 154/276/1
f 144/277/6 142/278/6 155/279/6 156/280/6
f 120/281/5 111/282/5 158/283/5 160/284/5
f 111/285/2 105/286/2 157/287/2 158/288/2
f 118/289/1 120/290/1 160/291/1 159/292/1
f 105/293/3 118/294/3 159/295/3 157/296/3
f 136/297/6 138/298/6 164/299/6 163/300/6
f 138/301/1 132/302/1 162/303/1 164/304/1
f 127/305/2 136/306/2 163/307/2 161/308/2
f 132/309/4 127/310/4 161/311/4 162/312/4
f 135/313/3 126/314/3 165/315/3 167/316/3
f 126/173/4 130/174/4 166/317/4 165/315/4
f 137/318/6 135/319/6 167/316/6 168/320/6
f 130/321/5 137/322/5 168/320/5 166/317/5
f 153/323/5 154/324/5 156/325/5 155/326/5
f 167/316/1 165/315/1 195/327/1 197/328/1
f 162/329/3 161/330/3 163/331/3 164/332/3
f 157/333/4 159/334/4 160/335/4 158/336/4
f 184/337/1 186/338/1 191/339/1 192/340/1
f 150/341/6 152/342/6 151/343/6 149/344/6
f 171/345/6 173/346/6 176/347/6 172/348/6
f 172/348/6 176/347/6 175/349/6 170/350/6
f 169/351/6 174/352/6 173/346/6 171/345/6
f 119/161/1 116/164/1 175/353/1 176/354/1
f 108/106/1 98/143/1 171/179/1 172/355/1
f 113/148/1 119/161/1 176/354/1 173/184/1
f 116/164/1 91/107/1 170/356/1 175/353/1
f 91/107/1 108/106/1 172/355/1 170/356/1
f 103/357/1 116/358/1 178/359/1 177/360/1
f 134/361/1 124/362/1 181/363/1 182/364/1
f 124/362/1 95/365/1 179/366/1 181/363/1
f 134/361/1 96/367/1 180/368/1 182/364/1
f 136/369/1 127/370/1 185/371/1 186/372/1
f 103/373/1 127/370/1 185/371/1 183/374/1
f 104/375/1 136/369/1 186/372/1 184/376/1
f 188/377/1 187/378/1 189/379/1 190/380/1
f 146/245/1 145/242/1 188/381/1 190/382/1
f 145/242/1 147/241/1 187/383/1 188/381/1
f 183/384/1 185/385/1 194/386/1 193/387/1
f 147/241/1 148/248/1 189/388/1 187/383/1
f 148/248/1 146/245/1 190/382/1 189/388/1
f 186/338/1 185/385/1 194/386/1 191/339/1
f 196/389/2 198/390/2 197/391/2 195/392/2
f 166/317/1 168/320/1 198/393/1 196/394/1
f 165/315/1 166/317/1 196/394/1 195/327/1
f 168/320/1 167/316/1 197/328/1 198/393/1
f 132/395/1 138/396/1 202/397/1 201/398/1
f 116/399/1 132/395/1 201/398/1 199/400/1
f 117/401/1 138/396/1 202/397/1 200/402/1
f 99/403/1 141/404/1 206/405/1 203/406/1
f 141/404/1 125/407/1 205/408/1 206/405/1
f 125/407/1 100/409/1 204/410/1 205/408/1
f 92/411/1 117/412/1 210/413/1 207/414/1
f 104/415/1 117/412/1 210/413/1 209/416/1
f 96/417/1 104/415/1 209/416/1 208/418/1
f 114/419/7 89/420/7 211/421/7 214/422/7
f 101/423/7 114/419/7 214/422/7 213/424/7
f 93/425/7 101/423/7 213/424/7 212/426/7
f 138/427/1 164/428/1 218/429/1 217/430/1
l 215 216
