# Blender v2.79 (sub 0) OBJ File: 'GrassSpriteSet.blend'
# www.blender.org
mtllib Grass06_Annie.mtl
o Plane.001
v 0.000000 0.000000 -25.000000
o Plane
v -0.000003 23.932728 -0.004804
v -0.000003 -23.932728 -0.004804
v 0.000003 23.932728 99.995193
v 0.000003 -23.932728 99.995193
vt 0.724243 0.520684
vt 0.954350 0.520683
vt 0.954350 0.931944
vt 0.724243 0.931944
vn 0.0000 0.7534 0.6575
vn 0.0000 -0.7534 0.6575
vn 0.0000 -0.2234 0.9747
vn 0.0000 0.2234 0.9747
usemtl None
s off
f 2/1/1 3/2/2 5/3/3 4/4/4
