# Blender v2.79 (sub 0) OBJ File: 'Window01Alt.blend'
# www.blender.org
mtllib Window01Alt.mtl
o Cube_Cube.001
v -100.000000 100.000000 5.074658
v -84.745285 4.417903 1.546921
v -4.402578 84.745285 1.546921
v -84.745285 84.745285 1.546921
v -4.414454 4.414454 1.546921
v -4.414454 4.414454 5.074658
v -84.745285 84.745285 5.074658
v -4.402578 84.745285 5.074658
v -84.745285 4.417903 5.074658
v -100.000000 -100.000000 5.074658
v -84.745285 -4.417903 1.546921
v -4.402578 -84.745285 1.546921
v -84.745285 -84.745285 1.546921
v -4.414454 -4.414454 1.546921
v -4.414454 -4.414454 5.074658
v -84.745285 -84.745285 5.074658
v -4.402578 -84.745285 5.074658
v -84.745285 -4.417903 5.074658
v 100.000000 100.000000 5.074658
v 84.745285 4.417903 1.546921
v 4.402578 84.745285 1.546921
v 84.745285 84.745285 1.546921
v 4.414454 4.414454 1.546921
v 4.414454 4.414454 5.074658
v 84.745285 84.745285 5.074658
v 4.402578 84.745285 5.074658
v 84.745285 4.417903 5.074658
v 100.000000 -100.000000 5.074658
v 84.745285 -4.417903 1.546921
v 4.402578 -84.745285 1.546921
v 84.745285 -84.745285 1.546921
v 4.414454 -4.414454 1.546921
v 4.414454 -4.414454 5.074658
v 84.745285 -4.417903 5.074658
v 84.745285 -84.745285 5.074658
v 4.402578 -84.745285 5.074658
v -100.000000 100.000000 -5.074658
v -84.745285 4.417903 -1.546921
v -4.402578 84.745285 -1.546921
v -84.745285 84.745285 -1.546921
v -4.414454 4.414454 -1.546921
v -4.414454 4.414454 -5.074658
v -84.745285 84.745285 -5.074658
v -4.402578 84.745285 -5.074658
v -84.745285 4.417903 -5.074658
v -100.000000 -100.000000 -5.074658
v -84.745285 -4.417903 -1.546921
v -4.402578 -84.745285 -1.546921
v -84.745285 -84.745285 -1.546921
v -4.414454 -4.414454 -1.546921
v -4.414454 -4.414454 -5.074658
v -84.745285 -4.417903 -5.074658
v -84.745285 -84.745285 -5.074658
v -4.402578 -84.745285 -5.074658
v 100.000000 100.000000 -5.074658
v 84.745285 4.417903 -1.546921
v 4.402578 84.745285 -1.546921
v 84.745285 84.745285 -1.546921
v 4.414454 4.414454 -1.546921
v 4.414454 4.414454 -5.074658
v 84.745285 84.745285 -5.074658
v 4.402578 84.745285 -5.074658
v 84.745285 4.417903 -5.074658
v 100.000000 -100.000000 -5.074658
v 84.745285 -4.417903 -1.546921
v 4.402578 -84.745285 -1.546921
v 84.745285 -84.745285 -1.546921
v 4.414454 -4.414454 -1.546921
v 4.414454 -4.414454 -5.074658
v 84.745285 -4.417903 -5.074658
v 84.745285 -84.745285 -5.074658
v 4.402578 -84.745285 -5.074658
v 84.764854 100.000000 5.074658
v 84.764496 -100.000000 5.074658
v -84.730621 100.000000 5.074658
v -84.730606 -100.000000 5.074658
v 84.769623 -100.000000 -5.074658
v 84.767029 100.000000 -5.074658
v -84.767578 100.000000 -5.074658
v -84.768257 -100.000000 -5.074658
vt 0.961518 0.615471
vt 0.961518 0.383522
vt 0.970456 0.383522
vt 0.970456 0.615471
vt 0.988795 0.615274
vt 0.988794 0.383292
vt 0.997733 0.383292
vt 0.997733 0.615274
vt 0.970552 0.615471
vt 0.970551 0.383522
vt 0.979490 0.383522
vt 0.979490 0.615471
vt 0.979585 0.615461
vt 0.979585 0.383522
vt 0.988523 0.383522
vt 0.988523 0.615461
vt 0.080373 0.096005
vt 0.080468 0.158350
vt 0.080468 0.486643
vt 0.080468 0.522754
vt 0.080468 0.851047
vt 0.080375 0.913392
vt 0.006520 0.913392
vt 0.006520 0.096005
vt 0.846333 0.005765
vt 0.846443 0.072162
vt 0.007302 0.072162
vt 0.007410 0.005765
vt 0.405080 0.005765
vt 0.448662 0.005765
vt 0.879550 0.383205
vt 0.888488 0.383205
vt 0.888488 0.615153
vt 0.879550 0.615153
vt 0.870529 0.383185
vt 0.879468 0.383185
vt 0.879468 0.615168
vt 0.870529 0.615168
vt 0.834322 0.925800
vt 0.834250 0.990785
vt 0.005814 0.990785
vt 0.005908 0.925800
vt 0.398597 0.925800
vt 0.441633 0.925800
vt 0.860721 0.614961
vt 0.851783 0.614961
vt 0.851783 0.383013
vt 0.860721 0.383013
vt 0.861297 0.383013
vt 0.870235 0.383013
vt 0.870235 0.614952
vt 0.861297 0.614952
vt 0.079442 0.095261
vt 0.079371 0.157606
vt 0.079371 0.485899
vt 0.079371 0.522010
vt 0.079371 0.850303
vt 0.079442 0.912648
vt 0.005423 0.912648
vt 0.005423 0.095261
vt 0.924893 0.383437
vt 0.933831 0.383437
vt 0.933831 0.615385
vt 0.924893 0.615385
vt 0.952420 0.383519
vt 0.961358 0.383519
vt 0.961358 0.615501
vt 0.952420 0.615501
vt 0.942961 0.615385
vt 0.934023 0.615385
vt 0.934023 0.383437
vt 0.942961 0.383437
vt 0.952407 0.615375
vt 0.943469 0.615375
vt 0.943469 0.383437
vt 0.952407 0.383437
vt 0.018032 0.955415
vt 0.018032 0.929262
vt 0.405969 0.929251
vt 0.405969 0.955425
vt 0.888717 0.615039
vt 0.888717 0.383090
vt 0.897655 0.383090
vt 0.897655 0.615039
vt 0.915643 0.615010
vt 0.915643 0.383027
vt 0.924581 0.383027
vt 0.924581 0.615010
vt 0.897325 0.615039
vt 0.897325 0.383090
vt 0.906263 0.383090
vt 0.906263 0.615039
vt 0.915268 0.383090
vt 0.915268 0.615029
vt 0.906330 0.615029
vt 0.906330 0.383090
vt 0.971159 0.369537
vt 0.962233 0.369537
vt 0.962233 0.098355
vt 0.971159 0.098355
vt 1.000069 0.369215
vt 0.991144 0.369215
vt 0.991144 0.097993
vt 1.000069 0.097993
vt 0.980811 0.369537
vt 0.971885 0.369537
vt 0.971885 0.098355
vt 0.980811 0.098355
vt 0.990677 0.369525
vt 0.981751 0.369525
vt 0.981751 0.098355
vt 0.990677 0.098355
vt 0.006558 0.925304
vt 0.399247 0.925304
vt 0.442284 0.925304
vt 0.834972 0.925304
vt 0.835068 0.990290
vt 0.006630 0.990290
vt 0.807631 0.959217
vt 0.807631 0.985371
vt 0.427215 0.985381
vt 0.427215 0.959207
vt 0.835544 0.910373
vt 0.774726 0.910373
vt 0.774726 0.088740
vt 0.835534 0.088740
vt 0.835631 0.151409
vt 0.835631 0.481407
vt 0.835631 0.517706
vt 0.835631 0.847704
vt 0.935685 0.098448
vt 0.935685 0.369629
vt 0.926759 0.369629
vt 0.926759 0.098448
vt 0.962398 0.098460
vt 0.962398 0.369682
vt 0.953472 0.369682
vt 0.953472 0.098460
vt 0.844834 0.073794
vt 0.447164 0.073795
vt 0.403581 0.073795
vt 0.005911 0.073794
vt 0.005791 0.007397
vt 0.844948 0.007397
vt 0.935694 0.098448
vt 0.944619 0.098448
vt 0.944619 0.369629
vt 0.953503 0.098448
vt 0.953503 0.369618
vt 0.944577 0.369618
vt 0.944577 0.098448
vt 0.774782 0.911310
vt 0.774693 0.848641
vt 0.774693 0.518643
vt 0.774693 0.482344
vt 0.774693 0.152346
vt 0.774785 0.089678
vt 0.835598 0.089678
vt 0.835598 0.911310
vt 0.872174 0.099811
vt 0.872174 0.370993
vt 0.863248 0.370993
vt 0.863248 0.099811
vt 0.890082 0.099745
vt 0.890082 0.370967
vt 0.881156 0.370967
vt 0.881156 0.099745
vt 0.863192 0.099811
vt 0.863192 0.370993
vt 0.854266 0.370993
vt 0.854266 0.099811
vt 0.872171 0.370981
vt 0.881096 0.099811
vt 0.881096 0.370981
vt 0.899513 0.099244
vt 0.908439 0.099244
vt 0.908439 0.370426
vt 0.899513 0.370426
vt 0.926387 0.370437
vt 0.917462 0.370437
vt 0.917462 0.099215
vt 0.926387 0.099215
vt 0.899522 0.370539
vt 0.890596 0.370539
vt 0.890596 0.099357
vt 0.899522 0.099357
vt 0.908545 0.099244
vt 0.917471 0.370414
vt 0.908545 0.370414
vt 0.992933 0.009461
vt 0.993103 0.076484
vt 0.923899 0.076484
vt 0.923899 0.009461
vt 0.833521 0.086809
vt 0.833521 0.917622
vt 0.803456 0.917622
vt 0.803456 0.086809
vt 0.405969 0.981589
vt 0.018032 0.981599
vt 0.018032 0.955425
vt 0.405969 0.955436
vt 0.014037 0.519083
vt 0.014037 0.477148
vt 0.014072 0.095594
vt 0.040155 0.095594
vt 0.040190 0.477148
vt 0.040190 0.519083
vt 0.040155 0.900637
vt 0.014072 0.900637
vt 0.807631 0.959230
vt 0.427215 0.959240
vt 0.427215 0.933066
vt 0.807631 0.933077
vt 0.040118 0.519085
vt 0.040118 0.477149
vt 0.040153 0.095596
vt 0.066236 0.095596
vt 0.066271 0.477149
vt 0.066271 0.519085
vt 0.066236 0.900638
vt 0.040153 0.900638
vt 0.773391 0.917622
vt 0.773391 0.086809
vt 0.803456 0.086809
vt 0.803456 0.917622
vt 0.993927 0.995019
vt 0.924891 0.995019
vt 0.924891 0.923755
vt 0.994095 0.923755
vt 0.924881 0.923755
vt 0.924891 0.995019
vt 0.855842 0.995019
vt 0.855842 0.923755
vt 0.854849 0.076484
vt 0.854872 0.009461
vt 0.923899 0.009461
vt 0.923899 0.076484
vt 0.005549 0.071293
vt 0.005363 0.041228
vt 0.840790 0.041228
vt 0.840765 0.071293
vt 0.840774 0.011163
vt 0.840592 0.041228
vt 0.005374 0.041228
vt 0.005363 0.011163
vt 0.937308 0.904473
vt 0.928143 0.904473
vt 0.928143 0.633291
vt 0.937308 0.633291
vt 0.891484 0.633291
vt 0.900649 0.633291
vt 0.900649 0.904473
vt 0.891484 0.904473
vt 0.992297 0.633291
vt 1.001462 0.633291
vt 1.001462 0.904462
vt 0.992297 0.904462
vt 0.873154 0.633291
vt 0.882319 0.633291
vt 0.882319 0.904513
vt 0.873154 0.904513
vt 0.983132 0.904462
vt 0.983132 0.633291
vt 0.992297 0.633291
vt 0.992297 0.904462
vt 0.863989 0.904513
vt 0.854825 0.904513
vt 0.854825 0.633291
vt 0.863989 0.633291
vt 0.964803 0.904473
vt 0.955638 0.904473
vt 0.955638 0.633291
vt 0.964803 0.633291
vt 0.946473 0.633291
vt 0.955638 0.904473
vt 0.946473 0.904473
vt 0.863990 0.904513
vt 0.863989 0.633291
vt 0.873154 0.633291
vt 0.873154 0.904513
vt 0.973967 0.904462
vt 0.964803 0.904462
vt 0.964803 0.633291
vt 0.973967 0.633291
vt 0.937308 0.633291
vt 0.946473 0.633291
vt 0.946473 0.904473
vt 0.937308 0.904473
vt 0.918978 0.633291
vt 0.928143 0.633291
vt 0.928143 0.904473
vt 0.918979 0.904473
vt 0.882319 0.904513
vt 0.882319 0.633291
vt 0.891484 0.633291
vt 0.891484 0.904513
vt 0.918979 0.904473
vt 0.909814 0.904473
vt 0.909814 0.633291
vt 0.918978 0.633291
vt 0.909814 0.904473
vt 0.900649 0.904473
vt 0.900649 0.633291
vt 0.909814 0.633291
vt 0.973967 0.633291
vt 0.983132 0.633291
vt 0.983132 0.904462
vt 0.973967 0.904462
vt 0.402325 0.087451
vt 0.402325 0.479112
vt 0.087493 0.479112
vt 0.087479 0.087509
vt 0.446280 0.086352
vt 0.761632 0.086393
vt 0.761632 0.478152
vt 0.446293 0.478169
vt 0.404812 0.912085
vt 0.089616 0.912027
vt 0.089629 0.523508
vt 0.404812 0.523508
vt 0.760522 0.523361
vt 0.760522 0.913398
vt 0.446917 0.913398
vt 0.446903 0.523419
vt 0.403375 0.480621
vt 0.088529 0.480563
vt 0.088543 0.088960
vt 0.403375 0.088960
vt 0.761435 0.085597
vt 0.761435 0.477414
vt 0.446096 0.477414
vt 0.446083 0.085655
vt 0.405206 0.521457
vt 0.405207 0.910035
vt 0.090024 0.910035
vt 0.090010 0.521515
vt 0.759868 0.914150
vt 0.446250 0.914092
vt 0.446263 0.524113
vt 0.759868 0.524113
vn 0.0000 1.0000 0.0000
vn 0.0000 -1.0000 0.0000
vn -1.0000 0.0001 0.0000
vn 1.0000 0.0000 0.0000
vn 0.0000 0.0000 1.0000
vn 0.0000 0.0000 -1.0000
vn -1.0000 -0.0001 0.0000
vn 1.0000 0.0001 0.0000
vn -1.0000 0.0000 0.0000
vn 1.0000 -0.0001 0.0000
usemtl Wood
s off
f 9/1/1 6/2/1 5/3/1 2/4/1
f 8/5/2 7/6/2 4/7/2 3/8/2
f 6/9/3 8/10/3 3/11/3 5/12/3
f 7/13/4 9/14/4 2/15/4 4/16/4
f 73/17/5 25/18/5 27/19/5 34/20/5 35/21/5 74/22/5 28/23/5 19/24/5
f 43/25/6 79/26/6 78/27/6 61/28/6 62/29/6 44/30/6
f 18/31/2 11/32/2 14/33/2 15/34/2
f 17/35/1 12/36/1 13/37/1 16/38/1
f 16/39/5 76/40/5 74/41/5 35/42/5 36/43/5 17/44/5
f 15/45/7 14/46/7 12/47/7 17/48/7
f 16/49/4 13/50/4 11/51/4 18/52/4
f 76/53/5 16/54/5 18/55/5 9/56/5 7/57/5 75/58/5 1/59/5 10/60/5
f 27/61/1 20/62/1 23/63/1 24/64/1
f 26/65/2 21/66/2 22/67/2 25/68/2
f 24/69/8 23/70/8 21/71/8 26/72/8
f 25/73/9 22/74/9 20/75/9 27/76/9
f 15/77/5 6/78/5 9/79/5 18/80/5
f 34/81/2 33/82/2 32/83/2 29/84/2
f 36/85/1 35/86/1 31/87/1 30/88/1
f 33/89/10 36/90/10 30/91/10 32/92/10
f 35/93/9 34/94/9 29/95/9 31/96/9
f 45/97/1 38/98/1 41/99/1 42/100/1
f 44/101/2 39/102/2 40/103/2 43/104/2
f 42/105/3 41/106/3 39/107/3 44/108/3
f 43/109/4 40/110/4 38/111/4 45/112/4
f 7/113/5 8/114/5 26/115/5 25/116/5 73/117/5 75/118/5
f 69/119/6 60/120/6 63/121/6 70/122/6
f 78/123/6 55/124/6 64/125/6 77/126/6 71/127/6 70/128/6 63/129/6 61/130/6
f 52/131/2 51/132/2 50/133/2 47/134/2
f 54/135/1 53/136/1 49/137/1 48/138/1
f 53/139/6 54/140/6 72/141/6 71/142/6 77/143/6 80/144/6
f 51/132/7 54/145/7 48/146/7 50/147/7
f 53/148/4 52/149/4 47/150/4 49/151/4
f 79/152/6 43/153/6 45/154/6 52/155/6 53/156/6 80/157/6 46/158/6 37/159/6
f 63/160/1 60/161/1 59/162/1 56/163/1
f 62/164/2 61/165/2 58/166/2 57/167/2
f 60/168/8 62/169/8 57/170/8 59/171/8
f 61/172/9 63/160/9 56/173/9 58/174/9
f 70/175/2 65/176/2 68/177/2 69/178/2
f 72/179/1 66/180/1 67/181/1 71/182/1
f 69/183/10 68/184/10 66/185/10 72/186/10
f 71/187/9 67/181/9 65/188/9 70/189/9
f 80/190/2 76/191/2 10/192/2 46/193/2
f 10/194/9 1/195/9 37/196/9 46/197/9
f 33/198/5 34/199/5 27/200/5 24/201/5
f 33/202/5 24/203/5 26/204/5 8/205/5 6/206/5 15/207/5 17/208/5 36/209/5
f 51/210/6 52/211/6 45/212/6 42/213/6
f 60/214/6 69/215/6 72/216/6 54/217/6 51/218/6 42/219/6 44/220/6 62/221/6
f 19/222/4 28/223/4 64/224/4 55/225/4
f 79/226/1 37/227/1 1/228/1 75/229/1
f 78/230/1 73/231/1 19/232/1 55/233/1
f 74/234/2 77/235/2 64/236/2 28/237/2
f 76/238/2 80/239/2 77/240/2 74/241/2
f 79/242/1 75/243/1 73/244/1 78/245/1
f 21/246/7 57/247/7 59/248/7 23/249/7
f 23/250/2 59/251/2 56/252/2 20/253/2
f 20/254/4 56/255/4 58/256/4 22/257/4
f 22/258/1 58/259/1 57/260/1 21/261/1
f 29/262/4 31/263/4 67/264/4 65/265/4
f 67/266/2 31/267/2 30/268/2 66/269/2
f 66/270/3 30/271/3 32/272/3 68/273/3
f 68/274/1 32/272/1 29/275/1 65/276/1
f 12/277/2 13/278/2 49/279/2 48/280/2
f 11/281/9 47/282/9 49/283/9 13/284/9
f 14/285/1 50/286/1 47/287/1 11/288/1
f 12/289/8 48/290/8 50/291/8 14/292/8
f 4/293/1 3/294/1 39/295/1 40/296/1
f 39/297/10 3/298/10 5/299/10 41/300/10
f 41/301/2 5/302/2 2/303/2 38/304/2
f 38/305/9 2/306/9 4/307/9 40/308/9
usemtl Glass
f 3/309/5 4/310/5 2/311/5 5/312/5
f 12/313/5 14/314/5 11/315/5 13/316/5
f 21/317/5 23/318/5 20/319/5 22/320/5
f 30/321/5 31/322/5 29/323/5 32/324/5
f 39/325/6 41/326/6 38/327/6 40/328/6
f 48/329/6 49/330/6 47/331/6 50/332/6
f 57/333/6 58/334/6 56/335/6 59/336/6
f 66/337/6 68/338/6 65/339/6 67/340/6
