# Blender v2.79 (sub 0) OBJ File: 'yellow_cabinet.blend'
# www.blender.org
mtllib yellow_cabinet.mtl
o Cube_Cube.001
v 0.253694 0.275030 1.593805
v 0.253694 3.462640 1.593805
v 0.253694 0.275030 -1.593805
v 0.253694 3.462640 -1.593805
v 0.145515 0.191455 1.677380
v 0.145515 3.546216 1.677380
v 0.145515 0.191455 -1.677380
v 0.145515 3.546216 -1.677380
v 1.677380 0.191455 1.677380
v 1.677380 3.546216 1.677380
v 1.677380 0.191455 -1.677380
v 1.677380 3.546216 -1.677380
v 1.677380 3.462640 -1.593805
v 1.677380 0.275030 1.593805
v 1.677380 0.275030 -1.593805
v 1.677380 3.462640 1.593805
v 0.253870 2.434064 1.595193
v 0.253870 2.484841 1.595193
v 0.253870 2.434064 -1.592841
v 0.253870 2.484841 -1.592841
v 1.680083 2.434064 1.595193
v 1.680083 2.484841 1.595193
v 1.680083 2.434064 -1.592841
v 1.680083 2.484841 -1.592841
v 0.253870 1.316820 1.595193
v 0.253870 1.367597 1.595193
v 0.253870 1.316820 -1.592841
v 0.253870 1.367597 -1.592841
v 1.680083 1.316820 1.595193
v 1.680083 1.367597 1.595193
v 1.680083 1.316820 -1.592841
v 1.680083 1.367597 -1.592841
v 0.253870 0.274644 0.535102
v 0.253870 0.274644 0.556005
v 0.253870 3.462678 0.535102
v 0.253870 3.462678 0.556005
v 1.582308 0.274644 0.535102
v 1.582308 0.274644 0.556005
v 1.582308 3.462678 0.535102
v 1.582308 3.462678 0.556005
v 0.253870 0.274644 -0.557473
v 0.253870 0.274644 -0.536570
v 0.253870 3.462678 -0.557473
v 0.253870 3.462678 -0.536570
v 1.582308 0.274644 -0.557473
v 1.582308 0.274644 -0.536570
v 1.582308 3.462678 -0.557473
v 1.582308 3.462678 -0.536570
vt 0.276360 0.000000
vt 0.538950 0.000000
vt 0.538950 0.322060
vt 0.276360 0.322060
vt 0.656231 0.322060
vt 0.538950 0.322060
vt 0.538950 0.000000
vt 0.656231 0.000000
vt 0.234562 0.677897
vt 0.234562 0.999957
vt 0.117281 0.999957
vt 0.117281 0.677897
vt 0.276360 0.677897
vt 0.000000 0.677897
vt 0.000000 0.338948
vt 0.276360 0.338948
vt 0.402553 0.322060
vt 0.402553 0.661009
vt 0.276360 0.661009
vt 0.276360 0.322060
vt 0.276360 0.338948
vt 0.000000 0.338948
vt 0.006885 0.330504
vt 0.269475 0.330504
vt 0.269475 0.008444
vt 0.276360 0.000000
vt 0.402553 0.661009
vt 0.402553 0.322060
vt 0.528745 0.322060
vt 0.528745 0.661009
vt 0.781131 0.661009
vt 0.654938 0.661009
vt 0.654938 0.322060
vt 0.781131 0.322060
vt 0.528745 0.322060
vt 0.654938 0.322060
vt 0.654938 0.661009
vt 0.528745 0.661009
vt 0.006885 0.008444
vt 0.000000 0.000000
vt 0.000000 0.999957
vt 0.000000 0.677897
vt 0.117281 0.677897
vt 0.656231 0.000000
vt 0.773512 0.000000
vt 0.773512 0.322060
vt 0.656231 0.322060
vt 0.242928 0.677897
vt 0.242928 1.000000
vt 0.238745 1.000000
vt 0.238745 0.677897
vt 0.251294 0.821994
vt 0.251294 0.677897
vt 0.255477 0.677897
vt 0.255477 0.821994
vt 0.247111 0.677897
vt 0.247111 1.000000
vt 0.242928 1.000000
vt 0.242928 0.677897
vt 0.255477 0.821994
vt 0.255477 0.677897
vt 0.259660 0.677897
vt 0.259660 0.821994
vt 0.393849 0.661009
vt 0.393849 0.983112
vt 0.276360 0.983112
vt 0.276360 0.661009
vt 0.511338 0.983112
vt 0.511338 0.661009
vt 0.628828 0.661009
vt 0.628828 0.983112
vt 0.238745 0.677897
vt 0.238745 1.000000
vt 0.234562 1.000000
vt 0.234562 0.677897
vt 0.251294 0.677897
vt 0.251294 1.000000
vt 0.247111 1.000000
vt 0.247111 0.677897
vt 0.746317 0.661009
vt 0.746317 0.983112
vt 0.628828 0.983112
vt 0.628828 0.661009
vt 0.393849 0.983112
vt 0.393849 0.661009
vt 0.511338 0.661009
vt 0.511338 0.983112
vt 0.266548 0.677897
vt 0.266548 1.000000
vt 0.264826 1.000000
vt 0.264826 0.677897
vt 0.271714 0.812116
vt 0.271714 0.677897
vt 0.273436 0.677897
vt 0.273436 0.812116
vt 0.261382 1.000000
vt 0.261382 0.677897
vt 0.263104 0.677897
vt 0.263104 1.000000
vt 0.268270 0.677897
vt 0.268270 0.812116
vt 0.266548 0.812116
vt 0.266548 0.677897
vt 0.890565 0.322060
vt 0.890565 0.644163
vt 0.781131 0.644163
vt 0.781131 0.322060
vt 0.855752 0.661009
vt 0.855752 0.983112
vt 0.746317 0.983112
vt 0.746317 0.661009
vt 0.264826 0.677897
vt 0.264826 1.000000
vt 0.263104 1.000000
vt 0.263104 0.677897
vt 0.268270 0.812116
vt 0.268270 0.677897
vt 0.269992 0.677897
vt 0.269992 0.812116
vt 0.259660 1.000000
vt 0.259660 0.677897
vt 0.261382 0.677897
vt 0.261382 1.000000
vt 0.271714 0.677897
vt 0.271714 0.812116
vt 0.269992 0.812116
vt 0.269992 0.677897
vt 0.965186 0.661009
vt 0.965186 0.983112
vt 0.855752 0.983112
vt 0.855752 0.661009
vt 1.000000 0.322060
vt 1.000000 0.644163
vt 0.890565 0.644163
vt 0.890565 0.322060
vn 1.0000 0.0000 0.0000
vn 0.0000 0.0000 1.0000
vn 0.0000 1.0000 0.0000
vn -1.0000 0.0000 0.0000
vn 0.0000 0.0000 -1.0000
vn 0.0000 -1.0000 0.0000
usemtl None
s off
f 1/1/1 3/2/1 4/3/1 2/4/1
f 3/5/2 15/6/2 13/7/2 4/8/2
f 3/9/3 1/10/3 14/11/3 15/12/3
f 5/13/4 6/14/4 8/15/4 7/16/4
f 7/17/5 8/18/5 12/19/5 11/20/5
f 11/21/1 12/22/1 13/23/1 15/24/1 14/25/1 9/26/1
f 9/27/2 10/28/2 6/29/2 5/30/2
f 7/31/6 11/32/6 9/33/6 5/34/6
f 12/35/3 8/36/3 6/37/3 10/38/3
f 9/26/1 14/25/1 16/39/1 13/23/1 12/22/1 10/40/1
f 14/11/5 1/41/5 2/42/5 16/43/5
f 16/44/6 2/45/6 4/46/6 13/47/6
f 17/48/1 19/49/1 20/50/1 18/51/1
f 19/52/2 23/53/2 24/54/2 20/55/2
f 23/56/4 21/57/4 22/58/4 24/59/4
f 21/60/5 17/61/5 18/62/5 22/63/5
f 19/64/3 17/65/3 21/66/3 23/67/3
f 24/68/6 22/69/6 18/70/6 20/71/6
f 25/72/1 27/73/1 28/74/1 26/75/1
f 31/76/4 29/77/4 30/78/4 32/79/4
f 27/80/3 25/81/3 29/82/3 31/83/3
f 32/84/6 30/85/6 26/86/6 28/87/6
f 33/88/1 35/89/1 36/90/1 34/91/1
f 35/92/6 39/93/6 40/94/6 36/95/6
f 39/96/4 37/97/4 38/98/4 40/99/4
f 37/100/3 33/101/3 34/102/3 38/103/3
f 35/104/2 33/105/2 37/106/2 39/107/2
f 40/108/5 38/109/5 34/110/5 36/111/5
f 41/112/1 43/113/1 44/114/1 42/115/1
f 43/116/6 47/117/6 48/118/6 44/119/6
f 47/120/4 45/121/4 46/122/4 48/123/4
f 45/124/3 41/125/3 42/126/3 46/127/3
f 43/128/2 41/129/2 45/130/2 47/131/2
f 48/132/5 46/133/5 42/134/5 44/135/5
