# Blender v2.79 (sub 0) OBJ File: 'RebarStraight.blend'
# www.blender.org
mtllib RebarStraight.mtl
o Cylinder
v 1.992350 0.000000 -1.105782
v 1.992350 0.000000 78.894218
v 1.954067 -0.388688 -1.105782
v 1.954067 -0.388688 78.894218
v 1.840691 -0.762439 -1.105782
v 1.840691 -0.762439 78.894218
v 1.656578 -1.106890 -1.105782
v 1.656578 -1.106890 78.894218
v 1.408804 -1.408804 -1.105782
v 1.408804 -1.408804 78.894218
v 1.106890 -1.656578 -1.105782
v 1.106890 -1.656578 78.894218
v 0.762439 -1.840691 -1.105782
v 0.762439 -1.840691 78.894218
v 0.388688 -1.954067 -1.105782
v 0.388688 -1.954067 78.894218
v 0.000000 -1.992350 -1.105782
v 0.000000 -1.992350 78.894218
v -0.388688 -1.954067 -1.105782
v -0.388688 -1.954067 78.894218
v -0.762439 -1.840691 -1.105782
v -0.762439 -1.840691 78.894218
v -1.106890 -1.656578 -1.105782
v -1.106890 -1.656578 78.894218
v -1.408804 -1.408804 -1.105782
v -1.408804 -1.408804 78.894218
v -1.656578 -1.106890 -1.105782
v -1.656578 -1.106890 78.894218
v -1.840691 -0.762439 -1.105782
v -1.840691 -0.762439 78.894218
v -1.954067 -0.388688 -1.105782
v -1.954067 -0.388688 78.894218
v -1.992350 0.000001 -1.105782
v -1.992350 0.000001 78.894218
v -1.954067 0.388689 -1.105782
v -1.954067 0.388689 78.894218
v -1.840691 0.762440 -1.105782
v -1.840691 0.762440 78.894218
v -1.656578 1.106891 -1.105782
v -1.656578 1.106891 78.894218
v -1.408803 1.408805 -1.105782
v -1.408803 1.408805 78.894218
v -1.106889 1.656579 -1.105782
v -1.106889 1.656579 78.894218
v -0.762438 1.840692 -1.105782
v -0.762438 1.840692 78.894218
v -0.388686 1.954067 -1.105782
v -0.388686 1.954067 78.894218
v 0.000002 1.992350 -1.105782
v 0.000002 1.992350 78.894218
v 0.388690 1.954067 -1.105782
v 0.388690 1.954067 78.894218
v 0.762441 1.840690 -1.105782
v 0.762441 1.840690 78.894218
v 1.106892 1.656577 -1.105782
v 1.106892 1.656577 78.894218
v 1.408806 1.408802 -1.105782
v 1.408806 1.408802 78.894218
v 1.656580 1.106888 -1.105782
v 1.656580 1.106888 78.894218
v 1.840692 0.762437 -1.105782
v 1.840692 0.762437 78.894218
v 1.954068 0.388685 -1.105782
v 1.954068 0.388685 78.894218
vt 0.063582 -0.511830
vt 0.063583 1.000129
vt 0.032341 1.000130
vt 0.032339 -0.511829
vt 0.001099 1.000131
vt 0.001096 -0.511828
vt 1.000857 -0.511833
vt 1.000855 1.000123
vt 0.969613 1.000122
vt 0.969614 -0.511834
vt 0.938370 1.000121
vt 0.938372 -0.511835
vt 0.907128 1.000121
vt 0.907129 -0.511835
vt 0.875886 1.000121
vt 0.875887 -0.511836
vt 0.844643 1.000120
vt 0.844644 -0.511836
vt 0.813401 1.000120
vt 0.813402 -0.511837
vt 0.782159 1.000120
vt 0.782159 -0.511837
vt 0.750916 1.000120
vt 0.750917 -0.511837
vt 0.719674 1.000120
vt 0.719674 -0.511838
vt 0.688431 1.000119
vt 0.688432 -0.511838
vt 0.657189 1.000119
vt 0.657189 -0.511838
vt 0.625947 1.000119
vt 0.625947 -0.511838
vt 0.594704 1.000120
vt 0.594704 -0.511838
vt 0.563462 1.000120
vt 0.563462 -0.511838
vt 0.532219 1.000120
vt 0.532219 -0.511838
vt 0.500977 1.000120
vt 0.500977 -0.511838
vt 0.469735 1.000120
vt 0.469734 -0.511838
vt 0.438492 1.000121
vt 0.438492 -0.511837
vt 0.407250 1.000121
vt 0.407249 -0.511837
vt 0.376007 1.000121
vt 0.376007 -0.511837
vt 0.344765 1.000122
vt 0.344764 -0.511836
vt 0.313523 1.000123
vt 0.313522 -0.511836
vt 0.282280 1.000123
vt 0.282279 -0.511836
vt 0.251038 1.000124
vt 0.251036 -0.511835
vt 0.219795 1.000125
vt 0.219794 -0.511834
vt 0.188553 1.000126
vt 0.188551 -0.511834
vt 0.157310 1.000126
vt 0.157309 -0.511833
vt 0.126068 1.000128
vt 0.126066 -0.511832
vt -0.216705 0.941053
vt -0.210784 0.938825
vt -0.177913 0.937795
vt -0.119357 0.938002
vt -0.037369 0.939438
vt 0.064907 0.942050
vt 0.183537 0.945735
vt 0.313960 0.950351
vt 0.451166 0.955724
vt 0.589888 0.961645
vt 0.724789 0.967886
vt 0.850684 0.974208
vt 0.962736 0.980369
vt 1.056640 0.986131
vt 1.128785 0.991273
vt 1.176400 0.995597
vt 1.197658 0.998937
vt 1.191738 1.001165
vt 1.158866 1.002195
vt 1.100309 1.001988
vt 1.018319 1.000552
vt 0.916043 0.997940
vt 0.797410 0.994255
vt 0.666984 0.989638
vt 0.529776 0.984266
vt 0.391057 0.978345
vt 0.256158 0.972104
vt 0.130265 0.965782
vt 0.018215 0.959621
vt -0.075688 0.953858
vt -0.147832 0.948717
vt -0.195447 0.944393
vt 0.094826 1.000128
vt 0.094824 -0.511831
vt -0.173386 0.832157
vt -0.167083 0.830033
vt -0.135105 0.829180
vt -0.078680 0.829629
vt 0.000026 0.831364
vt 0.097985 0.834318
vt 0.211436 0.838378
vt 0.336016 0.843387
vt 0.466938 0.849153
vt 0.599172 0.855454
vt 0.727638 0.862049
vt 0.847395 0.868684
vt 0.953844 0.875103
vt 1.042894 0.881061
vt 1.111119 0.886328
vt 1.155901 0.890701
vt 1.175519 0.894014
vt 1.169217 0.896138
vt 1.137237 0.896991
vt 1.080812 0.896542
vt 1.002107 0.894807
vt 0.904145 0.891853
vt 0.790694 0.887793
vt 0.666113 0.882784
vt 0.535189 0.877018
vt 0.402956 0.870717
vt 0.274492 0.864122
vt 0.154733 0.857487
vt 0.048286 0.851068
vt -0.040763 0.845110
vt -0.108989 0.839843
vt -0.153770 0.835470
vn 0.9952 -0.0980 0.0000
vn 0.9569 -0.2903 0.0000
vn 0.8819 -0.4714 0.0000
vn 0.7730 -0.6344 0.0000
vn 0.6344 -0.7730 0.0000
vn 0.4714 -0.8819 0.0000
vn 0.2903 -0.9569 0.0000
vn 0.0980 -0.9952 0.0000
vn -0.0980 -0.9952 0.0000
vn -0.2903 -0.9569 0.0000
vn -0.4714 -0.8819 0.0000
vn -0.6344 -0.7730 0.0000
vn -0.7730 -0.6344 0.0000
vn -0.8819 -0.4714 0.0000
vn -0.9569 -0.2903 0.0000
vn -0.9952 -0.0980 0.0000
vn -0.9952 0.0980 0.0000
vn -0.9569 0.2903 0.0000
vn -0.8819 0.4714 0.0000
vn -0.7730 0.6344 0.0000
vn -0.6344 0.7730 0.0000
vn -0.4714 0.8819 0.0000
vn -0.2903 0.9569 0.0000
vn -0.0980 0.9952 0.0000
vn 0.0980 0.9952 0.0000
vn 0.2903 0.9569 0.0000
vn 0.4714 0.8819 0.0000
vn 0.6344 0.7730 0.0000
vn 0.7730 0.6344 0.0000
vn 0.8819 0.4714 0.0000
vn -0.0000 0.0000 1.0000
vn 0.9569 0.2903 0.0000
vn 0.9952 0.0980 0.0000
vn -0.0000 0.0000 -1.0000
usemtl None
s off
f 1/1/1 2/2/1 4/3/1 3/4/1
f 3/4/2 4/3/2 6/5/2 5/6/2
f 5/7/3 6/8/3 8/9/3 7/10/3
f 7/10/4 8/9/4 10/11/4 9/12/4
f 9/12/5 10/11/5 12/13/5 11/14/5
f 11/14/6 12/13/6 14/15/6 13/16/6
f 13/16/7 14/15/7 16/17/7 15/18/7
f 15/18/8 16/17/8 18/19/8 17/20/8
f 17/20/9 18/19/9 20/21/9 19/22/9
f 19/22/10 20/21/10 22/23/10 21/24/10
f 21/24/11 22/23/11 24/25/11 23/26/11
f 23/26/12 24/25/12 26/27/12 25/28/12
f 25/28/13 26/27/13 28/29/13 27/30/13
f 27/30/14 28/29/14 30/31/14 29/32/14
f 29/32/15 30/31/15 32/33/15 31/34/15
f 31/34/16 32/33/16 34/35/16 33/36/16
f 33/36/17 34/35/17 36/37/17 35/38/17
f 35/38/18 36/37/18 38/39/18 37/40/18
f 37/40/19 38/39/19 40/41/19 39/42/19
f 39/42/20 40/41/20 42/43/20 41/44/20
f 41/44/21 42/43/21 44/45/21 43/46/21
f 43/46/22 44/45/22 46/47/22 45/48/22
f 45/48/23 46/47/23 48/49/23 47/50/23
f 47/50/24 48/49/24 50/51/24 49/52/24
f 49/52/25 50/51/25 52/53/25 51/54/25
f 51/54/26 52/53/26 54/55/26 53/56/26
f 53/56/27 54/55/27 56/57/27 55/58/27
f 55/58/28 56/57/28 58/59/28 57/60/28
f 57/60/29 58/59/29 60/61/29 59/62/29
f 59/62/30 60/61/30 62/63/30 61/64/30
f 4/65/31 2/66/31 64/67/31 62/68/31 60/69/31 58/70/31 56/71/31 54/72/31 52/73/31 50/74/31 48/75/31 46/76/31 44/77/31 42/78/31 40/79/31 38/80/31 36/81/31 34/82/31 32/83/31 30/84/31 28/85/31 26/86/31 24/87/31 22/88/31 20/89/31 18/90/31 16/91/31 14/92/31 12/93/31 10/94/31 8/95/31 6/96/31
f 61/64/32 62/63/32 64/97/32 63/98/32
f 63/98/33 64/97/33 2/2/33 1/1/33
f 1/99/34 3/100/34 5/101/34 7/102/34 9/103/34 11/104/34 13/105/34 15/106/34 17/107/34 19/108/34 21/109/34 23/110/34 25/111/34 27/112/34 29/113/34 31/114/34 33/115/34 35/116/34 37/117/34 39/118/34 41/119/34 43/120/34 45/121/34 47/122/34 49/123/34 51/124/34 53/125/34 55/126/34 57/127/34 59/128/34 61/129/34 63/130/34
