# Blender v2.79 (sub 0) OBJ File: 'untitled.blend'
# www.blender.org
mtllib Bush.mtl
o Plane.008
v 45.198189 -44.592175 -21.695276
v 45.198189 46.529499 -21.695276
v 58.653717 -44.592175 82.882050
v 58.653717 46.529499 82.882050
vt 0.000100 0.000100
vt 0.000100 0.999900
vt 0.999900 0.999900
vt 0.999900 0.000100
vn -0.9918 0.0000 0.1276
usemtl Material.001
s off
f 1/1/1 3/2/1 4/3/1 2/4/1
o Plane.007
v 44.203548 43.703453 -21.291269
v -46.918125 43.703484 -21.291277
v 44.203548 62.395668 82.478050
v -46.918125 62.395699 82.478043
vt 0.000100 0.000100
vt 0.000100 0.999900
vt 0.999900 0.999900
vt 0.999900 0.000100
vn -0.0000 -0.9842 0.1773
usemtl Material.001
s off
f 5/5/2 7/6/2 8/7/2 6/8/2
o Plane.006
v -42.352833 45.371513 -21.199289
v -42.352848 -45.750160 -21.199289
v -62.038990 45.371513 82.386063
v -62.039005 -45.750160 82.386063
vt 0.000100 0.000100
vt 0.000100 0.999900
vt 0.999900 0.999900
vt 0.999900 0.000100
vn 0.9824 -0.0000 0.1867
usemtl Material.001
s off
f 9/9/3 11/10/3 12/11/3 10/12/3
o Plane.005
v -46.748650 -43.219944 -21.817450
v 44.373024 -43.219948 -21.817450
v -46.748650 -54.616714 83.004219
v 44.373024 -54.616718 83.004219
vt 0.000100 0.000100
vt 0.000100 0.999900
vt 0.999900 0.999900
vt 0.999900 0.000100
vn 0.0000 0.9941 0.1081
usemtl Material.001
s off
f 13/13/4 15/14/4 16/15/4 14/16/4
o Plane.004
v 69.286415 70.947128 -23.803589
v -72.134926 -70.474243 -23.803589
v 69.759300 70.474243 176.195297
v -71.662041 -70.947128 176.195297
vt 0.000100 0.000100
vt 0.999900 0.000100
vt 0.999900 0.999900
vt 0.000100 0.999900
vn -0.7071 0.7071 0.0033
usemtl Material.001
s off
f 17/17/5 18/18/5 20/19/5 19/20/5
o Plane.003
v -72.134949 70.474220 -23.803589
v 69.286438 -70.947105 -23.803589
v -71.662064 70.947105 176.195297
v 69.759323 -70.474220 176.195297
vt 0.000100 0.000100
vt 0.999900 0.000100
vt 0.999900 0.999900
vt 0.000100 0.999900
vn -0.7071 -0.7071 0.0033
usemtl Material.001
s off
f 21/21/6 22/22/6 24/23/6 23/24/6
o Plane.002
v -71.662048 -70.947128 -23.803589
v 69.759308 70.474243 -23.803589
v -72.134933 -70.474243 176.195297
v 69.286423 70.947128 176.195297
vt 0.000100 0.000100
vt 0.999900 0.000100
vt 0.999900 0.999900
vt 0.000100 0.999900
vn 0.7071 -0.7071 0.0033
usemtl Material.001
s off
f 25/25/7 26/26/7 28/27/7 27/28/7
o Plane.001
v -101.187813 -0.334385 -23.803589
v 98.812187 -0.334370 -23.803589
v -101.187813 0.334370 176.195297
v 98.812187 0.334385 176.195297
vt 0.000100 0.000100
vt 0.999900 0.000100
vt 0.999900 0.999900
vt 0.000100 0.999900
vn 0.0000 -1.0000 0.0033
usemtl Material.001
s off
f 29/29/8 30/30/8 32/31/8 31/32/8
o Plane
v -0.853435 -100.000000 -23.803589
v -0.853435 100.000000 -23.803589
v -1.522189 -100.000000 176.195297
v -1.522189 100.000000 176.195297
vt 0.000100 0.000100
vt 0.999900 0.000100
vt 0.999900 0.999900
vt 0.000100 0.999900
vn 1.0000 0.0000 0.0033
usemtl Material.001
s off
f 33/33/9 34/34/9 36/35/9 35/36/9
