# Blender v2.79 (sub 0) OBJ File: 'fire_alarm.blend'
# www.blender.org
mtllib office_rug.mtl
o Cube_Cube.002
v 0.273946 0.206711 0.491147
v 0.273946 2.206711 0.491147
v 0.273946 0.206711 -1.508853
v 0.273946 2.206711 -1.508853
v 1.498945 0.206711 0.491147
v 1.498945 2.206711 0.491147
v 1.498945 0.206711 -1.508853
v 1.498945 2.206711 -1.508853
v 1.502528 2.206711 -1.508853
v 1.502528 0.206711 -1.508853
v 1.502528 0.206711 0.491147
v 1.502528 2.206711 0.491147
v 1.502528 2.129425 -1.431567
v 1.502528 0.283997 -1.431567
v 1.502528 0.283997 0.413861
v 1.502528 2.129425 0.413861
v 1.637481 2.129425 -1.431567
v 1.637481 0.283997 -1.431567
v 1.637481 0.283997 0.413861
v 1.637481 2.129425 0.413861
v 1.637481 2.129425 -1.431567
v 1.637481 0.283997 -1.431567
v 1.637481 0.283997 0.413861
v 1.637481 2.129425 0.413861
v 1.692978 2.040974 -1.343116
v 1.692978 0.372448 -1.343116
v 1.692978 0.372448 0.325410
v 1.692978 2.040974 0.325410
v 1.692978 1.443228 -1.343116
v 1.692978 0.970194 -1.343116
v 1.692978 0.970194 0.325410
v 1.692978 1.443228 0.325410
v 1.904687 1.443228 -1.343116
v 1.904687 0.970194 -1.343116
v 1.904687 0.970194 0.325410
v 1.904687 1.443228 0.325410
v 2.010675 1.387312 -1.145886
v 2.010675 1.026109 -1.145886
v 2.010675 1.026109 0.128180
v 2.010675 1.387312 0.128180
vt 0.675643 0.377826
vt 0.675643 0.615545
vt 0.437924 0.615546
vt 0.437923 0.377826
vt 0.200204 0.615546
vt 0.200204 0.377827
vt 0.437924 0.853265
vt 0.675643 0.853265
vt 0.675678 0.857413
vt 0.437959 0.857414
vt 0.913362 0.377826
vt 0.913362 0.615545
vt 0.437923 0.140107
vt 0.675642 0.140107
vt 0.666492 0.866600
vt 0.447145 0.866600
vt 0.196056 0.615581
vt 0.196055 0.377862
vt 0.917511 0.377791
vt 0.917511 0.615510
vt 0.437888 0.135958
vt 0.675607 0.135958
vt 0.926697 0.606324
vt 0.926697 0.386977
vt 0.952885 0.386977
vt 0.952886 0.606324
vt 0.186869 0.606395
vt 0.186869 0.387048
vt 0.447074 0.126772
vt 0.666421 0.126772
vt 0.447145 0.892788
vt 0.666492 0.892788
vt 0.666492 0.896616
vt 0.447145 0.896616
vt 0.447074 0.100583
vt 0.666421 0.100583
vt 0.160681 0.606395
vt 0.160681 0.387048
vt 0.156852 0.387048
vt 0.156853 0.606395
vt 0.141802 0.595882
vt 0.141802 0.397561
vt 0.956714 0.386977
vt 0.956714 0.606324
vt 0.447074 0.096755
vt 0.666421 0.096755
vt 0.971764 0.595810
vt 0.971764 0.397490
vt 0.978685 0.595694
vt 0.975225 0.595782
vt 0.457587 0.081705
vt 0.655908 0.081705
vt 0.655979 0.911667
vt 0.457659 0.911667
vt 0.310825 0.903278
vt 0.093801 0.903203
vt 0.093817 0.858245
vt 0.310840 0.858320
vt 0.457587 0.010657
vt 0.655908 0.010657
vt 0.655979 0.982715
vt 0.457659 0.982715
vt 0.134881 0.397678
vt 0.138341 0.397589
vt 0.085349 0.838232
vt 0.085370 0.783977
vt 0.106672 0.783977
vt 0.106648 0.838232
vt 0.364299 0.780431
vt 0.364278 0.841959
vt 0.319320 0.841943
vt 0.319341 0.780416
vt 0.040390 0.841846
vt 0.040412 0.780319
vt 0.085370 0.780335
vt 0.085349 0.841862
vt 0.093865 0.719000
vt 0.310888 0.719074
vt 0.310873 0.764032
vt 0.093849 0.763958
vt 0.298030 0.783977
vt 0.298030 0.838232
vt 0.106672 0.763958
vt 0.298030 0.764032
vt 0.298030 0.858320
vt 0.106648 0.858245
vt 0.319341 0.783977
vt 0.319320 0.838232
vn -1.0000 0.0000 0.0000
vn 0.0000 0.0000 -1.0000
vn 0.0000 1.0000 0.0000
vn 0.0000 0.0000 1.0000
vn 0.0000 -1.0000 0.0000
vn 1.0000 0.0000 0.0000
vn 0.8471 0.0000 -0.5315
vn 0.8471 0.0000 0.5315
vn 0.8471 -0.5315 0.0000
vn 0.8471 0.5315 0.0000
vn 0.8809 0.0000 0.4734
vn 0.4666 -0.8845 0.0000
vn 0.4666 0.8845 0.0000
vn 0.8809 0.0000 -0.4734
usemtl None
s off
f 1/1/1 2/2/1 4/3/1 3/4/1
f 3/4/2 4/3/2 8/5/2 7/6/2
f 8/7/3 6/8/3 12/9/3 9/10/3
f 5/11/4 6/12/4 2/2/4 1/1/4
f 3/4/5 7/13/5 5/14/5 1/1/5
f 8/7/3 4/3/3 2/2/3 6/8/3
f 9/10/6 12/9/6 16/15/6 13/16/6
f 7/6/2 8/5/2 9/17/2 10/18/2
f 6/12/4 5/11/4 11/19/4 12/20/4
f 5/14/5 7/13/5 10/21/5 11/22/5
f 16/23/4 15/24/4 19/25/4 20/26/4
f 10/18/6 9/17/6 13/27/6 14/28/6
f 12/20/6 11/19/6 15/24/6 16/23/6
f 11/22/6 10/21/6 14/29/6 15/30/6
f 17/31/4 20/32/4 24/33/4 21/34/4
f 15/30/5 14/29/5 18/35/5 19/36/5
f 13/16/3 16/15/3 20/32/3 17/31/3
f 14/28/2 13/27/2 17/37/2 18/38/2
f 22/39/7 21/40/7 25/41/7 26/42/7
f 18/38/4 17/37/4 21/40/4 22/39/4
f 20/26/4 19/25/4 23/43/4 24/44/4
f 19/36/4 18/35/4 22/45/4 23/46/4
f 28/47/6 27/48/6 31/49/6 32/50/6
f 24/44/8 23/43/8 27/48/8 28/47/8
f 23/46/9 22/45/9 26/51/9 27/52/9
f 21/34/10 24/33/10 28/53/10 25/54/10
f 29/55/3 32/56/3 36/57/3 33/58/3
f 27/52/6 26/51/6 30/59/6 31/60/6
f 25/54/6 28/53/6 32/61/6 29/62/6
f 26/42/6 25/41/6 29/63/6 30/64/6
f 36/65/11 35/66/11 39/67/11 40/68/11
f 30/69/2 29/70/2 33/71/2 34/72/2
f 32/73/4 31/74/4 35/75/4 36/76/4
f 31/77/5 30/78/5 34/79/5 35/80/5
f 38/81/6 37/82/6 40/68/6 39/67/6
f 35/83/12 34/84/12 38/81/12 39/67/12
f 33/85/13 36/86/13 40/68/13 37/82/13
f 34/87/14 33/88/14 37/82/14 38/81/14
