# Blender v2.79 (sub 0) OBJ File: 'office_marker.blend'
# www.blender.org
mtllib office_marker.mtl
o Cylinder_Cylinder.002
v 0.192756 2.054591 -0.268077
v 0.192756 6.189809 -0.186129
v 0.270792 2.054591 -0.260391
v 0.254805 6.189809 -0.180018
v 0.345829 2.054591 -0.237629
v 0.314469 6.189809 -0.161919
v 0.414984 2.054591 -0.200665
v 0.369456 6.189809 -0.132528
v 0.475599 2.054591 -0.150920
v 0.417652 6.189809 -0.092974
v 0.525344 2.054591 -0.090305
v 0.457206 6.189809 -0.044777
v 0.562308 2.054591 -0.021151
v 0.486597 6.189809 0.010210
v 0.585070 2.054591 0.053887
v 0.504696 6.189809 0.069874
v 0.592756 2.054591 0.131923
v 0.510808 6.189809 0.131923
v 0.585070 2.054591 0.209959
v 0.504696 6.189809 0.193971
v 0.562308 2.054591 0.284996
v 0.486597 6.189809 0.253636
v 0.525344 2.054591 0.354151
v 0.457206 6.189809 0.308623
v 0.475599 2.054591 0.414765
v 0.417652 6.189809 0.356819
v 0.414984 2.054591 0.464511
v 0.369456 6.189809 0.396373
v 0.345829 2.054591 0.501475
v 0.314469 6.189809 0.425764
v 0.270792 2.054591 0.524237
v 0.254805 6.189809 0.443863
v 0.192756 2.054591 0.531923
v 0.192756 6.189809 0.449974
v 0.114720 2.054591 0.524237
v 0.130707 6.189809 0.443863
v 0.039683 2.054591 0.501474
v 0.071043 6.189809 0.425764
v -0.029472 2.054591 0.464510
v 0.016056 6.189809 0.396373
v -0.090087 2.054591 0.414765
v -0.032141 6.189809 0.356819
v -0.139832 2.054591 0.354151
v -0.071694 6.189809 0.308623
v -0.176796 2.054591 0.284996
v -0.101085 6.189809 0.253636
v -0.199558 2.054591 0.209959
v -0.119184 6.189809 0.193971
v -0.207244 2.054591 0.131922
v -0.125296 6.189809 0.131922
v -0.199558 2.054591 0.053886
v -0.119184 6.189809 0.069874
v -0.176796 2.054591 -0.021151
v -0.101085 6.189809 0.010209
v -0.139832 2.054591 -0.090306
v -0.071694 6.189809 -0.044778
v -0.090086 2.054591 -0.150920
v -0.032140 6.189809 -0.092974
v -0.029472 2.054591 -0.200665
v 0.016056 6.189809 -0.132528
v 0.039683 2.054591 -0.237629
v 0.071043 6.189809 -0.161919
v 0.114721 2.054591 -0.260392
v 0.130708 6.189809 -0.180018
v 0.250375 6.278688 -0.157747
v 0.192756 6.278688 -0.163422
v 0.305780 6.278688 -0.140940
v 0.356841 6.278688 -0.113647
v 0.401596 6.278688 -0.076918
v 0.438326 6.278688 -0.032162
v 0.465619 6.278688 0.018899
v 0.482426 6.278688 0.074304
v 0.488101 6.278688 0.131923
v 0.482426 6.278688 0.189542
v 0.465619 6.278688 0.244946
v 0.438326 6.278688 0.296007
v 0.401596 6.278688 0.340763
v 0.356841 6.278688 0.377493
v 0.305780 6.278688 0.404786
v 0.250375 6.278688 0.421592
v 0.192756 6.278688 0.427267
v 0.135137 6.278688 0.421592
v 0.079732 6.278688 0.404786
v 0.028671 6.278688 0.377493
v -0.016084 6.278688 0.340763
v -0.052814 6.278688 0.296007
v -0.080107 6.278688 0.244946
v -0.096914 6.278688 0.189541
v -0.102589 6.278688 0.131922
v -0.096914 6.278688 0.074303
v -0.080107 6.278688 0.018899
v -0.052814 6.278688 -0.032162
v -0.016084 6.278688 -0.076918
v 0.028672 6.278688 -0.113648
v 0.079733 6.278688 -0.140940
v 0.135138 6.278688 -0.157747
v 0.246548 6.347764 -0.138506
v 0.192756 6.347764 -0.143804
v 0.298272 6.347764 -0.122815
v 0.345941 6.347764 -0.097335
v 0.387724 6.347764 -0.063045
v 0.422014 6.347764 -0.021263
v 0.447494 6.347764 0.026407
v 0.463184 6.347764 0.078131
v 0.468482 6.347764 0.131923
v 0.463184 6.353068 0.185714
v 0.447494 6.353068 0.237439
v 0.422014 6.353068 0.285108
v 0.387724 6.353068 0.326891
v 0.345941 6.353068 0.361181
v 0.298272 6.353068 0.386661
v 0.246547 6.353068 0.402351
v 0.192756 6.353068 0.407649
v 0.138964 6.353068 0.402351
v 0.087240 6.353068 0.386661
v 0.039571 6.353068 0.361181
v -0.002212 6.353068 0.326891
v -0.036502 6.353068 0.285108
v -0.061982 6.353068 0.237438
v -0.077672 6.353068 0.185714
v -0.082970 6.347764 0.131922
v -0.077672 6.347764 0.078131
v -0.061982 6.347764 0.026406
v -0.036502 6.347764 -0.021263
v -0.002212 6.347764 -0.063046
v 0.039571 6.347764 -0.097336
v 0.087240 6.347764 -0.122815
v 0.138965 6.347764 -0.138506
v 0.256905 6.853290 -0.190573
v 0.192756 6.853290 -0.196891
v 0.318588 6.853290 -0.171862
v 0.375435 6.853290 -0.141476
v 0.425263 6.853290 -0.100584
v 0.466155 6.853290 -0.050757
v 0.496541 6.853290 0.006091
v 0.515252 6.853290 0.067774
v 0.521570 6.853290 0.131923
v 0.515252 6.858595 0.196071
v 0.496541 6.858595 0.257754
v 0.466155 6.858595 0.314602
v 0.425263 6.858595 0.364429
v 0.375435 6.858595 0.405322
v 0.318588 6.858595 0.435707
v 0.256904 6.858595 0.454419
v 0.192756 6.858595 0.460737
v 0.128607 6.858595 0.454419
v 0.066924 6.858595 0.435707
v 0.010077 6.858595 0.405322
v -0.039751 6.858595 0.364429
v -0.080643 6.858595 0.314602
v -0.111029 6.858595 0.257754
v -0.129740 6.858595 0.196071
v -0.136058 6.853290 0.131922
v -0.129740 6.853290 0.067774
v -0.111028 6.853290 0.006091
v -0.080643 6.853290 -0.050757
v -0.039750 6.853290 -0.100584
v 0.010077 6.853290 -0.141476
v 0.066925 6.853290 -0.171862
v 0.128608 6.853290 -0.190573
v 0.256905 6.970396 -0.190573
v 0.192756 6.970396 -0.196891
v 0.318588 6.975700 -0.171862
v 0.375435 6.975700 -0.141476
v 0.425263 6.975700 -0.100584
v 0.466155 6.975700 -0.050757
v 0.496541 6.975700 0.006091
v 0.515252 6.975700 0.067774
v 0.521570 6.975700 0.131923
v 0.515252 6.975700 0.196071
v 0.496541 6.975700 0.257754
v 0.466155 6.975700 0.314602
v 0.425263 6.975700 0.364429
v 0.375435 6.975700 0.405322
v 0.318588 6.975700 0.435707
v 0.256904 6.975700 0.454419
v 0.192756 6.975700 0.460737
v 0.128607 6.975700 0.454419
v 0.066924 6.975700 0.435707
v 0.010077 6.975700 0.405322
v -0.039751 6.975700 0.364429
v -0.080643 6.975700 0.314602
v -0.111029 6.975700 0.257754
v -0.129740 6.975700 0.196071
v -0.136058 6.975700 0.131922
v -0.129740 6.975700 0.067774
v -0.111028 6.975700 0.006091
v -0.080643 6.975700 -0.050757
v -0.039750 6.975700 -0.100584
v 0.010077 6.975700 -0.141476
v 0.066925 6.975700 -0.171862
v 0.128608 6.970396 -0.190573
v 0.249905 6.970396 -0.155386
v 0.192756 6.970396 -0.161015
v 0.304858 6.975700 -0.138716
v 0.355503 6.975700 -0.111646
v 0.399894 6.975700 -0.075215
v 0.436324 6.975700 -0.030824
v 0.463395 6.975700 0.019820
v 0.480065 6.975700 0.074773
v 0.485693 6.975700 0.131923
v 0.480065 6.975700 0.189072
v 0.463395 6.975700 0.244025
v 0.436324 6.975700 0.294670
v 0.399894 6.975700 0.339061
v 0.355503 6.975700 0.375491
v 0.304858 6.975700 0.402561
v 0.249905 6.975700 0.419231
v 0.192756 6.975700 0.424860
v 0.135607 6.975700 0.419231
v 0.080654 6.975700 0.402561
v 0.030009 6.975700 0.375491
v -0.014382 6.975700 0.339060
v -0.050812 6.975700 0.294670
v -0.077883 6.975700 0.244025
v -0.094552 6.975700 0.189072
v -0.100181 6.975700 0.131922
v -0.094552 6.975700 0.074773
v -0.077882 6.975700 0.019820
v -0.050812 6.975700 -0.030825
v -0.014382 6.975700 -0.075215
v 0.030009 6.975700 -0.111646
v 0.080654 6.975700 -0.138716
v 0.135607 6.970396 -0.155386
v 0.214038 6.970396 0.024929
v 0.192756 6.970396 0.022833
v 0.234503 6.975701 0.031137
v 0.253363 6.975701 0.041218
v 0.269894 6.975701 0.054785
v 0.283461 6.975701 0.071316
v 0.293542 6.975701 0.090176
v 0.299750 6.975701 0.110640
v 0.301846 6.975701 0.131923
v 0.299750 6.975701 0.153205
v 0.293542 6.975701 0.173669
v 0.283461 6.975701 0.192530
v 0.269894 6.975701 0.209061
v 0.253363 6.975701 0.222627
v 0.234503 6.975701 0.232708
v 0.214038 6.975701 0.238916
v 0.192756 6.975701 0.241012
v 0.171474 6.975701 0.238916
v 0.151009 6.975701 0.232708
v 0.132149 6.975701 0.222627
v 0.115618 6.975701 0.209061
v 0.102051 6.975701 0.192529
v 0.091970 6.975701 0.173669
v 0.085763 6.975701 0.153205
v 0.083666 6.975701 0.131923
v 0.085763 6.975701 0.110640
v 0.091970 6.975701 0.090176
v 0.102051 6.975701 0.071316
v 0.115618 6.975701 0.054785
v 0.132149 6.975701 0.041218
v 0.151009 6.975701 0.031137
v 0.171474 6.970396 0.024929
v 0.214038 6.986771 0.024929
v 0.192756 6.986771 0.022833
v 0.234503 6.986771 0.031137
v 0.253363 6.986771 0.041218
v 0.269894 6.986771 0.054785
v 0.283461 6.986771 0.071316
v 0.293542 6.986771 0.090176
v 0.299750 6.986771 0.110640
v 0.301846 6.986771 0.131923
v 0.299750 6.992075 0.153205
v 0.293542 6.992075 0.173669
v 0.283461 6.992075 0.192530
v 0.269894 6.992075 0.209061
v 0.253363 6.992075 0.222627
v 0.234503 6.992075 0.232708
v 0.214038 6.992075 0.238916
v 0.192756 6.992075 0.241012
v 0.171474 6.992075 0.238916
v 0.151009 6.992075 0.232708
v 0.132149 6.992075 0.222627
v 0.115618 6.992075 0.209061
v 0.102051 6.992075 0.192529
v 0.091970 6.992075 0.173669
v 0.085763 6.986771 0.153205
v 0.083667 6.986771 0.131923
v 0.085763 6.986771 0.110640
v 0.091970 6.986771 0.090176
v 0.102051 6.986771 0.071316
v 0.115618 6.986771 0.054785
v 0.132149 6.986771 0.041218
v 0.151009 6.986771 0.031137
v 0.171474 6.986771 0.024929
v 0.214038 7.101694 0.024929
v 0.192756 7.101694 0.022833
v 0.234503 7.101694 0.031137
v 0.253363 7.101694 0.041218
v 0.269894 7.101694 0.054785
v 0.283461 7.101694 0.071316
v 0.293542 7.101694 0.090176
v 0.299749 7.101694 0.110640
v 0.301846 7.101694 0.131923
v 0.299749 7.101694 0.153205
v 0.293542 7.101694 0.173669
v 0.283461 7.101694 0.192530
v 0.269894 7.101694 0.209061
v 0.253363 7.101694 0.222627
v 0.234503 7.101694 0.232708
v 0.214038 7.101694 0.238916
v 0.192756 7.101694 0.241012
v 0.171474 7.101694 0.238916
v 0.151009 7.101694 0.232708
v 0.132149 7.101694 0.222627
v 0.115618 7.101694 0.209061
v 0.102051 7.101694 0.192529
v 0.091970 7.101694 0.173669
v 0.085763 7.101694 0.153205
v 0.083666 7.101694 0.131923
v 0.085763 7.101694 0.110640
v 0.091970 7.101694 0.090176
v 0.102051 7.101694 0.071316
v 0.115618 7.101694 0.054785
v 0.132149 7.101694 0.041218
v 0.151009 7.101694 0.031137
v 0.171474 7.101694 0.024929
v 0.250375 6.278688 0.421592
v 0.192756 6.278688 0.427267
vn 0.0980 0.0197 -0.9950
vn 0.2902 0.0197 -0.9568
vn 0.4713 0.0197 -0.8817
vn 0.6343 0.0197 -0.7729
vn 0.7729 0.0197 -0.6343
vn 0.8817 0.0197 -0.4713
vn 0.9568 0.0197 -0.2902
vn 0.9950 0.0197 -0.0980
vn 0.9950 0.0197 0.0980
vn 0.9568 0.0197 0.2902
vn 0.8817 0.0197 0.4713
vn 0.7729 0.0197 0.6343
vn 0.6343 0.0197 0.7729
vn 0.4713 0.0197 0.8817
vn 0.2902 0.0197 0.9568
vn 0.0980 0.0197 0.9950
vn -0.0980 0.0197 0.9950
vn -0.2902 0.0197 0.9568
vn -0.4713 0.0197 0.8817
vn -0.6343 0.0197 0.7729
vn -0.7729 0.0197 0.6343
vn -0.8818 0.0197 0.4713
vn -0.9568 0.0197 0.2902
vn -0.9950 0.0197 0.0980
vn -0.9950 0.0197 -0.0980
vn -0.9568 0.0197 -0.2902
vn -0.8817 0.0197 -0.4713
vn -0.7729 0.0197 -0.6343
vn -0.6343 0.0197 -0.7729
vn -0.4713 0.0197 -0.8818
vn -0.0950 0.2464 -0.9645
vn -0.2902 0.0197 -0.9568
vn -0.0980 0.0197 -0.9950
vn 0.0000 -1.0000 0.0000
vn -0.8487 0.2720 -0.4536
vn 0.9274 0.2464 0.2813
vn -0.4569 0.2464 0.8547
vn -0.7492 0.2464 -0.6148
vn 0.8547 0.2464 -0.4569
vn 0.2813 0.2464 0.9274
vn -0.9645 0.2464 0.0950
vn 0.2813 0.2464 -0.9274
vn 0.8547 0.2464 0.4569
vn -0.6148 0.2464 0.7492
vn -0.6148 0.2464 -0.7492
vn 0.9274 0.2464 -0.2813
vn 0.0950 0.2464 0.9645
vn -0.9645 0.2464 -0.0950
vn 0.4569 0.2464 -0.8547
vn 0.7492 0.2464 0.6148
vn -0.7492 0.2464 0.6148
vn -0.4569 0.2464 -0.8547
vn 0.9645 0.2464 -0.0950
vn -0.0950 0.2464 0.9645
vn -0.9274 0.2464 -0.2813
vn 0.6148 0.2464 -0.7492
vn 0.6148 0.2464 0.7492
vn -0.8547 0.2464 0.4569
vn -0.2813 0.2464 -0.9274
vn 0.9645 0.2464 0.0950
vn -0.2813 0.2464 0.9274
vn -0.8547 0.2464 -0.4569
vn 0.7492 0.2464 -0.6148
vn 0.4569 0.2464 0.8547
vn -0.9274 0.2464 0.2813
vn 0.0950 0.2464 -0.9645
vn 0.4688 -0.1039 -0.8771
vn 0.4559 0.2539 0.8530
vn 0.0943 0.2720 -0.9577
vn -0.7439 0.2720 -0.6105
vn 0.2808 0.2539 0.9256
vn 0.2793 0.2720 -0.9209
vn -0.6105 0.2720 -0.7439
vn 0.0948 0.2539 0.9626
vn 0.4536 0.2720 -0.8487
vn -0.4536 0.2720 -0.8487
vn -0.0948 0.2539 0.9626
vn 0.6105 0.2720 -0.7439
vn -0.2793 0.2720 -0.9209
vn -0.2808 0.2539 0.9256
vn 0.7439 0.2720 -0.6105
vn -0.0943 0.2720 -0.9577
vn -0.4559 0.2539 0.8530
vn 0.8487 0.2720 -0.4536
vn -0.6136 0.2539 0.7477
vn 0.9209 0.2720 -0.2793
vn -0.7477 0.2539 0.6136
vn 0.9577 0.2720 -0.0943
vn -0.8530 0.2539 0.4559
vn 0.9614 0.2626 0.0822
vn -0.9256 0.2539 0.2808
vn 0.9256 0.2539 0.2808
vn -0.9614 0.2626 0.0822
vn 0.8530 0.2539 0.4560
vn -0.9577 0.2720 -0.0943
vn 0.7477 0.2539 0.6136
vn -0.9209 0.2720 -0.2793
vn 0.6136 0.2539 0.7477
vn 0.8819 0.0000 -0.4714
vn -0.4688 -0.1039 -0.8771
vn -0.0975 -0.1039 0.9898
vn 0.6310 -0.1039 -0.7688
vn -0.2887 -0.1039 -0.9518
vn -0.2887 -0.1039 0.9518
vn 0.7688 -0.1039 -0.6310
vn -0.0975 -0.1039 -0.9898
vn -0.4688 -0.1039 0.8771
vn 0.8771 -0.1039 -0.4688
vn -0.6310 -0.1039 0.7688
vn 0.9518 -0.1039 -0.2887
vn -0.7688 -0.1039 0.6310
vn 0.9898 -0.1039 -0.0975
vn -0.8771 -0.1039 0.4688
vn 0.9888 -0.1039 0.1067
vn -0.9518 -0.1039 0.2887
vn 0.9518 -0.1039 0.2887
vn -0.9888 -0.1039 0.1067
vn 0.8771 -0.1039 0.4688
vn -0.9898 -0.1039 -0.0975
vn 0.7688 -0.1039 0.6310
vn -0.9518 -0.1039 -0.2887
vn 0.6310 -0.1039 0.7688
vn -0.8771 -0.1039 -0.4688
vn 0.4688 -0.1039 0.8771
vn 0.0975 -0.1039 -0.9898
vn -0.7688 -0.1039 -0.6310
vn 0.2887 -0.1039 0.9518
vn 0.2887 -0.1039 -0.9518
vn -0.6310 -0.1039 -0.7688
vn 0.0975 -0.1039 0.9898
vn 0.0000 1.0000 -0.0000
vn -0.6344 0.0000 0.7730
vn 0.9569 0.0000 -0.2903
vn -0.7730 0.0000 0.6344
vn 0.9952 0.0000 -0.0980
vn -0.8819 0.0000 0.4714
vn 0.9952 0.0000 0.0980
vn -0.9569 0.0000 0.2903
vn 0.9569 0.0000 0.2903
vn -0.9952 0.0000 0.0980
vn 0.8819 0.0000 0.4714
vn -0.9952 0.0000 -0.0980
vn 0.7730 0.0000 0.6344
vn -0.9569 0.0000 -0.2903
vn 0.6344 0.0000 0.7730
vn -0.8819 0.0000 -0.4714
vn 0.4714 0.0000 0.8819
vn 0.0980 0.0000 -0.9952
vn -0.7730 0.0000 -0.6344
vn 0.2903 0.0000 0.9569
vn 0.2903 0.0000 -0.9569
vn -0.6344 0.0000 -0.7730
vn 0.0980 0.0000 0.9952
vn 0.4714 0.0000 -0.8819
vn -0.4714 0.0000 -0.8819
vn -0.0980 0.0000 0.9952
vn 0.6344 0.0000 -0.7730
vn -0.2903 0.0000 -0.9569
vn -0.2903 0.0000 0.9569
vn 0.7730 0.0000 -0.6344
vn -0.0980 0.0000 -0.9952
vn -0.4714 0.0000 0.8819
vn -0.0830 0.9962 -0.0252
vn 0.0830 0.9962 -0.0252
vn -0.1277 0.9911 -0.0387
vn 0.1277 0.9911 -0.0387
usemtl None
s off
f 1//1 2//1 4//1 3//1
f 3//2 4//2 6//2 5//2
f 5//3 6//3 8//3 7//3
f 7//4 8//4 10//4 9//4
f 9//5 10//5 12//5 11//5
f 11//6 12//6 14//6 13//6
f 13//7 14//7 16//7 15//7
f 15//8 16//8 18//8 17//8
f 17//9 18//9 20//9 19//9
f 19//10 20//10 22//10 21//10
f 21//11 22//11 24//11 23//11
f 23//12 24//12 26//12 25//12
f 25//13 26//13 28//13 27//13
f 27//14 28//14 30//14 29//14
f 29//15 30//15 32//15 31//15
f 31//16 32//16 34//16 33//16
f 33//17 34//17 36//17 35//17
f 35//18 36//18 38//18 37//18
f 37//19 38//19 40//19 39//19
f 39//20 40//20 42//20 41//20
f 41//21 42//21 44//21 43//21
f 43//22 44//22 46//22 45//22
f 45//23 46//23 48//23 47//23
f 47//24 48//24 50//24 49//24
f 49//25 50//25 52//25 51//25
f 51//26 52//26 54//26 53//26
f 53//27 54//27 56//27 55//27
f 55//28 56//28 58//28 57//28
f 57//29 58//29 60//29 59//29
f 59//30 60//30 62//30 61//30
f 2//31 64//31 96//31 66//31
f 61//32 62//32 64//32 63//32
f 63//33 64//33 2//33 1//33
f 1//34 3//34 5//34 7//34 9//34 11//34 13//34 15//34 17//34 19//34 21//34 23//34 25//34 27//34 29//34 31//34 33//34 35//34 37//34 39//34 41//34 43//34 45//34 47//34 49//34 51//34 53//34 55//34 57//34 59//34 61//34 63//34
f 92//35 91//35 123//35 124//35
f 22//36 20//36 74//36 75//36
f 40//37 38//37 83//37 84//37
f 58//38 56//38 92//38 93//38
f 14//39 12//39 70//39 71//39
f 32//40 30//40 79//40 321//40
f 50//41 48//41 88//41 89//41
f 6//42 4//42 65//42 67//42
f 24//43 22//43 75//43 76//43
f 42//44 40//44 84//44 85//44
f 60//45 58//45 93//45 94//45
f 16//46 14//46 71//46 72//46
f 34//47 32//47 321//47 322//47
f 52//48 50//48 89//48 90//48
f 8//49 6//49 67//49 68//49
f 26//50 24//50 76//50 77//50
f 44//51 42//51 85//51 86//51
f 62//52 60//52 94//52 95//52
f 18//53 16//53 72//53 73//53
f 36//54 34//54 322//54 82//54
f 54//55 52//55 90//55 91//55
f 10//56 8//56 68//56 69//56
f 28//57 26//57 77//57 78//57
f 46//58 44//58 86//58 87//58
f 64//59 62//59 95//59 96//59
f 20//60 18//60 73//60 74//60
f 38//61 36//61 82//61 83//61
f 56//62 54//62 91//62 92//62
f 12//63 10//63 69//63 70//63
f 30//64 28//64 78//64 79//64
f 48//65 46//65 87//65 88//65
f 4//66 2//66 66//66 65//66
f 100//67 99//67 131//67 132//67
f 79//68 78//68 110//68 111//68
f 65//69 66//69 98//69 97//69
f 93//70 92//70 124//70 125//70
f 80//71 79//71 111//71 112//71
f 67//72 65//72 97//72 99//72
f 94//73 93//73 125//73 126//73
f 81//74 80//74 112//74 113//74
f 68//75 67//75 99//75 100//75
f 95//76 94//76 126//76 127//76
f 82//77 81//77 113//77 114//77
f 69//78 68//78 100//78 101//78
f 96//79 95//79 127//79 128//79
f 83//80 82//80 114//80 115//80
f 70//81 69//81 101//81 102//81
f 66//82 96//82 128//82 98//82
f 84//83 83//83 115//83 116//83
f 71//84 70//84 102//84 103//84
f 85//85 84//85 116//85 117//85
f 72//86 71//86 103//86 104//86
f 86//87 85//87 117//87 118//87
f 73//88 72//88 104//88 105//88
f 87//89 86//89 118//89 119//89
f 74//90 73//90 105//90 106//90
f 88//91 87//91 119//91 120//91
f 75//92 74//92 106//92 107//92
f 89//93 88//93 120//93 121//93
f 76//94 75//94 107//94 108//94
f 90//95 89//95 121//95 122//95
f 77//96 76//96 108//96 109//96
f 91//97 90//97 122//97 123//97
f 78//98 77//98 109//98 110//98
f 135//99 134//99 166//99 167//99
f 127//100 126//100 158//100 159//100
f 114//101 113//101 145//101 146//101
f 101//102 100//102 132//102 133//102
f 128//103 127//103 159//103 160//103
f 115//104 114//104 146//104 147//104
f 102//105 101//105 133//105 134//105
f 98//106 128//106 160//106 130//106
f 116//107 115//107 147//107 148//107
f 103//108 102//108 134//108 135//108
f 117//109 116//109 148//109 149//109
f 104//110 103//110 135//110 136//110
f 118//111 117//111 149//111 150//111
f 105//112 104//112 136//112 137//112
f 119//113 118//113 150//113 151//113
f 106//114 105//114 137//114 138//114
f 120//115 119//115 151//115 152//115
f 107//116 106//116 138//116 139//116
f 121//117 120//117 152//117 153//117
f 108//118 107//118 139//118 140//118
f 122//119 121//119 153//119 154//119
f 109//120 108//120 140//120 141//120
f 123//121 122//121 154//121 155//121
f 110//122 109//122 141//122 142//122
f 124//123 123//123 155//123 156//123
f 111//124 110//124 142//124 143//124
f 97//125 98//125 130//125 129//125
f 125//126 124//126 156//126 157//126
f 112//127 111//127 143//127 144//127
f 99//128 97//128 129//128 131//128
f 126//129 125//129 157//129 158//129
f 113//130 112//130 144//130 145//130
f 170//131 169//131 201//131 202//131
f 149//132 148//132 180//132 181//132
f 136//133 135//133 167//133 168//133
f 150//134 149//134 181//134 182//134
f 137//135 136//135 168//135 169//135
f 151//136 150//136 182//136 183//136
f 138//137 137//137 169//137 170//137
f 152//138 151//138 183//138 184//138
f 139//139 138//139 170//139 171//139
f 153//140 152//140 184//140 185//140
f 140//141 139//141 171//141 172//141
f 154//142 153//142 185//142 186//142
f 141//143 140//143 172//143 173//143
f 155//144 154//144 186//144 187//144
f 142//145 141//145 173//145 174//145
f 156//146 155//146 187//146 188//146
f 143//147 142//147 174//147 175//147
f 129//148 130//148 162//148 161//148
f 157//149 156//149 188//149 189//149
f 144//150 143//150 175//150 176//150
f 131//151 129//151 161//151 163//151
f 158//152 157//152 189//152 190//152
f 145//153 144//153 176//153 177//153
f 132//154 131//154 163//154 164//154
f 159//155 158//155 190//155 191//155
f 146//156 145//156 177//156 178//156
f 133//157 132//157 164//157 165//157
f 160//158 159//158 191//158 192//158
f 147//159 146//159 178//159 179//159
f 134//160 133//160 165//160 166//160
f 130//161 160//161 192//161 162//161
f 148//162 147//162 179//162 180//162
f 205//131 204//131 236//131 237//131
f 184//131 183//131 215//131 216//131
f 171//131 170//131 202//131 203//131
f 185//131 184//131 216//131 217//131
f 172//131 171//131 203//131 204//131
f 186//131 185//131 217//131 218//131
f 173//131 172//131 204//131 205//131
f 187//131 186//131 218//131 219//131
f 174//131 173//131 205//131 206//131
f 188//131 187//131 219//131 220//131
f 175//131 174//131 206//131 207//131
f 161//131 162//131 194//131 193//131
f 189//131 188//131 220//131 221//131
f 176//131 175//131 207//131 208//131
f 163//163 161//163 193//163 195//163
f 190//131 189//131 221//131 222//131
f 177//131 176//131 208//131 209//131
f 164//131 163//131 195//131 196//131
f 191//131 190//131 222//131 223//131
f 178//131 177//131 209//131 210//131
f 165//131 164//131 196//131 197//131
f 192//164 191//164 223//164 224//164
f 179//131 178//131 210//131 211//131
f 166//131 165//131 197//131 198//131
f 162//131 192//131 224//131 194//131
f 180//131 179//131 211//131 212//131
f 167//131 166//131 198//131 199//131
f 181//131 180//131 212//131 213//131
f 168//131 167//131 199//131 200//131
f 182//131 181//131 213//131 214//131
f 169//131 168//131 200//131 201//131
f 183//131 182//131 214//131 215//131
f 240//150 239//150 271//150 272//150
f 219//131 218//131 250//131 251//131
f 206//131 205//131 237//131 238//131
f 220//131 219//131 251//131 252//131
f 207//131 206//131 238//131 239//131
f 193//131 194//131 226//131 225//131
f 221//131 220//131 252//131 253//131
f 208//131 207//131 239//131 240//131
f 195//165 193//165 225//165 227//165
f 222//131 221//131 253//131 254//131
f 209//131 208//131 240//131 241//131
f 196//131 195//131 227//131 228//131
f 223//131 222//131 254//131 255//131
f 210//131 209//131 241//131 242//131
f 197//131 196//131 228//131 229//131
f 224//166 223//166 255//166 256//166
f 211//131 210//131 242//131 243//131
f 198//131 197//131 229//131 230//131
f 194//131 224//131 256//131 226//131
f 212//131 211//131 243//131 244//131
f 199//131 198//131 230//131 231//131
f 213//131 212//131 244//131 245//131
f 200//131 199//131 231//131 232//131
f 214//131 213//131 245//131 246//131
f 201//131 200//131 232//131 233//131
f 215//131 214//131 246//131 247//131
f 202//131 201//131 233//131 234//131
f 216//131 215//131 247//131 248//131
f 203//131 202//131 234//131 235//131
f 217//131 216//131 248//131 249//131
f 204//131 203//131 235//131 236//131
f 218//131 217//131 249//131 250//131
f 275//159 274//159 306//159 307//159
f 227//151 225//151 257//151 259//151
f 254//152 253//152 285//152 286//152
f 241//153 240//153 272//153 273//153
f 228//154 227//154 259//154 260//154
f 255//155 254//155 286//155 287//155
f 242//156 241//156 273//156 274//156
f 229//157 228//157 260//157 261//157
f 256//158 255//158 287//158 288//158
f 243//159 242//159 274//159 275//159
f 230//160 229//160 261//160 262//160
f 226//161 256//161 288//161 258//161
f 244//162 243//162 275//162 276//162
f 231//99 230//99 262//99 263//99
f 245//132 244//132 276//132 277//132
f 232//133 231//133 263//133 264//133
f 246//134 245//134 277//134 278//134
f 233//135 232//135 264//135 265//135
f 247//136 246//136 278//136 279//136
f 234//137 233//137 265//137 266//137
f 248//138 247//138 279//138 280//138
f 235//139 234//139 266//139 267//139
f 249//140 248//140 280//140 281//140
f 236//141 235//141 267//141 268//141
f 250//142 249//142 281//142 282//142
f 237//143 236//143 268//143 269//143
f 251//144 250//144 282//144 283//144
f 238//145 237//145 269//145 270//145
f 252//146 251//146 283//146 284//146
f 239//147 238//147 270//147 271//147
f 225//148 226//148 258//148 257//148
f 253//149 252//149 284//149 285//149
f 289//131 290//131 320//131 319//131 318//131 317//131 316//131 315//131 314//131 313//131 312//131 311//131 310//131 309//131 308//131 307//131 306//131 305//131 304//131 303//131 302//131 301//131 300//131 299//131 298//131 297//131 296//131 295//131 294//131 293//131 292//131 291//131
f 262//160 261//160 293//160 294//160
f 258//161 288//161 320//161 290//161
f 276//162 275//162 307//162 308//162
f 263//99 262//99 294//99 295//99
f 277//132 276//132 308//132 309//132
f 264//133 263//133 295//133 296//133
f 278//134 277//134 309//134 310//134
f 265//135 264//135 296//135 297//135
f 279//136 278//136 310//136 311//136
f 266//137 265//137 297//137 298//137
f 280//138 279//138 311//138 312//138
f 267//139 266//139 298//139 299//139
f 281//140 280//140 312//140 313//140
f 268//141 267//141 299//141 300//141
f 282//142 281//142 313//142 314//142
f 269//143 268//143 300//143 301//143
f 283//144 282//144 314//144 315//144
f 270//145 269//145 301//145 302//145
f 284//146 283//146 315//146 316//146
f 271//147 270//147 302//147 303//147
f 257//148 258//148 290//148 289//148
f 285//149 284//149 316//149 317//149
f 272//150 271//150 303//150 304//150
f 259//151 257//151 289//151 291//151
f 286//152 285//152 317//152 318//152
f 273//153 272//153 304//153 305//153
f 260//154 259//154 291//154 292//154
f 287//155 286//155 318//155 319//155
f 274//156 273//156 305//156 306//156
f 261//157 260//157 292//157 293//157
f 288//158 287//158 319//158 320//158
