# Blender v2.79 (sub 0) OBJ File: 'cornholeBoardJack.blend'
# www.blender.org
mtllib cornholeBoardJack.mtl
o Board_Cube
v 91.656792 -186.926575 29.463650
v -93.558868 -186.502777 29.383598
v -92.767998 170.276718 88.017586
v 92.447701 169.852936 88.097641
v 99.024475 -195.721130 38.907814
v -100.974991 -195.263443 38.821369
v -100.151375 176.165756 99.430351
v 99.848061 175.708115 99.516785
v 99.052811 -190.606995 0.571251
v -100.946671 -190.149460 0.484818
v 99.876411 180.830551 61.128677
v -100.123085 181.288162 61.042252
v 91.677261 -183.261063 1.529785
v -93.538414 -182.837326 1.449730
v 92.468155 173.518433 60.163765
v -92.747543 173.942200 60.083717
v 92.394142 140.347290 55.811008
v 92.450905 165.787262 59.149277
v 92.442490 166.670959 83.304825
v 92.384064 140.520950 80.089233
v 78.268669 140.379608 55.804905
v 78.325424 165.819611 59.143181
v 78.317009 166.703278 83.298721
v 78.258583 140.553268 80.083130
v 92.417786 140.204300 0.363724
v 92.476479 165.862350 0.386002
v 78.292305 140.236633 0.357620
v 78.350998 165.894653 0.379898
v -92.821342 140.858246 55.742409
v -92.764519 166.330994 59.084961
v -92.773392 166.312347 79.512955
v -92.830841 141.159271 79.296883
v -77.849953 140.824005 55.748878
v -77.793121 166.296753 59.091431
v -77.802002 166.278137 79.519424
v -77.859444 141.125015 79.303345
v -92.797737 140.715195 0.365463
v -92.738937 166.406158 0.292538
v -77.826347 140.680954 0.371933
v -77.767548 166.371948 0.299011
v 37.647942 73.427971 82.777023
v 37.555309 75.110191 72.483192
v -23.462694 49.626877 78.844025
v -23.555569 51.313541 68.523041
v -27.794020 55.017166 79.720108
v -27.886839 56.702831 69.405228
v 36.848957 66.594383 81.661301
v 36.756260 68.277878 71.359718
v -18.149155 45.173962 78.121719
v -18.242077 46.861443 67.795677
v 34.714447 60.046104 80.591049
v 34.621681 61.730804 70.282059
v -12.057601 41.829533 77.580872
v -12.150555 43.517639 67.251068
v 31.326435 54.034775 79.607430
v 31.233606 55.720604 69.291595
v -5.422129 39.722115 77.242348
v -5.515104 41.410610 66.910164
v 26.815115 48.791443 78.748199
v 26.722235 50.478237 68.426399
v 1.502267 38.932701 77.119110
v 1.409284 40.621338 66.786057
v 21.353865 44.517563 78.046417
v 21.260941 46.205151 67.719765
v 8.449485 39.491627 77.215897
v 8.356507 41.180153 66.883499
v 15.152550 41.377399 77.529015
v 15.059592 43.065575 67.198776
v 35.169014 86.899727 84.973305
v 35.076523 88.579453 74.694740
v -30.976685 61.137672 80.716255
v -31.069437 62.822197 70.408310
v -32.888371 67.753181 81.794220
v -32.981060 69.436493 71.493752
v 37.080692 80.284210 83.895348
v 36.988132 81.965164 73.609283
v -33.455627 74.609482 82.912537
v -33.548248 76.291504 72.619865
v 31.986359 93.020233 85.969437
v 31.893932 94.698830 75.697823
v -30.522121 87.991341 85.098503
v -30.614607 89.670898 74.821014
v 27.655043 98.410515 86.845535
v 27.562668 100.088120 76.579994
v -32.656643 81.443069 84.028259
v -32.749191 83.123833 73.743347
v 16.249960 106.207878 88.108681
v 16.157663 107.884033 77.851974
v -27.134109 94.002663 86.082123
v -27.226530 95.681107 75.811470
v 22.341511 102.863441 87.567863
v 22.249182 104.540222 77.307365
v 9.614488 108.315308 88.447212
v 9.522212 109.991081 78.192871
v -22.622786 99.246002 86.941376
v -22.715153 100.923477 76.676651
v -17.161528 103.519890 87.643143
v -17.253851 105.196556 77.383301
v 2.690087 109.104736 88.570450
v 2.597821 110.780357 78.316986
v -4.257137 108.545815 88.473663
v -4.349409 110.221535 78.219551
v -10.960206 106.660049 88.160538
v -11.052498 108.336136 77.904274
vt 0.684471 0.866047
vt 0.684470 0.933364
vt 0.336362 0.933364
vt 0.336363 0.866047
vt 0.993361 0.540127
vt 0.991400 0.607415
vt 0.336362 0.607415
vt 0.338324 0.540035
vt 0.336362 0.865208
vt 0.336362 0.797800
vt 0.684471 0.797800
vt 0.684471 0.865208
vt 0.991402 0.608344
vt 0.993353 0.675633
vt 0.338314 0.675633
vt 0.336362 0.608254
vt 0.349228 0.966377
vt 0.671606 0.966377
vt 0.684472 0.979243
vt 0.336362 0.979243
vt 0.966213 0.938761
vt 0.774991 0.949747
vt 0.631647 0.951612
vt 0.348807 0.946661
vt 0.336362 0.934204
vt 0.970271 0.934202
vt 0.349190 0.952631
vt 0.362553 0.952589
vt 0.407276 0.952451
vt 0.978511 0.952667
vt 0.991369 0.965539
vt 0.336362 0.965539
vt 0.671602 0.992947
vt 0.349228 0.992947
vt 0.336362 0.980081
vt 0.684468 0.980081
vt 0.659576 0.408115
vt 0.981952 0.408115
vt 0.981952 0.457152
vt 0.659576 0.457152
vt 0.961016 0.739886
vt 0.345740 0.739887
vt 0.336362 0.679067
vt 0.353195 0.676472
vt 0.352453 0.729264
vt 0.363433 0.685795
vt 0.404462 0.690656
vt 0.962841 0.691978
vt 0.336362 0.740725
vt 0.965641 0.747936
vt 0.966669 0.796962
vt 0.395454 0.788534
vt 0.355329 0.796962
vt 0.345417 0.754317
vt 0.350748 0.789471
vt 0.337390 0.789751
vt 0.981953 0.407276
vt 0.659576 0.407277
vt 0.659576 0.358240
vt 0.981953 0.358240
vt 0.800838 0.528131
vt 0.758766 0.528131
vt 0.758766 0.503545
vt 0.800838 0.503545
vt 0.711231 0.457990
vt 0.705433 0.499849
vt 0.659576 0.499476
vt 0.666572 0.457990
vt 0.757927 0.528132
vt 0.712069 0.528131
vt 0.712070 0.503545
vt 0.757928 0.503546
vt 0.766955 0.309875
vt 0.766955 0.352133
vt 0.742369 0.352133
vt 0.742369 0.309875
vt 0.745255 0.205868
vt 0.720669 0.205868
vt 0.720669 0.103588
vt 0.745255 0.103588
vt 0.741530 0.309875
vt 0.741530 0.354534
vt 0.716944 0.354534
vt 0.716944 0.309875
vt 0.764938 0.303265
vt 0.720654 0.309037
vt 0.720612 0.206757
vt 0.765271 0.206757
vt 0.719773 0.309037
vt 0.675487 0.303283
vt 0.675115 0.206775
vt 0.719773 0.206757
vt 0.772152 0.096928
vt 0.747566 0.096928
vt 0.747568 0.000419
vt 0.772154 0.000420
vt 0.659576 0.500687
vt 0.703358 0.500687
vt 0.703358 0.526746
vt 0.659576 0.526746
vt 0.710669 0.354260
vt 0.675115 0.354533
vt 0.675115 0.310751
vt 0.716106 0.309875
vt 0.719831 0.102750
vt 0.675487 0.096989
vt 0.675115 0.000603
vt 0.719831 0.000419
vt 0.738966 0.498991
vt 0.738966 0.457990
vt 0.765024 0.457990
vt 0.765024 0.498991
vt 0.765863 0.457990
vt 0.801418 0.457990
vt 0.801418 0.484049
vt 0.765863 0.484049
vt 0.712069 0.502707
vt 0.712069 0.457990
vt 0.738127 0.457990
vt 0.738127 0.502707
vt 0.719458 0.200157
vt 0.675115 0.205919
vt 0.675115 0.103588
vt 0.719831 0.103772
vt 0.772152 0.199974
vt 0.746094 0.199974
vt 0.746093 0.103588
vt 0.772152 0.103588
vt 0.746727 0.102750
vt 0.720669 0.102750
vt 0.720669 0.000419
vt 0.746727 0.000419
vt 0.317546 0.999581
vt 0.000419 0.995111
vt 0.000419 0.375963
vt 0.102184 0.538827
vt 0.107461 0.551735
vt 0.112566 0.563736
vt 0.117889 0.574419
vt 0.125194 0.583858
vt 0.134202 0.591692
vt 0.144885 0.586369
vt 0.156401 0.583233
vt 0.168308 0.582403
vt 0.180148 0.583912
vt 0.191466 0.587702
vt 0.201827 0.593627
vt 0.211267 0.586323
vt 0.219100 0.577317
vt 0.225025 0.566956
vt 0.230052 0.552150
vt 0.233749 0.526054
vt 0.335524 0.358240
vt 0.430817 0.010309
vt 0.414895 0.825000
vt 0.284227 0.600418
vt 0.283412 0.585596
vt 0.279744 0.571331
vt 0.273383 0.558173
vt 0.264594 0.546628
vt 0.255998 0.535618
vt 0.243955 0.536508
vt 0.230056 0.537420
vt 0.216399 0.537500
vt 0.202775 0.538464
vt 0.189150 0.537445
vt 0.175850 0.536457
vt 0.165822 0.547874
vt 0.156790 0.559587
vt 0.150210 0.572912
vt 0.146336 0.587358
vt 0.145308 0.602428
vt 0.001500 0.822340
vt -0.000773 0.010309
vt 0.147122 0.618974
vt 0.151481 0.636110
vt 0.161632 0.628200
vt 0.171311 0.624248
vt 0.181414 0.620522
vt 0.191258 0.616266
vt 0.202250 0.617658
vt 0.213286 0.618355
vt 0.224316 0.618779
vt 0.235103 0.619907
vt 0.246042 0.620319
vt 0.255847 0.624078
vt 0.265653 0.627836
vt 0.276451 0.634178
vt 0.281683 0.616648
vt 0.658738 0.358240
vt 0.563562 0.525577
vt 0.562548 0.513488
vt 0.559195 0.501828
vt 0.553322 0.512443
vt 0.545490 0.521708
vt 0.536001 0.529267
vt 0.525219 0.534830
vt 0.513560 0.538183
vt 0.501470 0.539196
vt 0.489415 0.537832
vt 0.477858 0.534142
vt 0.467242 0.528269
vt 0.457976 0.520437
vt 0.450417 0.510949
vt 0.444853 0.500168
vt 0.441163 0.511725
vt 0.439799 0.523779
vt 0.336362 0.358240
vt 0.784449 0.218888
vt 0.766226 0.218888
vt 0.766109 0.206757
vt 0.784333 0.206757
vt 0.784404 0.296708
vt 0.766200 0.296708
vt 0.766109 0.284576
vt 0.784321 0.284576
vt 0.784425 0.270768
vt 0.766213 0.270768
vt 0.766109 0.258637
vt 0.784328 0.258637
vt 0.785124 0.000535
vt 0.785124 0.018620
vt 0.772992 0.018503
vt 0.772992 0.000419
vt 0.766109 0.219727
vt 0.784332 0.219727
vt 0.784444 0.231858
vt 0.766225 0.231858
vt 0.765863 0.484887
vt 0.784087 0.484887
vt 0.784204 0.497018
vt 0.765980 0.497018
vt 0.766109 0.271606
vt 0.784322 0.271606
vt 0.784412 0.283738
vt 0.766208 0.283738
vt 0.798092 0.173738
vt 0.798092 0.191894
vt 0.785961 0.191881
vt 0.785961 0.173740
vt 0.803418 0.244828
vt 0.785279 0.244844
vt 0.785279 0.232713
vt 0.803432 0.232697
vt 0.785124 0.076661
vt 0.785124 0.094758
vt 0.772992 0.094654
vt 0.772992 0.076564
vt 0.803453 0.218889
vt 0.785300 0.218889
vt 0.785287 0.206757
vt 0.803454 0.206757
vt 0.798092 0.122697
vt 0.798092 0.140838
vt 0.785961 0.140803
vt 0.785961 0.122675
vt 0.779925 0.309875
vt 0.779925 0.328080
vt 0.767793 0.328153
vt 0.767793 0.309959
vt 0.803156 0.497018
vt 0.785042 0.497018
vt 0.785096 0.484887
vt 0.803223 0.484887
vt 0.785122 0.103588
vt 0.785122 0.121782
vt 0.772991 0.121837
vt 0.772991 0.103655
vt 0.786061 0.341123
vt 0.767868 0.341123
vt 0.767793 0.328992
vt 0.785996 0.328992
vt 0.797373 0.284641
vt 0.797373 0.302757
vt 0.785242 0.302682
vt 0.785242 0.284576
vt 0.785124 0.038604
vt 0.785124 0.056693
vt 0.772992 0.056581
vt 0.772992 0.038495
vt 0.791095 0.204909
vt 0.772991 0.204909
vt 0.773065 0.192778
vt 0.791179 0.192778
vt 0.786029 0.354093
vt 0.767849 0.354093
vt 0.767793 0.341962
vt 0.785985 0.341962
vt 0.785124 0.019568
vt 0.785124 0.037657
vt 0.772992 0.037554
vt 0.772992 0.019458
vt 0.797395 0.258637
vt 0.797395 0.276805
vt 0.785263 0.276816
vt 0.785263 0.258661
vt 0.766109 0.245667
vt 0.784329 0.245667
vt 0.784432 0.257798
vt 0.766218 0.257798
vt 0.785123 0.141846
vt 0.785122 0.159930
vt 0.772991 0.159813
vt 0.772991 0.141728
vt 0.784440 0.244828
vt 0.766222 0.244828
vt 0.766109 0.232697
vt 0.784332 0.232697
vt 0.803409 0.231858
vt 0.785283 0.231858
vt 0.785316 0.219727
vt 0.803455 0.219727
vt 0.798092 0.103632
vt 0.798092 0.121760
vt 0.785961 0.121704
vt 0.785961 0.103588
vt 0.785122 0.173854
vt 0.785122 0.191940
vt 0.772991 0.191827
vt 0.772991 0.173738
vt 0.785122 0.122675
vt 0.785122 0.140857
vt 0.772991 0.140890
vt 0.772991 0.122721
vt 0.791193 0.172900
vt 0.773026 0.172900
vt 0.772991 0.160769
vt 0.791171 0.160769
vt 0.792895 0.309958
vt 0.792895 0.328063
vt 0.780763 0.327971
vt 0.780763 0.309875
vt 0.785124 0.057630
vt 0.785124 0.075726
vt 0.772992 0.075635
vt 0.772992 0.057532
vn -0.0022 -0.9912 -0.1322
vn -1.0000 0.0023 -0.0004
vn 0.0022 0.9912 0.1323
vn 1.0000 -0.0023 0.0004
vn 0.0007 0.1301 -0.9915
vn -0.0709 0.1613 -0.9844
vn 0.0723 0.1609 -0.9843
vn 0.0022 0.9915 0.1301
vn -0.0022 -0.9915 -0.1301
vn 0.0023 0.9993 -0.0366
vn -0.0007 -0.1220 0.9925
vn -0.0023 -1.0000 0.0072
vn 0.0023 1.0000 0.0013
vn 0.0004 0.0009 -1.0000
vn -0.0023 -1.0000 0.0026
vn -0.0005 -0.0086 1.0000
vn -0.0023 -0.9999 0.0128
vn 0.0023 1.0000 0.0009
vn 0.0004 -0.0028 -1.0000
vn 0.0008 0.1622 -0.9868
vn -0.0008 -0.1610 0.9869
vn 0.1146 0.9806 0.1592
vn 0.6472 0.7533 0.1173
vn 0.4860 0.8632 0.1367
vn -0.1146 -0.9806 -0.1592
vn -0.2742 0.9487 0.1575
vn -0.0814 0.9835 0.1615
vn -0.6214 0.7724 0.1318
vn -0.9966 -0.0817 -0.0044
vn 0.9934 -0.1117 -0.0272
vn -0.4860 -0.8632 -0.1367
vn 0.9966 0.0817 0.0044
vn -0.9616 -0.2720 -0.0358
vn -0.7623 0.6377 0.1111
vn 0.8739 -0.4784 -0.0861
vn -0.8739 0.4784 0.0861
vn 0.7835 0.6144 0.0934
vn -0.7835 -0.6144 -0.0934
vn -0.3062 -0.9399 -0.1508
vn 0.7623 -0.6377 -0.1111
vn 0.8896 0.4519 0.0658
vn 0.4566 -0.8774 -0.1475
vn -0.9934 0.1117 0.0272
vn -0.4566 0.8774 0.1475
vn 0.0814 -0.9835 -0.1615
vn 0.3062 0.9399 0.1508
vn 0.9519 -0.3009 -0.0577
vn -0.8896 -0.4519 -0.0658
vn 0.2742 -0.9487 -0.1575
vn -0.9519 0.3009 0.0577
vn 0.9616 0.2720 0.0358
vn -0.6472 -0.7533 -0.1173
vn 0.6214 -0.7724 -0.1318
usemtl Material.002
s off
f 9/1/1 5/2/1 6/3/1 10/4/1
f 10/5/2 6/6/2 7/7/2 12/8/2
f 12/9/3 7/10/3 8/11/3 11/12/3
f 5/13/4 9/14/4 11/15/4 8/16/4
f 14/17/5 13/18/5 9/19/5 10/20/5
f 13/21/6 17/22/6 18/23/6 15/24/6 11/25/6 9/26/6
f 16/27/7 30/28/7 29/29/7 14/30/7 10/31/7 12/32/7
f 15/33/5 16/34/5 12/35/5 11/36/5
f 2/37/8 1/38/8 13/39/8 14/40/8
f 1/41/2 4/42/2 15/43/2 18/44/2 19/45/2 20/46/2 17/47/2 13/48/2
f 3/49/4 2/50/4 14/51/4 29/52/4 32/53/4 31/54/4 30/55/4 16/56/4
f 4/57/9 3/58/9 16/59/9 15/60/9
f 19/61/10 18/62/10 22/63/10 23/64/10
f 21/65/2 24/66/2 23/67/2 22/68/2
f 20/69/11 19/70/11 23/71/11 24/72/11
f 17/73/12 20/74/12 24/75/12 21/76/12
f 22/77/13 18/78/13 26/79/13 28/80/13
f 26/81/14 25/82/14 27/83/14 28/84/14
f 21/85/2 22/86/2 28/87/2 27/88/2
f 18/89/4 17/90/4 25/91/4 26/92/4
f 17/93/15 21/94/15 27/95/15 25/96/15
f 31/97/16 32/98/16 36/99/16 35/100/16
f 34/101/4 35/102/4 36/103/4 33/104/4
f 34/105/4 33/106/4 39/107/4 40/108/4
f 32/109/17 29/110/17 33/111/17 36/112/17
f 30/113/18 31/114/18 35/115/18 34/116/18
f 37/117/19 38/118/19 40/119/19 39/120/19
f 29/121/2 30/122/2 38/123/2 37/124/2
f 33/125/15 29/126/15 37/127/15 39/128/15
f 30/129/13 34/130/13 40/131/13 38/132/13
f 1/133/20 2/134/20 3/135/20 78/136/20 74/137/20 72/138/20 46/139/20 44/140/20 50/141/20 54/142/20 58/143/20 62/144/20 66/145/20 68/146/20 64/147/20 60/148/20 56/149/20 52/150/20 48/151/20 42/152/20 4/153/20
f 5/154/21 8/155/21 41/156/21 47/157/21 51/158/21 55/159/21 59/160/21 63/161/21 67/162/21 65/163/21 61/164/21 57/165/21 53/166/21 49/167/21 43/168/21 45/169/21 71/170/21 73/171/21 77/172/21 7/173/21 6/174/21
f 7/173/21 77/172/21 85/175/21 81/176/21 89/177/21 95/178/21 97/179/21 103/180/21 101/181/21 99/182/21 93/183/21 87/184/21 91/185/21 83/186/21 79/187/21 69/188/21 75/189/21 41/156/21 8/155/21
f 4/190/20 42/191/20 76/192/20 70/193/20 80/194/20 84/195/20 92/196/20 88/197/20 94/198/20 100/199/20 102/200/20 104/201/20 98/202/20 96/203/20 90/204/20 82/205/20 86/206/20 78/207/20 3/208/20
usemtl Material.002_NONE
f 58/209/22 57/210/22 61/211/22 62/212/22
f 44/213/23 43/214/23 49/215/23 50/216/23
f 50/217/24 49/218/24 53/219/24 54/220/24
f 94/221/25 93/222/25 99/223/25 100/224/25
f 66/225/26 65/226/26 67/227/26 68/228/26
f 62/229/27 61/230/27 65/231/27 66/232/27
f 64/233/28 63/234/28 59/235/28 60/236/28
f 42/237/29 41/238/29 75/239/29 76/240/29
f 86/241/30 85/242/30 77/243/30 78/244/30
f 92/245/31 91/246/31 87/247/31 88/248/31
f 78/249/32 77/250/32 73/251/32 74/252/32
f 76/253/33 75/254/33 69/255/33 70/256/33
f 60/257/34 59/258/34 55/259/34 56/260/34
f 90/261/35 89/262/35 81/263/35 82/264/35
f 56/265/36 55/266/36 51/267/36 52/268/36
f 46/269/37 45/270/37 43/271/37 44/272/37
f 80/273/38 79/274/38 83/275/38 84/276/38
f 88/277/39 87/278/39 93/279/39 94/280/39
f 96/281/40 95/282/40 89/283/40 90/284/40
f 72/285/41 71/286/41 45/287/41 46/288/41
f 104/289/42 103/290/42 97/291/42 98/292/42
f 48/293/43 47/294/43 41/295/43 42/296/43
f 68/297/44 67/298/44 63/299/44 64/300/44
f 100/301/45 99/302/45 101/303/45 102/304/45
f 54/305/46 53/306/46 57/307/46 58/308/46
f 82/309/47 81/310/47 85/311/47 86/312/47
f 70/313/48 69/314/48 79/315/48 80/316/48
f 102/317/49 101/318/49 103/319/49 104/320/49
f 52/321/50 51/322/50 47/323/50 48/324/50
f 74/325/51 73/326/51 71/327/51 72/328/51
f 84/329/52 83/330/52 91/331/52 92/332/52
f 98/333/53 97/334/53 95/335/53 96/336/53
