# Blender v2.79 (sub 0) OBJ File: 'Crate01.blend'
# www.blender.org
mtllib Crate01.mtl
o Cube.001_Cube.004
v -39.363110 40.682598 37.030006
v -39.126404 -36.293011 36.793308
v 30.801456 40.682602 37.030006
v 30.564766 -36.293011 36.793308
v 30.801456 40.682598 -33.134560
v -39.363110 40.682598 -33.134560
v 30.564766 -36.293011 -32.897861
v -39.126404 -36.293015 -32.897861
v 34.206982 -32.893776 37.036293
v 34.206982 37.283363 37.036293
v -42.768627 -32.887020 37.029537
v -42.768627 37.276608 37.029537
v 34.206982 37.283363 -33.140846
v 34.206982 -32.893776 -33.140846
v -42.768627 37.276608 -33.134090
v -42.768627 -32.887020 -33.134090
v -39.126308 -32.650688 -36.540081
v -39.050728 -32.575115 40.435528
v -39.050728 36.964703 40.435528
v -39.126308 37.040276 -36.540081
v 30.564651 37.040276 -36.540081
v 30.564651 -32.650688 -36.540081
v 30.489090 36.964703 40.435528
v 30.489090 -32.575115 40.435528
v -48.375069 46.289040 -42.146523
v -48.375069 46.289040 46.041969
v 39.813423 46.289040 -42.146523
v 39.813423 46.289040 46.041969
v -48.375069 -41.899452 -42.146523
v -48.375069 -41.899452 46.041969
v 39.813423 -41.899452 -42.146523
v 39.813423 -41.899452 46.041969
v -39.280819 37.194794 46.041965
v -39.280827 37.194794 -42.146519
v 30.719181 37.194794 46.041965
v 30.719173 37.194794 -42.146523
v 30.719181 -32.805206 46.041965
v 30.719173 -32.805206 -42.146519
v -39.280819 -32.805206 46.041965
v -39.280827 -32.805206 -42.146523
v -48.375069 37.194794 36.947723
v 39.813419 37.194794 36.947723
v -48.375065 37.194794 -33.052277
v 39.813419 37.194794 -33.052277
v -48.375069 -32.805206 -33.052277
v 39.813419 -32.805206 -33.052277
v 39.813419 -32.805206 36.947723
v -48.375065 -32.805206 36.947723
v 30.719181 -41.899448 -33.052277
v 30.719173 46.289036 -33.052277
v 30.719181 -41.899452 36.947723
v 30.719173 46.289043 36.947723
v -39.280819 -41.899448 36.947723
v -39.280827 46.289036 36.947723
v -39.280819 -41.899456 -33.052277
v -39.280827 46.289040 -33.052277
vt 0.077089 0.477263
vt 0.077089 0.698724
vt 0.059359 0.698984
vt 0.059359 0.477002
vt 0.131068 0.472872
vt 0.131068 0.251413
vt 0.148797 0.251131
vt 0.148797 0.473151
vt 0.167732 0.243938
vt 0.167732 0.022476
vt 0.185462 0.023204
vt 0.185462 0.243210
vt 0.185463 0.243938
vt 0.185463 0.022476
vt 0.203194 0.022966
vt 0.203194 0.243450
vt 0.189225 0.252451
vt 0.189225 0.473910
vt 0.171496 0.474168
vt 0.171496 0.252191
vt 0.093896 0.248174
vt 0.093896 0.026714
vt 0.111624 0.027201
vt 0.111624 0.247683
vt 0.131068 0.251429
vt 0.131068 0.472890
vt 0.113338 0.473151
vt 0.113338 0.251168
vt 0.206954 0.252448
vt 0.206954 0.473910
vt 0.189225 0.474168
vt 0.189225 0.252189
vt 0.059406 0.249980
vt 0.059406 0.028520
vt 0.077136 0.029251
vt 0.077136 0.249255
vt 0.058590 0.473952
vt 0.058590 0.252491
vt 0.076321 0.252979
vt 0.076321 0.473464
vt 0.112388 0.476001
vt 0.112388 0.697461
vt 0.094659 0.697740
vt 0.094659 0.475720
vt 0.041678 0.249980
vt 0.041678 0.028518
vt 0.059406 0.029007
vt 0.059406 0.249491
vt 0.113338 0.251429
vt 0.113338 0.472890
vt 0.095608 0.473151
vt 0.095608 0.251169
vt 0.041631 0.477265
vt 0.041631 0.698724
vt 0.023902 0.698984
vt 0.023902 0.477007
vt 0.023950 0.249980
vt 0.023950 0.028520
vt 0.041678 0.029011
vt 0.041678 0.249493
vt 0.040859 0.473952
vt 0.040859 0.252491
vt 0.058590 0.252979
vt 0.058590 0.473463
vt 0.147846 0.475998
vt 0.147846 0.697460
vt 0.130117 0.697740
vt 0.130117 0.475718
vt 0.147082 0.026714
vt 0.147082 0.248174
vt 0.129352 0.247449
vt 0.129352 0.027446
vt 0.202081 0.730372
vt 0.202081 0.990254
vt 0.175294 0.963454
vt 0.175294 0.757172
vt 0.147271 0.981285
vt 0.120471 0.954498
vt 0.120473 0.748316
vt 0.147272 0.721529
vt 0.911635 0.725048
vt 0.911635 1.000152
vt 0.883278 0.971782
vt 0.883279 0.753417
vt 0.758337 0.734466
vt 0.758335 0.994224
vt 0.731536 0.967437
vt 0.731537 0.761253
vt 0.505258 0.729361
vt 0.505258 0.989117
vt 0.478459 0.962330
vt 0.478458 0.756148
vt 0.836160 0.992663
vt 0.809373 0.965863
vt 0.809373 0.759581
vt 0.836160 0.732781
vt 0.992400 0.255772
vt 0.992400 0.475671
vt 0.621310 0.475671
vt 0.621310 0.255772
vt 0.297670 0.990886
vt 0.270883 0.964086
vt 0.270883 0.757804
vt 0.297669 0.731005
vt 0.619813 0.701335
vt 0.619816 0.479420
vt 0.993450 0.479420
vt 0.993448 0.701335
vt 0.239886 0.480393
vt 0.613060 0.480393
vt 0.613060 0.702376
vt 0.239886 0.702375
vt 0.578124 0.966448
vt 0.578124 0.760166
vt 0.604910 0.733366
vt 0.604910 0.993248
vt 0.240003 0.254173
vt 0.611503 0.254173
vt 0.611506 0.476045
vt 0.240006 0.476045
vt 0.240575 0.244833
vt 0.240575 0.024453
vt 0.613440 0.024453
vt 0.613440 0.244833
vt 0.991007 0.245500
vt 0.620187 0.245500
vt 0.620187 0.025123
vt 0.991007 0.025123
vt 0.653968 0.996948
vt 0.627169 0.970161
vt 0.627170 0.763976
vt 0.653970 0.737189
vt 0.224684 0.252446
vt 0.224684 0.473908
vt 0.206954 0.474168
vt 0.206954 0.252186
vt 0.041631 0.477264
vt 0.059359 0.477005
vt 0.059359 0.698984
vt 0.119381 0.985912
vt 0.093098 0.959616
vt 0.093098 0.757213
vt 0.119381 0.730918
vt 0.023129 0.473952
vt 0.023129 0.252491
vt 0.040859 0.253218
vt 0.040859 0.473224
vt 0.346231 0.992266
vt 0.319444 0.965466
vt 0.319444 0.759184
vt 0.346231 0.732385
vt 0.220925 0.022476
vt 0.220925 0.243938
vt 0.203194 0.243449
vt 0.989270 0.995011
vt 0.960914 0.966641
vt 0.960914 0.748277
vt 0.989270 0.719908
vt 0.130117 0.475998
vt 0.130117 0.697459
vt 0.112388 0.697740
vt 0.112388 0.475718
vt 0.111624 0.248174
vt 0.111624 0.026712
vt 0.129352 0.027201
vt 0.129353 0.247685
vt 0.533151 0.990389
vt 0.506352 0.963602
vt 0.506352 0.757417
vt 0.533151 0.730630
vt 0.396580 0.964942
vt 0.396580 0.758758
vt 0.423380 0.731971
vt 0.423380 0.991729
vt 0.774493 0.762443
vt 0.801279 0.735643
vt 0.801279 0.995524
vt 0.774493 0.968725
vt 0.374823 0.990661
vt 0.348024 0.963874
vt 0.348023 0.757692
vt 0.374823 0.730905
vt 0.655636 0.969238
vt 0.655636 0.762958
vt 0.682423 0.736159
vt 0.682423 0.996037
vt 0.729869 0.995255
vt 0.703082 0.968455
vt 0.703082 0.762176
vt 0.729869 0.735376
vt 0.882089 0.996825
vt 0.853719 0.968469
vt 0.853719 0.750207
vt 0.882089 0.721851
vt 0.931620 0.966212
vt 0.931620 0.747951
vt 0.959990 0.719594
vt 0.959990 0.994568
vt 0.244107 0.758041
vt 0.270893 0.731242
vt 0.270893 0.991123
vt 0.244107 0.964323
vt 0.451684 0.991152
vt 0.424885 0.964365
vt 0.424886 0.758183
vt 0.451686 0.731396
vt 0.577178 0.994078
vt 0.550379 0.967291
vt 0.550379 0.761109
vt 0.577178 0.734322
vt 0.230187 0.991818
vt 0.203387 0.965031
vt 0.203387 0.758848
vt 0.230187 0.732062
vn -0.9999 -0.0147 0.0000
vn -0.0158 0.0000 -0.9999
vn 0.0000 -0.9992 0.0410
vn -0.9996 -0.0275 0.0000
vn 0.0146 0.0000 -0.9999
vn 0.9996 0.0000 -0.0276
vn 0.0000 -0.0147 0.9999
vn 0.0146 -0.9999 0.0000
vn 0.9992 0.0000 0.0410
vn 0.0000 -0.0275 0.9996
vn -0.0158 0.0000 0.9999
vn 0.0000 -0.9996 -0.0275
vn 0.9999 -0.0147 0.0000
vn 0.0146 0.0000 0.9999
vn -0.9996 -0.0000 -0.0276
vn 0.9996 -0.0275 0.0000
vn -0.0158 0.9999 0.0000
vn -0.9992 0.0000 0.0410
vn 0.0000 1.0000 0.0000
vn 1.0000 0.0000 0.0000
vn -0.0000 -1.0000 0.0000
vn -1.0000 0.0000 0.0000
vn 0.0000 -0.0000 -1.0000
vn 0.0000 0.0000 1.0000
vn 0.0000 -0.0147 -0.9999
vn 0.0146 0.9999 0.0000
vn 0.0000 0.9992 0.0410
vn 0.0000 -0.0275 -0.9996
vn -0.0158 -0.9999 0.0000
vn 0.0000 0.9996 -0.0275
usemtl Material.001
s off
f 52/1/1 50/2/1 5/3/1 3/4/1
f 42/5/2 47/6/2 9/7/2 10/8/2
f 35/9/3 33/10/3 19/11/3 23/12/3
f 49/13/4 51/14/4 4/15/4 7/16/4
f 48/17/5 41/18/5 12/19/5 11/20/5
f 40/21/6 34/22/6 20/23/6 17/24/6
f 50/25/7 56/26/7 6/27/7 5/28/7
f 41/29/8 43/30/8 15/31/8 12/32/8
f 33/33/9 39/34/9 18/35/9 19/36/9
f 55/37/10 49/38/10 7/39/10 8/40/10
f 46/41/11 44/42/11 13/43/11 14/44/11
f 34/45/12 36/46/12 21/47/12 20/48/12
f 56/49/13 54/50/13 1/51/13 6/52/13
f 43/53/14 45/54/14 16/55/14 15/56/14
f 36/57/15 38/58/15 22/59/15 21/60/15
f 53/61/16 55/62/16 8/63/16 2/64/16
f 47/65/17 46/66/17 14/67/17 9/68/17
f 37/69/18 35/70/18 23/71/18 24/72/18
f 25/73/19 26/74/19 54/75/19 56/76/19
f 27/77/20 44/78/20 46/79/20 31/80/20
f 31/81/21 32/82/21 51/83/21 49/84/21
f 29/85/22 30/86/22 48/87/22 45/88/22
f 27/89/23 31/90/23 38/91/23 36/92/23
f 32/93/24 37/94/24 39/95/24 30/96/24
f 24/97/24 23/98/24 19/99/24 18/100/24
f 26/101/24 33/102/24 35/103/24 28/104/24
f 14/105/20 13/106/20 10/107/20 9/108/20
f 6/109/19 1/110/19 3/111/19 5/112/19
f 36/113/23 34/114/23 25/115/23 27/116/23
f 16/117/22 11/118/22 12/119/22 15/120/22
f 8/121/21 7/122/21 4/123/21 2/124/21
f 22/125/23 17/126/23 20/127/23 21/128/23
f 25/129/22 43/130/22 41/131/22 26/132/22
f 54/133/25 52/134/25 3/135/25 1/136/25
f 45/54/26 48/137/26 11/138/26 16/139/26
f 31/140/20 46/141/20 47/142/20 32/143/20
f 39/144/27 37/145/27 24/146/27 18/147/27
f 27/148/19 50/149/19 52/150/19 28/151/19
f 51/152/28 53/153/28 2/154/28 4/15/28
f 29/155/21 55/156/21 53/157/21 30/158/21
f 44/159/29 42/160/29 10/161/29 13/162/29
f 38/163/30 40/164/30 17/165/30 22/166/30
f 28/167/19 52/168/19 54/169/19 26/170/19
f 56/171/19 50/172/19 27/173/19 25/174/19
f 38/175/23 31/176/23 29/177/23 40/178/23
f 25/179/23 34/180/23 40/181/23 29/182/23
f 45/183/22 43/184/22 25/185/22 29/186/22
f 26/187/22 41/188/22 48/189/22 30/190/22
f 30/191/21 53/192/21 51/193/21 32/194/21
f 49/195/21 55/196/21 29/197/21 31/198/21
f 44/199/20 27/200/20 28/201/20 42/202/20
f 32/203/20 47/204/20 42/205/20 28/206/20
f 30/207/24 39/208/24 33/209/24 26/210/24
f 28/211/24 35/212/24 37/213/24 32/214/24
