# Blender v2.79 (sub 0) OBJ File: 'Beanbag_Will.blend'
# www.blender.org
mtllib Beanbag_Will.mtl
o Circle
v 8.457345 -0.570111 1.020982
v 8.218079 5.500229 1.020982
v 7.603774 6.773684 1.020982
v 6.299079 7.387989 1.020982
v 0.259978 7.627254 1.020982
v -5.779124 7.387989 1.020982
v -7.083818 6.773684 1.020982
v -7.698123 5.500229 1.020982
v -7.937389 -0.570110 1.020982
v -7.698126 -6.640450 1.020982
v -7.083821 -7.913905 1.020982
v -5.779126 -8.528214 1.020982
v 0.259978 -8.767477 1.020982
v 6.299083 -8.528214 1.020982
v 7.603777 -7.913905 1.020982
v 8.218081 -6.640447 1.020982
v 7.704933 -0.570111 1.462857
v 7.487627 4.943049 1.462857
v 6.929709 6.099620 1.462857
v 5.744769 6.657538 1.462857
v 0.259978 6.874844 1.462857
v -5.224813 6.657538 1.462857
v -6.409752 6.099620 1.462857
v -6.967671 4.943049 1.462857
v -7.184975 -0.570110 1.462857
v -6.967674 -6.083270 1.462857
v -6.409756 -7.239838 1.462857
v -5.224814 -7.797761 1.462857
v 0.259978 -8.015065 1.462857
v 5.744771 -7.797761 1.462857
v 6.929711 -7.239838 1.369469
v 7.487628 -6.083267 1.462857
v 6.933838 -0.570111 1.766485
v 6.739041 4.372037 1.766485
v 6.238906 5.408816 1.766485
v 5.176694 5.908952 1.766485
v 0.259978 6.103749 1.766485
v -4.656739 5.908952 1.766485
v -5.718949 5.408816 1.766485
v -6.219083 4.372038 1.766485
v -6.413881 -0.570110 1.766485
v -6.219086 -5.512258 1.766485
v -5.718952 -6.549037 1.766485
v -4.656739 -7.049174 1.766485
v 0.259978 -7.243971 1.766485
v 5.176697 -7.049174 1.766485
v 6.238908 -6.549037 1.766485
v 6.739042 -5.512255 1.766485
v 5.394503 -0.570111 2.065497
v 5.244637 3.232122 2.065497
v 4.859858 4.029768 2.065497
v 4.042647 4.414548 2.065497
v 0.259978 4.564413 2.065497
v -3.522691 4.414548 2.065497
v -4.339902 4.029768 2.065497
v -4.724680 3.232123 2.065497
v -4.874547 -0.570110 2.065497
v -4.724682 -4.372346 2.065497
v -4.339904 -5.169991 2.065497
v -3.522691 -5.554770 2.065497
v 0.259978 -5.704636 2.065497
v 4.042648 -5.554770 2.065497
v 4.859859 -5.169991 2.065497
v 5.244637 -4.372344 2.065497
v 3.715346 -0.573974 2.333030
v 3.614236 1.991274 2.333030
v 3.354638 2.529419 2.333030
v 2.803292 2.789017 2.333030
v 0.251244 2.890127 2.333030
v -2.300803 2.789017 2.333030
v -2.852150 2.529419 2.333030
v -3.111748 1.991274 2.333030
v -3.212857 -0.573974 2.333030
v -3.111748 -3.139222 2.333030
v -2.852152 -3.677367 2.333030
v -2.300804 -3.936966 2.333030
v 0.251244 -4.038077 2.333030
v 2.803292 -3.936966 2.333030
v 3.354639 -3.677367 2.333030
v 3.614236 -3.139220 2.333030
v 0.256316 -0.581557 2.436628
v -0.911570 -8.150617 2.612106
v 8.500937 -0.570111 0.806226
v 8.260401 5.532511 0.806226
v 7.642829 6.812740 0.806226
v 6.331199 7.430312 0.806226
v 0.259978 7.670850 0.806226
v -5.811242 7.430312 0.806226
v -7.122872 6.812740 0.806226
v -7.740446 5.532512 0.806226
v -7.980982 -0.570110 0.806226
v -7.740447 -6.672733 0.806226
v -7.122875 -7.952960 0.806226
v -5.811244 -8.570536 0.806226
v 0.259978 -8.811070 0.806226
v 6.331200 -8.570536 0.806226
v 7.642832 -7.952960 0.806226
v 8.260405 -6.672729 0.806226
v 8.457345 -0.570111 0.591470
v 8.218079 5.500229 0.591470
v 7.603774 6.773684 0.591470
v 6.299079 7.387989 0.591470
v 0.259978 7.627254 0.591470
v -5.779124 7.387989 0.591470
v -7.083818 6.773684 0.591470
v -7.698123 5.500229 0.591470
v -7.937389 -0.570110 0.591470
v -7.698126 -6.640450 0.591470
v -7.083821 -7.913905 0.591470
v -5.779126 -8.528214 0.591470
v 0.259978 -8.767477 0.591470
v 6.299083 -8.528214 0.591470
v 7.603777 -7.913905 0.591470
v 8.218081 -6.640447 0.591470
v 7.704933 -0.570111 0.149595
v 7.487627 4.943049 0.149595
v 6.929709 6.099620 0.149595
v 5.744769 6.657538 0.149595
v 0.259978 6.874844 0.149595
v -5.224813 6.657538 0.149595
v -6.409752 6.099620 0.149595
v -6.967671 4.943049 0.149595
v -7.184975 -0.570110 0.149595
v -6.967674 -6.083270 0.149595
v -6.409756 -7.239838 0.149595
v -5.224814 -7.797761 0.149595
v 0.259978 -8.015065 0.149595
v 5.744771 -7.797761 0.149595
v 6.929711 -7.239838 0.242983
v 7.487628 -6.083267 0.149595
v 6.933838 -0.570111 -0.154034
v 6.739041 4.372037 -0.154034
v 6.238906 5.408816 -0.154034
v 5.176694 5.908952 -0.154034
v 0.259978 6.103749 -0.154034
v -4.656739 5.908952 -0.154034
v -5.718949 5.408816 -0.154034
v -6.219083 4.372038 -0.154034
v -6.413881 -0.570110 -0.154034
v -6.219086 -5.512258 -0.154034
v -5.718952 -6.549037 -0.154034
v -4.656739 -7.049174 -0.154034
v 0.259978 -7.243971 -0.154034
v 5.176697 -7.049174 -0.154034
v 6.238908 -6.549037 -0.154034
v 6.739042 -5.512255 -0.154034
v 5.394503 -0.570111 -0.453045
v 5.244637 3.232122 -0.453045
v 4.859858 4.029768 -0.453045
v 4.042647 4.414548 -0.453045
v 0.259978 4.564413 -0.453045
v -3.522691 4.414548 -0.453045
v -4.339902 4.029768 -0.453045
v -4.724680 3.232123 -0.453045
v -4.874547 -0.570110 -0.453045
v -4.724682 -4.372346 -0.453045
v -4.339904 -5.169991 -0.453045
v -3.522691 -5.554770 -0.453045
v 0.259978 -5.704636 -0.453045
v 4.042648 -5.554770 -0.453045
v 4.859859 -5.169991 -0.453045
v 5.244637 -4.372344 -0.453045
v 3.715346 -0.573974 -0.720578
v 3.614236 1.991274 -0.720578
v 3.354638 2.529419 -0.720578
v 2.803292 2.789017 -0.720578
v 0.251244 2.890127 -0.720578
v -2.300803 2.789017 -0.720578
v -2.852150 2.529419 -0.720578
v -3.111748 1.991274 -0.720578
v -3.212857 -0.573974 -0.720578
v -3.111748 -3.139222 -0.720578
v -2.852152 -3.677367 -0.720578
v -2.300804 -3.936966 -0.720578
v 0.251244 -4.038077 -0.720578
v 2.803292 -3.936966 -0.720578
v 3.354639 -3.677367 -0.720578
v 3.614236 -3.139220 -0.720578
v 0.256316 -0.581557 -0.824176
v -0.911570 -8.150617 -0.999654
vt 0.288969 0.519793
vt 0.308143 0.550078
vt 0.267547 0.566621
vt 0.244326 0.539208
vt 0.505804 0.511810
vt 0.505133 0.520006
vt 0.286437 0.511830
vt 0.239304 1.088335
vt 0.243096 1.080889
vt 0.456412 1.115785
vt 0.455745 1.123978
vt 0.672537 1.115841
vt 0.675065 1.123810
vt 0.722237 0.547525
vt 0.718443 0.554969
vt 0.196070 1.059665
vt 0.202198 1.054482
vt 0.765460 0.576209
vt 0.759331 0.581390
vt 0.174674 1.011309
vt 0.182643 1.008799
vt 0.786839 0.624570
vt 0.778871 0.627077
vt 0.174608 0.792868
vt 0.182803 0.793538
vt 0.786839 0.842996
vt 0.778647 0.842323
vt 0.210156 0.577338
vt 0.217610 0.581109
vt 0.751161 1.058457
vt 0.743699 1.054689
vt 0.239121 0.533098
vt 0.722343 1.102682
vt 0.717146 1.096582
vt 0.747090 0.839730
vt 0.717447 0.837296
vt 0.719804 0.664594
vt 0.748543 0.646204
vt 0.653334 1.085607
vt 0.694639 1.070004
vt 0.502550 0.551540
vt 0.266932 1.054121
vt 0.458981 1.084241
vt 0.694598 0.581729
vt 0.229562 1.031204
vt 0.731960 0.604658
vt 0.212966 0.989662
vt 0.214354 0.796118
vt 0.244423 0.604917
vt 0.716943 1.030860
vt 0.256103 1.008638
vt 0.307647 0.964850
vt 0.333956 0.980504
vt 0.289801 1.028781
vt 0.269787 0.627740
vt 0.244003 0.798542
vt 0.691602 1.008019
vt 0.290070 0.593199
vt 0.671327 1.042503
vt 0.326593 0.578796
vt 0.634859 1.056909
vt 0.500122 0.581177
vt 0.461397 1.054608
vt 0.671721 0.607062
vt 0.705413 0.627215
vt 0.241700 0.971263
vt 0.362324 0.633605
vt 0.401170 0.693291
vt 0.381782 0.700822
vt 0.333820 0.644780
vt 0.653855 0.670988
vt 0.627550 0.655325
vt 0.296505 0.935675
vt 0.664990 0.700165
vt 0.300015 0.803122
vt 0.661446 0.832702
vt 0.318086 0.671759
vt 0.643349 0.964018
vt 0.627622 0.990978
vt 0.599137 1.002149
vt 0.495536 0.637178
vt 0.465966 0.998614
vt 0.601942 0.827519
vt 0.481149 0.817809
vt 0.605179 0.738346
vt 0.560619 0.941910
vt 0.580002 0.934382
vt 0.490809 0.696554
vt 0.382027 0.927322
vt 0.470999 0.938658
vt 0.579781 0.707918
vt 0.364120 0.916742
vt 0.597684 0.718501
vt 0.356621 0.896897
vt 0.359849 0.807709
vt 0.371159 0.719185
vt 0.590623 0.916024
vt 0.243080 0.468457
vt 0.202184 0.442046
vt 0.229550 0.418770
vt 0.266919 0.441690
vt 0.455736 0.511565
vt 0.239287 0.475902
vt 0.456405 0.503370
vt 0.286454 -0.100601
vt 0.505809 -0.100601
vt 0.505136 -0.092408
vt 0.288985 -0.092637
vt 0.722187 -0.064799
vt 0.718398 -0.057347
vt 0.675096 0.511492
vt 0.672562 0.503530
vt 0.239136 -0.079337
vt 0.244340 -0.073226
vt 0.722406 0.490213
vt 0.717199 0.484104
vt 0.210167 -0.035100
vt 0.217622 -0.031328
vt 0.751358 0.445968
vt 0.743903 0.442199
vt 0.174608 0.180428
vt 0.182803 0.181099
vt 0.786849 0.230443
vt 0.778656 0.229777
vt 0.174663 0.398871
vt 0.182632 0.396362
vt 0.786652 0.012049
vt 0.778678 0.014555
vt 0.196056 0.447229
vt 0.765403 -0.036269
vt 0.759284 -0.031095
vt 0.747097 0.227208
vt 0.717086 0.418399
vt 0.691717 0.395584
vt 0.717453 0.224794
vt 0.732758 -0.008528
vt 0.694537 -0.030634
vt 0.458980 0.471836
vt 0.502546 -0.060866
vt 0.308155 -0.062352
vt 0.653382 0.473251
vt 0.267559 -0.045812
vt 0.693973 0.456699
vt 0.244433 -0.007518
vt 0.214354 0.183680
vt 0.212957 0.377226
vt 0.748405 0.033720
vt 0.290079 -0.019233
vt 0.326603 -0.033633
vt 0.362327 0.021177
vt 0.333824 0.032349
vt 0.244003 0.186105
vt 0.241692 0.358828
vt 0.719690 0.052140
vt 0.256093 0.396205
vt 0.705288 0.014820
vt 0.289791 0.416352
vt 0.671645 -0.005320
vt 0.461401 0.442198
vt 0.500115 -0.031234
vt 0.634925 0.444539
vt 0.671444 0.430127
vt 0.269795 0.015306
vt 0.333952 0.368076
vt 0.307643 0.352419
vt 0.364073 0.304914
vt 0.381980 0.315495
vt 0.599183 0.389740
vt 0.627684 0.378559
vt 0.318090 0.059326
vt 0.643411 0.351579
vt 0.300015 0.190687
vt 0.661449 0.220227
vt 0.296501 0.323242
vt 0.664929 0.087716
vt 0.653792 0.058559
vt 0.627501 0.042909
vt 0.465974 0.386196
vt 0.495525 0.024758
vt 0.601894 0.215673
vt 0.590598 0.304187
vt 0.481129 0.205627
vt 0.597608 0.106666
vt 0.579707 0.096088
vt 0.470958 0.326840
vt 0.490749 0.084734
vt 0.401118 0.081463
vt 0.560594 0.330084
vt 0.381729 0.088993
vt 0.579979 0.322551
vt 0.371106 0.107357
vt 0.359799 0.195884
vt 0.356575 0.285069
vt 0.605106 0.126505
vn -0.7850 0.1980 0.5870
vn -0.3995 0.0904 0.9122
vn -0.2615 0.2643 0.9283
vn -0.5640 0.5693 0.5981
vn -1.0000 0.0000 0.0000
vn -0.8173 0.0000 0.5763
vn -0.9673 0.2535 0.0000
vn 0.9673 0.2535 0.0000
vn 0.7850 0.1980 0.5870
vn 0.8173 0.0000 0.5763
vn 1.0000 0.0000 0.0000
vn 0.7743 -0.2027 0.5995
vn 0.9673 -0.2535 0.0000
vn -0.9673 -0.2535 0.0000
vn -0.7850 -0.1980 0.5870
vn 0.7039 0.7103 0.0000
vn 0.5640 0.5693 0.5981
vn -0.7039 -0.7103 0.0000
vn -0.5640 -0.5693 0.5981
vn 0.2488 0.9685 0.0000
vn 0.1944 0.7859 0.5869
vn -0.2488 -0.9685 0.0000
vn -0.1944 -0.7859 0.5869
vn 0.0000 1.0000 0.0000
vn 0.0000 0.8173 0.5763
vn 0.0000 -1.0000 0.0000
vn 0.0000 -0.8173 0.5762
vn -0.2488 0.9685 0.0000
vn -0.1944 0.7859 0.5869
vn 0.2488 -0.9685 0.0000
vn 0.1991 -0.7753 0.5994
vn -0.7039 0.7103 0.0000
vn 0.7039 -0.7103 0.0000
vn 0.5570 -0.5626 0.6109
vn 0.0000 -0.4393 0.8983
vn 0.0000 -0.2818 0.9594
vn -0.0551 -0.2599 0.9640
vn -0.0891 -0.4005 0.9120
vn 0.3914 -0.1055 0.9141
vn 0.2581 -0.2613 0.9301
vn -0.4393 0.0000 0.8983
vn 0.3995 0.0904 0.9122
vn 0.4393 0.0000 0.8983
vn -0.3995 -0.0904 0.9122
vn 0.2615 0.2643 0.9283
vn -0.2615 -0.2643 0.9283
vn 0.0891 0.4005 0.9120
vn 0.0000 0.4393 0.8983
vn -0.0891 0.4005 0.9120
vn 0.1039 -0.3927 0.9138
vn 0.1688 0.1706 0.9708
vn 0.0992 0.1003 0.9900
vn 0.1553 0.0349 0.9872
vn 0.2593 0.0560 0.9641
vn -0.0551 0.2599 0.9640
vn 0.0000 0.2818 0.9594
vn 0.0654 -0.2636 0.9624
vn -0.1688 0.1706 0.9708
vn 0.1872 -0.1895 0.9638
vn -0.2593 0.0560 0.9641
vn 0.2629 -0.0664 0.9625
vn -0.2818 0.0000 0.9594
vn 0.2818 0.0000 0.9594
vn -0.2593 -0.0560 0.9641
vn -0.1688 -0.1706 0.9708
vn 0.0551 0.2599 0.9640
vn -0.1558 0.0351 0.9872
vn -0.0924 0.0180 0.9955
vn -0.0603 0.0609 0.9963
vn -0.0994 0.1005 0.9899
vn -0.0995 -0.1006 0.9899
vn -0.1559 -0.0351 0.9871
vn 0.0345 0.1559 0.9872
vn -0.0346 -0.1563 0.9871
vn 0.0000 0.1747 0.9846
vn 0.0000 -0.1750 0.9846
vn -0.0345 0.1561 0.9871
vn 0.0345 -0.1561 0.9871
vn 0.0993 -0.1003 0.9900
vn 0.1554 -0.0349 0.9872
vn -0.1752 0.0000 0.9845
vn 0.1744 0.0000 0.9846
vn 0.0000 -0.0960 0.9954
vn 0.0000 -0.0000 1.0000
vn -0.0178 -0.0923 0.9955
vn 0.0916 -0.0180 0.9956
vn 0.0600 -0.0609 0.9963
vn -0.0962 0.0000 0.9953
vn 0.0916 0.0179 0.9956
vn 0.0954 0.0000 0.9954
vn -0.0924 -0.0181 0.9955
vn 0.0599 0.0607 0.9963
vn -0.0604 -0.0611 0.9963
vn 0.0176 0.0919 0.9956
vn 0.0000 0.0956 0.9954
vn -0.0177 0.0920 0.9956
vn 0.0177 -0.0923 0.9956
vn -0.7850 0.1980 -0.5870
vn -0.5640 0.5693 -0.5981
vn -0.2615 0.2643 -0.9283
vn -0.3995 0.0904 -0.9122
vn -0.8173 0.0000 -0.5763
vn 0.8173 0.0000 -0.5763
vn 0.7850 0.1980 -0.5870
vn 0.7743 -0.2027 -0.5995
vn -0.7850 -0.1980 -0.5870
vn 0.5640 0.5693 -0.5981
vn -0.5640 -0.5693 -0.5981
vn 0.1944 0.7859 -0.5869
vn -0.1944 -0.7859 -0.5869
vn 0.0000 0.8173 -0.5763
vn 0.0000 -0.8173 -0.5763
vn -0.1944 0.7859 -0.5869
vn 0.1991 -0.7753 -0.5994
vn 0.5570 -0.5626 -0.6109
vn 0.0000 -0.4393 -0.8983
vn -0.0891 -0.4005 -0.9120
vn -0.0551 -0.2599 -0.9640
vn 0.0000 -0.2818 -0.9594
vn 0.2581 -0.2613 -0.9301
vn 0.3914 -0.1055 -0.9141
vn -0.4393 0.0000 -0.8983
vn 0.4393 0.0000 -0.8983
vn 0.3995 0.0904 -0.9122
vn -0.3995 -0.0904 -0.9122
vn 0.2615 0.2643 -0.9283
vn -0.2615 -0.2643 -0.9283
vn 0.0891 0.4005 -0.9120
vn 0.0000 0.4393 -0.8983
vn -0.0891 0.4005 -0.9120
vn 0.1039 -0.3927 -0.9138
vn 0.1688 0.1706 -0.9708
vn 0.2593 0.0560 -0.9641
vn 0.1553 0.0349 -0.9872
vn 0.0992 0.1003 -0.9900
vn 0.0000 0.2818 -0.9594
vn -0.0551 0.2599 -0.9640
vn 0.0654 -0.2636 -0.9624
vn -0.1688 0.1706 -0.9708
vn 0.1872 -0.1895 -0.9638
vn -0.2593 0.0560 -0.9641
vn 0.2629 -0.0664 -0.9625
vn -0.2818 0.0000 -0.9594
vn 0.2818 0.0000 -0.9594
vn -0.2593 -0.0560 -0.9641
vn -0.1688 -0.1706 -0.9708
vn 0.0551 0.2599 -0.9640
vn -0.1558 0.0351 -0.9872
vn -0.0994 0.1005 -0.9899
vn -0.0603 0.0609 -0.9963
vn -0.0924 0.0180 -0.9955
vn -0.1559 -0.0351 -0.9871
vn -0.0995 -0.1006 -0.9899
vn 0.0345 0.1559 -0.9872
vn -0.0346 -0.1563 -0.9871
vn 0.0000 0.1747 -0.9846
vn 0.0000 -0.1750 -0.9846
vn -0.0345 0.1561 -0.9871
vn 0.0345 -0.1561 -0.9871
vn 0.0993 -0.1003 -0.9900
vn 0.1554 -0.0349 -0.9872
vn -0.1752 0.0000 -0.9845
vn 0.1744 0.0000 -0.9846
vn 0.0000 -0.0960 -0.9954
vn -0.0178 -0.0923 -0.9955
vn 0.0000 -0.0000 -1.0000
vn 0.0600 -0.0609 -0.9963
vn 0.0916 -0.0180 -0.9956
vn -0.0962 0.0000 -0.9953
vn 0.0954 0.0000 -0.9954
vn 0.0916 0.0179 -0.9956
vn -0.0924 -0.0181 -0.9955
vn 0.0599 0.0607 -0.9963
vn -0.0604 -0.0611 -0.9963
vn 0.0176 0.0919 -0.9956
vn 0.0000 0.0956 -0.9954
vn -0.0177 0.0920 -0.9956
vn 0.0177 -0.0923 -0.9956
usemtl None
s 1
f 8/1/1 24/2/2 23/3/3 7/4/4
f 91/5/5 9/6/6 8/1/1 90/7/7
f 84/8/8 2/9/9 1/10/10 83/11/11
f 83/11/11 1/10/10 16/12/12 98/13/13
f 92/14/14 10/15/15 9/6/6 91/5/5
f 85/16/16 3/17/17 2/9/9 84/8/8
f 93/18/18 11/19/19 10/15/15 92/14/14
f 86/20/20 4/21/21 3/17/17 85/16/16
f 94/22/22 12/23/23 11/19/19 93/18/18
f 87/24/24 5/25/25 4/21/21 86/20/20
f 95/26/26 13/27/27 12/23/23 94/22/22
f 88/28/28 6/29/29 5/25/25 87/24/24
f 96/30/30 14/31/31 13/27/27 95/26/26
f 89/32/32 7/4/4 6/29/29 88/28/28
f 97/33/33 15/34/34 14/31/31 96/30/30
f 90/7/7 8/1/1 7/4/4 89/32/32
f 98/13/13 16/12/12 15/34/34 97/33/33
f 29/35/35 45/36/36 44/37/37 28/38/38
f 16/12/12 32/39/39 31/40/40 15/34/34
f 9/6/6 25/41/41 24/2/2 8/1/1
f 2/9/9 18/42/42 17/43/43 1/10/10
f 1/10/10 17/43/43 32/39/39 16/12/12
f 10/15/15 26/44/44 25/41/41 9/6/6
f 3/17/17 19/45/45 18/42/42 2/9/9
f 11/19/19 27/46/46 26/44/44 10/15/15
f 4/21/21 20/47/47 19/45/45 3/17/17
f 12/23/23 28/38/38 27/46/46 11/19/19
f 5/25/25 21/48/48 20/47/47 4/21/21
f 13/27/27 29/35/35 28/38/38 12/23/23
f 6/29/29 22/49/49 21/48/48 5/25/25
f 14/31/31 30/50/50 29/35/35 13/27/27
f 7/4/4 23/3/3 22/49/49 6/29/29
f 15/34/34 31/40/40 30/50/50 14/31/31
f 35/51/51 51/52/52 50/53/53 34/54/54
f 22/49/49 38/55/55 37/56/56 21/48/48
f 30/50/50 46/57/57 45/36/36 29/35/35
f 23/3/3 39/58/58 38/55/55 22/49/49
f 31/40/40 47/59/59 46/57/57 30/50/50
f 24/2/2 40/60/60 39/58/58 23/3/3
f 32/39/39 48/61/61 47/59/59 31/40/40
f 25/41/41 41/62/62 40/60/60 24/2/2
f 18/42/42 34/54/54 33/63/63 17/43/43
f 17/43/43 33/63/63 48/61/61 32/39/39
f 26/44/44 42/64/64 41/62/62 25/41/41
f 19/45/45 35/51/51 34/54/54 18/42/42
f 27/46/46 43/65/65 42/64/64 26/44/44
f 20/47/47 36/66/66 35/51/51 19/45/45
f 28/38/38 44/37/37 43/65/65 27/46/46
f 21/48/48 37/56/56 36/66/66 20/47/47
f 56/67/67 72/68/68 71/69/69 55/70/70
f 43/65/65 59/71/71 58/72/72 42/64/64
f 36/66/66 52/73/73 51/52/52 35/51/51
f 44/37/37 60/74/74 59/71/71 43/65/65
f 37/56/56 53/75/75 52/73/73 36/66/66
f 45/36/36 61/76/76 60/74/74 44/37/37
f 38/55/55 54/77/77 53/75/75 37/56/56
f 46/57/57 62/78/78 61/76/76 45/36/36
f 39/58/58 55/70/70 54/77/77 38/55/55
f 47/59/59 63/79/79 62/78/78 46/57/57
f 40/60/60 56/67/67 55/70/70 39/58/58
f 48/61/61 64/80/80 63/79/79 47/59/59
f 41/62/62 57/81/81 56/67/67 40/60/60
f 34/54/54 50/53/53 49/82/82 33/63/63
f 33/63/63 49/82/82 64/80/80 48/61/61
f 42/64/64 58/72/72 57/81/81 41/62/62
f 77/83/83 81/84/84 76/85/85
f 64/80/80 80/86/86 79/87/87 63/79/79
f 57/81/81 73/88/88 72/68/68 56/67/67
f 50/53/53 66/89/89 65/90/90 49/82/82
f 49/82/82 65/90/90 80/86/86 64/80/80
f 58/72/72 74/91/91 73/88/88 57/81/81
f 51/52/52 67/92/92 66/89/89 50/53/53
f 59/71/71 75/93/93 74/91/91 58/72/72
f 52/73/73 68/94/94 67/92/92 51/52/52
f 60/74/74 76/85/85 75/93/93 59/71/71
f 53/75/75 69/95/95 68/94/94 52/73/73
f 61/76/76 77/83/83 76/85/85 60/74/74
f 54/77/77 70/96/96 69/95/95 53/75/75
f 62/78/78 78/97/97 77/83/83 61/76/76
f 55/70/70 71/69/69 70/96/96 54/77/77
f 63/79/79 79/87/87 78/97/97 62/78/78
f 70/96/96 81/84/84 69/95/95
f 78/97/97 81/84/84 77/83/83
f 71/69/69 81/84/84 70/96/96
f 79/87/87 81/84/84 78/97/97
f 72/68/68 81/84/84 71/69/69
f 80/86/86 81/84/84 79/87/87
f 73/88/88 81/84/84 72/68/68
f 66/89/89 81/84/84 65/90/90
f 65/90/90 81/84/84 80/86/86
f 74/91/91 81/84/84 73/88/88
f 67/92/92 81/84/84 66/89/89
f 75/93/93 81/84/84 74/91/91
f 68/94/94 81/84/84 67/92/92
f 76/85/85 81/84/84 75/93/93
f 69/95/95 81/84/84 68/94/94
f 106/98/98 105/99/99 121/100/100 122/101/101
f 91/102/5 90/103/7 106/98/98 107/104/102
f 84/105/8 83/106/11 99/107/103 100/108/104
f 83/106/11 98/109/13 114/110/105 99/107/103
f 92/111/14 91/102/5 107/104/102 108/112/106
f 85/113/16 84/105/8 100/108/104 101/114/107
f 93/115/18 92/111/14 108/112/106 109/116/108
f 86/117/20 85/113/16 101/114/107 102/118/109
f 94/119/22 93/115/18 109/116/108 110/120/110
f 87/121/24 86/117/20 102/118/109 103/122/111
f 95/123/26 94/119/22 110/120/110 111/124/112
f 88/125/28 87/121/24 103/122/111 104/126/113
f 96/127/30 95/123/26 111/124/112 112/128/114
f 89/129/32 88/125/28 104/126/113 105/99/99
f 97/130/33 96/127/30 112/128/114 113/131/115
f 90/103/7 89/129/32 105/99/99 106/98/98
f 98/109/13 97/130/33 113/131/115 114/110/105
f 127/132/116 126/133/117 142/134/118 143/135/119
f 114/110/105 113/131/115 129/136/120 130/137/121
f 107/104/102 106/98/98 122/101/101 123/138/122
f 100/108/104 99/107/103 115/139/123 116/140/124
f 99/107/103 114/110/105 130/137/121 115/139/123
f 108/112/106 107/104/102 123/138/122 124/141/125
f 101/114/107 100/108/104 116/140/124 117/142/126
f 109/116/108 108/112/106 124/141/125 125/143/127
f 102/118/109 101/114/107 117/142/126 118/144/128
f 110/120/110 109/116/108 125/143/127 126/133/117
f 103/122/111 102/118/109 118/144/128 119/145/129
f 111/124/112 110/120/110 126/133/117 127/132/116
f 104/126/113 103/122/111 119/145/129 120/146/130
f 112/128/114 111/124/112 127/132/116 128/147/131
f 105/99/99 104/126/113 120/146/130 121/100/100
f 113/131/115 112/128/114 128/147/131 129/136/120
f 133/148/132 132/149/133 148/150/134 149/151/135
f 120/146/130 119/145/129 135/152/136 136/153/137
f 128/147/131 127/132/116 143/135/119 144/154/138
f 121/100/100 120/146/130 136/153/137 137/155/139
f 129/136/120 128/147/131 144/154/138 145/156/140
f 122/101/101 121/100/100 137/155/139 138/157/141
f 130/137/121 129/136/120 145/156/140 146/158/142
f 123/138/122 122/101/101 138/157/141 139/159/143
f 116/140/124 115/139/123 131/160/144 132/149/133
f 115/139/123 130/137/121 146/158/142 131/160/144
f 124/141/125 123/138/122 139/159/143 140/161/145
f 117/142/126 116/140/124 132/149/133 133/148/132
f 125/143/127 124/141/125 140/161/145 141/162/146
f 118/144/128 117/142/126 133/148/132 134/163/147
f 126/133/117 125/143/127 141/162/146 142/134/118
f 119/145/129 118/144/128 134/163/147 135/152/136
f 154/164/148 153/165/149 169/166/150 170/167/151
f 141/162/146 140/161/145 156/168/152 157/169/153
f 134/163/147 133/148/132 149/151/135 150/170/154
f 142/134/118 141/162/146 157/169/153 158/171/155
f 135/152/136 134/163/147 150/170/154 151/172/156
f 143/135/119 142/134/118 158/171/155 159/173/157
f 136/153/137 135/152/136 151/172/156 152/174/158
f 144/154/138 143/135/119 159/173/157 160/175/159
f 137/155/139 136/153/137 152/174/158 153/165/149
f 145/156/140 144/154/138 160/175/159 161/176/160
f 138/157/141 137/155/139 153/165/149 154/164/148
f 146/158/142 145/156/140 161/176/160 162/177/161
f 139/159/143 138/157/141 154/164/148 155/178/162
f 132/149/133 131/160/144 147/179/163 148/150/134
f 131/160/144 146/158/142 162/177/161 147/179/163
f 140/161/145 139/159/143 155/178/162 156/168/152
f 175/180/164 174/181/165 179/182/166
f 162/177/161 161/176/160 177/183/167 178/184/168
f 155/178/162 154/164/148 170/167/151 171/185/169
f 148/150/134 147/179/163 163/186/170 164/187/171
f 147/179/163 162/177/161 178/184/168 163/186/170
f 156/168/152 155/178/162 171/185/169 172/188/172
f 149/151/135 148/150/134 164/187/171 165/189/173
f 157/169/153 156/168/152 172/188/172 173/190/174
f 150/170/154 149/151/135 165/189/173 166/191/175
f 158/171/155 157/169/153 173/190/174 174/181/165
f 151/172/156 150/170/154 166/191/175 167/192/176
f 159/173/157 158/171/155 174/181/165 175/180/164
f 152/174/158 151/172/156 167/192/176 168/193/177
f 160/175/159 159/173/157 175/180/164 176/194/178
f 153/165/149 152/174/158 168/193/177 169/166/150
f 161/176/160 160/175/159 176/194/178 177/183/167
f 168/193/177 167/192/176 179/182/166
f 176/194/178 175/180/164 179/182/166
f 169/166/150 168/193/177 179/182/166
f 177/183/167 176/194/178 179/182/166
f 170/167/151 169/166/150 179/182/166
f 178/184/168 177/183/167 179/182/166
f 171/185/169 170/167/151 179/182/166
f 164/187/171 163/186/170 179/182/166
f 163/186/170 178/184/168 179/182/166
f 172/188/172 171/185/169 179/182/166
f 165/189/173 164/187/171 179/182/166
f 173/190/174 172/188/172 179/182/166
f 166/191/175 165/189/173 179/182/166
f 174/181/165 173/190/174 179/182/166
f 167/192/176 166/191/175 179/182/166
