# Blender v2.79 (sub 0) OBJ File: 'CornholeBoardJoel.blend'
# www.blender.org
mtllib CornholeBoardJoel.mtl
o Plane
v 100.000000 153.624588 66.300262
v -99.999977 153.624603 66.300293
v 99.999977 -42.767139 104.119324
v -100.000000 -42.767113 104.119354
vt 0.000100 0.000100
vt 0.999900 0.000100
vt 0.999900 0.999900
vt 0.000100 0.999900
vn 0.0000 0.1891 0.9820
usemtl None
s off
f 1/1/1 2/2/1 4/3/1 3/4/1
o Cube
v 149.999893 -289.229767 113.172981
v -149.999939 -289.229767 113.172981
v -149.999908 299.999878 0.000015
v 149.999969 299.999756 0.000038
v 149.999832 -282.156616 149.999878
v -150.000031 -282.156281 149.999802
v -149.999878 307.073242 36.826866
v 149.999908 307.073120 36.826889
v -20.833891 -209.369720 97.834312
v -20.833891 -202.296417 134.661163
v 37.499989 -178.749298 91.953064
v 37.499989 -171.675995 128.779922
v 36.779449 -171.564789 90.573143
v 36.779449 -164.491486 127.399994
v 34.645489 -164.656311 89.246239
v 34.645489 -157.583008 126.073090
v -14.350613 -144.725708 85.418175
v -14.350613 -137.652405 122.245026
v -20.833872 -148.128860 86.071815
v -20.833872 -141.055557 122.898666
v -7.315866 -142.630051 85.015663
v -7.315866 -135.556747 121.842514
v -26.516500 -152.708755 86.951477
v -26.516500 -145.635452 123.778328
v -36.779457 -171.564728 90.573128
v -36.779457 -164.491425 127.399979
v -37.500011 -178.749283 91.953064
v -37.500011 -171.675980 128.779907
v -34.645485 -164.656250 89.246223
v -34.645485 -157.582947 126.073074
v 7.315876 -214.868561 98.890472
v 7.315876 -207.795258 135.717316
v 31.180098 -199.209213 95.882790
v 31.180098 -192.135910 132.709641
v -0.000009 -215.576172 99.026382
v -0.000009 -208.502869 135.853241
v 14.350616 -212.772903 98.487953
v 14.350616 -205.699600 135.314804
v -36.779461 -185.933868 93.333000
v -36.779461 -178.860565 130.159851
v 26.516525 -152.708817 86.951485
v 26.516525 -145.635513 123.778336
v 31.180128 -158.289444 88.023354
v 31.180128 -151.216141 124.850204
v 20.833910 -148.128891 86.071823
v 20.833910 -141.055588 122.898682
v -7.315894 -214.868561 98.890472
v -7.315894 -207.795258 135.717316
v -31.180122 -199.209213 95.882790
v -31.180122 -192.135910 132.709641
v -26.516516 -204.789825 96.954651
v -26.516516 -197.716522 133.781509
v -14.350634 -212.772903 98.487953
v -14.350634 -205.699600 135.314804
v 0.000024 -141.922440 84.879753
v 0.000024 -134.849136 121.706604
v -31.180109 -158.289368 88.023338
v -31.180109 -151.216064 124.850189
v 7.315913 -142.630066 85.015671
v 7.315913 -135.556763 121.842522
v 26.516493 -204.789825 96.954651
v 26.516493 -197.716522 133.781509
v -34.645496 -192.842316 94.659904
v -34.645496 -185.769012 131.486755
v 20.833868 -209.369720 97.834312
v 20.833868 -202.296417 134.661163
v 14.350655 -144.725723 85.418182
v 14.350655 -137.652420 122.245033
v 34.645470 -192.842346 94.659904
v 34.645470 -185.769043 131.486755
v 36.779434 -185.933868 93.333000
v 36.779434 -178.860565 130.159851
vt 0.000000 0.666667
vt 0.166667 0.708333
vt 0.158538 0.708734
vt 0.150722 0.709919
vt 0.143518 0.711844
vt 0.137204 0.714435
vt 0.132022 0.717592
vt 0.128172 0.721194
vt 0.125801 0.725102
vt 0.125000 0.729167
vt 0.125801 0.733231
vt 0.128172 0.737139
vt 0.132022 0.740741
vt 0.137204 0.743898
vt 0.143518 0.746489
vt 0.150721 0.748414
vt 0.158538 0.749600
vt 0.166667 0.750000
vt 0.000000 1.000000
vt 0.666667 0.333333
vt 0.666667 0.000000
vt 0.833333 0.250000
vt 0.825204 0.250400
vt 0.817388 0.251586
vt 0.810184 0.253511
vt 0.803870 0.256102
vt 0.798689 0.259259
vt 0.794838 0.262861
vt 0.792467 0.266769
vt 0.791667 0.270833
vt 0.792467 0.274898
vt 0.794838 0.278806
vt 0.798689 0.282408
vt 0.803870 0.285565
vt 0.810185 0.288156
vt 0.817388 0.290081
vt 0.825205 0.291266
vt 0.833333 0.291667
vt 0.666667 0.333333
vt 0.666667 0.666667
vt 0.333333 0.666667
vt 0.333333 0.333333
vt 0.000000 0.333333
vt 0.333333 0.333333
vt 0.333333 0.666667
vt 0.000000 0.666667
vt 0.666667 0.333333
vt 0.333333 0.333333
vt 0.333333 0.000000
vt 0.666667 0.000000
vt 0.000000 0.000000
vt 0.333333 0.000000
vt 0.333333 0.333333
vt 0.000000 0.333333
vt 0.790281 0.333333
vt 0.790281 0.666667
vt 0.782152 0.666667
vt 0.782152 0.333333
vt 0.174795 0.749600
vt 0.182612 0.748414
vt 0.189815 0.746489
vt 0.196129 0.743898
vt 0.201311 0.740741
vt 0.205162 0.737139
vt 0.207533 0.733231
vt 0.208333 0.729167
vt 0.207533 0.725102
vt 0.205162 0.721194
vt 0.201311 0.717592
vt 0.196129 0.714435
vt 0.189815 0.711844
vt 0.182612 0.709919
vt 0.174795 0.708734
vt 0.333333 0.666667
vt 0.333333 1.000000
vt 0.811615 0.333333
vt 0.811615 0.666667
vt 0.805301 0.666667
vt 0.805301 0.333333
vt 0.798097 0.666667
vt 0.798097 0.333333
vt 0.713291 0.333333
vt 0.713291 0.666667
vt 0.705162 0.666667
vt 0.705162 0.333333
vt 0.774023 0.333333
vt 0.774023 0.666667
vt 0.766207 0.666667
vt 0.766207 0.333333
vt 0.759003 0.333333
vt 0.759003 0.666667
vt 0.752689 0.666667
vt 0.752689 0.333333
vt 0.844565 0.666667
vt 0.844565 0.333333
vt 0.848629 0.333333
vt 0.848629 0.666667
vt 0.824555 0.666667
vt 0.824555 0.333333
vt 0.828619 0.333333
vt 0.828619 0.666667
vt 0.728311 0.333333
vt 0.728311 0.666667
vt 0.721107 0.666667
vt 0.721107 0.333333
vt 0.832684 0.333333
vt 0.832684 0.666667
vt 0.852537 0.333333
vt 0.852537 0.666667
vt 0.747507 0.666667
vt 0.747507 0.333333
vt 0.670517 0.333333
vt 0.670517 0.666667
vt 0.666667 0.666667
vt 0.666667 0.333333
vt 0.743657 0.666667
vt 0.743657 0.333333
vt 0.816796 0.333333
vt 0.816796 0.666667
vt 0.739806 0.333333
vt 0.739806 0.666667
vt 0.734625 0.666667
vt 0.734625 0.333333
vt 0.841462 0.291266
vt 0.849278 0.290081
vt 0.856482 0.288156
vt 0.862796 0.285565
vt 0.867978 0.282408
vt 0.871828 0.278806
vt 0.874199 0.274898
vt 0.875000 0.270833
vt 0.874199 0.266769
vt 0.871828 0.262861
vt 0.867978 0.259259
vt 0.862796 0.256102
vt 0.856482 0.253511
vt 0.849278 0.251586
vt 0.841462 0.250400
vt 1.000000 0.000000
vt 1.000000 0.333333
vt 0.820647 0.333333
vt 0.820647 0.666667
vt 0.675699 0.333333
vt 0.675699 0.666667
vt 0.689217 0.333333
vt 0.689217 0.666667
vt 0.682013 0.666667
vt 0.682013 0.333333
vt 0.840500 0.666667
vt 0.840500 0.333333
vt 0.697033 0.666667
vt 0.697033 0.333333
vt 0.820647 0.666667
vt 0.820647 0.333333
vt 0.743657 0.333333
vt 0.743657 0.666667
vt 0.836592 0.666667
vt 0.836592 0.333333
vt 0.836592 0.333333
vt 0.836592 0.666667
vn 0.0000 -0.1886 -0.9820
vn -0.0000 0.1886 0.9820
vn -0.0000 -0.9820 0.1886
vn -1.0000 -0.0000 -0.0000
vn 0.0000 0.9820 -0.1886
vn 1.0000 0.0000 0.0000
vn 0.0980 0.9773 -0.1877
vn 0.6344 0.7591 -0.1458
vn 0.4714 0.8661 -0.1663
vn -0.0980 -0.9773 0.1877
vn -0.2903 0.9398 -0.1805
vn -0.0980 0.9773 -0.1877
vn -0.6344 0.7591 -0.1458
vn -0.9952 -0.0963 0.0185
vn 0.9952 -0.0963 0.0185
vn -0.4714 -0.8661 0.1663
vn 0.9952 0.0963 -0.0185
vn -0.9569 -0.2851 0.0548
vn -0.7730 0.6230 -0.1197
vn 0.8819 -0.4629 0.0889
vn -0.8819 0.4629 -0.0889
vn 0.7730 0.6230 -0.1197
vn -0.7730 -0.6230 0.1197
vn -0.2903 -0.9398 0.1805
vn 0.8819 0.4629 -0.0889
vn 0.7730 -0.6230 0.1197
vn 0.4714 -0.8661 0.1663
vn -0.9952 0.0963 -0.0185
vn -0.4714 0.8661 -0.1663
vn 0.0980 -0.9773 0.1877
vn 0.2903 0.9398 -0.1805
vn 0.9569 -0.2851 0.0548
vn -0.8819 -0.4629 0.0889
vn -0.9569 0.2851 -0.0548
vn 0.9569 0.2851 -0.0548
vn 0.2903 -0.9398 0.1805
vn -0.6344 -0.7591 0.1458
vn 0.6344 -0.7591 0.1458
usemtl Material
s off
f 5/5/2 39/6/2 35/7/2 41/8/2 69/9/2 65/10/2 37/11/2 73/12/2 75/13/2 15/14/2 17/15/2 19/16/2 47/17/2 45/18/2 49/19/2 71/20/2 63/21/2 59/22/2 8/23/2
f 9/24/3 12/25/3 60/26/3 64/27/3 72/28/3 50/29/3 46/30/3 48/31/3 20/32/3 18/33/3 16/34/3 76/35/3 74/36/3 38/37/3 66/38/3 70/39/3 42/40/3 36/41/3 40/42/3
f 5/43/4 9/44/4 10/45/4 6/46/4
f 6/47/5 10/48/5 11/49/5 7/50/5
f 7/51/6 11/52/6 12/53/6 8/54/6
f 9/55/7 5/56/7 8/57/7 12/58/7
f 51/59/8 52/60/8 40/61/8 39/62/8
f 8/23/2 59/22/2 25/63/2 21/64/2 23/65/2 27/66/2 61/67/2 33/68/2 29/69/2 31/70/2 43/71/2 67/72/2 53/73/2 55/74/2 13/75/2 57/76/2 51/77/2 39/6/2 5/5/2 6/78/2 7/79/2
f 55/80/9 56/81/9 14/82/9 13/83/9
f 13/83/10 14/82/10 58/84/10 57/85/10
f 63/86/11 64/87/11 60/88/11 59/89/11
f 35/90/12 36/91/12 42/92/12 41/93/12
f 39/62/13 40/61/13 36/91/13 35/90/13
f 69/94/14 70/95/14 66/96/14 65/97/14
f 15/98/15 16/99/15 18/100/15 17/101/15
f 29/102/16 30/103/16 32/104/16 31/105/16
f 49/106/17 50/107/17 72/108/17 71/109/17
f 31/105/18 32/104/18 44/110/18 43/111/18
f 17/101/19 18/100/19 20/112/19 19/113/19
f 65/97/20 66/96/20 38/114/20 37/115/20
f 61/116/21 62/117/21 34/118/21 33/119/21
f 37/115/22 38/114/22 74/120/22 73/121/22
f 53/122/23 54/123/23 56/81/23 55/80/23
f 47/124/24 48/125/24 46/126/24 45/127/24
f 71/109/25 72/108/25 64/87/25 63/86/25
f 40/42/3 52/128/3 58/129/3 14/130/3 56/131/3 54/132/3 68/133/3 44/134/3 32/135/3 30/136/3 34/137/3 62/138/3 28/139/3 24/140/3 22/141/3 26/142/3 60/26/3 12/25/3 11/143/3 10/144/3 9/24/3
f 67/145/26 68/146/26 54/123/26 53/122/26
f 27/147/27 28/148/27 62/117/27 61/116/27
f 21/149/28 22/150/28 24/151/28 23/152/28
f 75/153/29 76/154/29 16/99/29 15/98/29
f 41/93/30 42/92/30 70/95/30 69/94/30
f 59/89/31 60/88/31 26/155/31 25/156/31
f 57/85/32 58/84/32 52/60/32 51/59/32
f 33/157/33 34/158/33 30/103/33 29/102/33
f 19/159/34 20/160/34 48/125/34 47/124/34
f 73/161/35 74/162/35 76/154/35 75/153/35
f 43/111/36 44/110/36 68/163/36 67/164/36
f 25/156/37 26/155/37 22/150/37 21/149/37
f 45/127/38 46/126/38 50/107/38 49/106/38
f 23/152/39 24/151/39 28/148/39 27/147/39
o Cube.001
v 122.459198 -264.614197 108.445007
v 84.959198 -227.787354 101.371552
v 99.868805 -264.614197 108.445084
v 84.959198 -257.293213 107.038940
v 84.959198 -264.614197 108.445068
v -99.868797 -264.614197 108.445084
v -81.250000 -264.614197 108.445068
v -82.654129 -227.787308 101.371765
v -118.750000 -227.787308 101.371750
v -81.250000 -227.787308 101.371780
v 122.459198 -227.787308 101.371765
v -118.750000 -264.614166 108.445084
v 122.459198 -247.173920 0.698498
v 84.959198 -247.173920 0.698502
v 84.959198 -285.362915 0.698502
v 122.459198 -285.362915 0.698505
v -81.250000 -285.362915 0.698502
v -118.750000 -285.362915 0.698502
v -81.250000 -247.173920 0.698498
v -118.750000 -247.173920 0.698502
vt 0.631213 0.505346
vt 0.631214 0.592461
vt 0.455755 0.592461
vt 0.455755 0.585892
vt 0.455755 0.417004
vt 0.631213 0.417003
vt 0.630693 0.485722
vt 0.595813 0.415962
vt 0.630693 0.415962
vt 0.630693 0.591420
vt 0.455235 0.591420
vt 0.455235 0.415962
vt 0.630707 0.711747
vt 0.455247 0.703848
vt 0.631227 0.712789
vt 0.455767 0.704890
vt 0.455767 0.304576
vt 0.631226 0.296676
vt 0.455247 0.303534
vt 0.447356 0.128253
vt 0.622815 0.120354
vt 0.630706 0.295634
vt 0.623334 0.121395
vt 0.447875 0.129295
vt 0.343328 0.592461
vt 0.343327 0.417004
vt 0.342807 0.591420
vt 0.342807 0.415962
vt 0.751540 0.417003
vt 0.751541 0.592461
vt 0.751020 0.415962
vt 0.751020 0.591420
vn 0.0000 0.1886 0.9820
vn 1.0000 0.0000 0.0000
vn -1.0000 -0.0000 0.0000
vn 0.0000 -0.0000 -1.0000
vn 0.0000 0.9820 -0.1891
vn -0.0000 -0.9820 0.1891
usemtl None_DarStandsJoel.jpg
s off
f 82/165/40 83/166/40 86/167/40 84/168/40 85/169/40 88/170/40
f 79/171/40 80/172/40 81/173/40
f 80/172/40 79/171/40 77/174/40 87/175/40 78/176/40
f 92/177/41 89/178/41 87/175/41 77/174/41
f 93/179/41 95/180/41 86/167/41 83/166/41
f 96/181/42 94/182/42 88/170/42 85/169/42
f 90/183/43 89/184/43 92/185/43 91/186/43
f 93/187/43 94/182/43 96/181/43 95/188/43
f 95/189/44 96/190/44 85/169/44 84/168/44 86/167/44
f 89/191/44 90/192/44 78/176/44 87/175/44
f 90/183/42 91/186/42 81/173/42 80/172/42 78/176/42
f 94/193/45 93/194/45 83/166/45 82/165/45 88/170/45
f 91/195/45 92/196/45 77/174/45 79/171/45 81/173/45
