# Blender v2.79 (sub 0) OBJ File: 'CornholeBoard_Will.blend'
# www.blender.org
mtllib CornholeBoard_Will.mtl
o Cube.001_Cube
v 143.428009 49.617920 -1.483228
v 143.428009 49.617920 28.069881
v 151.760925 49.617920 -1.483228
v 151.760925 49.617920 28.069881
v 143.428009 -53.565765 -1.483228
v 143.428009 -53.565765 28.069881
v 151.760925 -53.565765 -1.483228
v 151.760925 -53.565765 28.069881
v 152.964127 56.650986 28.139141
v -135.971146 57.222324 -0.066176
v -137.309494 57.211536 13.643635
v 151.625778 56.640194 41.848969
v 152.742752 -60.923904 28.025017
v 151.404404 -60.934704 41.734840
v -136.192520 -60.352554 -0.180307
v -137.530838 -60.363342 13.529507
v 142.855774 48.051357 26.682878
v -125.805771 48.582619 0.456635
v 142.666885 -52.283459 26.585482
v -125.994675 -51.752201 0.359239
v 141.801117 48.042862 37.486610
v -126.860428 48.574123 11.260358
v 141.612228 -52.291958 37.389214
v -127.049332 -51.760700 11.162965
v 118.744781 11.437765 38.603569
v 121.444679 10.523579 38.866409
v 124.091370 9.075913 39.123638
v 126.340080 7.081850 39.341587
v 128.217896 4.599072 39.522953
v 129.498749 1.884392 39.645847
v 130.214722 -1.260000 39.713264
v 130.157349 -4.731905 39.704933
v 129.298889 -8.136467 39.618446
v 127.969299 -11.093392 39.486332
v 125.829689 -13.608775 39.275478
v 123.107666 -15.703378 39.008114
v 119.995163 -17.103220 38.703163
v 116.982811 -17.765226 38.408577
v 113.885193 -17.610657 38.106312
v 109.972580 -16.699623 37.725082
v 107.075165 -15.066219 37.443527
v 103.846939 -12.260240 37.130592
v 102.390625 -9.356327 36.990711
v 101.326218 -6.597530 36.888977
v 100.990417 -3.332210 36.858768
v 101.244713 0.097070 36.886292
v 102.260887 3.376187 36.988071
v 104.320343 6.248495 37.191372
v 105.322464 7.526254 37.290203
v 107.247269 9.038399 37.479294
v 109.576958 10.404643 37.707790
v 113.226578 11.454473 38.064896
v 116.042709 11.697350 38.339989
v 119.086082 11.440516 35.107338
v 121.785973 10.526326 35.370178
v 124.432678 9.078665 35.627415
v 126.681374 7.084602 35.845360
v 128.559219 4.601823 36.026722
v 129.840073 1.887143 36.149624
v 130.556030 -1.257249 36.217037
v 130.498657 -4.729154 36.208710
v 129.640198 -8.133718 36.122219
v 128.310593 -11.090642 35.990101
v 126.171005 -13.606025 35.779259
v 123.448959 -15.700627 35.511887
v 120.336472 -17.100470 35.206944
v 117.324104 -17.762476 34.912357
v 114.226501 -17.607906 34.610088
v 110.313889 -16.696875 34.228859
v 107.416458 -15.063469 33.947296
v 104.188232 -12.257489 33.634365
v 102.731934 -9.353575 33.494492
v 101.667526 -6.594779 33.392754
v 101.331726 -3.329459 33.362541
v 101.586006 0.099821 33.390060
v 102.602188 3.378938 33.491840
v 104.661652 6.251246 33.695148
v 105.663773 7.529006 33.793980
v 107.588562 9.041148 33.983067
v 109.918259 10.407393 34.211567
v 113.567871 11.457225 34.568665
v 116.384010 11.700097 34.843765
v -136.968491 57.214287 10.150513
v 151.966766 56.642937 38.355843
v 151.745422 -60.931953 38.241718
v -137.189835 -60.360592 10.036383
v 119.085793 11.440513 35.110443
v 121.785667 10.526326 35.373283
v 124.432373 9.078661 35.630512
v 126.681076 7.084597 35.848457
v 128.558914 4.601820 36.029819
v 129.839752 1.887143 36.152718
v 130.555710 -1.257253 36.220142
v 130.498352 -4.729154 36.211811
v 129.639877 -8.133719 36.125320
v 128.310303 -11.090643 35.993202
v 126.170685 -13.606027 35.782360
v 123.448669 -15.700632 35.514988
v 120.336174 -17.100471 35.210037
v 117.323792 -17.762478 34.915455
v 114.226196 -17.607906 34.613186
v 110.313576 -16.696875 34.231956
v 107.416168 -15.063469 33.950394
v 104.187935 -12.257490 33.637466
v 102.731628 -9.353575 33.497589
v 101.667221 -6.594779 33.395851
v 101.331429 -3.329462 33.365643
v 101.585709 0.099817 33.393166
v 102.601898 3.378934 33.494946
v 104.661346 6.251242 33.698246
v 105.663467 7.529006 33.797077
v 107.588257 9.041145 33.986164
v 109.917953 10.407391 34.214664
v 113.567566 11.457220 34.571762
v 116.383698 11.700097 34.846867
v -137.309494 57.211536 13.643635
v 151.625778 56.640194 41.848969
v 152.964127 56.650986 28.139141
v 142.855774 48.051357 26.682878
v -135.971146 57.222324 -0.066176
v -125.805771 48.582619 0.456635
vt 0.229744 0.083668
vt -0.140871 0.086564
vt -0.139038 -0.236352
vt 0.240878 -0.237698
vt 0.394540 0.085501
vt 0.716195 0.074004
vt 0.712812 0.900734
vt 0.394257 0.904480
vt 0.229178 1.197659
vt -0.141436 1.194355
vt -0.141154 0.905542
vt 0.229461 0.902647
vt -0.711923 -0.110102
vt -0.591686 -0.122639
vt -0.499631 1.245045
vt -0.633096 1.264435
vt 0.795418 0.198394
vt 0.790195 0.282941
vt 1.306451 0.291695
vt 1.313457 0.205195
vt -0.068287 1.264592
vt -0.151916 1.257686
vt -0.192884 -0.096965
vt -0.085340 -0.099762
vt 0.988870 1.403880
vt 0.987894 1.480265
vt 0.500204 1.475996
vt 0.508817 1.401773
vt 0.032987 -0.111598
vt 0.026821 1.267698
vt -0.318944 1.101628
vt -0.320890 1.089249
vt -0.324244 1.073895
vt -0.327826 1.062753
vt -0.332883 1.050374
vt -0.337103 1.044400
vt -0.341161 1.040026
vt -0.345293 1.038001
vt -0.349285 1.038002
vt -0.352921 1.040645
vt -0.356021 1.046932
vt -0.357886 1.050294
vt -0.359749 1.056750
vt -0.361298 1.064776
vt -0.362289 1.078004
vt -0.362424 1.088495
vt 0.129883 -0.121395
vt 0.121197 1.271905
vt 0.511056 1.332412
vt 1.001917 1.328568
vt 1.319527 0.129270
vt 0.795886 0.120277
vt -0.707576 1.266164
vt -0.787893 -0.105145
vt -0.788838 1.265647
vt -0.873064 -0.107339
vt 0.513971 1.249326
vt 0.992017 1.264979
vt 1.332219 0.065313
vt 0.795968 0.048550
vt -0.361672 1.100117
vt -0.358882 1.112085
vt -0.354966 1.124100
vt -0.347088 1.126648
vt -0.339612 1.128447
vt -0.333307 1.129408
vt -0.327881 1.129927
vt -0.323646 1.130078
vt -0.322658 1.133633
vt -0.322191 1.137048
vt -0.322183 1.139637
vt -0.319795 1.127983
vt -0.318785 1.114582
vt -0.351835 1.025189
vt -0.352594 1.028467
vt -0.336705 1.053931
vt -0.339432 1.046563
vt -0.353610 1.034267
vt -0.343072 1.040290
vt -0.356586 1.045356
vt -0.357677 1.052725
vt -0.355103 1.039738
vt -0.346948 1.033647
vt -0.357411 1.061095
vt -0.349870 1.029078
vt -0.355832 1.069236
vt -0.352108 1.024351
vt -0.352846 1.075861
vt -0.352811 1.022097
vt -0.349356 1.080343
vt -0.353065 1.020491
vt -0.345553 1.082981
vt -0.352745 1.019610
vt -0.341912 1.083441
vt -0.352124 1.019306
vt -0.338919 1.081646
vt -0.351363 1.019850
vt -0.336593 1.078114
vt -0.350780 1.021725
vt -0.335213 1.071141
vt -0.351324 1.022817
vt -0.335185 1.062714
vt 0.683759 1.170260
vt 0.441857 1.005874
vt 0.441661 0.991979
vt 0.439914 0.974497
vt 0.437098 0.961076
vt 0.432332 0.945399
vt 0.427601 0.937679
vt 0.423117 0.931771
vt 0.417884 0.929001
vt 0.412436 0.928886
vt 0.407316 0.932407
vt 0.402975 0.941017
vt 0.401195 0.945376
vt 0.399221 0.953931
vt 0.397673 0.964501
vt 0.397102 0.981392
vt 0.396459 0.993354
vt 0.235605 -0.217641
vt 0.723989 -0.157440
vt 0.399036 1.001608
vt 0.170242 1.125997
vt 0.401583 1.015540
vt 0.403534 1.029727
vt 0.411210 1.034569
vt 0.418581 1.037259
vt 0.424183 1.038064
vt 0.428545 1.037590
vt 0.432306 1.036208
vt 0.432101 1.039448
vt 0.432494 1.042838
vt 0.433631 1.045652
vt 0.437581 1.032024
vt 0.440497 1.018702
vt -0.418598 0.712330
vt -0.303906 0.680008
vt 0.518495 0.803555
vt 0.518495 0.862254
vt 0.517471 0.862254
vt 0.517471 0.803555
vt 0.519773 0.803555
vt 0.882322 0.866049
vt 0.529859 0.805557
vt 0.519008 0.803555
vn 0.0000 1.0000 0.0000
vn 1.0000 0.0000 0.0000
vn 0.0000 -1.0000 0.0000
vn -1.0000 0.0000 0.0000
vn 0.0000 0.0000 -1.0000
vn 0.0019 1.0000 0.0010
vn 0.9953 -0.0020 0.0972
vn -0.0019 -1.0000 -0.0010
vn -0.9953 0.0020 -0.0972
vn 0.0969 -0.0526 -0.9939
vn -0.0972 -0.0008 0.9953
vn 0.0521 0.0009 -0.9986
vn 0.1420 0.0007 -0.9899
vn 0.0971 0.0541 -0.9938
vn 0.5018 -0.8637 0.0483
vn -0.2127 0.9769 -0.0200
vn 0.2740 -0.9614 0.0260
vn 0.0493 0.9988 0.0056
vn -0.3178 -0.9476 -0.0318
vn 0.0852 -0.9963 0.0075
vn 0.2246 0.9742 0.0227
vn -0.4758 -0.8783 -0.0471
vn -0.0947 -0.9955 -0.0100
vn 0.4870 0.8721 0.0482
vn -0.6585 -0.7497 -0.0649
vn 0.6511 0.7563 0.0642
vn -0.7924 -0.6050 -0.0778
vn 0.8888 0.4499 0.0871
vn -0.8993 -0.4283 -0.0881
vn 0.9280 0.3614 0.0909
vn -0.9702 -0.2229 -0.0949
vn 0.9900 0.1027 0.0967
vn -0.9951 0.0167 -0.0971
vn 0.9925 -0.0744 0.0968
vn -0.9648 0.2457 -0.0940
vn 0.9503 -0.2974 0.0925
vn -0.9070 0.4118 -0.0882
vn 0.8076 -0.5846 0.0784
vn -0.7566 0.6497 -0.0734
vn 0.7817 -0.6190 0.0758
vn -0.6052 0.7939 -0.0585
vn 0.6131 -0.7878 0.0592
vn -0.4067 0.9127 -0.0390
vn 0.1800 0.9827 -0.0445
vn 0.0000 0.0000 1.0000
usemtl None
s off
f 1/1/1 2/2/1 4/3/1 3/4/1
f 3/5/2 4/6/2 8/7/2 7/8/2
f 7/9/3 8/10/3 6/11/3 5/12/3
f 5/12/4 6/11/4 2/2/4 1/1/4
f 3/5/5 7/8/5 5/12/5 1/1/5
f 10/13/6 11/14/6 12/15/6 9/16/6
f 9/17/7 12/18/7 14/19/7 13/20/7
f 13/21/8 14/22/8 16/23/8 15/24/8
f 15/25/9 16/26/9 11/27/9 10/28/9
f 13/21/10 15/24/10 20/29/10 19/30/10
f 14/22/11 38/31/11 39/32/11 40/33/11 41/34/11 42/35/11 43/36/11 44/37/11 45/38/11 46/39/11 47/40/11 48/41/11 49/42/11 50/43/11 51/44/11 52/45/11 53/46/11 11/14/11 16/23/11
f 19/30/6 20/29/6 24/47/6 23/48/6
f 15/25/12 10/28/12 18/49/12 20/50/12
f 9/17/13 13/20/13 19/51/13 17/52/13
f 10/13/14 9/16/14 17/53/14 18/54/14
f 18/54/8 17/53/8 21/55/8 22/56/8
f 20/50/7 18/49/7 22/57/7 24/58/7
f 17/52/9 19/51/9 23/59/9 21/60/9
f 11/14/11 25/61/11 12/15/11
f 12/15/11 25/61/11 26/62/11 27/63/11 28/64/11 29/65/11 30/66/11 31/67/11 32/68/11 33/69/11 34/70/11 35/71/11 36/72/11 37/73/11 38/31/11 14/22/11
f 51/44/15 50/43/15 79/74/15 80/75/15
f 25/61/11 11/14/11 53/46/11
f 38/31/16 37/73/16 66/76/16 67/77/16
f 52/45/17 51/44/17 80/75/17 81/78/17
f 39/32/18 38/31/18 67/77/18 68/79/18
f 26/62/19 25/61/19 54/80/19 55/81/19
f 53/46/20 52/45/20 81/78/20 82/82/20
f 40/33/21 39/32/21 68/79/21 69/83/21
f 27/63/22 26/62/22 55/81/22 56/84/22
f 25/61/23 53/46/23 82/82/23 54/80/23
f 41/34/24 40/33/24 69/83/24 70/85/24
f 28/64/25 27/63/25 56/84/25 57/86/25
f 42/35/26 41/34/26 70/85/26 71/87/26
f 29/65/27 28/64/27 57/86/27 58/88/27
f 43/36/28 42/35/28 71/87/28 72/89/28
f 30/66/29 29/65/29 58/88/29 59/90/29
f 44/37/30 43/36/30 72/89/30 73/91/30
f 31/67/31 30/66/31 59/90/31 60/92/31
f 45/38/32 44/37/32 73/91/32 74/93/32
f 32/68/33 31/67/33 60/92/33 61/94/33
f 46/39/34 45/38/34 74/93/34 75/95/34
f 33/69/35 32/68/35 61/94/35 62/96/35
f 47/40/36 46/39/36 75/95/36 76/97/36
f 34/70/37 33/69/37 62/96/37 63/98/37
f 48/41/38 47/40/38 76/97/38 77/99/38
f 35/71/39 34/70/39 63/98/39 64/100/39
f 49/42/40 48/41/40 77/99/40 78/101/40
f 36/72/41 35/71/41 64/100/41 65/102/41
f 50/43/42 49/42/42 78/101/42 79/74/42
f 37/73/43 36/72/43 65/102/43 66/76/43
f 85/103/11 100/104/11 101/105/11 102/106/11 103/107/11 104/108/11 105/109/11 106/110/11 107/111/11 108/112/11 109/113/11 110/114/11 111/115/11 112/116/11 113/117/11 114/118/11 115/119/11 83/120/11 86/121/11
f 83/120/11 87/122/11 84/123/11
f 84/123/11 87/122/11 88/124/11 89/125/11 90/126/11 91/127/11 92/128/11 93/129/11 94/130/11 95/131/11 96/132/11 97/133/11 98/134/11 99/135/11 100/104/11 85/103/11
f 83/136/44 11/137/44 54/80/44 82/82/44
f 83/120/11 115/119/11 87/122/11
f 17/138/45 9/139/45 118/140/45 119/141/45
f 10/142/45 18/143/45 121/144/45 120/145/45
l 116 117
