# Blender v2.79 (sub 0) OBJ File: 'TylerNewBoard.blend'
# www.blender.org
mtllib Tyler_cornholeBoard.mtl
o Cube_Cube.001
v -101.799980 -271.257050 3.301483
v -100.179817 -284.365875 139.712509
v 97.333420 -271.257050 3.301453
v 100.396614 -283.985107 139.712479
v -101.799980 -286.064758 2.357208
v -101.436287 -298.792816 138.768173
v 97.333420 -286.064758 2.357178
v 100.396614 -298.792816 138.768143
v -99.999977 94.814751 1.199539
v -99.999962 -94.814743 64.765671
v 100.000031 94.814751 1.199509
v 100.000038 -94.814743 64.765640
v -99.999962 -283.960785 128.169754
v 100.000046 -283.960785 128.169724
v -6.449463 -159.266663 86.370743
v 0.000084 -158.631470 86.157822
v -12.651146 -161.147949 87.001389
v 6.449638 -159.266693 86.370773
v -18.366661 -164.202942 88.025467
v 12.651321 -161.147980 87.001389
v -23.376350 -168.314301 89.403641
v 18.366844 -164.202988 88.025467
v -27.487694 -173.323990 91.082962
v 23.376534 -168.314331 89.403641
v -30.542717 -179.039490 92.998856
v 27.487869 -173.324036 91.082932
v -32.423973 -185.241180 95.077744
v 30.542870 -179.039551 92.998856
v -33.059212 -191.690735 97.239700
v 32.424118 -185.241241 95.077713
v 33.059334 -191.690735 97.239670
v -32.423973 -198.140259 99.401657
v 32.424110 -198.140274 99.401627
v -30.542717 -204.341980 101.480545
v 30.542847 -204.341980 101.480515
v -27.487709 -210.057495 103.396469
v 27.487846 -210.057495 103.396439
v -23.376366 -215.067200 105.075790
v 23.376495 -215.067200 105.075790
v -18.366676 -219.178497 106.453934
v 18.366814 -219.178497 106.453934
v -12.651161 -222.233521 107.478012
v 12.651299 -222.233521 107.478012
v -6.449478 -224.114777 108.108627
v 6.449615 -224.114777 108.108627
v 0.000069 -224.750031 108.321609
v -99.999977 94.814751 12.758804
v -99.999962 -94.814743 76.324936
v 100.000031 94.814751 12.758774
v 100.000038 -94.814743 76.324905
v -99.999962 -283.960785 139.729019
v 100.000046 -283.960785 139.728989
v -6.449455 -159.266663 97.930038
v 0.000092 -158.631470 97.717087
v -12.651146 -161.147949 98.560654
v 6.449646 -159.266693 97.930038
v -18.366661 -164.202942 99.584732
v 12.651329 -161.147980 98.560654
v -23.376350 -168.314301 100.962906
v 18.366844 -164.202988 99.584732
v -27.487694 -173.323990 102.642197
v 23.376534 -168.314331 100.962906
v -30.542717 -179.039490 104.558121
v 27.487869 -173.324020 102.642197
v -32.423973 -185.241180 106.637009
v 30.542870 -179.039551 104.558090
v -33.059212 -191.690735 108.798965
v 32.424118 -185.241241 106.637009
v 33.059334 -191.690735 108.798935
v -32.423973 -198.140228 110.960953
v 32.424110 -198.140259 110.960922
v -30.542717 -204.341980 113.039841
v 30.542847 -204.341980 113.039810
v -27.487709 -210.057495 114.955734
v 27.487846 -210.057495 114.955704
v -23.376366 -215.067200 116.635025
v 23.376495 -215.067200 116.635025
v -18.366676 -219.178497 118.013229
v 18.366814 -219.178497 118.013229
v -12.651161 -222.233521 119.037308
v 12.651299 -222.233521 119.037308
v -6.449478 -224.114777 119.667923
v 6.449615 -224.114777 119.667923
v 0.000069 -224.750031 119.880844
v 95.205742 94.814751 -10.100281
v 95.205750 -94.814743 53.465866
v 94.385445 -283.679901 120.806198
v 95.205750 94.814751 1.458984
v 95.205757 -94.814743 65.025131
v 95.205765 -283.960785 128.429184
v 99.998108 94.814751 -10.100281
v 99.998123 -94.814743 53.465866
v 99.177811 -283.750122 120.543106
v 99.998116 94.814751 1.458984
v 99.998123 -94.814743 65.025131
v 99.998131 -283.960785 128.429184
v 94.090973 89.608879 -11.787704
v 95.205750 -100.820587 35.549332
v 95.205765 -283.406555 98.953384
v 98.883339 89.608879 -11.787704
v 99.998123 -100.820587 35.549332
v 99.998131 -283.406555 98.953384
v -100.065865 94.814735 -10.361343
v -100.065865 -94.814751 53.204803
v -100.578026 -285.249359 117.994766
v -100.065865 94.814751 1.197922
v -100.065849 -94.814743 64.764069
v -100.000572 -283.989685 128.234818
v -95.273506 94.814735 -10.361343
v -95.273506 -94.814751 53.204803
v -96.428566 -284.526978 117.264969
v -95.273506 94.814751 1.197922
v -95.273491 -94.814743 64.764069
v -95.208199 -283.989685 128.234818
v -101.180641 89.608879 -12.048767
v -100.065865 -100.820602 35.288269
v -100.400612 -283.818665 95.675217
v -96.388268 89.608879 -12.048767
v -95.273506 -100.820602 35.288269
v -95.608238 -283.818665 95.675217
v 100.000046 -283.908417 126.466690
v -99.999962 -283.960785 139.451370
v 100.000046 -283.960785 139.451340
v 100.000046 -271.747162 126.466690
vt 0.359271 0.106770
vt 0.553161 0.109062
vt 0.553111 0.392847
vt 0.359272 0.388513
vt 0.645791 0.393305
vt 0.645791 0.587193
vt 0.624807 0.587809
vt 0.624807 0.393921
vt 0.620021 0.393314
vt 0.624349 0.587153
vt 0.338786 0.587145
vt 0.338278 0.393305
vt 0.667232 0.393980
vt 0.666773 0.587819
vt 0.646249 0.587209
vt 0.646249 0.393305
vt 0.338278 0.388513
vt 0.338278 0.106770
vt 0.839181 0.227091
vt 0.839181 0.248084
vt 0.555397 0.247547
vt 0.553619 0.227091
vt 0.321204 0.593469
vt 0.018430 0.592958
vt 0.023302 0.288679
vt 0.321722 0.290735
vt 0.035571 0.015108
vt 0.174032 0.104030
vt 0.163819 0.105689
vt 0.153184 0.109065
vt 0.158646 0.114663
vt 0.161704 0.120542
vt 0.165040 0.126204
vt 0.167742 0.132291
vt 0.170834 0.138155
vt 0.170316 0.144854
vt 0.170296 0.151573
vt 0.169868 0.158308
vt 0.169908 0.165133
vt 0.167827 0.171385
vt 0.166104 0.177797
vt 0.164043 0.184027
vt 0.160252 0.190706
vt 0.173173 0.190515
vt 0.313888 0.012856
vt 0.186103 0.190610
vt 0.182213 0.184074
vt 0.179915 0.177797
vt 0.178444 0.171049
vt 0.176668 0.164586
vt 0.175333 0.157963
vt 0.173562 0.151523
vt 0.176137 0.145182
vt 0.178232 0.138667
vt 0.180718 0.132302
vt 0.182819 0.125670
vt 0.186363 0.119999
vt 0.189798 0.114005
vt 0.194214 0.108358
vt 0.183284 0.105899
vt 0.989244 0.356247
vt 0.980320 0.655372
vt 0.684442 0.649670
vt 0.690120 0.347323
vt 0.832347 0.751825
vt 0.820116 0.751767
vt 0.824069 0.758451
vt 0.826405 0.764682
vt 0.827995 0.771484
vt 0.829920 0.778060
vt 0.831366 0.784712
vt 0.833248 0.791172
vt 0.830784 0.797581
vt 0.828801 0.804158
vt 0.826393 0.810664
vt 0.824424 0.817347
vt 0.821073 0.823114
vt 0.817900 0.829143
vt 0.812551 0.835032
vt 0.822387 0.837746
vt 0.831811 0.838779
vt 0.692247 0.931983
vt 0.841887 0.836429
vt 0.853463 0.833387
vt 0.848827 0.827913
vt 0.845492 0.822045
vt 0.841941 0.816456
vt 0.839030 0.810376
vt 0.835791 0.804606
vt 0.836198 0.797906
vt 0.836105 0.791191
vt 0.836421 0.784452
vt 0.836266 0.777630
vt 0.838199 0.771415
vt 0.839802 0.764979
vt 0.841843 0.758618
vt 0.845515 0.752092
vt 0.971741 0.925915
vt 0.028362 0.003858
vt 0.321905 0.000229
vt 0.337820 0.285051
vt 0.007344 0.282659
vt 0.836589 0.264897
vt 0.553619 0.264897
vt 0.553619 0.248542
vt 0.836589 0.248542
vt 0.337820 0.587911
vt 0.000229 0.590000
vt 0.458998 0.958450
vt 0.449309 0.962663
vt 0.288798 0.948875
vt 0.285638 0.934269
vt 0.012725 0.921164
vt 0.009844 0.906902
vt 0.460074 0.971056
vt 0.283071 0.967705
vt 0.288262 0.955038
vt 0.448559 0.965524
vt 0.000229 0.942317
vt 0.007096 0.927243
vt 0.768090 0.999771
vt 0.282356 0.999771
vt 0.000384 0.905533
vt 0.291642 0.901795
vt 0.524421 0.955280
vt 0.292814 0.893642
vt 0.015199 0.902660
vt 0.009524 0.895210
vt 0.005940 0.947714
vt 0.965965 0.062390
vt 0.968214 0.061910
vt 0.756920 0.046335
vt 0.752436 0.029453
vt 0.348778 0.029880
vt 0.343384 0.006876
vt 0.965053 0.058154
vt 0.750605 0.069486
vt 0.756593 0.053110
vt 0.968353 0.058087
vt 0.345567 0.055317
vt 0.352326 0.035898
vt 0.959940 0.062755
vt 0.751432 0.098838
vt 0.338278 0.054997
vt 0.755900 0.000229
vt 0.960809 0.056881
vt 0.751558 0.106312
vt 0.350270 0.072866
vt 0.351143 0.063070
vt 0.341057 0.067558
vt 0.353669 0.000229
vt 0.577536 0.118605
vt 0.587480 0.112714
vt 0.598477 0.126582
vt 0.590478 0.130490
vt 0.659755 0.212509
vt 0.648875 0.219547
vt 0.643333 0.201904
vt 0.650081 0.196668
vt 0.588252 0.219977
vt 0.578012 0.213702
vt 0.591884 0.202523
vt 0.600070 0.206495
vt 0.669073 0.203307
vt 0.655520 0.190365
vt 0.598566 0.108705
vt 0.607191 0.124273
vt 0.666323 0.130003
vt 0.673758 0.140601
vt 0.658840 0.151658
vt 0.654594 0.144249
vt 0.599656 0.224360
vt 0.608897 0.208857
vt 0.553619 0.165066
vt 0.554855 0.154662
vt 0.571207 0.157862
vt 0.570471 0.166277
vt 0.676339 0.192159
vt 0.659502 0.183250
vt 0.610409 0.106770
vt 0.616247 0.123694
vt 0.554377 0.175803
vt 0.571511 0.174719
vt 0.678937 0.152609
vt 0.661547 0.159522
vt 0.622603 0.107031
vt 0.625287 0.124852
vt 0.557632 0.144560
vt 0.573698 0.149790
vt 0.681499 0.165652
vt 0.662574 0.167584
vt 0.611855 0.226633
vt 0.617999 0.209536
vt 0.557269 0.186460
vt 0.574299 0.182889
vt 0.681085 0.179326
vt 0.661882 0.175580
vt 0.624431 0.226633
vt 0.626993 0.208510
vt 0.562380 0.134900
vt 0.577846 0.142369
vt 0.634729 0.109536
vt 0.633951 0.127677
vt 0.562275 0.196598
vt 0.578744 0.190459
vt 0.636931 0.224276
vt 0.635563 0.205942
vt 0.569075 0.126114
vt 0.583509 0.135840
vt 0.646358 0.114266
vt 0.641932 0.131989
vt 0.569262 0.205803
vt 0.584681 0.197112
vt 0.657042 0.121143
vt 0.648868 0.137618
vn -0.0009 0.9955 0.0943
vn 0.9997 0.0014 -0.0223
vn -0.0000 -0.9957 -0.0929
vn -0.9990 0.0422 0.0113
vn -0.0000 0.0636 -0.9980
vn 0.0001 -0.0645 0.9979
vn -0.0000 -0.3178 -0.9481
vn 0.0000 0.3178 0.9481
vn 0.0000 -1.0000 0.0000
vn -1.0000 -0.0000 0.0000
vn 1.0000 0.0000 0.0000
vn 0.0000 1.0000 0.0000
vn -0.9989 0.0170 0.0430
vn 0.9990 -0.0168 -0.0423
vn 0.9998 0.0048 0.0201
vn -0.0082 -0.9995 -0.0308
vn -0.9998 -0.0048 -0.0199
vn 0.0000 -0.3280 -0.9447
vn 0.0000 -0.2412 -0.9705
vn 0.0000 0.3083 -0.9513
vn -0.0077 -0.9999 -0.0145
vn -0.9987 0.0117 0.0501
vn 0.9987 -0.0117 -0.0501
vn -0.9996 0.0099 0.0259
vn 0.9983 -0.0209 -0.0536
vn 0.9998 0.0028 0.0204
vn 0.0865 -0.9933 0.0768
vn -1.0000 0.0008 -0.0045
vn 0.0000 0.3181 0.9481
vn 0.0000 -0.3134 -0.9496
vn 0.0766 -0.9960 -0.0468
vn -0.6966 -0.7174 0.0000
vn -0.8218 -0.5697 0.0000
vn -0.8407 -0.5415 0.0000
vn -0.7172 -0.6969 0.0000
vn 0.5649 0.8251 0.0000
vn 0.7172 0.6969 0.0000
vn 0.6966 0.7174 0.0000
vn 0.5458 0.8379 0.0000
vn 0.9767 -0.2146 0.0000
vn 0.9165 -0.4001 0.0000
vn 0.9308 -0.3654 0.0000
vn 0.9844 -0.1757 0.0000
vn 0.3899 0.9209 0.0000
vn 0.3752 0.9270 0.0000
vn -0.9165 -0.4001 0.0000
vn -0.9308 -0.3654 0.0000
vn -0.7172 0.6969 0.0000
vn -0.5649 0.8251 0.0000
vn -0.5458 0.8379 0.0000
vn -0.6966 0.7174 0.0000
vn 0.9998 -0.0202 -0.0000
vn 0.9998 0.0202 -0.0000
vn 0.1910 -0.9816 0.0000
vn 0.1990 -0.9800 0.0000
vn 0.1990 0.9800 0.0000
vn 0.1910 0.9816 0.0000
vn -0.9767 -0.2146 0.0000
vn -0.9844 -0.1757 0.0000
vn 0.3752 -0.9270 0.0000
vn 0.3899 -0.9209 0.0000
vn -0.3899 0.9209 0.0000
vn -0.3752 0.9270 0.0000
vn -0.9998 -0.0202 0.0000
vn -0.9998 0.0202 0.0000
vn -0.1910 -0.9816 0.0000
vn -0.1990 -0.9800 0.0000
vn -0.1990 0.9800 0.0000
vn -0.1910 0.9816 0.0000
vn 0.9844 0.1757 -0.0000
vn 0.9767 0.2146 -0.0000
vn 0.5458 -0.8379 0.0000
vn 0.5649 -0.8251 0.0000
vn 0.9308 0.3654 -0.0000
vn 0.9165 0.4001 -0.0000
vn -0.3752 -0.9270 0.0000
vn -0.3899 -0.9209 0.0000
vn -0.9844 0.1757 0.0000
vn -0.9767 0.2146 0.0000
vn 0.6966 -0.7174 0.0000
vn 0.7172 -0.6969 0.0000
vn 0.8407 0.5415 0.0000
vn 0.8218 0.5697 0.0000
vn -0.5458 -0.8379 0.0000
vn -0.5649 -0.8251 0.0000
vn -0.9308 0.3654 0.0000
vn -0.9165 0.4001 0.0000
vn 0.8218 -0.5697 0.0000
vn 0.8407 -0.5415 0.0000
vn -0.8407 0.5415 0.0000
vn -0.8218 0.5697 0.0000
usemtl None
s off
f 1/1/1 2/2/1 4/3/1 3/4/1
f 3/5/2 4/6/2 8/7/2 7/8/2
f 7/9/3 8/10/3 6/11/3 5/12/3
f 5/13/4 6/14/4 2/15/4 1/16/4
f 3/4/5 7/17/5 5/18/5 1/1/5
f 8/19/6 4/20/6 2/21/6 6/22/6
f 9/23/7 11/24/7 12/25/7 10/26/7
f 12/25/7 14/27/7 46/28/7 45/29/7 43/30/7 41/31/7 39/32/7 37/33/7 35/34/7 33/35/7 31/36/7 30/37/7 28/38/7 26/39/7 24/40/7 22/41/7 20/42/7 18/43/7 16/44/7
f 14/27/7 13/45/7 10/26/7 12/25/7 16/44/7 15/46/7 17/47/7 19/48/7 21/49/7 23/50/7 25/51/7 27/52/7 29/53/7 32/54/7 34/55/7 36/56/7 38/57/7 40/58/7 42/59/7 44/60/7 46/28/7
f 47/61/8 48/62/8 50/63/8 49/64/8
f 50/63/8 54/65/8 56/66/8 58/67/8 60/68/8 62/69/8 64/70/8 66/71/8 68/72/8 69/73/8 71/74/8 73/75/8 75/76/8 77/77/8 79/78/8 81/79/8 83/80/8 84/81/8 52/82/8
f 52/82/8 84/81/8 82/83/8 80/84/8 78/85/8 76/86/8 74/87/8 72/88/8 70/89/8 67/90/8 65/91/8 63/92/8 61/93/8 59/94/8 57/95/8 55/96/8 53/97/8 54/65/8 50/63/8 48/62/8 51/98/8
f 13/45/9 14/27/9 52/99/9 51/100/9
f 10/26/10 13/45/10 51/100/10 48/101/10
f 14/27/11 12/25/11 50/102/11 52/99/11
f 11/103/12 9/104/12 47/105/12 49/106/12
f 9/23/10 10/26/10 48/101/10 47/107/10
f 12/25/11 11/24/11 49/108/11 50/102/11
f 87/109/13 90/110/13 89/111/13 86/112/13
f 86/112/10 89/111/10 88/113/10 85/114/10
f 93/115/14 92/116/14 95/117/14 96/118/14
f 92/116/11 91/119/11 94/120/11 95/117/11
f 92/116/15 93/115/15 102/121/15 101/122/15
f 85/114/12 88/113/12 94/120/12 91/123/12
f 90/110/16 87/109/16 93/115/16 96/118/16
f 88/113/8 89/111/8 95/117/8 94/120/8
f 87/109/17 86/112/17 98/124/17 99/125/17
f 89/111/8 90/110/8 96/118/8 95/117/8
f 99/125/18 98/124/18 101/126/18 102/121/18
f 98/124/19 97/127/19 100/128/19 101/126/19
f 85/114/20 91/123/20 100/128/20 97/127/20
f 93/115/21 87/109/21 99/125/21 102/121/21
f 86/112/22 85/114/22 97/127/22 98/124/22
f 91/119/23 92/116/23 101/122/23 100/129/23
f 105/130/24 108/131/24 107/132/24 104/133/24
f 104/133/10 107/132/10 106/134/10 103/135/10
f 111/136/25 110/137/25 113/138/25 114/139/25
f 110/137/11 109/140/11 112/141/11 113/138/11
f 110/137/26 111/136/26 120/142/26 119/143/26
f 103/144/12 106/134/12 112/141/12 109/140/12
f 108/131/27 105/130/27 111/136/27 114/139/27
f 106/134/8 107/132/8 113/138/8 112/141/8
f 105/130/28 104/133/28 116/145/28 117/146/28
f 107/132/29 108/131/29 114/139/29 113/138/29
f 117/146/30 116/147/30 119/143/30 120/142/30
f 116/147/19 115/148/19 118/149/19 119/143/19
f 103/144/20 109/140/20 118/149/20 115/150/20
f 111/136/31 105/130/31 117/146/31 120/142/31
f 104/133/22 103/135/22 115/151/22 116/145/22
f 109/140/23 110/137/23 119/143/23 118/149/23
s 1
f 24/152/32 26/153/33 64/154/34 62/155/35
f 40/156/36 38/157/37 76/158/38 78/159/39
f 27/160/40 25/161/41 63/162/42 65/163/43
f 42/164/44 40/156/36 78/159/39 80/165/45
f 26/153/33 28/166/46 66/167/47 64/154/34
f 39/168/48 41/169/49 79/170/50 77/171/51
f 29/172/52 27/160/40 65/163/43 67/173/53
f 15/174/54 16/175/9 54/176/9 53/177/55
f 44/178/56 42/164/44 80/165/45 82/179/57
f 28/166/46 30/180/58 68/181/59 66/167/47
f 17/182/60 15/174/54 53/177/55 55/183/61
f 41/169/49 43/184/62 81/185/63 79/170/50
f 30/180/58 31/186/64 69/187/65 68/181/59
f 16/175/9 18/188/66 56/189/67 54/176/9
f 43/184/62 45/190/68 83/191/69 81/185/63
f 32/192/70 29/172/52 67/173/53 70/193/71
f 19/194/72 17/182/60 55/183/61 57/195/73
f 46/196/12 44/178/56 82/179/57 84/197/12
f 34/198/74 32/192/70 70/193/71 72/199/75
f 18/188/66 20/200/76 58/201/77 56/189/67
f 45/190/68 46/196/12 84/197/12 83/191/69
f 31/186/64 33/202/78 71/203/79 69/187/65
f 21/204/80 19/194/72 57/195/73 59/205/81
f 36/206/82 34/198/74 72/199/75 74/207/83
f 20/200/76 22/208/84 60/209/85 58/201/77
f 33/202/78 35/210/86 73/211/87 71/203/79
f 23/212/88 21/204/80 59/205/81 61/213/89
f 35/210/86 37/214/90 75/215/91 73/211/87
f 22/208/84 24/152/32 62/155/35 60/209/85
f 38/157/37 36/206/82 74/207/83 76/158/38
f 25/161/41 23/212/88 61/213/89 63/162/42
f 37/214/90 39/168/48 77/171/51 75/215/91
