# Blender v2.79 (sub 0) OBJ File: 'bush_jack.blend'
# www.blender.org
mtllib bush_jack.mtl
o Plane
v 0.000000 99.999992 -9.146240
v 0.000000 -99.999992 -9.146240
v 0.000000 99.999992 190.853760
v 0.000000 -99.999992 190.853760
v -99.999992 -0.000006 -9.146233
v 99.999992 0.000006 -9.146233
v -99.999992 -0.000006 190.853760
v 99.999992 0.000006 190.853760
v -70.710663 -70.710678 -9.146233
v 70.710663 70.710678 -9.146233
v -70.710663 -70.710678 190.853760
v 70.710663 70.710678 190.853760
v 70.710678 -70.710663 -9.146225
v -70.710678 70.710663 -9.146225
v 70.710678 -70.710663 190.853745
v -70.710678 70.710663 190.853745
vt 0.000100 0.000100
vt 0.999900 0.000100
vt 0.999900 0.999900
vt 0.000100 0.999900
vt 0.000100 0.000100
vt 0.999900 0.000100
vt 0.999900 0.999900
vt 0.000100 0.999900
vt 0.000100 0.000100
vt 0.999900 0.000100
vt 0.999900 0.999900
vt 0.000100 0.999900
vt 0.000100 0.000100
vt 0.999900 0.000100
vt 0.999900 0.999900
vt 0.000100 0.999900
vn -1.0000 0.0000 0.0000
vn 0.0000 -1.0000 0.0000
vn 0.7071 -0.7071 0.0000
vn 0.7071 0.7071 0.0000
usemtl None
s off
f 1/1/1 2/2/1 4/3/1 3/4/1
f 5/5/2 6/6/2 8/7/2 7/8/2
f 9/9/3 10/10/3 12/11/3 11/12/3
f 13/13/4 14/14/4 16/15/4 15/16/4
