# Blender v2.79 (sub 0) OBJ File: 'office_whiteboard.blend'
# www.blender.org
mtllib office_whiteboard.mtl
o Plane
v 0.038480 3.750404 2.124736
v 0.038480 0.030404 2.124736
v 0.038480 3.750404 -2.155264
v 0.038480 0.030404 -2.155264
vn 1.0000 -0.0000 0.0000
usemtl None
s off
f 1//1 2//1 4//1 3//1
o Cylinder
v 0.145076 0.042877 -2.190000
v 0.145076 0.042877 2.190000
v 0.144307 0.035074 -2.190000
v 0.144307 0.035074 2.190000
v 0.142031 0.027570 -2.190000
v 0.142031 0.027570 2.190000
v 0.138334 0.020655 -2.190000
v 0.138334 0.020654 2.190000
v 0.133360 0.014593 -2.190000
v 0.133360 0.014593 2.190000
v 0.127298 0.009619 -2.190000
v 0.127298 0.009618 2.190000
v 0.120383 0.005922 -2.190000
v 0.120383 0.005922 2.190000
v 0.112879 0.003646 -2.190000
v 0.112879 0.003646 2.190000
v 0.105076 0.003505 -2.190000
v 0.105076 0.003327 2.190000
v 0.145076 0.042877 -2.190000
v 0.145076 0.042877 2.190000
v 0.144307 0.035074 -2.190000
v 0.144307 0.035074 2.190000
v 0.142031 0.027570 -2.190000
v 0.142031 0.027570 2.190000
v 0.138334 0.020655 -2.190000
v 0.138334 0.020654 2.190000
v 0.133360 0.014593 -2.190000
v 0.133360 0.014593 2.190000
v 0.127298 0.009619 -2.190000
v 0.127298 0.009618 2.190000
v 0.120383 0.005922 -2.190000
v 0.120383 0.005922 2.190000
v 0.112879 0.003646 -2.190000
v 0.112879 0.003646 2.190000
v 0.105076 0.003505 -2.190000
v 0.105076 0.003321 2.190000
v 0.145076 0.042877 -2.190000
v 0.145076 0.042877 2.190000
v 0.144307 0.035074 -2.190000
v 0.144307 0.035074 2.190000
v 0.142031 0.027570 -2.190000
v 0.142031 0.027570 2.190000
v 0.138334 0.020655 -2.190000
v 0.138334 0.020654 2.190000
v 0.133360 0.014593 -2.190000
v 0.133360 0.014593 2.190000
v 0.127298 0.009619 -2.190000
v 0.127298 0.009618 2.190000
v 0.120383 0.005922 -2.190000
v 0.120383 0.005922 2.190000
v 0.112879 0.003646 -2.190000
v 0.112879 0.003646 2.190000
v 0.105076 0.003823 -2.190000
v 0.105076 0.003242 2.190000
v 0.139532 0.043132 -2.190000
v 0.138806 0.042598 2.190000
v 0.138763 0.040617 -2.190000
v 0.138763 0.040617 2.190000
v 0.136487 0.033114 -2.190000
v 0.136487 0.033113 2.190000
v 0.132791 0.026198 -2.190000
v 0.132791 0.026198 2.190000
v 0.127816 0.020137 -2.190000
v 0.127816 0.020136 2.190000
v 0.121755 0.015162 -2.190000
v 0.121755 0.015163 2.190000
v 0.114839 0.013279 -2.190000
v 0.114839 0.013885 2.190000
v 0.107336 0.013249 -2.190000
v 0.107336 0.013324 2.190000
v 0.104904 0.013030 -2.190000
v 0.104830 0.013323 2.190000
vn -0.9952 0.0980 0.0000
vn -0.9569 0.2903 0.0000
vn -0.8819 0.4714 0.0000
vn -0.7730 0.6344 0.0000
vn -0.6344 0.7730 0.0000
vn -0.4714 0.8819 0.0000
vn -0.2903 0.9569 0.0000
vn -0.0294 0.9996 0.0000
vn 0.0000 0.0000 1.0000
vn 1.0000 0.0000 0.0000
vn -1.0000 0.0000 0.0000
vn 0.0000 0.0000 -1.0000
vn 0.9841 -0.1776 0.0001
vn 0.9569 -0.2903 -0.0000
vn 0.8819 -0.4714 -0.0000
vn 0.7730 -0.6344 -0.0000
vn 0.6344 -0.7730 0.0000
vn 0.2228 -0.9749 0.0001
vn 0.0393 -0.9992 0.0001
vn 0.0444 -0.9990 0.0000
vn 0.0020 -1.0000 -0.0001
vn 0.9998 0.0216 0.0000
usemtl None
s off
f 5//2 7//2 8//2 6//2
f 7//3 9//3 10//3 8//3
f 9//4 11//4 12//4 10//4
f 11//5 13//5 14//5 12//5
f 13//6 15//6 16//6 14//6
f 15//7 17//7 18//7 16//7
f 17//8 19//8 20//8 18//8
f 19//9 21//9 22//9 20//9
f 31//10 29//10 47//10 49//10
f 34//10 36//10 54//10 52//10
f 24//10 26//10 44//10 42//10
f 40//11 39//11 57//11 58//11
f 35//10 33//10 51//10 53//10
f 25//10 23//10 41//10 43//10
f 38//10 40//10 58//10 56//10
f 28//10 30//10 48//10 46//10
f 12//10 14//10 32//10 30//10
f 9//10 7//10 25//10 27//10
f 19//10 17//10 35//10 37//10
f 8//10 10//10 28//10 26//10
f 18//10 20//10 38//10 36//10
f 15//10 13//10 31//10 33//10
f 14//10 16//10 34//10 32//10
f 11//10 9//10 27//10 29//10
f 21//10 19//10 37//10 39//10
f 5//10 6//10 24//10 23//10
f 10//10 12//10 30//10 28//10
f 20//10 22//10 40//10 38//10
f 7//10 5//10 23//10 25//10
f 17//10 15//10 33//10 35//10
f 22//12 21//12 39//12 40//12
f 6//10 8//10 26//10 24//10
f 16//10 18//10 36//10 34//10
f 13//10 11//10 29//10 31//10
f 54//13 56//13 74//13 72//13
f 44//13 46//13 64//13 62//13
f 55//10 53//10 71//10 73//10
f 45//10 43//10 61//10 63//10
f 48//13 50//13 68//13 66//13
f 49//10 47//10 65//10 67//10
f 52//13 54//13 72//13 70//13
f 42//13 44//13 62//13 60//13
f 30//10 32//10 50//10 48//10
f 27//10 25//10 43//10 45//10
f 37//10 35//10 53//10 55//10
f 26//10 28//10 46//10 44//10
f 36//10 38//10 56//10 54//10
f 33//10 31//10 49//10 51//10
f 32//10 34//10 52//10 50//10
f 29//10 27//10 45//10 47//10
f 39//10 37//10 55//10 57//10
f 23//10 24//10 42//10 41//10
f 59//14 60//14 62//14 61//14
f 61//15 62//15 64//15 63//15
f 63//16 64//16 66//16 65//16
f 65//17 66//17 68//17 67//17
f 67//18 68//18 70//18 69//18
f 69//19 70//19 72//19 71//19
f 71//20 72//20 74//20 73//20
f 73//21 74//21 76//21 75//21
f 51//10 49//10 67//10 69//10
f 50//13 52//13 70//13 68//13
f 47//10 45//10 63//10 65//10
f 57//10 55//10 73//10 75//10
f 41//22 42//22 60//22 59//22
f 46//13 48//13 66//13 64//13
f 56//13 58//13 76//13 74//13
f 43//10 41//10 59//10 61//10
f 53//10 51//10 69//10 71//10
f 58//23 57//23 75//23 76//23
o Cube.001
v 0.107025 0.003408 -2.190000
v 0.107025 0.003408 2.189881
v 0.027025 0.003408 2.189999
v 0.027025 0.003408 -2.190001
v 0.107025 0.013408 -2.189999
v 0.107025 0.013408 2.190001
v 0.027025 0.013408 2.189999
v 0.027025 0.013408 -2.190000
v 0.107025 0.003408 -1.947830
v 0.107025 0.003408 -1.704497
v 0.107025 0.003408 -1.461163
v 0.107025 0.003408 -1.217830
v 0.107025 0.003408 -0.974497
v 0.107025 0.003408 -0.731164
v 0.107025 0.003408 -0.487830
v 0.107025 0.003408 -0.244497
v 0.107025 0.003408 -0.001164
v 0.107025 0.003408 0.242170
v 0.107025 0.003408 0.485503
v 0.107025 0.003408 0.728836
v 0.107025 0.003408 0.972170
v 0.107025 0.003408 1.215503
v 0.107025 0.003408 1.458836
v 0.107025 0.003408 1.702170
v 0.107025 0.003408 1.945503
v 0.027025 0.003408 1.945503
v 0.027025 0.003408 1.702169
v 0.027025 0.003408 1.458836
v 0.027025 0.003408 1.215503
v 0.027025 0.003408 0.972169
v 0.027025 0.003408 0.728836
v 0.027025 0.003408 0.485503
v 0.027025 0.003408 0.242169
v 0.027025 0.003408 -0.001164
v 0.027025 0.003408 -0.244498
v 0.027025 0.003408 -0.487831
v 0.027025 0.003408 -0.731164
v 0.027025 0.003408 -0.974498
v 0.027025 0.003408 -1.217831
v 0.027025 0.003408 -1.461164
v 0.027025 0.003408 -1.704497
v 0.027025 0.003408 -1.947831
v 0.107025 0.013408 -1.947829
v 0.107025 0.013408 -1.704496
v 0.107025 0.013408 -1.461162
v 0.107025 0.013408 -1.217829
v 0.107025 0.013408 -0.974496
v 0.107025 0.013408 -0.731162
v 0.107025 0.013408 -0.487829
v 0.107025 0.013408 -0.244496
v 0.107025 0.013408 -0.001162
v 0.107025 0.013408 0.242171
v 0.107025 0.013408 0.485504
v 0.107025 0.013408 0.728838
v 0.107025 0.013408 0.972171
v 0.107025 0.013408 1.215504
v 0.107025 0.013408 1.458838
v 0.107025 0.013408 1.702171
v 0.107025 0.013408 1.945504
v 0.027025 0.013408 1.945502
v 0.027025 0.013408 1.702169
v 0.027025 0.013408 1.458836
v 0.027025 0.013408 1.215502
v 0.027025 0.013408 0.972169
v 0.027025 0.013408 0.728836
v 0.027025 0.013408 0.485502
v 0.027025 0.013408 0.242169
v 0.027025 0.013408 -0.001164
v 0.027025 0.013408 -0.244497
v 0.027025 0.013408 -0.487831
v 0.027025 0.013408 -0.731164
v 0.027025 0.013408 -0.974497
v 0.027025 0.013408 -1.217830
v 0.027025 0.013408 -1.461164
v 0.027025 0.013408 -1.704497
v 0.027025 0.013408 -1.947830
vn 0.0000 -1.0000 0.0000
vn 0.0000 1.0000 0.0000
vn 1.0000 0.0000 0.0000
vn 0.0007 -0.0060 1.0000
vn -1.0000 -0.0000 -0.0000
vn 0.0000 0.0001 -1.0000
usemtl Material.002
s off
f 101//24 78//24 79//24 102//24
f 135//25 136//25 83//25 82//25
f 101//26 135//26 82//26 78//26
f 78//27 82//27 83//27 79//27
f 118//28 152//28 84//28 80//28
f 81//29 77//29 80//29 84//29
f 79//28 83//28 136//28 102//28
f 102//28 136//28 137//28 103//28
f 103//28 137//28 138//28 104//28
f 104//28 138//28 139//28 105//28
f 105//28 139//28 140//28 106//28
f 106//28 140//28 141//28 107//28
f 107//28 141//28 142//28 108//28
f 108//28 142//28 143//28 109//28
f 109//28 143//28 144//28 110//28
f 110//28 144//28 145//28 111//28
f 111//28 145//28 146//28 112//28
f 112//28 146//28 147//28 113//28
f 113//28 147//28 148//28 114//28
f 114//28 148//28 149//28 115//28
f 115//28 149//28 150//28 116//28
f 116//28 150//28 151//28 117//28
f 117//28 151//28 152//28 118//28
f 77//26 81//26 119//26 85//26
f 85//26 119//26 120//26 86//26
f 86//26 120//26 121//26 87//26
f 87//26 121//26 122//26 88//26
f 88//26 122//26 123//26 89//26
f 89//26 123//26 124//26 90//26
f 90//26 124//26 125//26 91//26
f 91//26 125//26 126//26 92//26
f 92//26 126//26 127//26 93//26
f 93//26 127//26 128//26 94//26
f 94//26 128//26 129//26 95//26
f 95//26 129//26 130//26 96//26
f 96//26 130//26 131//26 97//26
f 97//26 131//26 132//26 98//26
f 98//26 132//26 133//26 99//26
f 99//26 133//26 134//26 100//26
f 100//26 134//26 135//26 101//26
f 81//25 84//25 152//25 119//25
f 119//25 152//25 151//25 120//25
f 120//25 151//25 150//25 121//25
f 121//25 150//25 149//25 122//25
f 122//25 149//25 148//25 123//25
f 123//25 148//25 147//25 124//25
f 124//25 147//25 146//25 125//25
f 125//25 146//25 145//25 126//25
f 126//25 145//25 144//25 127//25
f 127//25 144//25 143//25 128//25
f 128//25 143//25 142//25 129//25
f 129//25 142//25 141//25 130//25
f 130//25 141//25 140//25 131//25
f 131//25 140//25 139//25 132//25
f 132//25 139//25 138//25 133//25
f 133//25 138//25 137//25 134//25
f 134//25 137//25 136//25 135//25
f 77//24 85//24 118//24 80//24
f 85//24 86//24 117//24 118//24
f 86//24 87//24 116//24 117//24
f 87//24 88//24 115//24 116//24
f 88//24 89//24 114//24 115//24
f 89//24 90//24 113//24 114//24
f 90//24 91//24 112//24 113//24
f 91//24 92//24 111//24 112//24
f 92//24 93//24 110//24 111//24
f 93//24 94//24 109//24 110//24
f 94//24 95//24 108//24 109//24
f 95//24 96//24 107//24 108//24
f 96//24 97//24 106//24 107//24
f 97//24 98//24 105//24 106//24
f 98//24 99//24 104//24 105//24
f 99//24 100//24 103//24 104//24
f 100//24 101//24 102//24 103//24
o Cube
v 0.019541 0.059242 2.120000
v 0.019541 0.059242 -2.120001
v 0.019541 3.748023 2.119999
v 0.019541 3.748023 -2.120000
v 0.030000 0.003632 -2.190000
v 0.030000 0.003632 2.190000
v -0.030000 0.003632 2.190000
v -0.030000 0.003632 -2.190001
v 0.030000 3.803633 -2.189999
v 0.030000 3.803633 2.190001
v -0.030000 3.803633 2.189999
v -0.030000 3.803633 -2.190000
v 0.030000 3.748023 2.120000
v 0.030000 3.742901 2.120000
v 0.030000 0.059242 2.120000
v 0.030000 0.059242 -2.120001
v 0.030000 3.748023 -2.120000
vn 0.0000 -1.0000 0.0000
vn 0.0000 1.0000 0.0000
vn 1.0000 -0.0000 0.0000
vn -0.0000 -0.0000 1.0000
vn -1.0000 -0.0000 -0.0000
vn 0.0000 0.0000 -1.0000
vn 0.0001 -0.0000 -1.0000
usemtl Material
s off
f 157//30 158//30 159//30 160//30
f 161//31 164//31 163//31 162//31
f 157//32 161//32 162//32 166//32 165//32 169//32 168//32
f 158//33 162//33 163//33 159//33
f 159//34 163//34 164//34 160//34
f 161//35 157//35 160//35 164//35
f 168//32 167//32 166//32 162//32 158//32 157//32
usemtl Material.002
f 153//32 154//32 156//32 155//32
f 165//30 155//30 156//30 169//30
f 168//31 154//31 153//31 167//31
f 169//33 156//33 154//33 168//33
f 167//36 153//36 155//36 165//36 166//36
