# Blender v2.79 (sub 0) OBJ File: 'RebarCurved.blend'
# www.blender.org
mtllib RebarCurved.mtl
o Cylinder
v 0.000000 -1.992350 -1.105598
v -0.002957 -1.992350 78.867249
v -0.388688 -1.954067 -1.105526
v -0.378241 -1.954067 78.971550
v -0.762439 -1.840691 -1.105446
v -0.739103 -1.840691 79.071861
v -1.106890 -1.656578 -1.105370
v -1.071672 -1.656578 79.164268
v -1.408804 -1.408804 -1.105297
v -1.363167 -1.408804 79.245224
v -1.656578 -1.106890 -1.105240
v -1.602386 -1.106890 79.311623
v -1.840691 -0.762439 -1.105194
v -1.780140 -0.762439 79.360947
v -1.954067 -0.388688 -1.105167
v -1.889602 -0.388688 79.391327
v -1.992350 -0.000000 -1.105156
v -1.926560 -0.000000 79.401558
v -1.954067 0.388688 -1.105167
v -1.889602 0.388688 79.391327
v -1.840691 0.762439 -1.105194
v -1.780140 0.762439 79.360947
v -1.656578 1.106890 -1.105240
v -1.602386 1.106890 79.311623
v -1.408804 1.408804 -1.105297
v -1.363167 1.408804 79.245224
v -1.106890 1.656578 -1.105370
v -1.071672 1.656578 79.164268
v -0.762439 1.840691 -1.105446
v -0.739103 1.840691 79.071861
v -0.388688 1.954067 -1.105526
v -0.378240 1.954067 78.971550
v 0.000001 1.992350 -1.105598
v -0.002957 1.992350 78.867249
v 0.388689 1.954067 -1.105663
v 0.372325 1.954067 78.762955
v 0.762440 1.840691 -1.105709
v 0.733186 1.840691 78.662659
v 1.106891 1.656578 -1.105743
v 1.065760 1.656578 78.570206
v 1.408805 1.408803 -1.105766
v 1.357262 1.408803 78.489182
v 1.656579 1.106889 -1.105778
v 1.596490 1.106889 78.422699
v 1.840692 0.762438 -1.105782
v 1.774249 0.762438 78.373322
v 1.954067 0.388686 -1.105782
v 1.883719 0.388686 78.342873
v 1.992350 -0.000002 -1.105782
v 1.920681 -0.000002 78.332588
v 1.954067 -0.388690 -1.105782
v 1.883717 -0.388690 78.342873
v 1.840690 -0.762441 -1.105782
v 1.774248 -0.762441 78.373322
v 1.656577 -1.106892 -1.105778
v 1.596487 -1.106892 78.422707
v 1.408802 -1.408806 -1.105766
v 1.357260 -1.408806 78.489182
v 1.106888 -1.656580 -1.105743
v 1.065757 -1.656580 78.570206
v 0.762437 -1.840692 -1.105709
v 0.733183 -1.840692 78.662659
v 0.388685 -1.954068 -1.105663
v 0.372321 -1.954068 78.762955
v -5.771550 -1.992350 40.827843
v -6.160421 -1.954067 40.827858
v -6.534368 -1.840691 40.827881
v -6.879017 -1.656578 40.827904
v -7.181115 -1.408804 40.827930
v -7.429047 -1.106890 40.827957
v -7.613280 -0.762439 40.827976
v -7.726727 -0.388688 40.827991
v -7.765033 -0.000000 40.827995
v -7.726727 0.388688 40.827991
v -7.613280 0.762439 40.827976
v -7.429047 1.106890 40.827957
v -7.181115 1.408804 40.827930
v -6.879017 1.656578 40.827904
v -6.534368 1.840691 40.827881
v -6.160421 1.954067 40.827858
v -5.771549 1.992350 40.827843
v -5.382679 1.954067 40.827835
v -5.008745 1.840691 40.827824
v -4.664105 1.656578 40.827816
v -4.361995 1.408803 40.827808
v -4.114012 1.106889 40.827801
v -3.929723 0.762438 40.827797
v -3.816195 0.388686 40.827785
v -3.777889 -0.000002 40.827785
v -3.816196 -0.388690 40.827785
v -3.929725 -0.762441 40.827797
v -4.114014 -1.106892 40.827801
v -4.361998 -1.408806 40.827808
v -4.664108 -1.656580 40.827816
v -5.008749 -1.840692 40.827824
v -5.382683 -1.954068 40.827835
vt 0.063583 0.244150
vt 0.063583 1.000129
vt 0.032341 1.000130
vt 0.032340 0.244150
vt 0.001099 1.000131
vt 0.001097 0.244151
vt 1.000856 0.244145
vt 1.000855 1.000123
vt 0.969613 1.000122
vt 0.969613 0.244144
vt 0.938370 1.000121
vt 0.938371 0.244143
vt 0.907128 1.000121
vt 0.907129 0.244143
vt 0.875886 1.000121
vt 0.875886 0.244142
vt 0.844643 1.000120
vt 0.844644 0.244142
vt 0.813401 1.000120
vt 0.813401 0.244142
vt 0.782159 1.000120
vt 0.782159 0.244141
vt 0.750916 1.000120
vt 0.750916 0.244141
vt 0.719674 1.000120
vt 0.719674 0.244141
vt 0.688431 1.000119
vt 0.688432 0.244141
vt 0.657189 1.000119
vt 0.657189 0.244141
vt 0.625947 1.000119
vt 0.625947 0.244141
vt 0.594704 1.000120
vt 0.594704 0.244141
vt 0.563462 1.000120
vt 0.563462 0.244141
vt 0.532219 1.000120
vt 0.532219 0.244141
vt 0.500977 1.000120
vt 0.500977 0.244141
vt 0.469735 1.000120
vt 0.469734 0.244141
vt 0.438492 1.000121
vt 0.438492 0.244142
vt 0.407250 1.000121
vt 0.407249 0.244142
vt 0.376007 1.000121
vt 0.376007 0.244142
vt 0.344765 1.000122
vt 0.344765 0.244143
vt 0.313523 1.000123
vt 0.313522 0.244143
vt 0.282280 1.000123
vt 0.282280 0.244144
vt 0.251038 1.000124
vt 0.251037 0.244145
vt 0.219795 1.000125
vt 0.219795 0.244145
vt 0.188553 1.000126
vt 0.188552 0.244146
vt 0.157310 1.000126
vt 0.157310 0.244147
vt 0.126068 1.000128
vt 0.126067 0.244148
vt -0.216705 0.941053
vt -0.210784 0.938825
vt -0.177913 0.937795
vt -0.119357 0.938002
vt -0.037369 0.939438
vt 0.064907 0.942050
vt 0.183537 0.945735
vt 0.313960 0.950351
vt 0.451166 0.955724
vt 0.589888 0.961645
vt 0.724789 0.967886
vt 0.850684 0.974208
vt 0.962736 0.980369
vt 1.056640 0.986131
vt 1.128785 0.991273
vt 1.176400 0.995597
vt 1.197658 0.998937
vt 1.191738 1.001165
vt 1.158866 1.002195
vt 1.100309 1.001988
vt 1.018319 1.000552
vt 0.916043 0.997940
vt 0.797410 0.994255
vt 0.666984 0.989638
vt 0.529776 0.984266
vt 0.391057 0.978345
vt 0.256158 0.972104
vt 0.130265 0.965782
vt 0.018215 0.959621
vt -0.075688 0.953858
vt -0.147832 0.948717
vt -0.195447 0.944393
vt 0.094826 1.000128
vt 0.094825 0.244149
vt -0.173386 0.832157
vt -0.167083 0.830033
vt -0.135105 0.829180
vt -0.078680 0.829629
vt 0.000026 0.831364
vt 0.097985 0.834318
vt 0.211436 0.838378
vt 0.336016 0.843387
vt 0.466938 0.849153
vt 0.599172 0.855454
vt 0.727638 0.862049
vt 0.847395 0.868684
vt 0.953844 0.875103
vt 1.042894 0.881061
vt 1.111119 0.886328
vt 1.155901 0.890701
vt 1.175519 0.894014
vt 1.169217 0.896138
vt 1.137237 0.896991
vt 1.080812 0.896542
vt 1.002107 0.894807
vt 0.904145 0.891853
vt 0.790694 0.887793
vt 0.666113 0.882784
vt 0.535189 0.877018
vt 0.402956 0.870717
vt 0.274492 0.864122
vt 0.154733 0.857487
vt 0.048286 0.851068
vt -0.040763 0.845110
vt -0.108989 0.839843
vt -0.153770 0.835470
vt 0.094824 -0.511831
vt 0.063582 -0.511830
vt 0.126066 -0.511832
vt 0.157309 -0.511833
vt 0.188551 -0.511834
vt 0.219794 -0.511834
vt 0.251036 -0.511835
vt 0.282279 -0.511836
vt 0.313522 -0.511836
vt 0.344764 -0.511836
vt 0.376007 -0.511837
vt 0.407249 -0.511837
vt 0.438492 -0.511837
vt 0.469734 -0.511838
vt 0.500977 -0.511838
vt 0.532219 -0.511838
vt 0.563462 -0.511838
vt 0.594704 -0.511838
vt 0.625947 -0.511838
vt 0.657189 -0.511838
vt 0.688432 -0.511838
vt 0.719674 -0.511838
vt 0.750917 -0.511837
vt 0.782159 -0.511837
vt 0.813402 -0.511837
vt 0.844644 -0.511836
vt 0.875887 -0.511836
vt 0.907129 -0.511835
vt 0.938372 -0.511835
vt 0.969614 -0.511834
vt 1.000857 -0.511833
vt 0.032339 -0.511829
vt 0.001096 -0.511828
vn -0.0977 -0.9951 0.0148
vn -0.2891 -0.9563 0.0438
vn -0.4690 -0.8803 0.0711
vn -0.6302 -0.7705 0.0955
vn -0.7667 -0.6314 0.1161
vn -0.8735 -0.4685 0.1322
vn -0.9468 -0.2882 0.1433
vn -0.9841 -0.0972 0.1489
vn -0.9841 0.0972 0.1489
vn -0.9468 0.2882 0.1433
vn -0.8735 0.4685 0.1322
vn -0.7667 0.6314 0.1161
vn -0.6302 0.7705 0.0955
vn -0.4690 0.8803 0.0711
vn -0.2891 0.9563 0.0438
vn -0.0977 0.9951 0.0148
vn 0.0977 0.9951 -0.0148
vn 0.2891 0.9563 -0.0439
vn 0.4690 0.8803 -0.0712
vn 0.6302 0.7705 -0.0957
vn 0.7667 0.6314 -0.1164
vn 0.8734 0.4685 -0.1327
vn 0.9467 0.2883 -0.1438
vn 0.9840 0.0973 -0.1495
vn 0.9840 -0.0973 -0.1495
vn 0.9467 -0.2883 -0.1438
vn 0.8734 -0.4685 -0.1327
vn 0.7667 -0.6314 -0.1164
vn 0.6302 -0.7705 -0.0957
vn 0.4690 -0.8803 -0.0712
vn 0.2677 0.0000 0.9635
vn 0.2891 -0.9563 -0.0439
vn 0.0977 -0.9951 -0.0148
vn -0.0002 0.0000 -1.0000
vn 0.0980 -0.9951 0.0135
vn 0.2900 -0.9562 0.0399
vn 0.4703 -0.8801 0.0647
vn 0.6319 -0.7702 0.0870
vn 0.7685 -0.6310 0.1058
vn 0.8754 -0.4681 0.1205
vn 0.9487 -0.2880 0.1305
vn 0.9860 -0.0971 0.1357
vn 0.9860 0.0971 0.1357
vn 0.9487 0.2880 0.1305
vn 0.8754 0.4681 0.1205
vn 0.7685 0.6310 0.1058
vn 0.6319 0.7702 0.0870
vn 0.4703 0.8801 0.0647
vn 0.2900 0.9562 0.0399
vn 0.0980 0.9951 0.0135
vn -0.0980 0.9951 -0.0135
vn -0.2900 0.9562 -0.0399
vn -0.4703 0.8801 -0.0647
vn -0.6319 0.7702 -0.0870
vn -0.7686 0.6309 -0.1058
vn -0.8754 0.4681 -0.1205
vn -0.9487 0.2879 -0.1306
vn -0.9860 0.0971 -0.1357
vn -0.9860 -0.0971 -0.1357
vn -0.9487 -0.2879 -0.1306
vn -0.8754 -0.4681 -0.1205
vn -0.7686 -0.6309 -0.1058
vn -0.6319 -0.7702 -0.0870
vn -0.4703 -0.8801 -0.0647
vn -0.2900 -0.9562 -0.0399
vn -0.0980 -0.9951 -0.0135
usemtl None
s off
f 65/1/1 2/2/1 4/3/1 66/4/1
f 66/4/2 4/3/2 6/5/2 67/6/2
f 67/7/3 6/8/3 8/9/3 68/10/3
f 68/10/4 8/9/4 10/11/4 69/12/4
f 69/12/5 10/11/5 12/13/5 70/14/5
f 70/14/6 12/13/6 14/15/6 71/16/6
f 71/16/7 14/15/7 16/17/7 72/18/7
f 72/18/8 16/17/8 18/19/8 73/20/8
f 73/20/9 18/19/9 20/21/9 74/22/9
f 74/22/10 20/21/10 22/23/10 75/24/10
f 75/24/11 22/23/11 24/25/11 76/26/11
f 76/26/12 24/25/12 26/27/12 77/28/12
f 77/28/13 26/27/13 28/29/13 78/30/13
f 78/30/14 28/29/14 30/31/14 79/32/14
f 79/32/15 30/31/15 32/33/15 80/34/15
f 80/34/16 32/33/16 34/35/16 81/36/16
f 81/36/17 34/35/17 36/37/17 82/38/17
f 82/38/18 36/37/18 38/39/18 83/40/18
f 83/40/19 38/39/19 40/41/19 84/42/19
f 84/42/20 40/41/20 42/43/20 85/44/20
f 85/44/21 42/43/21 44/45/21 86/46/21
f 86/46/22 44/45/22 46/47/22 87/48/22
f 87/48/23 46/47/23 48/49/23 88/50/23
f 88/50/24 48/49/24 50/51/24 89/52/24
f 89/52/25 50/51/25 52/53/25 90/54/25
f 90/54/26 52/53/26 54/55/26 91/56/26
f 91/56/27 54/55/27 56/57/27 92/58/27
f 92/58/28 56/57/28 58/59/28 93/60/28
f 93/60/29 58/59/29 60/61/29 94/62/29
f 94/62/30 60/61/30 62/63/30 95/64/30
f 4/65/31 2/66/31 64/67/31 62/68/31 60/69/31 58/70/31 56/71/31 54/72/31 52/73/31 50/74/31 48/75/31 46/76/31 44/77/31 42/78/31 40/79/31 38/80/31 36/81/31 34/82/31 32/83/31 30/84/31 28/85/31 26/86/31 24/87/31 22/88/31 20/89/31 18/90/31 16/91/31 14/92/31 12/93/31 10/94/31 8/95/31 6/96/31
f 95/64/32 62/63/32 64/97/32 96/98/32
f 96/98/33 64/97/33 2/2/33 65/1/33
f 1/99/34 3/100/34 5/101/34 7/102/34 9/103/34 11/104/34 13/105/34 15/106/34 17/107/34 19/108/34 21/109/34 23/110/34 25/111/34 27/112/34 29/113/34 31/114/34 33/115/34 35/116/34 37/117/34 39/118/34 41/119/34 43/120/34 45/121/34 47/122/34 49/123/34 51/124/34 53/125/34 55/126/34 57/127/34 59/128/34 61/129/34 63/130/34
f 63/131/35 96/98/35 65/1/35 1/132/35
f 61/133/36 95/64/36 96/98/36 63/131/36
f 59/134/37 94/62/37 95/64/37 61/133/37
f 57/135/38 93/60/38 94/62/38 59/134/38
f 55/136/39 92/58/39 93/60/39 57/135/39
f 53/137/40 91/56/40 92/58/40 55/136/40
f 51/138/41 90/54/41 91/56/41 53/137/41
f 49/139/42 89/52/42 90/54/42 51/138/42
f 47/140/43 88/50/43 89/52/43 49/139/43
f 45/141/44 87/48/44 88/50/44 47/140/44
f 43/142/45 86/46/45 87/48/45 45/141/45
f 41/143/46 85/44/46 86/46/46 43/142/46
f 39/144/47 84/42/47 85/44/47 41/143/47
f 37/145/48 83/40/48 84/42/48 39/144/48
f 35/146/49 82/38/49 83/40/49 37/145/49
f 33/147/50 81/36/50 82/38/50 35/146/50
f 31/148/51 80/34/51 81/36/51 33/147/51
f 29/149/52 79/32/52 80/34/52 31/148/52
f 27/150/53 78/30/53 79/32/53 29/149/53
f 25/151/54 77/28/54 78/30/54 27/150/54
f 23/152/55 76/26/55 77/28/55 25/151/55
f 21/153/56 75/24/56 76/26/56 23/152/56
f 19/154/57 74/22/57 75/24/57 21/153/57
f 17/155/58 73/20/58 74/22/58 19/154/58
f 15/156/59 72/18/59 73/20/59 17/155/59
f 13/157/60 71/16/60 72/18/60 15/156/60
f 11/158/61 70/14/61 71/16/61 13/157/61
f 9/159/62 69/12/62 70/14/62 11/158/62
f 7/160/63 68/10/63 69/12/63 9/159/63
f 5/161/64 67/7/64 68/10/64 7/160/64
f 3/162/65 66/4/65 67/6/65 5/163/65
f 1/132/66 65/1/66 66/4/66 3/162/66
