# Blender v2.79 (sub 0) OBJ File: 'rebar_brian.blend'
# www.blender.org
mtllib rebar_brian.mtl
o Cylinder
v 5.200113 0.000000 -7.108154
v 5.200113 0.000000 179.168427
v 5.100197 -1.014482 -7.108154
v 5.100197 -1.014482 179.168427
v 4.804282 -1.989978 -7.108154
v 4.804282 -1.989978 179.168427
v 4.323746 -2.889000 -7.108154
v 4.323746 -2.889000 179.168427
v 3.677054 -3.677000 -7.108154
v 3.677054 -3.677000 179.168427
v 2.889055 -4.323696 -7.108154
v 2.889055 -4.323696 179.168427
v 1.990027 -4.804232 -7.108154
v 1.990027 -4.804232 179.168427
v 1.014532 -5.100147 -7.108154
v 1.014532 -5.100147 179.168427
v 0.000056 -5.200063 -7.108154
v 0.000056 -5.200063 179.168427
v -1.014433 -5.100147 -7.108154
v -1.014433 -5.100147 179.168427
v -1.989927 -4.804235 -7.108154
v -1.989927 -4.804235 179.168427
v -2.888944 -4.323696 -7.108154
v -2.888944 -4.323696 179.168427
v -3.676932 -3.677000 -7.108154
v -3.676932 -3.677000 179.168427
v -4.323624 -2.889000 -7.108154
v -4.323624 -2.889000 179.168427
v -4.804159 -1.989977 -7.108154
v -4.804159 -1.989977 179.168427
v -5.100075 -1.014481 -7.108154
v -5.100075 -1.014481 179.168427
v -5.199991 0.000001 -7.108154
v -5.199991 0.000001 179.168427
v -5.100075 1.014484 -7.108154
v -5.100075 1.014484 179.168427
v -4.804159 1.989977 -7.108154
v -4.804159 1.989977 179.168427
v -4.323624 2.889001 -7.108154
v -4.323624 2.889001 179.168427
v -3.676921 3.677000 -7.108154
v -3.676921 3.677000 179.168427
v -2.888944 4.323693 -7.108154
v -2.888944 4.323693 179.168427
v -1.989927 4.804232 -7.108154
v -1.989927 4.804232 179.168427
v -1.014421 5.100142 -7.108154
v -1.014421 5.100142 179.168427
v 0.000056 5.200061 -7.108154
v 0.000056 5.200061 179.168427
v 1.014532 5.100142 -7.108154
v 1.014532 5.100142 179.168427
v 1.990038 4.804226 -7.108154
v 1.990038 4.804226 179.168427
v 2.889055 4.323690 -7.108154
v 2.889055 4.323690 179.168427
v 3.677054 3.676993 -7.108154
v 3.677054 3.676993 179.168427
v 4.323746 2.888991 -7.108154
v 4.323746 2.888991 179.168427
v 4.804282 1.989969 -7.108154
v 4.804282 1.989969 179.168427
v 5.100197 1.014474 -7.108154
v 5.100197 1.014474 179.168427
v 137.875824 21.786085 -7.963852
v 135.820297 17.240929 166.267197
v 138.759430 21.277945 -7.977631
v 136.703873 16.732758 166.253159
v 139.527557 20.609100 -8.018570
v 137.471985 16.063841 166.211563
v 140.150696 19.805210 -8.085114
v 138.095078 15.259892 166.144012
v 140.604874 18.897165 -8.174576
v 138.549240 14.351795 166.053101
v 140.872620 17.919838 -8.283539
v 138.816986 13.374457 165.942337
v 140.943680 16.910784 -8.407837
v 138.888046 12.365424 165.815948
v 140.815308 15.908814 -8.542679
v 138.759689 11.363484 165.678833
v 140.492432 14.952412 -8.682907
v 138.436844 10.407154 165.536224
v 139.987473 14.078336 -8.823135
v 137.931915 9.533149 165.393616
v 139.319839 13.320189 -8.957977
v 137.264328 8.775082 165.256485
v 138.515198 12.707133 -9.082245
v 136.459702 8.162087 165.130112
v 137.604416 12.262659 -9.191162
v 135.548965 7.717703 165.019333
v 136.622574 12.003929 -9.280533
v 134.567154 7.459025 164.928436
v 135.607361 11.940845 -9.347015
v 133.551941 7.395991 164.860870
v 134.597778 12.075832 -9.387985
v 132.542404 7.531018 164.819275
v 133.632675 12.403740 -9.401810
v 131.577286 7.858916 164.805237
v 132.749084 12.911902 -9.387985
v 130.693710 8.367090 164.819275
v 131.981003 13.580858 -9.347015
v 129.925598 9.036004 164.860870
v 131.357925 14.384859 -9.280533
v 129.302490 9.839954 164.928436
v 130.903809 15.293015 -9.191162
v 128.848343 10.748062 165.019348
v 130.636093 16.270445 -9.082245
v 128.580597 11.725399 165.130112
v 130.565048 17.279528 -8.957977
v 128.509537 12.734421 165.256485
v 130.693451 18.281557 -8.823135
v 128.637894 13.736371 165.393616
v 131.016327 19.237968 -8.682907
v 128.960739 14.692711 165.536224
v 131.521271 20.112026 -8.542679
v 129.465668 15.566697 165.678833
v 132.188904 20.870131 -8.407837
v 130.133270 16.324770 165.815948
v 132.993530 21.483147 -8.283539
v 130.937897 16.937765 165.942337
v 133.904251 21.927507 -8.174576
v 131.848618 17.382139 166.053101
v 134.886047 22.186136 -8.085114
v 132.830429 17.640818 166.144012
v 135.901230 22.249109 -8.018570
v 133.845627 17.703850 166.211563
v 136.910736 22.114012 -7.977631
v 134.855179 17.568823 166.253159
v 142.930862 20.586679 78.028938
v 142.903564 20.526335 80.416878
v 136.838120 28.414808 78.853485
v 136.810623 28.353989 81.241325
v 136.584641 18.931042 77.293350
v 136.557556 18.871153 79.681297
v 143.538727 25.384468 78.853485
v 143.511230 25.323645 81.241325
v 133.636826 24.789890 78.028938
v 133.609558 24.729565 80.416855
v 141.435211 19.163811 80.087433
v 141.462402 19.223944 77.699493
v 140.779160 28.205851 81.508987
v 140.806732 28.266821 79.121147
v 138.805313 28.670572 81.439438
v 138.832870 28.731503 79.051605
v 134.905060 20.046438 79.750870
v 134.932159 20.106369 77.362915
v 143.880936 23.405590 78.557007
v 143.853531 23.344954 80.944855
v 134.460526 26.611202 78.385559
v 134.433136 26.550655 80.773460
v 139.572739 18.527266 77.447342
v 139.545609 18.467285 79.835297
v 141.690521 27.759094 79.103600
v 141.662949 27.698143 81.491440
v 133.852646 21.813429 77.560989
v 133.825485 21.753366 79.948944
v 143.433746 21.456163 78.207253
v 143.406418 21.395727 80.595200
v 135.928986 27.973936 78.715012
v 135.901505 27.913198 81.102852
v 137.549561 18.602697 77.310898
v 137.522461 18.542799 79.698853
v 143.083282 26.289680 78.967148
v 143.055740 26.228796 81.354980
v 133.510437 23.792282 77.857498
v 133.483200 23.732059 80.245422
v 142.265213 19.832943 77.857498
v 142.237976 19.772718 80.245422
v 137.818649 28.670607 78.967148
v 137.791107 28.609726 81.354980
v 135.700851 19.438770 77.310898
v 135.673767 19.378870 79.698853
v 143.780609 24.349888 81.102852
v 143.808075 24.410627 78.715012
v 133.930298 25.681282 80.595200
v 133.957642 25.741722 78.207245
v 140.553253 18.783072 77.560989
v 140.526108 18.723009 79.948944
v 139.841827 28.595161 79.103607
v 139.814255 28.534208 81.491440
v 134.308090 20.908195 77.447342
v 134.280975 20.848213 79.835297
v 143.754547 22.407991 78.385559
v 143.727158 22.347445 80.773491
v 135.126175 27.364937 78.557007
v 135.098740 27.304298 80.944855
v 138.558502 18.466356 77.362915
v 138.531403 18.406425 79.750870
v 142.459213 27.091496 79.051605
v 142.431656 27.030563 81.439438
v 133.583298 22.787256 77.699493
v 133.556107 22.727121 80.087433
vt 0.437506 -0.000084
vt 0.437506 0.998417
vt 0.406259 0.998523
vt 0.406259 0.000022
vt 0.375012 0.998630
vt 0.375012 0.000128
vt 0.343765 0.998736
vt 0.343765 0.000234
vt 0.312518 0.998842
vt 0.312518 0.000340
vt 0.281271 0.998948
vt 0.281271 0.000447
vt 0.250024 0.999054
vt 0.250024 0.000553
vt 0.218777 0.999160
vt 0.218777 0.000659
vt 0.187530 0.999266
vt 0.187530 0.000765
vt 0.156283 0.999372
vt 0.156283 0.000871
vt 0.125036 0.999478
vt 0.125036 0.000977
vt 0.093789 0.999584
vt 0.093789 0.001083
vt 0.062542 0.999690
vt 0.062543 0.001189
vt 0.031296 0.999796
vt 0.031296 0.001295
vt 0.000049 0.999902
vt 0.000049 0.001401
vt 0.999951 -0.001994
vt 0.999951 0.996509
vt 0.968704 0.996615
vt 0.968704 -0.001887
vt 0.937457 0.996721
vt 0.937457 -0.001781
vt 0.906210 0.996827
vt 0.906210 -0.001675
vt 0.874963 0.996933
vt 0.874963 -0.001569
vt 0.843716 0.997039
vt 0.843716 -0.001463
vt 0.812469 0.997145
vt 0.812469 -0.001357
vt 0.781223 0.997251
vt 0.781222 -0.001251
vt 0.749975 0.997357
vt 0.749975 -0.001145
vt 0.718728 0.997463
vt 0.718728 -0.001039
vt 0.687482 0.997569
vt 0.687482 -0.000933
vt 0.656235 0.997675
vt 0.656235 -0.000827
vt 0.624988 0.997781
vt 0.624988 -0.000720
vt 0.593741 0.997887
vt 0.593741 -0.000614
vt 0.562494 0.997993
vt 0.562494 -0.000508
vt 0.531247 0.998099
vt 0.531247 -0.000402
vt 0.500000 0.998205
vt 0.500000 -0.000296
vt 0.062965 0.176840
vt 0.046800 0.176290
vt 0.032251 0.175492
vt 0.019879 0.174475
vt 0.010158 0.173281
vt 0.003462 0.171953
vt 0.000049 0.170543
vt 0.000049 0.169106
vt 0.003462 0.167697
vt 0.010158 0.166369
vt 0.019879 0.165174
vt 0.032251 0.164158
vt 0.046800 0.163360
vt 0.062965 0.162810
vt 0.080126 0.162529
vt 0.097623 0.162529
vt 0.114784 0.162810
vt 0.130949 0.163360
vt 0.145498 0.164158
vt 0.157870 0.165174
vt 0.167591 0.166369
vt 0.174287 0.167697
vt 0.177700 0.169106
vt 0.177700 0.170543
vt 0.174287 0.171953
vt 0.167591 0.173281
vt 0.157870 0.174475
vt 0.145498 0.175492
vt 0.130949 0.176290
vt 0.114784 0.176840
vt 0.097623 0.177120
vt 0.080126 0.177120
vt 0.468753 0.998311
vt 0.468753 -0.000190
vt 0.130950 0.148671
vt 0.145498 0.149470
vt 0.157870 0.150486
vt 0.167591 0.151681
vt 0.174287 0.153009
vt 0.177701 0.154418
vt 0.177701 0.155855
vt 0.174287 0.157265
vt 0.167591 0.158592
vt 0.157870 0.159787
vt 0.145498 0.160803
vt 0.130949 0.161602
vt 0.114784 0.162152
vt 0.097623 0.162432
vt 0.080126 0.162432
vt 0.062965 0.162152
vt 0.046800 0.161602
vt 0.032251 0.160803
vt 0.019879 0.159787
vt 0.010158 0.158592
vt 0.003462 0.157265
vt 0.000049 0.155855
vt 0.000049 0.154418
vt 0.003462 0.153009
vt 0.010158 0.151681
vt 0.019879 0.150486
vt 0.032251 0.149470
vt 0.046800 0.148671
vt 0.062965 0.148121
vt 0.080126 0.147841
vt 0.097623 0.147841
vt 0.114784 0.148121
vt 0.500000 -0.000296
vt 0.500000 0.525554
vt 0.468753 0.525716
vt 0.468753 -0.000190
vt 0.375012 0.539667
vt 0.406259 0.539617
vt 0.406259 0.998523
vt 0.375012 0.998630
vt 0.343765 0.539681
vt 0.343765 0.998736
vt 0.281271 0.539620
vt 0.312518 0.539664
vt 0.312518 0.998842
vt 0.281271 0.998948
vt 0.218777 0.539476
vt 0.250024 0.539555
vt 0.250024 0.999054
vt 0.218777 0.999160
vt 0.187530 0.539389
vt 0.187530 0.999266
vt 0.125036 0.539222
vt 0.156283 0.539302
vt 0.156283 0.999372
vt 0.125036 0.999478
vt 0.062542 0.539113
vt 0.093789 0.539157
vt 0.093789 0.999584
vt 0.062542 0.999690
vt 0.125036 0.000977
vt 0.125036 0.525529
vt 0.093789 0.525464
vt 0.093789 0.001083
vt 0.000049 0.539110
vt 0.031296 0.539096
vt 0.031296 0.999796
vt 0.000049 0.999902
vt 0.968704 0.535766
vt 0.999951 0.535716
vt 0.999951 0.996509
vt 0.968704 0.996615
vt 0.906210 0.535978
vt 0.937457 0.535853
vt 0.937457 0.996721
vt 0.906210 0.996827
vt 0.843716 0.536338
vt 0.874963 0.536140
vt 0.874963 0.996933
vt 0.843716 0.997039
vt 0.906210 -0.001675
vt 0.906210 0.522284
vt 0.874963 0.522446
vt 0.874963 -0.001569
vt 0.781222 0.536823
vt 0.812469 0.536567
vt 0.812469 0.997145
vt 0.781223 0.997251
vt 0.749975 0.537100
vt 0.749975 0.997357
vt 0.687482 0.537692
vt 0.718728 0.537392
vt 0.718728 0.997463
vt 0.687482 0.997569
vt 0.624987 0.538282
vt 0.656235 0.537991
vt 0.656235 0.997675
vt 0.624988 0.997781
vt 0.593741 0.538560
vt 0.593741 0.997887
vt 0.531247 0.539045
vt 0.562494 0.538816
vt 0.562494 0.997993
vt 0.531247 0.998099
vt 0.468753 0.539405
vt 0.500000 0.539243
vt 0.500000 0.998205
vt 0.468753 0.998311
vt 0.062965 0.176840
vt 0.046800 0.176290
vt 0.032251 0.175492
vt 0.019879 0.174475
vt 0.010158 0.173281
vt 0.003462 0.171953
vt 0.000049 0.170543
vt 0.000049 0.169106
vt 0.003462 0.167697
vt 0.010158 0.166369
vt 0.019879 0.165174
vt 0.032251 0.164158
vt 0.046800 0.163360
vt 0.062965 0.162810
vt 0.080126 0.162529
vt 0.097623 0.162529
vt 0.114784 0.162810
vt 0.130949 0.163360
vt 0.145498 0.164158
vt 0.157870 0.165174
vt 0.167591 0.166369
vt 0.174287 0.167697
vt 0.177700 0.169106
vt 0.177700 0.170543
vt 0.174287 0.171953
vt 0.167591 0.173281
vt 0.157870 0.174475
vt 0.145498 0.175492
vt 0.130949 0.176290
vt 0.114784 0.176840
vt 0.097623 0.177120
vt 0.080126 0.177120
vt 0.531247 -0.000402
vt 0.531247 0.525356
vt 0.437506 0.539530
vt 0.437506 0.998417
vt 0.130950 0.148671
vt 0.145498 0.149470
vt 0.157870 0.150486
vt 0.167591 0.151681
vt 0.174287 0.153009
vt 0.177701 0.154418
vt 0.177701 0.155855
vt 0.174287 0.157265
vt 0.167591 0.158592
vt 0.157870 0.159787
vt 0.145498 0.160803
vt 0.130949 0.161602
vt 0.114784 0.162152
vt 0.097623 0.162432
vt 0.080126 0.162432
vt 0.062965 0.162152
vt 0.046800 0.161602
vt 0.032251 0.160803
vt 0.019879 0.159787
vt 0.010158 0.158592
vt 0.003462 0.157265
vt 0.000049 0.155855
vt 0.000049 0.154418
vt 0.003462 0.153009
vt 0.010158 0.151681
vt 0.019879 0.150486
vt 0.032251 0.149470
vt 0.046800 0.148671
vt 0.062965 0.148121
vt 0.080126 0.147841
vt 0.097623 0.147841
vt 0.114784 0.148121
vt 0.250024 0.000553
vt 0.250024 0.525865
vt 0.218777 0.525785
vt 0.218777 0.000659
vt 0.062542 0.525419
vt 0.062543 0.001189
vt 0.843716 0.522644
vt 0.843716 -0.001463
vt 0.718728 -0.001039
vt 0.718728 0.523700
vt 0.687482 0.524000
vt 0.687482 -0.000933
vt 0.312518 0.000340
vt 0.312518 0.525975
vt 0.281271 0.525931
vt 0.281271 0.000447
vt 0.749975 -0.001145
vt 0.749975 0.523408
vt 0.937457 -0.001781
vt 0.937457 0.522158
vt 0.343765 0.000234
vt 0.343765 0.525992
vt 0.562494 -0.000508
vt 0.562494 0.525126
vt 0.968704 -0.001887
vt 0.968704 0.522071
vt 0.593741 -0.000614
vt 0.593741 0.524870
vt 0.781222 -0.001251
vt 0.781222 0.523130
vt 0.187530 0.000765
vt 0.187530 0.525697
vt 0.156283 0.525609
vt 0.156283 0.000871
vt 0.375012 0.000128
vt 0.375012 0.525978
vt 0.999951 -0.001994
vt 0.999951 0.522022
vt 0.437506 -0.000084
vt 0.437506 0.525842
vt 0.406259 0.525928
vt 0.406259 0.000022
vt 0.812469 -0.001357
vt 0.812469 0.522873
vt 0.624988 -0.000720
vt 0.624987 0.524592
vt 0.031296 0.001295
vt 0.031296 0.525402
vt 0.000049 0.525416
vt 0.000049 0.001401
vt 0.656235 -0.000827
vt 0.656235 0.524300
vn 0.9952 -0.0980 0.0000
vn 0.9569 -0.2903 0.0000
vn 0.8819 -0.4714 0.0000
vn 0.7730 -0.6344 0.0000
vn 0.6344 -0.7730 0.0000
vn 0.4714 -0.8819 0.0000
vn 0.2903 -0.9569 0.0000
vn 0.0980 -0.9952 0.0000
vn -0.0980 -0.9952 0.0000
vn -0.2903 -0.9569 0.0000
vn -0.4714 -0.8819 0.0000
vn -0.6344 -0.7730 0.0000
vn -0.7730 -0.6344 0.0000
vn -0.8819 -0.4714 0.0000
vn -0.9569 -0.2903 0.0000
vn -0.9952 -0.0980 0.0000
vn -0.9952 0.0980 0.0000
vn -0.9569 0.2903 0.0000
vn -0.8819 0.4714 0.0000
vn -0.7730 0.6344 0.0000
vn -0.6344 0.7730 0.0000
vn -0.4714 0.8819 0.0000
vn -0.2903 0.9569 0.0000
vn -0.0980 0.9952 0.0000
vn 0.0980 0.9952 0.0000
vn 0.2903 0.9569 0.0000
vn 0.4714 0.8819 0.0000
vn 0.6344 0.7730 0.0000
vn 0.7730 0.6344 0.0000
vn 0.8819 0.4714 0.0000
vn -0.0000 0.0000 1.0000
vn 0.9569 0.2903 0.0000
vn 0.9952 0.0980 0.0000
vn 0.0000 0.0000 -1.0000
vn 0.1364 0.9876 -0.0781
vn 0.6549 0.7436 0.1345
vn 0.7893 0.6013 0.1240
vn 0.9632 0.2537 0.0892
vn 0.8934 0.4359 0.1087
vn 0.9903 -0.1325 0.0408
vn 0.9959 0.0618 0.0663
vn 0.9468 -0.3217 0.0138
vn 0.7535 -0.6562 -0.0408
vn 0.8668 -0.4985 -0.0138
vn 0.4455 -0.8908 -0.0892
vn 0.6003 -0.7988 0.0396
vn 0.0697 -0.9898 -0.1240
vn 0.2627 -0.9588 -0.1087
vn -0.1259 -0.9829 -0.1345
vn -0.4953 -0.8574 -0.1399
vn -0.3167 -0.9382 -0.1399
vn -0.7893 -0.6013 -0.1240
vn -0.6515 -0.7546 0.0790
vn -0.9631 -0.2538 -0.0892
vn -0.8934 -0.4359 -0.1087
vn -0.9959 -0.0618 -0.0663
vn -0.9467 0.3217 -0.0138
vn -0.9903 0.1325 -0.0408
vn -0.7535 0.6562 0.0408
vn -0.8668 0.4985 0.0138
vn -0.6112 0.7887 0.0663
vn -0.2627 0.9587 0.1087
vn -0.4455 0.8908 0.0892
vn 0.1259 0.9829 0.1345
vn -0.0579 -0.1281 0.9901
vn -0.0554 0.9958 -0.0723
vn 0.3167 0.9382 0.1399
vn 0.0570 0.1260 -0.9904
vn 0.9921 -0.1227 -0.0244
vn 0.4310 -0.9008 0.0530
vn -0.7843 -0.6160 0.0730
vn -0.9479 0.3184 0.0083
vn 0.4953 0.8574 0.1399
vn 0.9611 0.2712 -0.0526
vn -0.9921 0.1227 0.0244
vn -0.4956 -0.8647 0.0820
vn 0.8891 0.4532 -0.0637
vn -0.2469 0.9669 -0.0637
vn -0.3220 -0.9432 0.0820
vn -0.4310 0.9008 -0.0526
vn -0.9963 -0.0767 0.0396
vn 0.8651 -0.5016 0.0083
vn 0.7844 0.6161 -0.0723
vn 0.9479 -0.3184 -0.0083
vn -0.1364 -0.9875 0.0790
vn 0.4956 0.8648 -0.0810
vn -0.9610 -0.2713 0.0530
vn -0.6003 0.7988 -0.0394
vn 0.6515 0.7546 -0.0781
vn -0.8891 -0.4531 0.0643
vn 0.0554 -0.9958 0.0730
vn -0.0697 0.9898 0.1240
vn 0.3220 0.9432 -0.0810
vn -0.7473 0.6640 -0.0244
vn 0.2469 -0.9669 0.0643
vn -0.6549 -0.7437 -0.1345
vn -0.8651 0.5016 -0.0083
vn 0.9963 0.0767 -0.0394
vn 0.6112 -0.7887 -0.0663
vn -0.6565 -0.7539 -0.0264
vn -0.9475 0.3198 -0.0027
vn -0.0619 0.9978 0.0247
vn 0.9643 0.2642 0.0178
vn 0.6059 -0.7954 -0.0131
vn -0.4984 -0.8665 -0.0274
vn -0.9919 0.1270 -0.0081
vn -0.2547 0.9668 0.0217
vn 0.8942 0.4472 0.0217
vn 0.7504 -0.6609 -0.0081
vn -0.3216 -0.9465 -0.0274
vn -0.9974 -0.0703 -0.0131
vn -0.4384 0.8986 0.0178
vn 0.7901 0.6124 0.0247
vn 0.8659 -0.5002 -0.0027
vn -0.1326 -0.9908 -0.0264
vn -0.9643 -0.2642 -0.0176
vn -0.6059 0.7954 0.0132
vn 0.3216 0.9465 0.0279
vn 0.6565 0.7539 0.0268
vn 0.9475 -0.3198 0.0028
vn 0.0619 -0.9978 -0.0243
vn -0.8942 -0.4472 -0.0214
vn -0.7504 0.6609 0.0082
vn 0.1325 0.9908 0.0268
vn 0.4984 0.8665 0.0279
vn 0.9919 -0.1271 0.0082
vn 0.2547 -0.9668 -0.0214
vn -0.7901 -0.6125 -0.0243
vn -0.8659 0.5002 0.0027
vn 0.9974 0.0703 0.0132
vn 0.4384 -0.8986 -0.0176
vn 0.7473 -0.6640 0.0244
usemtl None
s off
f 1/1/1 2/2/1 4/3/1 3/4/1
f 3/4/2 4/3/2 6/5/2 5/6/2
f 5/6/3 6/5/3 8/7/3 7/8/3
f 7/8/4 8/7/4 10/9/4 9/10/4
f 9/10/5 10/9/5 12/11/5 11/12/5
f 11/12/6 12/11/6 14/13/6 13/14/6
f 13/14/7 14/13/7 16/15/7 15/16/7
f 15/16/8 16/15/8 18/17/8 17/18/8
f 17/18/9 18/17/9 20/19/9 19/20/9
f 19/20/10 20/19/10 22/21/10 21/22/10
f 21/22/11 22/21/11 24/23/11 23/24/11
f 23/24/12 24/23/12 26/25/12 25/26/12
f 25/26/13 26/25/13 28/27/13 27/28/13
f 27/28/14 28/27/14 30/29/14 29/30/14
f 29/31/15 30/32/15 32/33/15 31/34/15
f 31/34/16 32/33/16 34/35/16 33/36/16
f 33/36/17 34/35/17 36/37/17 35/38/17
f 35/38/18 36/37/18 38/39/18 37/40/18
f 37/40/19 38/39/19 40/41/19 39/42/19
f 39/42/20 40/41/20 42/43/20 41/44/20
f 41/44/21 42/43/21 44/45/21 43/46/21
f 43/46/22 44/45/22 46/47/22 45/48/22
f 45/48/23 46/47/23 48/49/23 47/50/23
f 47/50/24 48/49/24 50/51/24 49/52/24
f 49/52/25 50/51/25 52/53/25 51/54/25
f 51/54/26 52/53/26 54/55/26 53/56/26
f 53/56/27 54/55/27 56/57/27 55/58/27
f 55/58/28 56/57/28 58/59/28 57/60/28
f 57/60/29 58/59/29 60/61/29 59/62/29
f 59/62/30 60/61/30 62/63/30 61/64/30
f 4/65/31 2/66/31 64/67/31 62/68/31 60/69/31 58/70/31 56/71/31 54/72/31 52/73/31 50/74/31 48/75/31 46/76/31 44/77/31 42/78/31 40/79/31 38/80/31 36/81/31 34/82/31 32/83/31 30/84/31 28/85/31 26/86/31 24/87/31 22/88/31 20/89/31 18/90/31 16/91/31 14/92/31 12/93/31 10/94/31 8/95/31 6/96/31
f 61/64/32 62/63/32 64/97/32 63/98/32
f 63/98/33 64/97/33 2/2/33 1/1/33
f 1/99/34 3/100/34 5/101/34 7/102/34 9/103/34 11/104/34 13/105/34 15/106/34 17/107/34 19/108/34 21/109/34 23/110/34 25/111/34 27/112/34 29/113/34 31/114/34 33/115/34 35/116/34 37/117/34 39/118/34 41/119/34 43/120/34 45/121/34 47/122/34 49/123/34 51/124/34 53/125/34 55/126/34 57/127/34 59/128/34 61/129/34 63/130/34
f 125/131/35 144/132/35 179/133/35 127/134/35
f 190/135/36 154/136/36 68/137/36 70/138/36
f 164/139/37 190/135/37 70/138/37 72/140/37
f 173/141/38 136/142/38 74/143/38 76/144/38
f 136/142/39 164/139/39 72/140/39 74/143/39
f 184/145/40 148/146/40 78/147/40 80/148/40
f 148/146/41 173/141/41 76/144/41 78/147/41
f 158/149/42 184/145/42 80/148/42 82/150/42
f 168/151/43 130/152/43 84/153/43 86/154/43
f 130/152/44 158/149/44 82/150/44 84/153/44
f 178/155/45 139/156/45 88/157/45 90/158/45
f 85/159/46 167/160/46 140/161/46 87/162/46
f 188/163/47 152/164/47 92/165/47 94/166/47
f 152/164/48 178/155/48 90/158/48 92/165/48
f 162/167/49 188/168/49 94/169/49 96/170/49
f 172/171/50 134/172/50 98/173/50 100/174/50
f 134/172/51 162/167/51 96/170/51 98/173/51
f 182/175/52 145/176/52 102/177/52 104/178/52
f 99/179/53 171/180/53 146/181/53 101/182/53
f 192/183/54 156/184/54 106/185/54 108/186/54
f 156/184/55 182/175/55 104/178/55 106/185/55
f 166/187/56 192/183/56 108/186/56 110/188/56
f 175/189/57 138/190/57 112/191/57 114/192/57
f 138/190/58 166/187/58 110/188/58 112/191/58
f 186/193/59 150/194/59 116/195/59 118/196/59
f 150/194/60 175/189/60 114/192/60 116/195/60
f 160/197/61 186/193/61 118/196/61 120/198/61
f 170/199/62 132/200/62 122/201/62 124/202/62
f 132/200/63 160/197/63 120/198/63 122/201/63
f 180/203/64 143/204/64 126/205/64 128/206/64
f 68/207/65 66/208/65 128/209/65 126/210/65 124/211/65 122/212/65 120/213/65 118/214/65 116/215/65 114/216/65 112/217/65 110/218/65 108/219/65 106/220/65 104/221/65 102/222/65 100/223/65 98/224/65 96/225/65 94/226/65 92/227/65 90/228/65 88/229/65 86/230/65 84/231/65 82/232/65 80/233/65 78/234/65 76/235/65 74/236/65 72/237/65 70/238/65
f 123/239/66 169/240/66 144/132/66 125/131/66
f 141/241/67 180/203/67 128/206/67 66/242/67
f 65/243/68 67/244/68 69/245/68 71/246/68 73/247/68 75/248/68 77/249/68 79/250/68 81/251/68 83/252/68 85/253/68 87/254/68 89/255/68 91/256/68 93/257/68 95/258/68 97/259/68 99/260/68 101/261/68 103/262/68 105/263/68 107/264/68 109/265/68 111/266/68 113/267/68 115/268/68 117/269/68 119/270/68 121/271/68 123/272/68 125/273/68 127/274/68
f 77/275/69 147/276/69 183/277/69 79/278/69
f 87/162/70 140/161/70 177/279/70 89/280/70
f 101/182/71 146/181/71 181/281/71 103/282/71
f 111/283/72 137/284/72 176/285/72 113/286/72
f 154/136/73 141/241/73 66/242/73 68/137/73
f 73/287/74 135/288/74 174/289/74 75/290/74
f 109/291/75 165/292/75 137/284/75 111/283/75
f 97/293/76 133/294/76 171/180/76 99/179/76
f 71/295/77 163/296/77 135/288/77 73/287/77
f 121/297/78 131/298/78 169/240/78 123/239/78
f 95/299/79 161/300/79 133/294/79 97/293/79
f 119/301/80 159/302/80 131/298/80 121/297/80
f 107/303/81 191/304/81 165/292/81 109/291/81
f 81/305/82 157/306/82 129/307/82 83/308/82
f 69/309/83 189/310/83 163/296/83 71/295/83
f 79/278/84 183/277/84 157/306/84 81/305/84
f 93/311/85 187/312/85 161/300/85 95/299/85
f 65/313/86 142/314/86 153/315/86 67/316/86
f 105/317/87 155/318/87 191/304/87 107/303/87
f 117/319/88 185/320/88 159/302/88 119/301/88
f 67/316/89 153/315/89 189/310/89 69/309/89
f 103/282/90 181/281/90 155/318/90 105/317/90
f 91/321/91 151/322/91 187/323/91 93/324/91
f 143/204/92 170/199/92 124/202/92 126/205/92
f 127/134/93 179/133/93 142/314/93 65/313/93
f 115/325/94 149/326/94 185/320/94 117/319/94
f 89/280/95 177/279/95 151/322/95 91/321/95
f 145/176/96 172/171/96 100/174/96 102/177/96
f 113/286/97 176/285/97 149/326/97 115/325/97
f 75/290/98 174/289/98 147/276/98 77/275/98
f 139/156/99 168/151/99 86/154/99 88/157/99
f 172/171/100 145/176/100 146/181/100 171/180/100
f 138/190/101 175/189/101 176/285/101 137/284/101
f 170/199/102 143/204/102 144/132/102 169/240/102
f 174/289/103 135/288/103 136/142/103 173/141/103
f 140/161/104 167/160/104 168/151/104 139/156/104
f 134/172/105 172/171/105 171/180/105 133/294/105
f 166/187/106 138/190/106 137/284/106 165/292/106
f 132/200/107 170/199/107 169/240/107 131/298/107
f 135/288/108 163/296/108 164/139/108 136/142/108
f 167/160/109 129/307/109 130/152/109 168/151/109
f 133/294/110 161/300/110 162/167/110 134/172/110
f 192/183/111 166/187/111 165/292/111 191/304/111
f 160/197/112 132/200/112 131/298/112 159/302/112
f 163/296/113 189/310/113 190/135/113 164/139/113
f 129/307/114 157/306/114 158/149/114 130/152/114
f 161/300/115 187/312/115 188/168/115 162/167/115
f 156/184/116 192/183/116 191/304/116 155/318/116
f 186/193/117 160/197/117 159/302/117 185/320/117
f 180/203/118 141/241/118 142/314/118 179/133/118
f 189/310/119 153/315/119 154/136/119 190/135/119
f 157/306/120 183/277/120 184/145/120 158/149/120
f 187/323/121 151/322/121 152/164/121 188/163/121
f 182/175/122 156/184/122 155/318/122 181/281/122
f 150/194/123 186/193/123 185/320/123 149/326/123
f 143/204/124 180/203/124 179/133/124 144/132/124
f 153/315/125 142/314/125 141/241/125 154/136/125
f 183/277/126 147/276/126 148/146/126 184/145/126
f 151/322/127 177/279/127 178/155/127 152/164/127
f 145/176/128 182/175/128 181/281/128 146/181/128
f 175/189/129 150/194/129 149/326/129 176/285/129
f 147/276/130 174/289/130 173/141/130 148/146/130
f 177/279/131 140/161/131 139/156/131 178/155/131
f 83/308/132 129/307/132 167/160/132 85/159/132
