# Blender v2.79 (sub 0) OBJ File: ''
# www.blender.org
mtllib Bush_Will.mtl
o Plane
v 4.230537 35.013199 -9.090070
v 41.899197 37.553001 46.376205
v -1.373699 -31.496469 -2.238604
v 36.294964 -28.956678 53.227669
v 12.313618 59.237316 71.542328
v 17.133421 38.401485 -13.099903
v -19.292940 -20.183126 89.292984
v -14.473160 -41.018955 4.650749
v 36.989712 38.863033 -8.007212
v 61.187435 23.689947 91.641281
v -36.469486 -33.964020 -1.258157
v -12.271772 -49.137115 98.390350
v 27.040894 57.757095 60.118778
v 28.367308 27.096325 -15.481086
v -31.397657 4.642158 80.635139
v -30.071262 -26.018620 5.035261
v -19.019966 40.779648 -9.761088
v 10.794744 63.934372 72.169662
v 22.952473 -38.744980 -2.560202
v 52.767208 -15.590255 79.370529
v 66.265770 23.885708 71.823326
v 28.730402 35.935284 -14.575741
v 9.297617 -50.732079 86.166199
v -28.237783 -38.682487 -0.232870
v 1.162253 -52.142536 5.838889
v 8.427927 -27.805735 108.086845
v -2.502005 50.345772 -18.294790
v 4.763626 74.682610 83.953163
v 47.168144 15.819288 -3.199292
v 46.856659 -7.848444 90.175949
v -46.589272 -5.534082 -8.924479
v -46.900761 -29.201824 84.450760
v 44.946888 -23.450933 -1.876345
v 38.703728 -29.270405 88.807739
v -34.927429 20.244358 -4.571221
v -41.170578 14.424888 86.112854
v -33.597889 -24.335644 18.690989
v -5.407090 -2.607047 100.295029
v 27.474892 29.834291 -16.830868
v 55.665653 51.562904 64.773140
v 75.474586 23.781574 66.049240
v 41.410786 13.160252 -24.008867
v -11.165276 -0.809590 101.720406
v -45.229073 -11.430874 11.662278
v 33.062656 21.078711 -4.961870
v 49.470440 -7.703622 58.598434
v -27.370668 -17.418089 -6.794029
v -10.962892 -46.200451 56.766254
v -47.460152 -5.450139 0.887192
v -32.036331 12.113008 94.858421
v 47.110760 5.665114 -16.712477
v 62.534588 23.228262 77.258751
v 23.606752 51.900005 64.685829
v 35.262306 16.173098 -0.712132
v -47.055756 25.579277 66.471054
v -35.400223 -10.147628 1.073064
v -1.492353 -55.615288 49.396175
v 16.491001 -25.879557 -14.676947
v -42.318802 2.715249 65.008118
v -24.335415 32.451015 0.935010
v -24.828316 29.743385 -5.882685
v 12.885305 63.820133 50.591965
v 26.818333 -25.977337 -6.750364
v 64.531960 8.099411 49.724270
v 7.183338 57.537609 33.159641
v 21.263256 18.759310 -10.797501
v -39.788734 23.029709 48.556381
v -25.708849 -15.748595 4.599218
vt 0.999900 0.000100
vt 0.999900 0.999900
vt 0.000100 0.999900
vt 0.000100 0.000100
vt 0.999900 0.000100
vt 0.999900 0.999900
vt 0.000100 0.999900
vt 0.000100 0.000100
vt 0.999900 0.000100
vt 0.999900 0.999900
vt 0.000100 0.999900
vt 0.000100 0.000100
vt 0.999900 0.000100
vt 0.999900 0.999900
vt 0.000100 0.999900
vt 0.000100 0.000100
vt 0.999900 0.000100
vt 0.999900 0.999900
vt 0.000100 0.999900
vt 0.000100 0.000100
vt 0.999900 0.000100
vt 0.999900 0.999900
vt 0.000100 0.999900
vt 0.000100 0.000100
vt 0.999900 0.000100
vt 0.999900 0.999900
vt 0.000100 0.999900
vt 0.000100 0.000100
vt 0.999900 0.000100
vt 0.999900 0.999900
vt 0.000100 0.999900
vt 0.000100 0.000100
vt 0.999900 0.000100
vt 0.999900 0.999900
vt 0.000100 0.999900
vt 0.000100 0.000100
vt 0.999900 0.000100
vt 0.999900 0.999900
vt 0.000100 0.999900
vt 0.000100 0.000100
vt 0.999900 0.000100
vt 0.999900 0.999900
vt 0.000100 0.999900
vt 0.000100 0.000100
vt 0.999900 0.000100
vt 0.999900 0.999900
vt 0.000100 0.999900
vt 0.000100 0.000100
vt 0.999900 0.000100
vt 0.999900 0.999900
vt 0.000100 0.999900
vt 0.000100 0.000100
vt 0.999900 0.000100
vt 0.999900 0.999900
vt 0.000100 0.999900
vt 0.000100 0.000100
vt 0.999900 0.000100
vt 0.999900 0.999900
vt 0.000100 0.999900
vt 0.000100 0.000100
vt 0.999900 0.000100
vt 0.999900 0.999900
vt 0.000100 0.999900
vt 0.000100 0.000100
vt 0.999900 0.000100
vt 0.999900 0.999900
vt 0.000100 0.999900
vt 0.000100 0.000100
vn 0.8233 -0.1264 -0.5533
vn -0.9305 0.3398 -0.1366
vn 0.6658 -0.6964 -0.2677
vn -0.6977 0.6595 -0.2797
vn 0.8211 0.3962 -0.4108
vn -0.6957 0.6054 0.3867
vn -0.9970 -0.0180 0.0751
vn 0.2295 -0.9437 -0.2384
vn -0.4757 -0.8751 -0.0889
vn -0.6551 0.7551 0.0252
vn -0.2764 0.9610 -0.0088
vn 0.4865 -0.7418 -0.4615
vn -0.1444 0.9767 -0.1588
vn -0.3138 0.8086 -0.4977
vn 0.7908 0.4395 0.4259
vn 0.5400 0.5109 -0.6689
vn -0.5817 0.5085 -0.6349
usemtl None
s off
f 1/1/1 2/2/1 4/3/1 3/4/1
f 8/5/2 7/6/2 5/7/2 6/8/2
f 9/9/3 10/10/3 12/11/3 11/12/3
f 16/13/4 15/14/4 13/15/4 14/16/4
f 17/17/5 18/18/5 20/19/5 19/20/5
f 24/21/6 23/22/6 21/23/6 22/24/6
f 25/25/7 26/26/7 28/27/7 27/28/7
f 29/29/8 30/30/8 32/31/8 31/32/8
f 33/33/9 34/34/9 36/35/9 35/36/9
f 37/37/10 38/38/10 40/39/10 39/40/10
f 44/41/11 43/42/11 41/43/11 42/44/11
f 45/45/12 46/46/12 48/47/12 47/48/12
f 49/49/13 50/50/13 52/51/13 51/52/13
f 56/53/14 55/54/14 53/55/14 54/56/14
f 60/57/15 59/58/15 57/59/15 58/60/15
f 61/61/16 62/62/16 64/63/16 63/64/16
f 68/65/17 67/66/17 65/67/17 66/68/17
