# Blender v2.79 (sub 0) OBJ File: ''
# www.blender.org
mtllib Bush01.mtl
o Plane
v 1.000000 0.211976 1.753075
v 1.000000 -0.210044 -0.201892
v -1.000000 0.211976 1.753075
v -1.000000 -0.210044 -0.201892
v 0.594609 -0.743207 2.405434
v 0.594609 -1.260300 0.010053
v -0.594609 1.351210 1.953310
v -0.594609 0.834117 -0.442071
v -0.129164 -0.930812 1.502566
v -0.129164 -1.248071 0.032894
v 0.129164 1.149659 1.053452
v 0.129164 0.832399 -0.416219
v -0.812907 1.034898 2.446742
v -0.812907 0.387119 -0.554027
v 0.812907 -0.251512 2.724441
v 0.812907 -0.899292 -0.276328
v -1.196262 -0.343310 1.367855
v -1.196262 -0.688938 -0.233233
v 1.196262 0.558904 1.173093
v 1.196262 0.213275 -0.427995
v 0.644708 -0.045870 2.009240
v 1.189339 0.045452 0.086992
v -1.279547 -0.045870 1.464041
v -0.734916 0.045452 -0.458207
v 0.149243 -1.135996 2.270828
v 0.816568 -1.024102 -0.084463
v -1.021605 1.004430 2.040777
v -0.354280 1.116324 -0.314513
v -0.296098 -1.086765 1.187564
v 0.113335 -1.018113 -0.257510
v -0.074046 1.039409 1.351487
v 0.335387 1.108061 -0.093587
v -0.038105 1.325535 2.362533
v 0.404267 0.602474 -0.588013
v -0.666986 -0.631818 2.747914
v -0.224614 -1.354878 -0.202632
v -1.328185 -0.484343 0.915742
v -0.882141 -0.409552 -0.658550
v 0.962239 0.437690 1.608492
v 1.408284 0.512481 0.034200
v 1.757678 -0.045870 1.579027
v 1.399355 0.045452 -0.386492
v -0.209893 -0.045870 1.937724
v -0.568216 0.045452 -0.027795
v 0.912723 -1.359977 2.032206
v 0.554801 -1.082176 -0.376104
v 0.710208 1.062504 2.341739
v 0.352287 1.340305 -0.066570
v 0.551034 -1.086765 1.256106
v 0.281660 -1.018113 -0.221497
v 0.822603 1.039409 1.305383
v 0.553229 1.108061 -0.172220
v 0.132146 0.572577 2.770737
v -0.417861 0.712749 -0.246228
v 1.720820 -0.742093 2.420033
v 1.170814 -0.601920 -0.596932
v -0.495207 -0.484343 1.466987
v -0.788668 -0.409552 -0.142743
v 1.866082 0.437690 1.079352
v 1.572621 0.512481 -0.530378
vt 0.000100 0.999900
vt 0.000100 0.000100
vt 0.999900 0.000100
vt 0.999900 0.999900
vt 0.000100 0.999900
vt 0.000100 0.000100
vt 0.999900 0.000100
vt 0.999900 0.999900
vt 0.000100 0.999900
vt 0.000100 0.000100
vt 0.999900 0.000100
vt 0.999900 0.999900
vt 0.000100 0.999900
vt 0.000100 0.000100
vt 0.999900 0.000100
vt 0.999900 0.999900
vt 0.000100 0.999900
vt 0.000100 0.000100
vt 0.999900 0.000100
vt 0.999900 0.999900
vt 0.000100 0.999900
vt 0.000100 0.000100
vt 0.999900 0.000100
vt 0.999900 0.999900
vt 0.000100 0.999900
vt 0.000100 0.000100
vt 0.999900 0.000100
vt 0.999900 0.999900
vt 0.000100 0.999900
vt 0.000100 0.000100
vt 0.999900 0.000100
vt 0.999900 0.999900
vt 0.000100 0.999900
vt 0.000100 0.000100
vt 0.999900 0.000100
vt 0.999900 0.999900
vt 0.000100 0.999900
vt 0.000100 0.000100
vt 0.999900 0.000100
vt 0.999900 0.999900
vt 0.000100 0.999900
vt 0.000100 0.000100
vt 0.999900 0.000100
vt 0.999900 0.999900
vt 0.000100 0.999900
vt 0.000100 0.000100
vt 0.999900 0.000100
vt 0.999900 0.999900
vt 0.000100 0.999900
vt 0.000100 0.000100
vt 0.999900 0.000100
vt 0.999900 0.999900
vt 0.000100 0.999900
vt 0.000100 0.000100
vt 0.999900 0.000100
vt 0.999900 0.999900
vt 0.000100 0.999900
vt 0.000100 0.000100
vt 0.999900 0.000100
vt 0.999900 0.999900
vn 0.0000 0.9775 -0.2110
vn 0.8744 0.4744 -0.1024
vn 0.9927 -0.1178 0.0254
vn -0.6292 -0.7598 0.1640
vn 0.3599 -0.9120 0.1969
vn -0.0124 0.9990 0.0439
vn 0.8352 0.4848 0.2597
vn 0.9566 -0.1204 0.2653
vn -0.9428 0.2624 -0.2057
vn 0.3579 -0.9320 0.0571
vn 0.0082 0.9990 0.0449
vn 0.9858 0.0997 -0.1350
vn 0.9756 -0.1204 -0.1835
vn -0.6253 -0.7765 0.0779
vn 0.3465 -0.9320 -0.1065
usemtl None
s off
f 1/1/1 2/2/1 4/3/1 3/4/1
f 5/5/2 6/6/2 8/7/2 7/8/2
f 9/9/3 10/10/3 12/11/3 11/12/3
f 13/13/4 14/14/4 16/15/4 15/16/4
f 17/17/5 18/18/5 20/19/5 19/20/5
f 21/21/6 22/22/6 24/23/6 23/24/6
f 25/25/7 26/26/7 28/27/7 27/28/7
f 29/29/8 30/30/8 32/31/8 31/32/8
f 33/33/9 34/34/9 36/35/9 35/36/9
f 37/37/10 38/38/10 40/39/10 39/40/10
f 41/41/11 42/42/11 44/43/11 43/44/11
f 45/45/12 46/46/12 48/47/12 47/48/12
f 49/49/13 50/50/13 52/51/13 51/52/13
f 53/53/14 54/54/14 56/55/14 55/56/14
f 57/57/15 58/58/15 60/59/15 59/60/15
