# Blender v2.79 (sub 0) OBJ File: 'Bush_small_Keith.blend'
# www.blender.org
mtllib Bush_small_Keith.mtl
o Plane_Plane.001
v -0.011537 95.637878 -4.194217
v -0.011537 -104.362129 -4.194217
v -0.011525 95.637878 195.805786
v -0.011525 -104.362129 195.805786
v 39.969028 -105.199699 -30.511150
v -50.064968 114.056366 27.540508
v 150.120682 -117.528641 186.891617
v 60.086670 101.727432 244.943268
v 86.806366 20.600670 -5.448503
v -93.917534 -25.835052 -1.840828
v 82.204742 52.787582 178.326492
v -98.519157 6.351852 181.934189
v 101.519211 57.313431 4.663754
v -108.962067 -65.419708 -8.884507
v 10.470623 193.490982 185.537155
v -200.010651 70.757828 171.988892
v -48.473339 72.354004 7.474396
v 57.048683 -74.336166 -14.748914
v -96.436981 12.818726 172.707031
v 9.085035 -133.871429 150.483734
v -112.267784 22.068596 -14.096433
v 123.226547 -15.712692 10.296211
v -152.023285 -92.039810 192.975494
v 83.471046 -129.821136 217.368164
v -97.481537 57.370728 -25.777079
v 108.697159 -54.783997 23.127672
v -192.936615 -30.125305 175.997025
v 13.242075 -142.280045 224.901779
v -104.990509 82.035934 -18.229271
v 118.302910 -81.636375 15.917889
v -219.241516 -25.736645 212.305756
v 4.051921 -189.408981 246.452911
v 115.769905 63.149475 -3.698747
v -122.846069 -74.256271 -5.998374
v 135.297989 24.685837 268.261597
v -103.318008 -112.719933 265.961945
v -79.910095 87.587723 -3.759687
v 92.559296 -88.455872 -5.817938
v -50.946331 113.117477 239.654770
v 121.523064 -62.926117 237.596497
v 29.284412 167.760773 166.777390
v 179.430389 17.488647 148.523178
v -80.106277 77.823074 7.392280
v 70.039680 -72.449005 -10.861947
v -118.390793 -56.596672 -6.543665
v 125.379791 71.631836 -2.206125
v -132.061768 -39.896900 268.082764
v 111.708817 88.331604 272.420288
vt 0.000100 0.000100
vt 0.999900 0.000100
vt 0.999900 0.999900
vt 0.000100 0.999900
vt 0.000100 0.000100
vt 0.999900 0.000100
vt 0.999900 0.999900
vt 0.000100 0.999900
vt 0.000100 0.000100
vt 0.999900 0.000100
vt 0.999900 0.999900
vt 0.000100 0.999900
vt 0.000100 0.000100
vt 0.999900 0.000100
vt 0.999900 0.999900
vt 0.000100 0.999900
vt 0.000100 0.000100
vt 0.999900 0.000100
vt 0.999900 0.999900
vt 0.000100 0.999900
vt 0.000100 0.000100
vt 0.999900 0.000100
vt 0.999900 0.999900
vt 0.000100 0.999900
vt 0.000100 0.000100
vt 0.999900 0.000100
vt 0.999900 0.999900
vt 0.000100 0.999900
vt 0.000100 0.000100
vt 0.999900 0.000100
vt 0.999900 0.999900
vt 0.000100 0.999900
vt 0.000100 0.000100
vt 0.999900 0.000100
vt 0.999900 0.999900
vt 0.000100 0.999900
vt 0.000100 0.000100
vt 0.999900 0.000100
vt 0.999900 0.999900
vt 0.000100 0.999900
vt 0.000100 0.000100
vt 0.999900 0.000100
vt 0.999900 0.999900
vt 0.000100 0.999900
vt 0.000100 0.000100
vt 0.999900 0.000100
vt 0.999900 0.999900
vt 0.000100 0.999900
vn -1.0000 0.0000 0.0000
vn 0.8125 0.4361 -0.3869
vn -0.2483 0.9531 -0.1731
vn -0.3418 0.6600 -0.6690
vn -0.7711 -0.4939 -0.4018
vn -0.0877 -0.8652 -0.4936
vn -0.3193 -0.8050 -0.5001
vn -0.4376 -0.7117 -0.5496
vn -0.4940 0.8553 0.1564
vn -0.7046 -0.6921 0.1564
vn 0.4908 0.5704 -0.6587
vn 0.4631 -0.8830 0.0767
usemtl None
s off
f 1/1/1 2/2/1 4/3/1 3/4/1
f 5/5/2 6/6/2 8/7/2 7/8/2
f 9/9/3 10/10/3 12/11/3 11/12/3
f 13/13/4 14/14/4 16/15/4 15/16/4
f 17/17/5 18/18/5 20/19/5 19/20/5
f 21/21/6 22/22/6 24/23/6 23/24/6
f 25/25/7 26/26/7 28/27/7 27/28/7
f 29/29/8 30/30/8 32/31/8 31/32/8
f 33/33/9 34/34/9 36/35/9 35/36/9
f 37/37/10 38/38/10 40/39/10 39/40/10
f 44/41/11 43/42/11 41/43/11 42/44/11
f 45/45/12 46/46/12 48/47/12 47/48/12
