# Blender v2.79 (sub 0) OBJ File: 'crateJack.blend'
# www.blender.org
mtllib crateJack.mtl
o Cube.002
v 48.735886 -40.693787 9.306217
v 48.735886 40.693779 90.693787
v 48.735886 31.906519 90.693787
v 48.735882 -40.693790 16.786343
v 48.735886 40.693779 82.250847
v 48.735886 -30.799603 9.306217
v 47.499996 31.906519 90.693787
v 47.500000 40.693779 82.250847
v 47.499992 -40.693790 16.786343
v 47.500000 -30.799603 9.306217
v -48.101730 -40.693752 90.693787
v -48.711800 40.693790 9.306217
v -48.101723 -40.693756 82.488625
v -48.711800 40.693790 17.935528
v -48.101723 -32.118912 90.693787
v -48.711800 33.024593 9.306217
v -46.889919 -40.693756 82.488625
v -47.499992 33.024593 9.306217
v -47.499992 40.693790 17.935528
v -46.889919 -32.118912 90.693787
v 49.999996 -50.000000 0.000000
v -50.000000 -50.000000 0.000000
v -49.999992 50.000008 0.000000
v 50.000019 49.999981 0.000000
v 50.016434 -49.918297 100.000000
v -50.000031 -49.999966 100.000000
v -49.999981 50.000019 100.000000
v 50.016457 50.081722 100.000000
v 40.693783 -40.693783 0.000000
v -40.693783 -40.693783 0.000000
v -40.693775 40.693787 0.000000
v 40.693798 40.693768 0.000000
v 40.713177 -40.612076 100.000000
v 40.713196 40.775509 100.000000
v -40.693771 40.693802 100.000000
v -40.693810 -40.693756 100.000000
v 40.693779 -49.999996 9.306217
v 40.693760 -50.000023 90.693787
v -40.693810 -49.999969 90.693787
v -40.693787 -50.000000 9.306217
v -49.999996 -40.693779 9.306217
v -50.000023 -40.693752 90.693787
v -49.999985 40.693802 90.693787
v -49.999992 40.693790 9.306217
v -40.693775 50.000008 9.306217
v -40.693768 50.000011 90.693787
v 40.693787 49.999996 90.693787
v 40.693802 49.999985 9.306217
v 49.999977 -40.693806 90.693787
v 49.999996 -40.693787 9.306217
v 50.000011 40.693768 9.306217
v 50.000000 40.693779 90.693787
v 40.693783 -40.693783 2.500000
v -40.693783 -40.693783 2.500000
v -40.693775 40.693787 2.500000
v 40.693798 40.693768 2.500000
v 40.696716 -40.693802 97.500000
v 40.696735 40.693783 97.500000
v -40.693771 40.693802 97.500000
v -40.693810 -40.693756 97.500000
v 40.693779 -47.499996 9.306217
v 40.693760 -47.500023 90.693787
v -40.693810 -47.499969 90.693787
v -40.693787 -47.500000 9.306217
v -47.499996 -40.693779 9.306217
v -47.499985 40.693802 90.693787
v -40.693775 47.500004 9.306217
v -40.693768 47.500011 90.693787
v 40.693787 47.499996 90.693787
v 40.693802 47.499985 9.306217
v 47.499977 -40.693806 90.693787
v 47.500011 40.693768 9.306217
v -46.889923 -40.693752 90.693787
v -47.499992 40.693790 9.306217
v 47.500000 40.693779 90.693787
v 47.499996 -40.693787 9.306217
vt 0.876090 0.225596
vt 0.863712 0.320909
vt 0.073299 0.225596
vt 0.118674 0.342985
vt 0.323116 0.339417
vt 0.323133 0.342985
vt 0.319980 0.367260
vt 0.118420 0.370551
vt 0.118408 0.367033
vt 0.025582 0.274171
vt 0.072254 0.320018
vt 0.917440 0.266214
vt 0.073233 0.211584
vt 0.876025 0.211584
vt 0.863759 0.334723
vt 0.072301 0.333832
vt 0.869659 0.351259
vt 0.072523 0.440261
vt 0.067606 0.351259
vt 0.320896 0.398320
vt 0.118486 0.401190
vt 0.118476 0.397657
vt 0.067728 0.337261
vt 0.869781 0.337261
vt 0.025582 0.392977
vt 0.914292 0.396219
vt 0.867306 0.442864
vt 0.867343 0.456735
vt 0.072559 0.454132
vt 0.321495 0.374990
vt 0.117224 0.374990
vt 0.117255 0.371425
vt 0.992400 0.990987
vt 0.009307 0.007894
vt 0.992400 0.007894
vt 0.994032 0.010968
vt 0.012396 0.992639
vt 0.012396 0.010968
vt 0.981781 0.966300
vt 0.026442 0.010960
vt 0.981781 0.010960
vt 0.010469 0.983066
vt 0.988633 0.004903
vt 0.988633 0.983066
vt 0.333013 0.000323
vt 0.166671 0.005433
vt 0.166671 0.000323
vt 0.525068 0.607945
vt 0.946345 0.564717
vt 0.989573 0.607945
vt 0.967619 0.400226
vt 0.569644 0.359389
vt 0.926782 0.359388
vt 0.525068 0.609414
vt 0.946344 0.652642
vt 0.568296 0.652642
vt 0.528807 0.401613
vt 0.926780 0.442451
vt 0.569644 0.442451
vt 0.039742 0.542240
vt 0.437717 0.501416
vt 0.478554 0.542240
vt 0.007366 0.266579
vt 0.428700 0.223398
vt 0.471948 0.266592
vt 0.039742 0.290291
vt 0.437715 0.331128
vt 0.080579 0.331129
vt 0.471949 0.178585
vt 0.050628 0.221766
vt 0.007366 0.178572
vt 0.840547 0.947770
vt 0.243494 0.886404
vt 0.779292 0.886494
vt 0.020530 0.273652
vt 0.436554 0.230974
vt 0.479317 0.273665
vt 0.545363 0.947751
vt 0.860347 0.915430
vt 0.892667 0.947751
vt 0.099922 0.168731
vt 0.831272 0.243776
vt 0.174967 0.243777
vt 0.864219 0.922372
vt 0.518364 0.957861
vt 0.482875 0.922372
vt 0.020530 0.317805
vt 0.436551 0.275116
vt 0.479240 0.317805
vt 0.545363 0.880912
vt 0.860347 0.848591
vt 0.892667 0.880912
vt 0.099922 0.091135
vt 0.831272 0.166180
vt 0.174967 0.166181
vt 0.864219 0.848982
vt 0.518364 0.884471
vt 0.482875 0.848982
vt 0.020530 0.186811
vt 0.436549 0.229513
vt 0.063217 0.229501
vt 0.261594 0.129666
vt 0.576572 0.097292
vt 0.608898 0.129666
vt 0.099922 0.321372
vt 0.831273 0.246327
vt 0.906317 0.321372
vt 0.608898 0.096194
vt 0.293941 0.063899
vt 0.576603 0.064130
vt 0.099922 0.088585
vt 0.831271 0.013539
vt 0.906317 0.088585
vt 0.171294 0.024107
vt 0.517119 0.059878
vt 0.206754 0.059625
vt 0.990483 0.347347
vt 0.574837 0.390036
vt 0.531773 0.347347
vt 0.439849 0.641264
vt 0.606188 0.636154
vt 0.606188 0.641264
vt 0.106521 0.641261
vt 0.272859 0.636152
vt 0.272859 0.641262
vt 0.606193 0.647667
vt 0.439849 0.652776
vt 0.439849 0.647667
vt 0.606193 0.641911
vt 0.439849 0.647020
vt 0.439849 0.641911
vt 0.606185 0.629748
vt 0.440011 0.624639
vt 0.606352 0.624639
vt 0.334310 0.616847
vt 0.500661 0.611792
vt 0.500693 0.616904
vt 0.272865 0.647664
vt 0.106521 0.652774
vt 0.106521 0.647664
vt 0.439849 0.630398
vt 0.606201 0.635508
vt 0.439849 0.635507
vt 0.439198 0.624639
vt 0.272867 0.629748
vt 0.272867 0.624639
vt 0.272854 0.635505
vt 0.439203 0.630396
vt 0.439203 0.635505
vt 0.106521 0.635505
vt 0.272854 0.630395
vt 0.106521 0.629749
vt 0.106521 0.624639
vt 0.666995 0.512756
vt 0.666995 0.506400
vt 0.833336 0.512756
vt 0.500653 0.512756
vt 0.334310 0.512756
vt 0.334310 0.507647
vt 0.439193 0.623992
vt 0.605530 0.618882
vt 0.605530 0.623992
vt 0.272849 0.623992
vt 0.439193 0.618882
vt 0.106521 0.623991
vt 0.272849 0.618882
vt 0.771884 0.618882
vt 0.771884 0.623992
vt 0.098688 0.339415
vt 0.103798 0.339415
vt 0.098688 0.505757
vt 0.000323 0.000324
vt 0.106521 0.641908
vt 0.272865 0.641908
vt 0.272865 0.647018
vt 0.999677 0.507646
vt 0.999677 0.512756
vt 0.009307 0.990987
vt 0.994032 0.992639
vt 0.026441 0.966300
vt 0.010469 0.004903
vt 0.333013 0.005433
vt 0.568296 0.564717
vt 0.528807 0.400226
vt 0.989573 0.609414
vt 0.967617 0.401613
vt 0.080579 0.501416
vt 0.050560 0.223317
vt 0.478552 0.290291
vt 0.428768 0.221847
vt 0.182218 0.947770
vt 0.063220 0.230964
vt 0.577684 0.915430
vt 0.906317 0.168731
vt 0.828730 0.957861
vt 0.063218 0.275117
vt 0.577684 0.848591
vt 0.906317 0.091135
vt 0.828730 0.884471
vt 0.479315 0.186825
vt 0.293909 0.097340
vt 0.174967 0.246327
vt 0.261594 0.096194
vt 0.174966 0.013540
vt 0.552637 0.024107
vt 0.948170 0.390036
vt 0.439849 0.636154
vt 0.106521 0.636152
vt 0.606193 0.652776
vt 0.606193 0.647020
vt 0.439844 0.629748
vt 0.334312 0.611737
vt 0.272865 0.652774
vt 0.606235 0.630395
vt 0.439198 0.629748
vt 0.106521 0.630395
vt 0.833336 0.507646
vt 0.500653 0.507647
vt 0.106521 0.618882
vt 0.103798 0.505757
vt 0.008410 0.006101
vt 0.994110 0.006099
vt 0.994111 0.991799
vt 0.008412 0.991800
vt 0.000323 0.005433
vt 0.106521 0.647018
vt 0.997454 0.994976
vt 0.003291 0.994976
vt 0.003263 0.000841
vt 0.997398 0.000813
vn 1.0000 -0.0000 0.0000
vn 0.0000 -0.7134 0.7008
vn 0.0000 0.7142 -0.7000
vn -1.0000 -0.0044 0.0039
vn 0.0000 0.7068 0.7074
vn 0.0000 -0.7045 -0.7097
vn -1.0000 0.0000 0.0000
vn -1.0000 -0.0041 0.0043
vn -0.0000 0.0000 -1.0000
vn 0.0000 0.0000 1.0000
vn 0.0000 -1.0000 -0.0000
vn 0.0000 1.0000 -0.0000
vn 0.0008 -1.0000 0.0080
vn -0.0080 1.0000 -0.0008
vn 1.0000 0.0018 0.0000
vn 1.0000 -0.0000 -0.0018
vn -1.0000 0.0000 0.0066
vn 0.0010 -0.9995 0.0327
vn 0.0080 -1.0000 0.0008
vn -0.0008 1.0000 -0.0080
vn 1.0000 0.0002 -0.0002
vn 1.0000 -0.0016 -0.0002
vn -0.0010 0.9995 -0.0327
vn -1.0000 -0.0037 0.0037
usemtl Material
s off
f 4/1/1 6/2/1 3/3/1
f 3/4/2 9/5/2 4/6/2
f 6/7/3 8/8/3 5/9/3
f 2/10/1 3/3/1 5/11/1
f 4/1/1 1/12/1 6/2/1
f 6/2/1 5/11/1 3/3/1
f 3/3/2 7/13/2 9/14/2
f 6/2/3 10/15/3 8/16/3
f 13/17/4 14/18/4 16/19/4
f 15/20/5 19/21/5 14/22/5
f 13/17/6 18/23/6 17/24/6
f 12/25/7 16/19/7 14/18/7
f 13/17/7 11/26/7 15/27/7
f 15/27/8 14/18/8 13/17/8
f 15/27/5 20/28/5 19/29/5
f 13/30/6 16/31/6 18/32/6
f 53/33/9 55/34/9 56/35/9
f 58/36/10 60/37/10 57/38/10
f 62/39/11 64/40/11 61/41/11
f 67/42/12 69/43/12 70/44/12
f 49/45/9 75/46/9 52/47/9
f 22/48/9 29/49/9 21/50/9
f 22/51/9 31/52/9 30/53/9
f 23/54/9 32/55/9 31/56/9
f 24/57/9 29/58/9 32/59/9
f 28/60/10 33/61/10 25/62/10
f 27/63/10 34/64/10 28/65/10
f 27/66/10 36/67/10 35/68/10
f 25/69/10 36/70/10 26/71/10
f 21/72/11 38/73/11 37/74/11
f 26/75/13 38/76/13 25/77/13
f 22/78/11 39/79/11 26/80/11
f 22/81/11 37/82/11 40/83/11
f 26/84/7 41/85/7 22/86/7
f 27/87/7 42/88/7 26/89/7
f 23/90/7 43/91/7 27/92/7
f 23/93/7 41/94/7 44/95/7
f 27/96/12 45/97/12 23/98/12
f 27/99/12 47/100/12 46/101/12
f 24/102/14 47/103/14 28/104/14
f 23/105/12 48/106/12 24/107/12
f 25/108/15 50/109/15 49/110/15
f 24/111/1 50/112/1 21/113/1
f 24/114/1 52/115/1 51/116/1
f 25/117/16 52/118/16 28/119/16
f 30/120/12 53/121/12 29/122/12
f 31/123/1 54/124/1 30/125/1
f 32/126/11 55/127/11 31/128/11
f 29/129/7 56/130/7 32/131/7
f 33/132/17 58/133/17 57/134/17
f 35/135/18 58/136/18 34/137/18
f 36/138/1 59/139/1 35/140/1
f 36/141/12 57/142/12 60/143/12
f 38/144/7 61/145/7 37/146/7
f 39/147/9 62/148/9 38/149/9
f 40/150/1 63/151/1 39/147/1
f 37/146/10 64/152/10 40/153/10
f 42/154/12 73/155/12 41/156/12
f 43/157/9 73/155/9 42/154/9
f 44/158/11 74/159/11 43/157/11
f 46/160/1 67/161/1 45/162/1
f 47/163/9 68/164/9 46/160/9
f 48/165/7 69/166/7 47/163/7
f 45/162/10 70/167/10 48/168/10
f 50/169/12 76/170/12 49/171/12
f 52/47/11 75/46/11 51/172/11
f 72/173/10 76/174/10 50/175/10
f 41/156/10 74/176/10 44/177/10
f 53/33/9 54/178/9 55/34/9
f 58/36/10 59/179/10 60/37/10
f 62/39/11 63/180/11 64/40/11
f 67/42/12 68/181/12 69/43/12
f 49/45/9 71/182/9 75/46/9
f 22/48/9 30/183/9 29/49/9
f 22/51/9 23/184/9 31/52/9
f 23/54/9 24/185/9 32/55/9
f 24/57/9 21/186/9 29/58/9
f 28/60/10 34/187/10 33/61/10
f 27/63/10 35/188/10 34/64/10
f 27/66/10 26/189/10 36/67/10
f 25/69/10 33/190/10 36/70/10
f 21/72/19 25/191/19 38/73/19
f 26/75/11 39/192/11 38/76/11
f 22/78/11 40/193/11 39/79/11
f 22/81/11 21/194/11 37/82/11
f 26/84/7 42/195/7 41/85/7
f 27/87/7 43/196/7 42/88/7
f 23/90/7 44/197/7 43/91/7
f 23/93/7 22/198/7 41/94/7
f 27/96/12 46/199/12 45/97/12
f 27/99/20 28/200/20 47/100/20
f 24/102/12 48/201/12 47/103/12
f 23/105/12 45/202/12 48/106/12
f 25/108/21 21/203/21 50/109/21
f 24/111/1 51/204/1 50/112/1
f 24/114/22 28/205/22 52/115/22
f 25/117/16 49/206/16 52/118/16
f 30/120/12 54/207/12 53/121/12
f 31/123/1 55/208/1 54/124/1
f 32/126/11 56/209/11 55/127/11
f 29/129/7 53/210/7 56/130/7
f 33/132/17 34/211/17 58/133/17
f 35/135/11 59/212/11 58/136/11
f 36/138/1 60/213/1 59/139/1
f 36/141/23 33/214/23 57/142/23
f 38/144/7 62/215/7 61/145/7
f 39/147/9 63/151/9 62/148/9
f 40/150/1 64/216/1 63/151/1
f 37/146/10 61/145/10 64/152/10
f 65/217/12 41/156/12 73/155/12
f 43/157/9 66/218/9 73/155/9
f 66/218/11 43/157/11 74/159/11
f 46/160/1 68/164/1 67/161/1
f 47/163/9 69/166/9 68/164/9
f 48/165/7 70/219/7 69/166/7
f 45/162/10 67/161/10 70/167/10
f 71/220/12 49/171/12 76/170/12
f 75/221/1 71/222/1 76/223/1 72/224/1
f 72/225/11 51/172/11 75/46/11
f 51/226/10 72/173/10 50/175/10
f 73/227/24 66/228/24 74/229/24 65/230/24
f 41/156/10 65/217/10 74/176/10
