# Blender v2.79 (sub 0) OBJ File: 'CornholeBoard_Will.blend'
# www.blender.org
mtllib CornholeBoard_Will.mtl
o Cube.001_Cube
v 173.558838 38.341984 -0.676862
v 173.558838 38.341984 21.808956
v 179.899017 38.341984 -0.676862
v 179.899017 38.341984 21.808956
v 173.558838 -40.166470 -0.676862
v 173.558838 -40.166470 21.808956
v 179.899017 -40.166470 -0.676862
v 179.899017 -40.166470 21.808956
v 180.814484 43.693172 21.861652
v -39.025139 44.127880 0.401318
v -40.043434 44.119675 10.832582
v 179.796173 43.684959 32.292927
v 180.646057 -45.764988 21.774818
v 179.627747 -45.773205 32.206093
v -39.193565 -45.330273 0.314480
v -40.211845 -45.338478 10.745747
v 173.123444 37.150051 20.753639
v -31.290688 37.554264 0.799104
v 172.979706 -39.190807 20.679533
v -31.434425 -38.786594 0.724999
v 172.320984 37.143585 28.973780
v -32.093132 37.547798 9.019239
v 172.177261 -39.197277 28.899673
v -32.236862 -38.793064 8.945136
v 154.778320 9.292192 29.823629
v 156.832550 8.596623 30.023613
v 158.846329 7.495151 30.219330
v 160.557281 5.977944 30.385160
v 161.986053 4.088895 30.523151
v 162.960602 2.023402 30.616657
v 163.505341 -0.369045 30.667952
v 163.461700 -3.010682 30.661613
v 162.808533 -5.601081 30.595810
v 161.796890 -7.850890 30.495289
v 160.168945 -9.764747 30.334860
v 158.097870 -11.358449 30.131433
v 155.729675 -12.423533 29.899406
v 153.437698 -12.927229 29.675268
v 151.080841 -12.809622 29.445284
v 148.103882 -12.116452 29.155222
v 145.899353 -10.873659 28.941000
v 143.443115 -8.738698 28.702898
v 142.335083 -6.529224 28.596468
v 141.525208 -4.430163 28.519064
v 141.269714 -1.945709 28.496077
v 141.463196 0.663497 28.517017
v 142.236359 3.158450 28.594458
v 143.803314 5.343878 28.749142
v 144.565796 6.316075 28.824339
v 146.030304 7.466607 28.968212
v 147.802872 8.506129 29.142065
v 150.579727 9.304904 29.413773
v 152.722412 9.489699 29.623081
v 155.037994 9.294285 27.163485
v 157.092239 8.598714 27.363468
v 159.106018 7.497244 27.559187
v 160.816956 5.980039 27.725014
v 162.245728 4.090989 27.863007
v 163.220276 2.025495 27.956518
v 163.765030 -0.366951 28.007811
v 163.721390 -3.008589 28.001474
v 163.068207 -5.598989 27.935665
v 162.056580 -7.848797 27.835142
v 160.428635 -9.762654 27.674721
v 158.357544 -11.356356 27.471287
v 155.989380 -12.421441 27.239269
v 153.697388 -12.925136 27.015131
v 151.340530 -12.807529 26.785143
v 148.363586 -12.114361 26.495081
v 146.159042 -10.871566 26.280853
v 143.702789 -8.736606 26.042753
v 142.594757 -6.527130 25.936331
v 141.784897 -4.428070 25.858923
v 141.529404 -1.943615 25.835936
v 141.722870 0.665590 25.856873
v 142.496048 3.160543 25.934313
v 144.063004 5.345970 26.089003
v 144.825485 6.318168 26.164198
v 146.289978 7.468699 26.308067
v 148.062561 8.508222 26.481924
v 150.839401 9.306998 26.753628
v 152.982086 9.491790 26.962940
v -39.783974 44.121765 8.174801
v 180.055634 43.687046 29.635143
v 179.887222 -45.771114 29.548311
v -39.952377 -45.336388 8.087964
v 155.037781 9.294283 27.165844
v 157.092010 8.598714 27.365828
v 159.105774 7.497241 27.561544
v 160.816742 5.980036 27.727371
v 162.245514 4.090986 27.865362
v 163.220047 2.025495 27.958872
v 163.764801 -0.366954 28.010172
v 163.721161 -3.008589 28.003832
v 163.067963 -5.598990 27.938026
v 162.056351 -7.848798 27.837502
v 160.428406 -9.762655 27.677078
v 158.357315 -11.356359 27.473648
v 155.989136 -12.421443 27.241623
v 153.697144 -12.925137 27.017487
v 151.340302 -12.807530 26.787500
v 148.363342 -12.114362 26.497438
v 146.158813 -10.871566 26.283207
v 143.702576 -8.736607 26.045115
v 142.594528 -6.527130 25.938686
v 141.784668 -4.428070 25.861280
v 141.529175 -1.943617 25.838293
v 141.722641 0.665588 25.859234
v 142.495819 3.160540 25.936676
v 144.062775 5.345967 26.091358
v 144.825256 6.318168 26.166555
v 146.289749 7.468697 26.310425
v 148.062317 8.508220 26.484282
v 150.839172 9.306994 26.755985
v 152.981873 9.491790 26.965300
v -40.043434 44.119675 10.832582
v 179.796173 43.684959 32.292927
v 180.814484 43.693172 21.861652
v 173.123444 37.150051 20.753639
v -39.025139 44.127880 0.401318
v -31.290688 37.554264 0.799104
vt 0.229744 0.083668
vt -0.140871 0.086564
vt -0.139038 -0.236352
vt 0.240878 -0.237698
vt 0.394540 0.085501
vt 0.716195 0.074004
vt 0.712812 0.900734
vt 0.394257 0.904480
vt 0.229178 1.197659
vt -0.141436 1.194355
vt -0.141154 0.905542
vt 0.229461 0.902647
vt -0.711923 -0.110102
vt -0.591686 -0.122639
vt -0.499631 1.245045
vt -0.633096 1.264435
vt 0.795418 0.198394
vt 0.790195 0.282941
vt 1.306451 0.291695
vt 1.313457 0.205195
vt -0.068287 1.264592
vt -0.151916 1.257686
vt -0.192884 -0.096965
vt -0.085340 -0.099762
vt 0.988870 1.403880
vt 0.987894 1.480265
vt 0.500204 1.475996
vt 0.508817 1.401773
vt 0.032987 -0.111598
vt 0.026821 1.267698
vt -0.318944 1.101628
vt -0.320890 1.089249
vt -0.324244 1.073895
vt -0.327826 1.062753
vt -0.332883 1.050374
vt -0.337103 1.044400
vt -0.341161 1.040026
vt -0.345293 1.038001
vt -0.349285 1.038002
vt -0.352921 1.040645
vt -0.356021 1.046932
vt -0.357886 1.050294
vt -0.359749 1.056750
vt -0.361298 1.064776
vt -0.362289 1.078004
vt -0.362424 1.088495
vt 0.129883 -0.121395
vt 0.121197 1.271905
vt 0.511056 1.332412
vt 1.001917 1.328568
vt 1.319527 0.129270
vt 0.795886 0.120277
vt -0.707576 1.266164
vt -0.787893 -0.105145
vt -0.788838 1.265647
vt -0.873064 -0.107339
vt 0.513971 1.249326
vt 0.992017 1.264979
vt 1.332219 0.065313
vt 0.795968 0.048550
vt -0.361672 1.100117
vt -0.358882 1.112085
vt -0.354966 1.124100
vt -0.347088 1.126648
vt -0.339612 1.128447
vt -0.333307 1.129408
vt -0.327881 1.129927
vt -0.323646 1.130078
vt -0.322658 1.133633
vt -0.322191 1.137048
vt -0.322183 1.139637
vt -0.319795 1.127983
vt -0.318785 1.114582
vt -0.351835 1.025189
vt -0.352594 1.028467
vt -0.336705 1.053931
vt -0.339432 1.046563
vt -0.353610 1.034267
vt -0.343072 1.040290
vt -0.356586 1.045356
vt -0.357677 1.052725
vt -0.355103 1.039738
vt -0.346948 1.033647
vt -0.357411 1.061095
vt -0.349870 1.029078
vt -0.355832 1.069236
vt -0.352108 1.024351
vt -0.352846 1.075861
vt -0.352811 1.022097
vt -0.349356 1.080343
vt -0.353065 1.020491
vt -0.345553 1.082981
vt -0.352745 1.019610
vt -0.341912 1.083441
vt -0.352124 1.019306
vt -0.338919 1.081646
vt -0.351363 1.019850
vt -0.336593 1.078114
vt -0.350780 1.021725
vt -0.335213 1.071141
vt -0.351324 1.022817
vt -0.335185 1.062714
vt 0.683759 1.170260
vt 0.441857 1.005874
vt 0.441661 0.991979
vt 0.439914 0.974497
vt 0.437098 0.961076
vt 0.432332 0.945399
vt 0.427601 0.937679
vt 0.423117 0.931771
vt 0.417884 0.929001
vt 0.412436 0.928886
vt 0.407316 0.932407
vt 0.402975 0.941017
vt 0.401195 0.945376
vt 0.399221 0.953931
vt 0.397673 0.964501
vt 0.397102 0.981392
vt 0.396459 0.993354
vt 0.235605 -0.217641
vt 0.723989 -0.157440
vt 0.399036 1.001608
vt 0.170242 1.125997
vt 0.401583 1.015540
vt 0.403534 1.029727
vt 0.411210 1.034569
vt 0.418581 1.037259
vt 0.424183 1.038064
vt 0.428545 1.037590
vt 0.432306 1.036208
vt 0.432101 1.039448
vt 0.432494 1.042838
vt 0.433631 1.045652
vt 0.437581 1.032024
vt 0.440497 1.018702
vt -0.418598 0.712330
vt -0.303906 0.680008
vt 0.518495 0.803555
vt 0.518495 0.862254
vt 0.517471 0.862254
vt 0.517471 0.803555
vt 0.519773 0.803555
vt 0.882322 0.866049
vt 0.529859 0.805557
vt 0.519008 0.803555
vn 0.0000 1.0000 0.0000
vn 1.0000 0.0000 0.0000
vn 0.0000 -1.0000 0.0000
vn -1.0000 0.0000 0.0000
vn 0.0000 0.0000 -1.0000
vn 0.0019 1.0000 0.0010
vn 0.9953 -0.0020 0.0972
vn -0.0019 -1.0000 -0.0010
vn -0.9953 0.0020 -0.0972
vn 0.0969 -0.0526 -0.9939
vn -0.0972 -0.0008 0.9953
vn 0.0521 0.0009 -0.9986
vn 0.1420 0.0007 -0.9899
vn 0.0971 0.0541 -0.9938
vn 0.5018 -0.8637 0.0483
vn -0.2127 0.9769 -0.0200
vn 0.2740 -0.9614 0.0260
vn 0.0493 0.9988 0.0056
vn -0.3178 -0.9476 -0.0318
vn 0.0852 -0.9963 0.0075
vn 0.2246 0.9742 0.0227
vn -0.4758 -0.8783 -0.0471
vn -0.0947 -0.9955 -0.0100
vn 0.4870 0.8721 0.0482
vn -0.6585 -0.7497 -0.0649
vn 0.6511 0.7563 0.0642
vn -0.7924 -0.6050 -0.0778
vn 0.8888 0.4499 0.0871
vn -0.8993 -0.4283 -0.0881
vn 0.9280 0.3614 0.0909
vn -0.9702 -0.2229 -0.0949
vn 0.9900 0.1027 0.0967
vn -0.9951 0.0167 -0.0971
vn 0.9925 -0.0744 0.0968
vn -0.9648 0.2457 -0.0940
vn 0.9503 -0.2974 0.0925
vn -0.9070 0.4118 -0.0882
vn 0.8076 -0.5846 0.0784
vn -0.7566 0.6497 -0.0734
vn 0.7817 -0.6190 0.0758
vn -0.6052 0.7939 -0.0585
vn 0.6131 -0.7878 0.0592
vn -0.4067 0.9127 -0.0390
vn 0.1800 0.9827 -0.0445
vn 0.0000 0.0000 1.0000
usemtl None
s off
f 1/1/1 2/2/1 4/3/1 3/4/1
f 3/5/2 4/6/2 8/7/2 7/8/2
f 7/9/3 8/10/3 6/11/3 5/12/3
f 5/12/4 6/11/4 2/2/4 1/1/4
f 3/5/5 7/8/5 5/12/5 1/1/5
f 10/13/6 11/14/6 12/15/6 9/16/6
f 9/17/7 12/18/7 14/19/7 13/20/7
f 13/21/8 14/22/8 16/23/8 15/24/8
f 15/25/9 16/26/9 11/27/9 10/28/9
f 13/21/10 15/24/10 20/29/10 19/30/10
f 14/22/11 38/31/11 39/32/11 40/33/11 41/34/11 42/35/11 43/36/11 44/37/11 45/38/11 46/39/11 47/40/11 48/41/11 49/42/11 50/43/11 51/44/11 52/45/11 53/46/11 11/14/11 16/23/11
f 19/30/6 20/29/6 24/47/6 23/48/6
f 15/25/12 10/28/12 18/49/12 20/50/12
f 9/17/13 13/20/13 19/51/13 17/52/13
f 10/13/14 9/16/14 17/53/14 18/54/14
f 18/54/8 17/53/8 21/55/8 22/56/8
f 20/50/7 18/49/7 22/57/7 24/58/7
f 17/52/9 19/51/9 23/59/9 21/60/9
f 11/14/11 25/61/11 12/15/11
f 12/15/11 25/61/11 26/62/11 27/63/11 28/64/11 29/65/11 30/66/11 31/67/11 32/68/11 33/69/11 34/70/11 35/71/11 36/72/11 37/73/11 38/31/11 14/22/11
f 51/44/15 50/43/15 79/74/15 80/75/15
f 25/61/11 11/14/11 53/46/11
f 38/31/16 37/73/16 66/76/16 67/77/16
f 52/45/17 51/44/17 80/75/17 81/78/17
f 39/32/18 38/31/18 67/77/18 68/79/18
f 26/62/19 25/61/19 54/80/19 55/81/19
f 53/46/20 52/45/20 81/78/20 82/82/20
f 40/33/21 39/32/21 68/79/21 69/83/21
f 27/63/22 26/62/22 55/81/22 56/84/22
f 25/61/23 53/46/23 82/82/23 54/80/23
f 41/34/24 40/33/24 69/83/24 70/85/24
f 28/64/25 27/63/25 56/84/25 57/86/25
f 42/35/26 41/34/26 70/85/26 71/87/26
f 29/65/27 28/64/27 57/86/27 58/88/27
f 43/36/28 42/35/28 71/87/28 72/89/28
f 30/66/29 29/65/29 58/88/29 59/90/29
f 44/37/30 43/36/30 72/89/30 73/91/30
f 31/67/31 30/66/31 59/90/31 60/92/31
f 45/38/32 44/37/32 73/91/32 74/93/32
f 32/68/33 31/67/33 60/92/33 61/94/33
f 46/39/34 45/38/34 74/93/34 75/95/34
f 33/69/35 32/68/35 61/94/35 62/96/35
f 47/40/36 46/39/36 75/95/36 76/97/36
f 34/70/37 33/69/37 62/96/37 63/98/37
f 48/41/38 47/40/38 76/97/38 77/99/38
f 35/71/39 34/70/39 63/98/39 64/100/39
f 49/42/40 48/41/40 77/99/40 78/101/40
f 36/72/41 35/71/41 64/100/41 65/102/41
f 50/43/42 49/42/42 78/101/42 79/74/42
f 37/73/43 36/72/43 65/102/43 66/76/43
f 85/103/11 100/104/11 101/105/11 102/106/11 103/107/11 104/108/11 105/109/11 106/110/11 107/111/11 108/112/11 109/113/11 110/114/11 111/115/11 112/116/11 113/117/11 114/118/11 115/119/11 83/120/11 86/121/11
f 83/120/11 87/122/11 84/123/11
f 84/123/11 87/122/11 88/124/11 89/125/11 90/126/11 91/127/11 92/128/11 93/129/11 94/130/11 95/131/11 96/132/11 97/133/11 98/134/11 99/135/11 100/104/11 85/103/11
f 83/136/44 11/137/44 54/80/44 82/82/44
f 83/120/11 115/119/11 87/122/11
f 17/138/45 9/139/45 118/140/45 119/141/45
f 10/142/45 18/143/45 121/144/45 120/145/45
l 116 117
