# Blender v2.79 (sub 0) OBJ File: 'crateJack.blend'
# www.blender.org
mtllib crateJack.mtl
o Cube.002
v 48.735886 -40.693787 9.306217
v 48.735886 40.693779 90.693787
v 48.735886 31.906519 90.693787
v 48.735882 -40.693790 16.786343
v 48.735886 40.693779 82.250847
v 48.735886 -30.799603 9.306217
v 47.499996 31.906519 90.693787
v 47.500000 40.693779 82.250847
v 47.499992 -40.693790 16.786343
v 47.500000 -30.799603 9.306217
v -48.101730 -40.693752 90.693787
v -48.711800 40.693790 9.306217
v -48.101723 -40.693756 82.488625
v -48.711800 40.693790 17.935528
v -48.101723 -32.118912 90.693787
v -48.711800 33.024593 9.306217
v -46.889919 -40.693756 82.488625
v -47.499992 33.024593 9.306217
v -47.499992 40.693790 17.935528
v -46.889919 -32.118912 90.693787
v 49.999996 -50.000000 0.000000
v -50.000000 -50.000000 0.000000
v -49.999992 50.000008 0.000000
v 50.000019 49.999981 0.000000
v 50.016434 -49.918297 100.000000
v -50.000031 -49.999966 100.000000
v -49.999981 50.000019 100.000000
v 50.016457 50.081722 100.000000
v 40.693783 -40.693783 0.000000
v -40.693783 -40.693783 0.000000
v -40.693775 40.693787 0.000000
v 40.693798 40.693768 0.000000
v 40.713177 -40.612076 100.000000
v 40.713196 40.775509 100.000000
v -40.693771 40.693802 100.000000
v -40.693810 -40.693756 100.000000
v 40.693779 -49.999996 9.306217
v 40.693760 -50.000023 90.693787
v -40.693810 -49.999969 90.693787
v -40.693787 -50.000000 9.306217
v -49.999996 -40.693779 9.306217
v -50.000023 -40.693752 90.693787
v -49.999985 40.693802 90.693787
v -49.999992 40.693790 9.306217
v -40.693775 50.000008 9.306217
v -40.693768 50.000011 90.693787
v 40.693787 49.999996 90.693787
v 40.693802 49.999985 9.306217
v 49.999977 -40.693806 90.693787
v 49.999996 -40.693787 9.306217
v 50.000011 40.693768 9.306217
v 50.000000 40.693779 90.693787
v 40.693783 -40.693783 2.500000
v -40.693783 -40.693783 2.500000
v -40.693775 40.693787 2.500000
v 40.693798 40.693768 2.500000
v 40.696716 -40.693802 97.500000
v 40.696735 40.693783 97.500000
v -40.693771 40.693802 97.500000
v -40.693810 -40.693756 97.500000
v 40.693779 -47.499996 9.306217
v 40.693760 -47.500023 90.693787
v -40.693810 -47.499969 90.693787
v -40.693787 -47.500000 9.306217
v -47.499996 -40.693779 9.306217
v -47.499985 40.693802 90.693787
v -40.693775 47.500004 9.306217
v -40.693768 47.500011 90.693787
v 40.693787 47.499996 90.693787
v 40.693802 47.499985 9.306217
v 47.499977 -40.693806 90.693787
v 47.500011 40.693768 9.306217
v -46.889923 -40.693752 90.693787
v -47.499992 40.693790 9.306217
v 47.500000 40.693779 90.693787
v 47.499996 -40.693787 9.306217
vt 0.876090 0.225596
vt 0.863712 0.320909
vt 0.073299 0.225596
vt 0.118674 0.342985
vt 0.323116 0.339417
vt 0.323133 0.342985
vt 0.319980 0.367260
vt 0.118420 0.370551
vt 0.118408 0.367033
vt 0.025582 0.274171
vt 0.072254 0.320018
vt 0.917440 0.266214
vt 0.073233 0.211584
vt 0.876025 0.211584
vt 0.863759 0.334723
vt 0.072301 0.333832
vt 0.869659 0.351259
vt 0.072523 0.440261
vt 0.067606 0.351259
vt 0.320896 0.398320
vt 0.118486 0.401190
vt 0.118476 0.397657
vt 0.067728 0.337261
vt 0.869781 0.337261
vt 0.025582 0.392977
vt 0.914292 0.396219
vt 0.867306 0.442864
vt 0.867343 0.456735
vt 0.072559 0.454132
vt 0.321495 0.374990
vt 0.117224 0.374990
vt 0.117255 0.371425
vt 0.992400 0.990987
vt 0.009307 0.007894
vt 0.992400 0.007894
vt 0.994032 0.010968
vt 0.012396 0.992639
vt 0.012396 0.010968
vt 0.981781 0.966300
vt 0.026442 0.010960
vt 0.981781 0.010960
vt 0.010469 0.983066
vt 0.988633 0.004903
vt 0.988633 0.983066
vt 0.333013 0.000323
vt 0.166671 0.005433
vt 0.166671 0.000323
vt 0.525068 0.607945
vt 0.946345 0.564717
vt 0.989573 0.607945
vt 0.967619 0.400226
vt 0.569644 0.359389
vt 0.926782 0.359388
vt 0.525068 0.609414
vt 0.946344 0.652642
vt 0.568296 0.652642
vt 0.528807 0.401613
vt 0.926780 0.442451
vt 0.569644 0.442451
vt 0.039742 0.542240
vt 0.437717 0.501416
vt 0.478554 0.542240
vt 0.007366 0.266579
vt 0.428700 0.223398
vt 0.471948 0.266592
vt 0.039742 0.290291
vt 0.437715 0.331128
vt 0.080579 0.331129
vt 0.471949 0.178585
vt 0.050628 0.221766
vt 0.007366 0.178572
vt 0.840547 0.947770
vt 0.243494 0.886404
vt 0.779292 0.886494
vt 0.020530 0.273652
vt 0.436554 0.230974
vt 0.479317 0.273665
vt 0.545363 0.947751
vt 0.860347 0.915430
vt 0.892667 0.947751
vt 0.099922 0.168731
vt 0.831272 0.243776
vt 0.174967 0.243777
vt 0.864219 0.922372
vt 0.518364 0.957861
vt 0.482875 0.922372
vt 0.020530 0.317805
vt 0.436551 0.275116
vt 0.479240 0.317805
vt 0.545363 0.880912
vt 0.860347 0.848591
vt 0.892667 0.880912
vt 0.099922 0.091135
vt 0.831272 0.166180
vt 0.174967 0.166181
vt 0.864219 0.848982
vt 0.518364 0.884471
vt 0.482875 0.848982
vt 0.020530 0.186811
vt 0.436549 0.229513
vt 0.063217 0.229501
vt 0.261594 0.129666
vt 0.576572 0.097292
vt 0.608898 0.129666
vt 0.099922 0.321372
vt 0.831273 0.246327
vt 0.906317 0.321372
vt 0.608898 0.096194
vt 0.293941 0.063899
vt 0.576603 0.064130
vt 0.099922 0.088585
vt 0.831271 0.013539
vt 0.906317 0.088585
vt 0.171294 0.024107
vt 0.517119 0.059878
vt 0.206754 0.059625
vt 0.990483 0.347347
vt 0.574837 0.390036
vt 0.531773 0.347347
vt 0.439849 0.641264
vt 0.606188 0.636154
vt 0.606188 0.641264
vt 0.106521 0.641261
vt 0.272859 0.636152
vt 0.272859 0.641262
vt 0.606193 0.647667
vt 0.439849 0.652776
vt 0.439849 0.647667
vt 0.606193 0.641911
vt 0.439849 0.647020
vt 0.439849 0.641911
vt 0.606185 0.629748
vt 0.440011 0.624639
vt 0.606352 0.624639
vt 0.334310 0.616847
vt 0.500661 0.611792
vt 0.500693 0.616904
vt 0.272865 0.647664
vt 0.106521 0.652774
vt 0.106521 0.647664
vt 0.439849 0.630398
vt 0.606201 0.635508
vt 0.439849 0.635507
vt 0.439198 0.624639
vt 0.272867 0.629748
vt 0.272867 0.624639
vt 0.272854 0.635505
vt 0.439203 0.630396
vt 0.439203 0.635505
vt 0.106521 0.635505
vt 0.272854 0.630395
vt 0.106521 0.629749
vt 0.106521 0.624639
vt 0.666995 0.512756
vt 0.666995 0.506400
vt 0.833336 0.512756
vt 0.500653 0.512756
vt 0.334310 0.512756
vt 0.334310 0.507647
vt 0.439193 0.623992
vt 0.605530 0.618882
vt 0.605530 0.623992
vt 0.272849 0.623992
vt 0.439193 0.618882
vt 0.106521 0.623991
vt 0.272849 0.618882
vt 0.771884 0.618882
vt 0.771884 0.623992
vt 0.098688 0.339415
vt 0.103798 0.339415
vt 0.098688 0.505757
vt 0.000323 0.000324
vt 0.106521 0.641908
vt 0.272865 0.641908
vt 0.272865 0.647018
vt 0.999677 0.507646
vt 0.999677 0.512756
vt 0.009307 0.990987
vt 0.994032 0.992639
vt 0.026441 0.966300
vt 0.010469 0.004903
vt 0.333013 0.005433
vt 0.568296 0.564717
vt 0.528807 0.400226
vt 0.989573 0.609414
vt 0.967617 0.401613
vt 0.080579 0.501416
vt 0.050560 0.223317
vt 0.478552 0.290291
vt 0.428768 0.221847
vt 0.182218 0.947770
vt 0.063220 0.230964
vt 0.577684 0.915430
vt 0.906317 0.168731
vt 0.828730 0.957861
vt 0.063218 0.275117
vt 0.577684 0.848591
vt 0.906317 0.091135
vt 0.828730 0.884471
vt 0.479315 0.186825
vt 0.293909 0.097340
vt 0.174967 0.246327
vt 0.261594 0.096194
vt 0.174966 0.013540
vt 0.552637 0.024107
vt 0.948170 0.390036
vt 0.439849 0.636154
vt 0.106521 0.636152
vt 0.606193 0.652776
vt 0.606193 0.647020
vt 0.439844 0.629748
vt 0.334312 0.611737
vt 0.272865 0.652774
vt 0.606235 0.630395
vt 0.439198 0.629748
vt 0.106521 0.630395
vt 0.833336 0.507646
vt 0.500653 0.507647
vt 0.106521 0.618882
vt 0.103798 0.505757
vt 0.008410 0.006101
vt 0.994110 0.006099
vt 0.994111 0.991799
vt 0.008412 0.991800
vt 0.000323 0.005433
vt 0.106521 0.647018
vt 0.997454 0.994976
vt 0.003291 0.994976
vt 0.003263 0.000841
vt 0.997398 0.000813
vn 1.0000 -0.0000 0.0000
vn 0.0000 -0.7134 0.7008
vn 0.0000 0.7142 -0.7000
vn -1.0000 -0.0044 0.0039
vn 0.0000 0.7068 0.7074
vn 0.0000 -0.7045 -0.7097
vn -1.0000 0.0000 0.0000
vn -1.0000 -0.0041 0.0043
vn -0.0000 0.0000 -1.0000
vn 0.0000 0.0000 1.0000
vn 0.0000 -1.0000 -0.0000
vn 0.0000 1.0000 -0.0000
vn 0.0008 -1.0000 0.0080
vn -0.0080 1.0000 -0.0008
vn 1.0000 0.0018 0.0000
vn 1.0000 -0.0000 -0.0018
vn -1.0000 0.0000 0.0066
vn 0.0010 -0.9995 0.0327
vn 0.0080 -1.0000 0.0008
vn -0.0008 1.0000 -0.0080
vn 1.0000 0.0002 -0.0002
vn 1.0000 -0.0016 -0.0002
vn -0.0010 0.9995 -0.0327
vn -1.0000 -0.0037 0.0037
usemtl Material
s off
f 4/1/1 6/2/1 3/3/1
f 3/4/2 9/5/2 4/6/2
f 6/7/3 8/8/3 5/9/3
f 2/10/1 3/3/1 5/11/1
f 4/1/1 1/12/1 6/2/1
f 6/2/1 5/11/1 3/3/1
f 3/3/2 7/13/2 9/14/2
f 6/2/3 10/15/3 8/16/3
f 13/17/4 14/18/4 16/19/4
f 15/20/5 19/21/5 14/22/5
f 13/17/6 18/23/6 17/24/6
f 12/25/7 16/19/7 14/18/7
f 13/17/7 11/26/7 15/27/7
f 15/27/8 14/18/8 13/17/8
f 15/27/5 20/28/5 19/29/5
f 13/30/6 16/31/6 18/32/6
f 53/33/9 55/34/9 56/35/9
f 58/36/10 60/37/10 57/38/10
f 62/39/11 64/40/11 61/41/11
f 67/42/12 69/43/12 70/44/12
f 49/45/9 75/46/9 52/47/9
f 22/48/9 29/49/9 21/50/9
f 22/51/9 31/52/9 30/53/9
f 23/54/9 32/55/9 31/56/9
f 24/57/9 29/58/9 32/59/9
f 28/60/10 33/61/10 25/62/10
f 27/63/10 34/64/10 28/65/10
f 27/66/10 36/67/10 35/68/10
f 25/69/10 36/70/10 26/71/10
f 21/72/11 38/73/11 37/74/11
f 26/75/13 38/76/13 25/77/13
f 22/78/11 39/79/11 26/80/11
f 22/81/11 37/82/11 40/83/11
f 26/84/7 41/85/7 22/86/7
f 27/87/7 42/88/7 26/89/7
f 23/90/7 43/91/7 27/92/7
f 23/93/7 41/94/7 44/95/7
f 27/96/12 45/97/12 23/98/12
f 27/99/12 47/100/12 46/101/12
f 24/102/14 47/103/14 28/104/14
f 23/105/12 48/106/12 24/107/12
f 25/108/15 50/109/15 49/110/15
f 24/111/1 50/112/1 21/113/1
f 24/114/1 52/115/1 51/116/1
f 25/117/16 52/118/16 28/119/16
f 30/120/12 53/121/12 29/122/12
f 31/123/1 54/124/1 30/125/1
f 32/126/11 55/127/11 31/128/11
f 29/129/7 56/130/7 32/131/7
f 33/132/17 58/133/17 57/134/17
f 35/135/18 58/136/18 34/137/18
f 36/138/1 59/139/1 35/140/1
f 36/141/12 57/142/12 60/143/12
f 38/144/7 61/145/7 37/146/7
f 39/147/9 62/148/9 38/149/9
f 40/150/1 63/151/1 39/147/1
f 37/146/10 64/152/10 40/153/10
f 42/154/12 73/155/12 41/156/12
f 43/157/9 73/155/9 42/154/9
f 44/158/11 74/159/11 43/157/11
f 46/160/1 67/161/1 45/162/1
f 47/163/9 68/164/9 46/160/9
f 48/165/7 69/166/7 47/163/7
f 45/162/10 70/167/10 48/168/10
f 50/169/12 76/170/12 49/171/12
f 52/47/11 75/46/11 51/172/11
f 72/173/10 76/174/10 50/175/10
f 41/156/10 74/176/10 44/177/10
f 53/33/9 54/178/9 55/34/9
f 58/36/10 59/179/10 60/37/10
f 62/39/11 63/180/11 64/40/11
f 67/42/12 68/181/12 69/43/12
f 49/45/9 71/182/9 75/46/9
f 22/48/9 30/183/9 29/49/9
f 22/51/9 23/184/9 31/52/9
f 23/54/9 24/185/9 32/55/9
f 24/57/9 21/186/9 29/58/9
f 28/60/10 34/187/10 33/61/10
f 27/63/10 35/188/10 34/64/10
f 27/66/10 26/189/10 36/67/10
f 25/69/10 33/190/10 36/70/10
f 21/72/19 25/191/19 38/73/19
f 26/75/11 39/192/11 38/76/11
f 22/78/11 40/193/11 39/79/11
f 22/81/11 21/194/11 37/82/11
f 26/84/7 42/195/7 41/85/7
f 27/87/7 43/196/7 42/88/7
f 23/90/7 44/197/7 43/91/7
f 23/93/7 22/198/7 41/94/7
f 27/96/12 46/199/12 45/97/12
f 27/99/20 28/200/20 47/100/20
f 24/102/12 48/201/12 47/103/12
f 23/105/12 45/202/12 48/106/12
f 25/108/21 21/203/21 50/109/21
f 24/111/1 51/204/1 50/112/1
f 24/114/22 28/205/22 52/115/22
f 25/117/16 49/206/16 52/118/16
f 30/120/12 54/207/12 53/121/12
f 31/123/1 55/208/1 54/124/1
f 32/126/11 56/209/11 55/127/11
f 29/129/7 53/210/7 56/130/7
f 33/132/17 34/211/17 58/133/17
f 35/135/11 59/212/11 58/136/11
f 36/138/1 60/213/1 59/139/1
f 36/141/23 33/214/23 57/142/23
f 38/144/7 62/215/7 61/145/7
f 39/147/9 63/151/9 62/148/9
f 40/150/1 64/216/1 63/151/1
f 37/146/10 61/145/10 64/152/10
f 65/217/12 41/156/12 73/155/12
f 43/157/9 66/218/9 73/155/9
f 66/218/11 43/157/11 74/159/11
f 46/160/1 68/164/1 67/161/1
f 47/163/9 69/166/9 68/164/9
f 48/165/7 70/219/7 69/166/7
f 45/162/10 67/161/10 70/167/10
f 71/220/12 49/171/12 76/170/12
f 75/221/1 71/222/1 76/223/1 72/224/1
f 72/225/11 51/172/11 75/46/11
f 51/226/10 72/173/10 50/175/10
f 73/227/24 66/228/24 74/229/24 65/230/24
f 41/156/10 65/217/10 74/176/10
o Cube.001
v 108.949707 34.642372 -151.259384
v 8.949715 34.642372 -151.259384
v 8.949722 134.642380 -151.259384
v 108.949738 134.642349 -151.259384
v 108.966148 34.724075 -51.259384
v 8.949684 34.642406 -51.259384
v 8.949734 134.642395 -51.259384
v 108.966171 134.724091 -51.259384
v 99.643494 43.948589 -151.259384
v 18.255932 43.948589 -151.259384
v 18.255939 125.336159 -151.259384
v 99.643509 125.336136 -151.259384
v 99.662888 44.030296 -51.259384
v 99.662910 125.417877 -51.259384
v 18.255943 125.336174 -51.259384
v 18.255905 43.948616 -51.259384
v 99.643494 34.642376 -141.953171
v 99.643478 34.642349 -60.565601
v 18.255905 34.642403 -60.565601
v 18.255928 34.642372 -141.953171
v 8.949718 43.948593 -141.953171
v 8.949692 43.948620 -60.565601
v 8.949730 125.336174 -60.565601
v 8.949722 125.336166 -141.953171
v 18.255939 134.642380 -141.953171
v 18.255947 134.642380 -60.565601
v 99.643501 134.642365 -60.565601
v 99.643517 134.642365 -141.953171
v 108.949692 43.948566 -60.565601
v 108.949707 43.948586 -141.953171
v 108.949722 125.336136 -141.953171
v 108.949715 125.336151 -60.565601
v 99.643494 43.948589 -148.759384
v 18.255932 43.948589 -148.759384
v 18.255939 125.336159 -148.759384
v 99.643509 125.336136 -148.759384
v 99.646431 43.948570 -53.759384
v 99.646454 125.336151 -53.759384
v 18.255943 125.336174 -53.759384
v 18.255905 43.948616 -53.759384
v 99.643494 37.142376 -141.953171
v 99.643478 37.142349 -60.565601
v 18.255905 37.142403 -60.565601
v 18.255928 37.142372 -141.953171
v 11.449718 43.948593 -141.953171
v 10.847984 43.948620 -60.565601
v 11.449730 125.336174 -60.565601
v 10.237915 125.336166 -141.953171
v 18.255939 132.142380 -141.953171
v 18.255947 132.142380 -60.565601
v 99.643501 132.142365 -60.565601
v 99.643517 132.142365 -141.953171
v 106.449692 43.948566 -60.565601
v 107.685600 43.948586 -141.953171
v 106.449722 125.336136 -141.953171
v 107.685600 125.336151 -60.565601
v 10.847992 43.948616 -68.770760
v 10.237915 125.336166 -133.323853
v 10.847992 52.523460 -60.565601
v 10.237915 117.666962 -141.953171
v 12.059795 43.948616 -68.770760
v 12.059792 43.948620 -60.565601
v 11.449722 117.666962 -141.953171
v 11.449722 125.336166 -141.953171
v 11.449722 125.336166 -133.323853
v 12.059795 52.523460 -60.565601
v 107.685600 116.548889 -60.565601
v 107.685593 43.948582 -134.473038
v 107.685600 125.336151 -69.008537
v 107.685600 53.842770 -141.953171
v 108.949715 53.968708 -141.953171
v 106.449707 116.548889 -60.565601
v 106.449715 125.336151 -60.565601
v 106.449715 125.336151 -69.008537
v 106.449707 43.948586 -141.953171
v 106.449707 43.948582 -134.473038
v 106.449715 53.842770 -141.953171
vt 0.627059 0.274524
vt 0.494365 0.274524
vt 0.494365 0.141830
vt 0.627059 0.141830
vt 0.330788 0.469199
vt 0.463481 0.469199
vt 0.463481 0.601897
vt 0.330788 0.601897
vt 0.596740 0.469199
vt 0.596740 0.601892
vt 0.464046 0.601892
vt 0.464046 0.469199
vt 0.167157 0.601898
vt 0.167157 0.469204
vt 0.299851 0.469204
vt 0.299851 0.601898
vt 0.132975 0.000328
vt 0.265669 0.000374
vt 0.265668 0.004450
vt 0.132973 0.004404
vt 0.493800 0.304870
vt 0.330761 0.304870
vt 0.345934 0.289697
vt 0.478628 0.289697
vt 0.330761 0.141830
vt 0.345934 0.157003
vt 0.493801 0.141831
vt 0.478628 0.157003
vt 0.330196 0.304897
vt 0.167157 0.305030
vt 0.182317 0.289849
vt 0.315011 0.289741
vt 0.167157 0.141964
vt 0.182342 0.157124
vt 0.330196 0.141830
vt 0.315036 0.157016
vt 0.330202 0.305600
vt 0.330223 0.468639
vt 0.315024 0.453466
vt 0.315029 0.320773
vt 0.167157 0.468635
vt 0.182330 0.453462
vt 0.167162 0.305594
vt 0.182335 0.320768
vt 0.493827 0.305594
vt 0.493827 0.468634
vt 0.478654 0.453461
vt 0.478654 0.320767
vt 0.330788 0.468634
vt 0.345960 0.453461
vt 0.330788 0.305595
vt 0.345960 0.320767
vt 0.000282 0.305347
vt 0.163322 0.305321
vt 0.148152 0.320496
vt 0.015458 0.320518
vt 0.163349 0.468387
vt 0.148173 0.453189
vt 0.000309 0.468387
vt 0.015480 0.453212
vt 0.000282 0.141830
vt 0.166592 0.141832
vt 0.151458 0.157108
vt 0.015762 0.157059
vt 0.165727 0.301937
vt 0.150980 0.287261
vt 0.151232 0.175232
vt 0.002897 0.304756
vt 0.017810 0.289218
vt 0.627056 0.288449
vt 0.494365 0.288449
vt 0.494365 0.284373
vt 0.627056 0.284372
vt 0.627056 0.283808
vt 0.494365 0.283808
vt 0.494365 0.279732
vt 0.627056 0.279732
vt 0.494365 0.298295
vt 0.627060 0.298295
vt 0.627060 0.302371
vt 0.494365 0.302371
vt 0.494365 0.293654
vt 0.627060 0.293654
vt 0.627060 0.297730
vt 0.494365 0.297730
vt 0.132975 0.625796
vt 0.000282 0.625796
vt 0.000416 0.621720
vt 0.133108 0.621720
vt 0.133008 0.621155
vt 0.000282 0.621109
vt 0.000284 0.617033
vt 0.132983 0.617077
vt 0.494365 0.289014
vt 0.627060 0.289013
vt 0.627060 0.293089
vt 0.494365 0.293089
vt 0.494365 0.275091
vt 0.627093 0.275089
vt 0.627066 0.279167
vt 0.494365 0.279167
vt 0.143489 0.601625
vt 0.143489 0.468952
vt 0.147564 0.468952
vt 0.147564 0.601625
vt 0.143486 0.999718
vt 0.143487 0.867008
vt 0.147564 0.867008
vt 0.147563 0.999718
vt 0.143488 0.734310
vt 0.147564 0.734310
vt 0.138827 0.473144
vt 0.007448 0.480797
vt 0.003641 0.477132
vt 0.018907 0.473232
vt 0.142922 0.468952
vt 0.004326 0.612254
vt 0.000283 0.616468
vt 0.000282 0.493106
vt 0.134941 0.604273
vt 0.138049 0.607311
vt 0.122496 0.610506
vt 0.398868 0.139827
vt 0.413554 0.000282
vt 0.418362 0.004762
vt 0.403814 0.134465
vt 0.555236 0.000282
vt 0.550291 0.005644
vt 0.540551 0.139827
vt 0.535742 0.135347
vt 0.398302 0.141266
vt 0.265621 0.141220
vt 0.265622 0.137144
vt 0.277818 0.137148
vt 0.398304 0.137190
vt 0.000284 0.000282
vt 0.119208 0.004400
vt 0.000282 0.004358
vt 0.357455 0.605306
vt 0.520404 0.605306
vt 0.529472 0.614441
vt 0.519926 0.623917
vt 0.358454 0.623389
vt 0.348917 0.613782
vt 0.519934 0.626735
vt 0.358461 0.626207
vt 0.357479 0.602462
vt 0.520429 0.602462
vt 0.176851 0.605309
vt 0.339951 0.605309
vt 0.348352 0.613561
vt 0.337437 0.624673
vt 0.176639 0.624493
vt 0.167157 0.615178
vt 0.176838 0.602462
vt 0.339938 0.602462
vt 0.337446 0.627480
vt 0.176649 0.627299
vt 0.249284 0.141214
vt 0.132932 0.141174
vt 0.132933 0.137098
vt 0.249491 0.137139
vt 0.140766 0.593151
vn 0.0000 0.0000 -1.0000
vn 0.0000 0.0000 1.0000
vn -0.0000 -1.0000 0.0000
vn 0.0000 1.0000 -0.0000
vn 0.0044 -1.0000 0.0004
vn 0.0004 -1.0000 0.0044
vn -1.0000 0.0000 -0.0000
vn -0.0005 1.0000 -0.0044
vn -0.0044 1.0000 -0.0005
vn 1.0000 0.0009 -0.0001
vn 1.0000 -0.0000 0.0000
vn 1.0000 -0.0009 -0.0001
vn 1.0000 -0.0000 -0.0018
vn -1.0000 0.0000 0.0066
vn 0.0005 -0.9999 0.0163
vn -0.0005 0.9999 -0.0163
vn -1.0000 -0.0040 0.0039
vn 0.0000 0.7068 0.7074
vn 0.0000 -0.7045 -0.7097
vn 0.0000 -0.7134 0.7008
vn 0.0000 0.7142 -0.7000
vn -1.0000 -0.0041 0.0041
usemtl Material
s off
f 109/231/25 110/232/25 111/233/25 112/234/25
f 113/235/26 114/236/26 115/237/26 116/238/26
f 117/239/27 118/240/27 119/241/27 120/242/27
f 125/243/28 126/244/28 127/245/28 128/246/28
f 108/247/25 105/248/25 129/249/25 149/250/25
f 77/251/25 78/252/25 86/253/25 85/254/25
f 78/252/25 79/255/25 87/256/25 86/253/25
f 79/255/25 80/257/25 88/258/25 87/256/25
f 80/257/25 77/251/25 85/254/25 88/258/25
f 81/259/26 84/260/26 90/261/26 89/262/26
f 84/260/26 83/263/26 91/264/26 90/261/26
f 83/263/26 82/265/26 92/266/26 91/264/26
f 82/265/26 81/259/26 89/262/26 92/266/26
f 77/267/29 81/268/29 94/269/29 93/270/29
f 81/268/30 82/271/30 95/272/30 94/269/30
f 82/271/27 78/273/27 96/274/27 95/272/27
f 78/273/27 77/267/27 93/270/27 96/274/27
f 78/275/31 82/276/31 98/277/31 97/278/31
f 82/276/31 83/279/31 99/280/31 98/277/31
f 83/279/31 79/281/31 100/282/31 99/280/31
f 79/281/31 78/275/31 97/278/31 100/282/31
f 79/283/28 83/284/28 102/285/28 101/286/28
f 83/284/32 84/287/32 103/288/32 102/285/32
f 84/287/33 80/289/33 104/290/33 103/288/33
f 80/289/28 79/283/28 101/286/28 104/290/28
f 81/291/34 77/292/34 106/293/34 105/294/34
f 77/292/35 80/295/35 107/296/35 147/297/35 106/293/35
f 80/295/36 84/298/36 108/299/36 107/296/36
f 84/298/37 81/291/37 105/294/37 108/299/37
f 85/300/28 86/301/28 110/302/28 109/303/28
f 86/304/35 87/305/35 111/306/35 110/307/35
f 87/308/27 88/309/27 112/310/27 111/311/27
f 88/312/31 85/313/31 109/314/31 112/315/31
f 89/316/38 90/317/38 114/318/38 113/319/38
f 90/320/39 91/321/39 115/322/39 114/323/39
f 91/324/35 92/325/35 116/326/35 115/327/35
f 92/328/40 89/329/40 113/330/40 116/331/40
f 93/332/31 94/333/31 118/334/31 117/335/31
f 94/336/25 95/337/25 119/338/25 118/339/25
f 95/337/35 96/340/35 120/341/35 119/338/35
f 96/340/26 93/332/26 117/335/26 120/341/26
f 97/342/28 98/343/28 138/344/28 137/345/28 121/346/28
f 98/343/25 99/347/25 123/348/25 142/349/25 138/344/25
f 99/347/27 100/350/27 140/351/27 141/352/27 123/348/27
f 101/353/35 102/354/35 126/355/35 125/356/35
f 102/354/25 103/357/25 127/358/25 126/355/25
f 103/357/31 104/359/31 128/360/31 127/358/31
f 104/359/26 101/353/26 125/356/26 128/360/26
f 105/361/28 106/362/28 151/363/28 152/364/28 129/365/28
f 107/366/27 108/247/27 149/250/27 150/367/27 131/368/27
f 136/369/41 133/370/41 122/371/41 135/372/41 134/373/41 124/374/41
f 134/373/42 135/372/42 142/375/42 141/376/42
f 133/370/43 136/369/43 139/377/43 137/378/43
f 143/379/35 144/380/35 130/381/35 146/382/35 145/383/35 132/384/35
f 144/380/44 143/379/44 148/385/44 152/386/44
f 145/383/45 146/382/45 153/387/45 150/388/45
f 147/389/26 107/390/26 131/391/26 153/392/26 151/363/26 106/362/26
f 100/350/26 97/342/26 121/346/26 139/393/26 140/351/26
f 138/344/46 142/349/46 123/348/46 141/352/46 140/351/46 139/393/46 121/346/46 137/345/46
