# Blender v2.79 (sub 0) OBJ File: 'crateJack.blend'
# www.blender.org
mtllib crateJack.mtl
o Cube
v 49.999996 -50.000000 0.000000
v -50.000000 -50.000000 0.000000
v -49.999992 50.000008 0.000000
v 50.000019 49.999981 0.000000
v 49.999973 -50.000023 100.000000
v -50.000031 -49.999966 100.000000
v -49.999981 50.000019 100.000000
v 50.000000 49.999996 100.000000
v 40.693783 -40.693783 0.000000
v -40.693783 -40.693783 0.000000
v -40.693775 40.693787 0.000000
v 40.693798 40.693768 0.000000
v 40.693760 -40.693802 100.000000
v 40.693779 40.693783 100.000000
v -40.693771 40.693802 100.000000
v -40.693810 -40.693756 100.000000
v 40.693779 -49.999996 9.306217
v 40.693760 -50.000023 90.693787
v -40.693810 -49.999969 90.693787
v -40.693787 -50.000000 9.306217
v -49.999996 -40.693779 9.306217
v -50.000023 -40.693752 90.693787
v -49.999985 40.693802 90.693787
v -49.999992 40.693790 9.306217
v -40.693775 50.000008 9.306217
v -40.693768 50.000011 90.693787
v 40.693787 49.999996 90.693787
v 40.693802 49.999985 9.306217
v 49.999977 -40.693806 90.693787
v 49.999996 -40.693787 9.306217
v 50.000011 40.693768 9.306217
v 50.000000 40.693779 90.693787
v 40.693783 -40.693783 2.500000
v -40.693783 -40.693783 2.500000
v -40.693775 40.693787 2.500000
v 40.693798 40.693768 2.500000
v 40.693760 -40.693802 97.500000
v 40.693779 40.693783 97.500000
v -40.693771 40.693802 97.500000
v -40.693810 -40.693756 97.500000
v 40.693779 -47.499996 9.306217
v 40.693760 -47.500023 90.693787
v -40.693810 -47.499969 90.693787
v -40.693787 -47.500000 9.306217
v -47.499996 -40.693779 9.306217
v -50.000023 -40.693752 90.693787
v -47.499985 40.693802 90.693787
v -49.999992 40.693790 9.306217
v -40.693775 47.500004 9.306217
v -40.693768 47.500011 90.693787
v 40.693787 47.499996 90.693787
v 40.693802 47.499985 9.306217
v 47.499977 -40.693806 90.693787
v 49.999996 -40.693787 9.306217
v 47.500011 40.693768 9.306217
v 50.000000 40.693779 90.693787
v -50.000019 -40.693756 82.488625
v -49.999992 40.693790 17.935528
v -50.000019 -32.118912 90.693787
v -49.999992 33.024593 9.306217
v -49.999992 32.905701 9.306217
v -47.500019 -40.693756 82.488625
v -47.500023 -40.693752 90.693787
v -47.499992 33.024593 9.306217
v -47.499992 40.693790 9.306217
v -47.499992 40.693790 17.935528
v -47.500019 -32.118912 90.693787
v 49.999996 31.906519 90.693787
v 49.999992 -40.693790 16.786343
v 50.000000 40.693779 82.250847
v 50.000000 -30.799603 9.306217
v 50.000000 -30.673664 9.306217
v 47.499996 31.906519 90.693787
v 47.500000 40.693779 90.693787
v 47.500000 40.693779 82.250847
v 47.499996 -40.693787 9.306217
v 47.499992 -40.693790 16.786343
v 47.500000 -30.799603 9.306217
vt 0.334525 0.260739
vt 0.564064 0.260739
vt 0.564063 0.472948
vt 0.334525 0.472947
vt 0.793602 0.521477
vt 0.793602 0.733686
vt 0.564064 0.733686
vt 0.564064 0.521477
vt 0.564064 0.472948
vt 0.564064 0.685156
vt 0.334525 0.685156
vt 0.334525 0.472948
vt 1.000000 0.713690
vt 0.793602 0.713690
vt 1.000000 0.521477
vt 0.334525 0.685156
vt 0.564063 0.685156
vt 0.564063 0.897365
vt 0.334525 0.897365
vt 0.998358 0.713690
vt 0.998358 0.906395
vt 0.793602 0.713690
vt 0.564064 0.260739
vt 0.846095 0.260739
vt 0.819849 0.285004
vt 0.590310 0.285004
vt 0.846095 0.521477
vt 0.819849 0.497212
vt 0.564064 0.521477
vt 0.590310 0.497212
vt 0.564064 0.000000
vt 0.564064 0.260739
vt 0.537817 0.236474
vt 0.537817 0.024265
vt 0.282032 0.260739
vt 0.308278 0.236474
vt 0.282032 0.000000
vt 0.308278 0.024265
vt 0.282032 0.260739
vt 0.000000 0.260739
vt 0.026247 0.236474
vt 0.255785 0.236474
vt 0.000000 0.000000
vt 0.026246 0.024265
vt 0.282032 0.000000
vt 0.255785 0.024265
vt 0.564064 0.260739
vt 0.590310 0.236474
vt 0.819849 0.236474
vt 0.564064 0.000000
vt 0.590310 0.024265
vt 0.846095 0.000000
vt 0.819849 0.024265
vt 0.819849 0.044571
vt 0.282032 0.782216
vt 0.000000 0.782216
vt 0.026246 0.757951
vt 0.255785 0.757951
vt 0.000000 0.521477
vt 0.026247 0.545742
vt 0.282032 0.521477
vt 0.255785 0.545742
vt 0.282032 0.521477
vt 0.000000 0.521477
vt 0.026246 0.497212
vt 0.255785 0.497212
vt 0.000000 0.260739
vt 0.026246 0.285004
vt 0.026246 0.471086
vt 0.282032 0.260739
vt 0.255785 0.285004
vt 0.944807 0.480598
vt 0.944807 0.268389
vt 0.951858 0.268389
vt 0.951858 0.480598
vt 0.930705 0.268389
vt 0.930705 0.480598
vt 0.923654 0.480598
vt 0.923654 0.268389
vt 0.944807 0.268389
vt 0.944807 0.480598
vt 0.937756 0.480598
vt 0.937756 0.268389
vt 0.980061 0.480598
vt 0.980061 0.268389
vt 0.987112 0.268389
vt 0.987112 0.480598
vt 0.874299 0.480598
vt 0.874299 0.268389
vt 0.881349 0.268389
vt 0.881350 0.480598
vt 0.909553 0.268389
vt 0.909553 0.480598
vt 0.902502 0.480598
vt 0.902502 0.268389
vt 0.909553 0.268389
vt 0.916604 0.268389
vt 0.916604 0.480598
vt 0.881350 0.480598
vt 0.881350 0.268389
vt 0.888400 0.268389
vt 0.888400 0.480598
vt 0.930705 0.480598
vt 0.930705 0.268389
vt 0.937756 0.268389
vt 0.937756 0.480598
vt 0.292783 0.472948
vt 0.292783 0.685156
vt 0.285732 0.685156
vt 0.285733 0.472948
vt 0.895451 0.480598
vt 0.895451 0.268389
vt 0.902502 0.268389
vt 0.902502 0.480598
vt 0.965959 0.268389
vt 0.965959 0.480598
vt 0.958908 0.480598
vt 0.958908 0.268389
vt 0.916604 0.480598
vt 0.916604 0.268389
vt 0.923654 0.268389
vt 0.923654 0.289783
vt 0.923654 0.480598
vt 0.998300 0.000000
vt 0.998300 0.212209
vt 0.991249 0.212209
vt 0.991249 0.022358
vt 0.991249 0.000000
vt 0.867248 0.480598
vt 0.867248 0.268389
vt 0.874299 0.268389
vt 0.874299 0.290889
vt 0.874299 0.480598
vt 0.292783 0.685156
vt 0.292783 0.664850
vt 0.299834 0.685156
vt 0.895451 0.268389
vt 0.895451 0.480598
vt 0.888400 0.480598
vt 0.888400 0.268389
vt 0.994163 0.268389
vt 0.994163 0.480598
vt 0.987112 0.480598
vt 0.987112 0.268389
vt 0.853146 0.268389
vt 0.853146 0.480598
vt 0.846095 0.480598
vt 0.846095 0.268389
vt 0.965959 0.480598
vt 0.965959 0.268389
vt 0.973010 0.268389
vt 0.973010 0.480598
vt 0.980061 0.268389
vt 0.980061 0.480598
vt 0.973010 0.480598
vt 0.973010 0.461094
vt 0.973010 0.268389
vt 0.299834 0.260739
vt 0.299834 0.286865
vt 0.292783 0.286537
vt 0.292783 0.260739
vt 0.951858 0.480598
vt 0.951858 0.268389
vt 0.958908 0.268389
vt 0.958908 0.290403
vt 0.958908 0.480598
vt 0.285732 0.472948
vt 0.285732 0.260739
vt 0.292783 0.260739
vt 0.292783 0.450036
vt 0.292783 0.472948
vt 0.333295 0.575027
vt 0.333295 0.845869
vt 0.316872 0.860942
vt 0.299834 0.845075
vt 0.300785 0.576687
vt 0.318057 0.560835
vt 0.991249 0.000000
vt 0.991249 0.268389
vt 0.846095 0.134094
vt 0.299834 0.665160
vt 0.292783 0.472947
vt 0.299834 0.472947
vt 0.736269 0.733686
vt 0.736269 0.755080
vt 0.729218 0.755080
vt 0.729218 0.733686
vt 0.299834 0.877368
vt 0.299834 0.897365
vt 0.292783 0.897365
vt 0.292783 0.877368
vt 0.722167 0.756186
vt 0.722167 0.733686
vt 0.729218 0.733686
vt 0.729218 0.756186
vt 0.285732 0.707514
vt 0.285732 0.685156
vt 0.292783 0.685156
vt 0.292783 0.707514
vt 0.285732 0.897365
vt 0.292783 0.897365
vt 0.299834 0.685156
vt 0.292783 0.685156
vt 0.299834 0.472947
vt 0.292783 0.472947
vt 0.334525 0.276795
vt 0.334525 0.546922
vt 0.319741 0.560835
vt 0.299834 0.542757
vt 0.300158 0.276443
vt 0.316845 0.260739
vt 0.708066 0.733686
vt 0.708066 1.000000
vt 0.564064 0.869519
vt 0.722167 0.733686
vt 0.722167 0.756598
vt 0.715116 0.756598
vt 0.715116 0.733686
vt 0.860197 0.480598
vt 0.860197 0.458584
vt 0.867248 0.458584
vt 0.867248 0.480598
vt 0.860197 0.268389
vt 0.860197 0.287893
vt 0.853146 0.287893
vt 0.853146 0.268389
vt 0.715116 0.733686
vt 0.715116 0.759484
vt 0.708066 0.759484
vt 0.708066 0.733686
vt 0.860197 0.480598
vt 0.853146 0.480598
vt 0.860197 0.268389
vt 0.867248 0.268389
vn -0.0000 0.0000 -1.0000
vn -0.0000 0.0000 1.0000
vn -0.0000 -1.0000 0.0000
vn -1.0000 0.0000 -0.0000
vn 0.0000 1.0000 -0.0000
vn 1.0000 -0.0000 0.0000
vn 0.0000 0.7068 0.7074
vn 0.0000 -0.7045 -0.7097
vn 0.0000 -0.7134 0.7008
vn 0.0000 0.7142 -0.7000
usemtl Material
s off
f 33/1/1 34/2/1 35/3/1 36/4/1
f 37/5/2 38/6/2 39/7/2 40/8/2
f 41/9/3 42/10/3 43/11/3 44/12/3
f 45/13/4 62/14/4 64/15/4
f 49/16/5 50/17/5 51/18/5 52/19/5
f 53/20/6 77/21/6 73/22/6
f 1/23/1 2/24/1 10/25/1 9/26/1
f 2/24/1 3/27/1 11/28/1 10/25/1
f 3/27/1 4/29/1 12/30/1 11/28/1
f 4/29/1 1/23/1 9/26/1 12/30/1
f 5/31/2 8/32/2 14/33/2 13/34/2
f 8/32/2 7/35/2 15/36/2 14/33/2
f 7/35/2 6/37/2 16/38/2 15/36/2
f 6/37/2 5/31/2 13/34/2 16/38/2
f 1/39/3 5/40/3 18/41/3 17/42/3
f 5/40/3 6/43/3 19/44/3 18/41/3
f 6/43/3 2/45/3 20/46/3 19/44/3
f 2/45/3 1/39/3 17/42/3 20/46/3
f 2/24/4 6/47/4 22/48/4 21/49/4
f 6/47/4 7/50/4 23/51/4 22/48/4
f 7/50/4 3/52/4 24/53/4 23/51/4
f 3/52/4 2/24/4 21/49/4 61/54/4 24/53/4
f 3/55/5 7/56/5 26/57/5 25/58/5
f 7/56/5 8/59/5 27/60/5 26/57/5
f 8/59/5 4/61/5 28/62/5 27/60/5
f 4/61/5 3/55/5 25/58/5 28/62/5
f 5/63/6 1/64/6 30/65/6 29/66/6
f 1/64/6 4/67/6 31/68/6 72/69/6 30/65/6
f 4/67/6 8/70/6 32/71/6 31/68/6
f 8/70/6 5/63/6 29/66/6 32/71/6
f 9/72/5 10/73/5 34/74/5 33/75/5
f 10/76/6 11/77/6 35/78/6 34/79/6
f 11/80/3 12/81/3 36/82/3 35/83/3
f 12/84/4 9/85/4 33/86/4 36/87/4
f 13/88/4 14/89/4 38/90/4 37/91/4
f 14/92/3 15/93/3 39/94/3 38/95/3
f 15/93/6 16/96/6 40/97/6 39/98/6
f 16/99/5 13/100/5 37/101/5 40/102/5
f 17/103/4 18/104/4 42/105/4 41/106/4
f 18/107/1 19/108/1 43/109/1 42/110/1
f 19/111/6 20/112/6 44/113/6 43/114/6
f 20/115/2 17/116/2 41/117/2 44/118/2
f 21/119/5 22/120/5 63/121/5 62/122/5 45/123/5
f 22/124/1 23/125/1 47/126/1 67/127/1 63/128/1
f 23/129/3 24/130/3 65/131/3 66/132/3 47/133/3
f 24/134/2 61/135/2 65/136/2
f 25/137/6 26/138/6 50/139/6 49/140/6
f 26/141/1 27/142/1 51/143/1 50/144/1
f 27/145/4 28/146/4 52/147/4 51/148/4
f 28/149/2 25/150/2 49/151/2 52/152/2
f 29/153/5 30/154/5 76/155/5 77/156/5 53/157/5
f 30/158/2 72/159/2 78/160/2 76/161/2
f 31/162/3 32/163/3 74/164/3 75/165/3 55/166/3
f 32/167/1 29/168/1 53/169/1 73/170/1 74/171/1
f 60/172/4 57/173/4 46/174/4 59/175/4 58/176/4 48/177/4
f 66/178/4 67/179/4 47/180/4
f 65/136/2 61/135/2 64/181/2
f 64/181/2 61/135/2 21/182/2 45/183/2
f 46/184/3 57/185/3 62/186/3 63/187/3
f 60/188/1 48/189/1 65/190/1 64/191/1
f 48/192/5 58/193/5 66/194/5 65/195/5
f 59/196/2 46/197/2 63/198/2 67/199/2
f 58/200/7 59/196/7 67/199/7 66/201/7
f 57/202/8 60/188/8 64/191/8 62/203/8
f 78/160/2 72/159/2 31/204/2 55/205/2
f 68/206/6 69/207/6 54/208/6 71/209/6 70/210/6 56/211/6
f 75/212/6 78/213/6 55/214/6
f 68/215/2 56/216/2 74/217/2 73/218/2
f 56/219/5 70/220/5 75/221/5 74/222/5
f 54/223/3 69/224/3 77/225/3 76/226/3
f 71/227/1 54/228/1 76/229/1 78/230/1
f 69/224/9 68/231/9 73/232/9 77/225/9
f 70/220/10 71/233/10 78/234/10 75/221/10
