# Blender v2.79 (sub 0) OBJ File: ''
# www.blender.org
mtllib Tyler_Fence.mtl
o Plane
v 1.615157 -256.741791 0.000000
v 1.615157 -210.498291 0.000000
v 1.615189 -256.741791 200.000000
v 1.615189 -210.498291 200.000000
v 1.615211 -256.741791 382.853516
v 1.615211 -210.498291 382.853516
v 1.615218 -237.444946 445.275208
v 1.615218 -229.795120 445.275208
v -7.044401 -256.741791 0.000000
v -7.044401 -210.498291 0.000000
v -7.044368 -256.741791 200.000000
v -7.044368 -210.498291 200.000000
v -7.044346 -256.741791 382.853516
v -7.044346 -210.498291 382.853516
v -7.044339 -237.444946 445.275208
v -7.044339 -229.795120 445.275208
v 1.615157 -187.060196 0.000000
v 1.615157 -140.816681 0.000000
v 1.615189 -187.060196 200.000000
v 1.615189 -140.816681 200.000000
v 1.615211 -187.060196 382.853516
v 1.615211 -140.816681 382.853516
v 1.615218 -167.763351 445.275208
v 1.615218 -160.113525 445.275208
v -7.044401 -187.060196 0.000000
v -7.044401 -140.816681 0.000000
v -7.044368 -187.060196 200.000000
v -7.044368 -140.816681 200.000000
v -7.044346 -187.060196 382.853516
v -7.044346 -140.816681 382.853516
v -7.044339 -167.763351 445.275208
v -7.044339 -160.113525 445.275208
v 1.615157 -122.697876 0.000000
v 1.615157 -76.454369 0.000000
v 1.615189 -122.697876 200.000000
v 1.615189 -76.454369 200.000000
v 1.615211 -122.697876 382.853516
v 1.615211 -76.454369 382.853516
v 1.615218 -103.401039 445.275208
v 1.615218 -95.751221 445.275208
v -7.044401 -122.697876 0.000000
v -7.044401 -76.454369 0.000000
v -7.044368 -122.697876 200.000000
v -7.044368 -76.454369 200.000000
v -7.044346 -122.697876 382.853516
v -7.044346 -76.454369 382.853516
v -7.044339 -103.401039 445.275208
v -7.044339 -95.751221 445.275208
v 1.615157 -53.016281 0.000000
v 1.615157 -6.772780 0.000000
v 1.615189 -53.016281 200.000000
v 1.615189 -6.772780 200.000000
v 1.615211 -53.016281 382.853516
v 1.615211 -6.772780 382.853516
v 1.615218 -33.719444 445.275208
v 1.615218 -26.069618 445.275208
v -7.044401 -53.016281 0.000000
v -7.044401 -6.772780 0.000000
v -7.044368 -53.016281 200.000000
v -7.044368 -6.772780 200.000000
v -7.044346 -53.016281 382.853516
v -7.044346 -6.772780 382.853516
v -7.044339 -33.719444 445.275208
v -7.044339 -26.069618 445.275208
v 1.615157 10.441852 0.000000
v 1.615157 56.685352 0.000000
v 1.615189 10.441852 200.000000
v 1.615189 56.685352 200.000000
v 1.615211 10.441852 382.853516
v 1.615211 56.685352 382.853516
v 1.615218 29.738689 445.275208
v 1.615218 37.388515 445.275208
v -7.044401 10.441852 0.000000
v -7.044401 56.685352 0.000000
v -7.044368 10.441852 200.000000
v -7.044368 56.685352 200.000000
v -7.044346 10.441852 382.853516
v -7.044346 56.685352 382.853516
v -7.044339 29.738689 445.275208
v -7.044339 37.388515 445.275208
v 1.615157 80.123451 0.000000
v 1.615157 126.366951 0.000000
v 1.615189 80.123451 200.000000
v 1.615189 126.366951 200.000000
v 1.615211 80.123451 382.853516
v 1.615211 126.366951 382.853516
v 1.615218 99.420288 445.275208
v 1.615218 107.070114 445.275208
v -7.044401 80.123451 0.000000
v -7.044401 126.366951 0.000000
v -7.044368 80.123451 200.000000
v -7.044368 126.366951 200.000000
v -7.044346 80.123451 382.853516
v -7.044346 126.366951 382.853516
v -7.044339 99.420288 445.275208
v -7.044339 107.070114 445.275208
v 1.615157 144.485764 0.000000
v 1.615157 190.729263 0.000000
v 1.615189 144.485764 200.000000
v 1.615189 190.729263 200.000000
v 1.615211 144.485764 382.853516
v 1.615211 190.729263 382.853516
v 1.615218 163.782593 445.275208
v 1.615218 171.432419 445.275208
v -7.044401 144.485764 0.000000
v -7.044401 190.729263 0.000000
v -7.044368 144.485764 200.000000
v -7.044368 190.729263 200.000000
v -7.044346 144.485764 382.853516
v -7.044346 190.729263 382.853516
v -7.044339 163.782593 445.275208
v -7.044339 171.432419 445.275208
v 1.615157 214.167358 0.000000
v 1.615157 260.410858 0.000000
v 1.615189 214.167358 200.000000
v 1.615189 260.410858 200.000000
v 1.615211 214.167358 382.853516
v 1.615211 260.410858 382.853516
v 1.615218 233.464188 445.275208
v 1.615218 241.114014 445.275208
v -7.044401 214.167358 0.000000
v -7.044401 260.410858 0.000000
v -7.044368 214.167358 200.000000
v -7.044368 260.410858 200.000000
v -7.044346 214.167358 382.853516
v -7.044346 260.410858 382.853516
v -7.044339 233.464188 445.275208
v -7.044339 241.114014 445.275208
v -7.228623 62.096859 285.385620
v -7.210545 61.370895 323.863800
v -5.526838 262.054047 289.157379
v -5.508759 261.328064 327.635559
v -7.228623 -255.744263 285.385620
v -7.210545 -256.470245 323.863800
v -12.841060 62.096859 285.385620
v -12.822982 61.370895 323.863800
v -11.139276 262.054047 289.157379
v -11.121197 261.328064 327.635559
v -12.841060 -255.744263 285.385620
v -12.822982 -256.470245 323.863800
v -7.228645 62.096859 100.857864
v -7.210567 61.370895 139.336044
v -5.526860 262.054047 104.629639
v -5.508781 261.328064 143.107803
v -7.228645 -255.744263 100.857864
v -7.210567 -256.470245 139.336044
v -12.841084 62.096859 100.857864
v -12.823005 61.370895 139.336060
v -11.139297 262.054047 104.629639
v -11.121220 261.328064 143.107803
v -12.841084 -255.744263 100.857864
v -12.823005 -256.470245 139.336060
vt 0.281135 0.500000
vt 0.281135 0.275420
vt 0.331983 0.275420
vt 0.331983 0.500000
vt 0.281135 0.070093
vt 0.331983 0.070093
vt 0.302353 0.000000
vt 0.310764 0.000000
vt 0.891307 0.000000
vt 0.942155 0.000000
vt 0.942155 0.224580
vt 0.891307 0.224580
vt 0.942155 0.429906
vt 0.891307 0.429907
vt 0.920937 0.500000
vt 0.912526 0.500000
vt 0.249331 0.999843
vt 0.249331 0.776241
vt 0.258852 0.776241
vt 0.258852 0.999843
vt 0.239809 0.723663
vt 0.239809 0.500000
vt 0.249331 0.500000
vt 0.249331 0.723663
vt 0.239809 0.999914
vt 0.239809 0.928150
vt 0.249331 0.928150
vt 0.249331 0.999914
vt 0.485244 0.500000
vt 0.493655 0.500000
vt 0.493655 0.509724
vt 0.485244 0.509724
vt 0.249331 0.571808
vt 0.258852 0.571808
vt 0.335027 0.500000
vt 0.335027 0.551927
vt 0.325505 0.551927
vt 0.325505 0.500000
vt 0.249331 0.500000
vt 0.258852 0.500000
vt 0.484526 0.500000
vt 0.484526 0.275420
vt 0.535374 0.275420
vt 0.535374 0.500000
vt 0.484526 0.070093
vt 0.535374 0.070093
vt 0.505744 0.000000
vt 0.514156 0.000000
vt 0.179439 0.500000
vt 0.230287 0.500000
vt 0.230287 0.724580
vt 0.179439 0.724580
vt 0.230287 0.929907
vt 0.179439 0.929907
vt 0.209069 1.000000
vt 0.200657 1.000000
vt 0.268374 0.999843
vt 0.268374 0.776241
vt 0.277896 0.776241
vt 0.277896 0.999843
vt 0.951677 0.223663
vt 0.951677 0.000000
vt 0.961199 0.000000
vt 0.961199 0.223663
vt 0.951677 0.499914
vt 0.951677 0.428150
vt 0.961199 0.428150
vt 0.961199 0.499914
vt 0.451598 0.500000
vt 0.460009 0.500000
vt 0.460009 0.509724
vt 0.451598 0.509724
vt 0.268374 0.571808
vt 0.277896 0.571808
vt 0.373113 0.551927
vt 0.373114 0.500000
vt 0.382635 0.500000
vt 0.382635 0.551927
vt 0.268374 0.500000
vt 0.277896 0.500000
vt 0.433678 0.500000
vt 0.433678 0.275420
vt 0.484526 0.275420
vt 0.484526 0.500000
vt 0.433678 0.070093
vt 0.484526 0.070093
vt 0.454896 0.000000
vt 0.463308 0.000000
vt 0.738764 0.000000
vt 0.789612 0.000000
vt 0.789612 0.224580
vt 0.738764 0.224580
vt 0.789612 0.429906
vt 0.738764 0.429907
vt 0.768394 0.500000
vt 0.759983 0.500000
vt 0.277896 0.999843
vt 0.277896 0.776241
vt 0.287418 0.776241
vt 0.287418 0.999843
vt 0.942155 0.723577
vt 0.942155 0.499914
vt 0.951677 0.499914
vt 0.951677 0.723577
vt 0.942155 0.999828
vt 0.942155 0.928064
vt 0.951677 0.928064
vt 0.951677 0.999828
vt 0.476832 0.509724
vt 0.468421 0.509724
vt 0.468421 0.500000
vt 0.476832 0.500000
vt 0.277896 0.571808
vt 0.287418 0.571808
vt 0.335027 0.551927
vt 0.335027 0.500000
vt 0.344548 0.500000
vt 0.344548 0.551927
vt 0.277896 0.500000
vt 0.287418 0.500000
vt 0.230287 0.500000
vt 0.230287 0.275420
vt 0.281135 0.275420
vt 0.281135 0.500000
vt 0.230287 0.070093
vt 0.281135 0.070093
vt 0.251505 0.000000
vt 0.259917 0.000000
vt 0.840460 0.000000
vt 0.891307 0.000000
vt 0.891307 0.224580
vt 0.840460 0.224580
vt 0.891307 0.429907
vt 0.840460 0.429907
vt 0.870089 0.500000
vt 0.861678 0.500000
vt 0.287418 0.999843
vt 0.287418 0.776241
vt 0.296939 0.776241
vt 0.296940 0.999843
vt 0.951677 0.723577
vt 0.951677 0.499914
vt 0.961199 0.499914
vt 0.961199 0.723577
vt 0.951677 0.999828
vt 0.951677 0.928064
vt 0.961199 0.928064
vt 0.961199 0.999828
vt 0.434775 0.500000
vt 0.443187 0.500000
vt 0.443187 0.509724
vt 0.434775 0.509724
vt 0.287418 0.571808
vt 0.296939 0.571808
vt 0.392157 0.551927
vt 0.392157 0.500000
vt 0.401679 0.500000
vt 0.401679 0.551927
vt 0.287418 0.500000
vt 0.296939 0.500000
vt 0.433678 0.000000
vt 0.433678 0.224580
vt 0.382830 0.224580
vt 0.382831 0.000000
vt 0.433678 0.429907
vt 0.382830 0.429907
vt 0.412460 0.500000
vt 0.404049 0.500000
vt 0.789612 0.000000
vt 0.840460 0.000000
vt 0.840460 0.224580
vt 0.789612 0.224580
vt 0.840460 0.429906
vt 0.789612 0.429906
vt 0.819242 0.500000
vt 0.810830 0.500000
vt 0.296940 0.999843
vt 0.296940 0.776241
vt 0.306461 0.776241
vt 0.306461 0.999843
vt 0.961199 0.223663
vt 0.961199 0.000000
vt 0.970721 0.000000
vt 0.970721 0.223663
vt 0.961199 0.499914
vt 0.961199 0.428150
vt 0.970721 0.428150
vt 0.970721 0.499914
vt 0.485244 0.509724
vt 0.476832 0.509724
vt 0.476832 0.500000
vt 0.485244 0.500000
vt 0.296940 0.571808
vt 0.306461 0.571808
vt 0.344548 0.551927
vt 0.344548 0.500000
vt 0.354070 0.500000
vt 0.354070 0.551927
vt 0.296939 0.500000
vt 0.306461 0.500000
vt 0.179439 0.500000
vt 0.179439 0.275420
vt 0.230287 0.275420
vt 0.230287 0.500000
vt 0.179439 0.070093
vt 0.230287 0.070093
vt 0.200657 0.000000
vt 0.209069 0.000000
vt 0.738764 0.500000
vt 0.687917 0.500000
vt 0.687917 0.275420
vt 0.738764 0.275420
vt 0.687917 0.070093
vt 0.738764 0.070093
vt 0.709135 0.000000
vt 0.717546 0.000000
vt 0.306461 0.999843
vt 0.306461 0.776241
vt 0.315983 0.776241
vt 0.315983 0.999843
vt 0.961199 0.723577
vt 0.961199 0.499914
vt 0.970720 0.499914
vt 0.970720 0.723577
vt 0.961199 0.999828
vt 0.961199 0.928064
vt 0.970721 0.928064
vt 0.970721 0.999828
vt 0.460009 0.500000
vt 0.468421 0.500000
vt 0.468421 0.509724
vt 0.460009 0.509724
vt 0.306461 0.571808
vt 0.315983 0.571808
vt 0.382635 0.551927
vt 0.382635 0.500000
vt 0.392157 0.500000
vt 0.392157 0.551927
vt 0.306461 0.500000
vt 0.315983 0.500000
vt 0.382830 0.000000
vt 0.382830 0.224580
vt 0.331983 0.224580
vt 0.331983 0.000000
vt 0.382830 0.429907
vt 0.331983 0.429907
vt 0.361612 0.500000
vt 0.353201 0.500000
vt 0.637069 0.000000
vt 0.687917 0.000000
vt 0.687917 0.224580
vt 0.637069 0.224580
vt 0.687917 0.429906
vt 0.637069 0.429907
vt 0.666699 0.500000
vt 0.658287 0.500000
vt 0.325505 0.500000
vt 0.325505 0.723603
vt 0.315983 0.723603
vt 0.315983 0.500000
vt 0.942155 0.223663
vt 0.942155 0.000000
vt 0.951677 0.000000
vt 0.951677 0.223663
vt 0.942155 0.499914
vt 0.942155 0.428150
vt 0.951677 0.428150
vt 0.951677 0.499914
vt 0.443187 0.500000
vt 0.451598 0.500000
vt 0.451598 0.509724
vt 0.443187 0.509724
vt 0.325505 0.928035
vt 0.315983 0.928035
vt 0.363592 0.551927
vt 0.363592 0.500000
vt 0.373114 0.500000
vt 0.373114 0.551927
vt 0.325505 0.999843
vt 0.315983 0.999843
vt 0.535374 0.500000
vt 0.535374 0.275420
vt 0.586221 0.275420
vt 0.586221 0.500000
vt 0.535374 0.070093
vt 0.586221 0.070093
vt 0.556592 0.000000
vt 0.565003 0.000000
vt 0.637069 0.500000
vt 0.586221 0.500000
vt 0.586221 0.275420
vt 0.637069 0.275420
vt 0.586221 0.070093
vt 0.637069 0.070093
vt 0.607440 0.000000
vt 0.615851 0.000000
vt 0.258852 0.999843
vt 0.258852 0.776241
vt 0.268374 0.776241
vt 0.268374 0.999843
vt 0.239809 0.776251
vt 0.239809 0.999914
vt 0.230287 0.999914
vt 0.230287 0.776251
vt 0.239809 0.500000
vt 0.239809 0.571764
vt 0.230287 0.571764
vt 0.230287 0.500000
vt 0.426364 0.500000
vt 0.434775 0.500000
vt 0.434775 0.509724
vt 0.426364 0.509724
vt 0.258852 0.571808
vt 0.268374 0.571808
vt 0.354070 0.551927
vt 0.354070 0.500000
vt 0.363592 0.500000
vt 0.363592 0.551927
vt 0.258852 0.500000
vt 0.268374 0.500000
vt 0.089720 0.224558
vt 0.092266 0.000000
vt 0.134579 0.000500
vt 0.132034 0.225058
vt 0.134579 0.581953
vt 0.092266 0.581453
vt 0.044860 0.357395
vt 0.087174 0.356895
vt 0.089720 0.581453
vt 0.047406 0.581953
vt 0.047406 0.000500
vt 0.089720 0.000000
vt 0.984212 0.224549
vt 0.985360 0.581450
vt 0.979189 0.581471
vt 0.978041 0.224570
vt 0.414021 0.542960
vt 0.414021 0.500003
vt 0.420192 0.500000
vt 0.420192 0.542957
vt 0.978041 0.000021
vt 0.976892 0.356921
vt 0.970721 0.356901
vt 0.971869 0.000000
vt 0.407850 0.500003
vt 0.407850 0.543098
vt 0.401679 0.543095
vt 0.401679 0.500000
vt 0.978040 0.581471
vt 0.971869 0.581450
vt 0.985360 0.000000
vt 0.979189 0.000021
vt 0.134579 0.224558
vt 0.137125 0.000000
vt 0.179439 0.000500
vt 0.176893 0.225058
vt 0.179439 0.581953
vt 0.137125 0.581453
vt 0.000000 0.357395
vt 0.042314 0.356895
vt 0.044860 0.581453
vt 0.002546 0.581953
vt 0.002546 0.000500
vt 0.044860 0.000000
vt 0.998851 0.224549
vt 1.000000 0.581450
vt 0.993829 0.581471
vt 0.992680 0.224570
vt 0.420192 0.542960
vt 0.420192 0.500003
vt 0.426364 0.500000
vt 0.426364 0.542957
vt 0.992680 0.000021
vt 0.991532 0.356921
vt 0.985360 0.356901
vt 0.986509 0.000000
vt 0.407850 0.543095
vt 0.407850 0.500000
vt 0.414021 0.500003
vt 0.414021 0.543098
vt 0.992680 0.581471
vt 0.986509 0.581450
vt 1.000000 0.000000
vt 0.993829 0.000021
vn -1.0000 0.0000 0.0000
vn 1.0000 0.0000 -0.0000
vn 0.0000 -1.0000 0.0000
vn 0.0000 1.0000 0.0000
vn 0.0000 0.9554 -0.2953
vn 0.0000 0.0000 -1.0000
vn 0.0000 0.0000 1.0000
vn 0.0000 -0.9554 -0.2953
vn 1.0000 -0.0043 -0.0006
vn 1.0000 -0.0085 -0.0006
vn 1.0000 -0.0042 -0.0005
vn 1.0000 0.0000 -0.0005
vn -1.0000 0.0043 0.0006
vn -1.0000 0.0042 0.0005
vn -1.0000 0.0085 0.0006
vn -1.0000 0.0000 0.0005
vn 0.0000 0.9998 0.0189
vn 0.0000 -0.9998 -0.0189
vn 0.0000 -0.0189 0.9998
vn 0.0000 0.0189 -0.9998
usemtl None
s 1
f 1/1/1 3/2/1 4/3/1 2/4/1
f 3/2/1 5/5/1 6/6/1 4/3/1
f 5/5/1 7/7/1 8/8/1 6/6/1
f 9/9/2 10/10/2 12/11/2 11/12/2
f 11/12/2 12/11/2 14/13/2 13/14/2
f 13/14/2 14/13/2 16/15/2 15/16/2
f 2/17/3 4/18/3 12/19/3 10/20/3
f 3/21/4 1/22/4 9/23/4 11/24/4
f 7/25/5 5/26/5 13/27/5 15/28/5
f 8/29/6 7/30/6 15/31/6 16/32/6
f 4/18/3 6/33/3 14/34/3 12/19/3
f 1/35/7 2/36/7 10/37/7 9/38/7
f 6/33/8 8/39/8 16/40/8 14/34/8
f 5/26/4 3/21/4 11/24/4 13/27/4
f 17/41/1 19/42/1 20/43/1 18/44/1
f 19/42/1 21/45/1 22/46/1 20/43/1
f 21/45/1 23/47/1 24/48/1 22/46/1
f 25/49/2 26/50/2 28/51/2 27/52/2
f 27/52/2 28/51/2 30/53/2 29/54/2
f 29/54/2 30/53/2 32/55/2 31/56/2
f 18/57/3 20/58/3 28/59/3 26/60/3
f 19/61/4 17/62/4 25/63/4 27/64/4
f 23/65/5 21/66/5 29/67/5 31/68/5
f 24/69/6 23/70/6 31/71/6 32/72/6
f 20/58/3 22/73/3 30/74/3 28/59/3
f 17/75/7 18/76/7 26/77/7 25/78/7
f 22/73/8 24/79/8 32/80/8 30/74/8
f 21/66/4 19/61/4 27/64/4 29/67/4
f 33/81/1 35/82/1 36/83/1 34/84/1
f 35/82/1 37/85/1 38/86/1 36/83/1
f 37/85/1 39/87/1 40/88/1 38/86/1
f 41/89/2 42/90/2 44/91/2 43/92/2
f 43/92/2 44/91/2 46/93/2 45/94/2
f 45/94/2 46/93/2 48/95/2 47/96/2
f 34/97/3 36/98/3 44/99/3 42/100/3
f 35/101/4 33/102/4 41/103/4 43/104/4
f 39/105/5 37/106/5 45/107/5 47/108/5
f 40/109/6 39/110/6 47/111/6 48/112/6
f 36/98/3 38/113/3 46/114/3 44/99/3
f 33/115/7 34/116/7 42/117/7 41/118/7
f 38/113/8 40/119/8 48/120/8 46/114/8
f 37/106/4 35/101/4 43/104/4 45/107/4
f 49/121/1 51/122/1 52/123/1 50/124/1
f 51/122/1 53/125/1 54/126/1 52/123/1
f 53/125/1 55/127/1 56/128/1 54/126/1
f 57/129/2 58/130/2 60/131/2 59/132/2
f 59/132/2 60/131/2 62/133/2 61/134/2
f 61/134/2 62/133/2 64/135/2 63/136/2
f 50/137/3 52/138/3 60/139/3 58/140/3
f 51/141/4 49/142/4 57/143/4 59/144/4
f 55/145/5 53/146/5 61/147/5 63/148/5
f 56/149/6 55/150/6 63/151/6 64/152/6
f 52/138/3 54/153/3 62/154/3 60/139/3
f 49/155/7 50/156/7 58/157/7 57/158/7
f 54/153/8 56/159/8 64/160/8 62/154/8
f 53/146/4 51/141/4 59/144/4 61/147/4
f 65/161/1 67/162/1 68/163/1 66/164/1
f 67/162/1 69/165/1 70/166/1 68/163/1
f 69/165/1 71/167/1 72/168/1 70/166/1
f 73/169/2 74/170/2 76/171/2 75/172/2
f 75/172/2 76/171/2 78/173/2 77/174/2
f 77/174/2 78/173/2 80/175/2 79/176/2
f 66/177/3 68/178/3 76/179/3 74/180/3
f 67/181/4 65/182/4 73/183/4 75/184/4
f 71/185/5 69/186/5 77/187/5 79/188/5
f 72/189/6 71/190/6 79/191/6 80/192/6
f 68/178/3 70/193/3 78/194/3 76/179/3
f 65/195/7 66/196/7 74/197/7 73/198/7
f 70/193/8 72/199/8 80/200/8 78/194/8
f 69/186/4 67/181/4 75/184/4 77/187/4
f 81/201/1 83/202/1 84/203/1 82/204/1
f 83/202/1 85/205/1 86/206/1 84/203/1
f 85/205/1 87/207/1 88/208/1 86/206/1
f 89/209/2 90/210/2 92/211/2 91/212/2
f 91/212/2 92/211/2 94/213/2 93/214/2
f 93/214/2 94/213/2 96/215/2 95/216/2
f 82/217/3 84/218/3 92/219/3 90/220/3
f 83/221/4 81/222/4 89/223/4 91/224/4
f 87/225/5 85/226/5 93/227/5 95/228/5
f 88/229/6 87/230/6 95/231/6 96/232/6
f 84/218/3 86/233/3 94/234/3 92/219/3
f 81/235/7 82/236/7 90/237/7 89/238/7
f 86/233/8 88/239/8 96/240/8 94/234/8
f 85/226/4 83/221/4 91/224/4 93/227/4
f 97/241/1 99/242/1 100/243/1 98/244/1
f 99/242/1 101/245/1 102/246/1 100/243/1
f 101/245/1 103/247/1 104/248/1 102/246/1
f 105/249/2 106/250/2 108/251/2 107/252/2
f 107/252/2 108/251/2 110/253/2 109/254/2
f 109/254/2 110/253/2 112/255/2 111/256/2
f 98/257/3 100/258/3 108/259/3 106/260/3
f 99/261/4 97/262/4 105/263/4 107/264/4
f 103/265/5 101/266/5 109/267/5 111/268/5
f 104/269/6 103/270/6 111/271/6 112/272/6
f 100/258/3 102/273/3 110/274/3 108/259/3
f 97/275/7 98/276/7 106/277/7 105/278/7
f 102/273/8 104/279/8 112/280/8 110/274/8
f 101/266/4 99/261/4 107/264/4 109/267/4
f 113/281/1 115/282/1 116/283/1 114/284/1
f 115/282/1 117/285/1 118/286/1 116/283/1
f 117/285/1 119/287/1 120/288/1 118/286/1
f 121/289/2 122/290/2 124/291/2 123/292/2
f 123/292/2 124/291/2 126/293/2 125/294/2
f 125/294/2 126/293/2 128/295/2 127/296/2
f 114/297/3 116/298/3 124/299/3 122/300/3
f 115/301/4 113/302/4 121/303/4 123/304/4
f 119/305/5 117/306/5 125/307/5 127/308/5
f 120/309/6 119/310/6 127/311/6 128/312/6
f 116/298/3 118/313/3 126/314/3 124/299/3
f 113/315/7 114/316/7 122/317/7 121/318/7
f 118/313/8 120/319/8 128/320/8 126/314/8
f 117/306/4 115/301/4 123/304/4 125/307/4
f 129/321/9 131/322/10 132/323/10 130/324/11
f 130/324/11 134/325/12 133/326/12 129/321/9
f 135/327/13 136/328/14 138/329/15 137/330/15
f 136/328/14 135/327/13 139/331/16 140/332/16
f 129/333/6 133/334/6 139/335/6 135/336/6
f 132/337/17 131/338/17 137/339/17 138/340/17
f 134/341/7 130/342/7 136/343/7 140/344/7
f 133/345/18 134/346/18 140/347/18 139/348/18
f 130/342/19 132/349/19 138/350/19 136/343/19
f 131/351/20 129/333/20 135/336/20 137/352/20
f 141/353/9 143/354/10 144/355/10 142/356/11
f 142/356/11 146/357/12 145/358/12 141/353/9
f 147/359/13 148/360/14 150/361/15 149/362/15
f 148/360/14 147/359/13 151/363/16 152/364/16
f 141/365/6 145/366/6 151/367/6 147/368/6
f 144/369/17 143/370/17 149/371/17 150/372/17
f 146/373/7 142/374/7 148/375/7 152/376/7
f 145/377/18 146/378/18 152/379/18 151/380/18
f 142/374/19 144/381/19 150/382/19 148/375/19
f 143/383/20 141/365/20 147/368/20 149/384/20
